<?xml version="1.0" encoding="utf-8" standalone="no"?>
<!DOCTYPE svg PUBLIC "-//W3C//DTD SVG 1.1//EN"
  "http://www.w3.org/Graphics/SVG/1.1/DTD/svg11.dtd">
<svg xmlns:xlink="http://www.w3.org/1999/xlink" width="272.386135pt" height="150.194229pt" viewBox="0 0 272.386135 150.194229" xmlns="http://www.w3.org/2000/svg" version="1.1">
 <metadata>
  <rdf:RDF xmlns:dc="http://purl.org/dc/elements/1.1/" xmlns:cc="http://creativecommons.org/ns#" xmlns:rdf="http://www.w3.org/1999/02/22-rdf-syntax-ns#">
   <cc:Work>
    <dc:type rdf:resource="http://purl.org/dc/dcmitype/StillImage"/>
    <dc:date>2025-02-27T13:18:36.493427</dc:date>
    <dc:format>image/svg+xml</dc:format>
    <dc:creator>
     <cc:Agent>
      <dc:title>Matplotlib v3.10.0, https://matplotlib.org/</dc:title>
     </cc:Agent>
    </dc:creator>
   </cc:Work>
  </rdf:RDF>
 </metadata>
 <defs>
  <style type="text/css">*{stroke-linejoin: round; stroke-linecap: butt}</style>
 </defs>
 <g id="figure_1">
  <g id="patch_1">
   <path d="M 0 150.194229 
L 272.386135 150.194229 
L 272.386135 0 
L 0 0 
z
" style="fill: #ffffff; stroke: #000000; stroke-width: 0.5; stroke-linejoin: miter"/>
  </g>
  <g id="axes_1">
   <g id="patch_2">
    <path d="M 32.54 122.912666 
L 259.459885 122.912666 
L 259.459885 9.479531 
L 32.54 9.479531 
z
" style="fill: #ffffff"/>
   </g>
   <g id="matplotlib.axis_1">
    <g id="xtick_1">
     <g id="line2d_1">
      <defs>
       <path id="m5d20d54151" d="M 0 0 
L 0 3.5 
" style="stroke: #000000; stroke-width: 0.8"/>
      </defs>
      <g>
       <use xlink:href="#m5d20d54151" x="32.54" y="122.912666" style="stroke: #000000; stroke-width: 0.8"/>
      </g>
     </g>
     <g id="text_1">
      <!-- 0 -->
      <g transform="translate(30.63125 132.971729) scale(0.06 -0.06)">
       <defs>
        <path id="DejaVuSans-30" d="M 2034 4250 
Q 1547 4250 1301 3770 
Q 1056 3291 1056 2328 
Q 1056 1369 1301 889 
Q 1547 409 2034 409 
Q 2525 409 2770 889 
Q 3016 1369 3016 2328 
Q 3016 3291 2770 3770 
Q 2525 4250 2034 4250 
z
M 2034 4750 
Q 2819 4750 3233 4129 
Q 3647 3509 3647 2328 
Q 3647 1150 3233 529 
Q 2819 -91 2034 -91 
Q 1250 -91 836 529 
Q 422 1150 422 2328 
Q 422 3509 836 4129 
Q 1250 4750 2034 4750 
z
" transform="scale(0.015625)"/>
       </defs>
       <use xlink:href="#DejaVuSans-30"/>
      </g>
     </g>
    </g>
    <g id="xtick_2">
     <g id="line2d_2">
      <g>
       <use xlink:href="#m5d20d54151" x="77.923977" y="122.912666" style="stroke: #000000; stroke-width: 0.8"/>
      </g>
     </g>
     <g id="text_2">
      <!-- 60 -->
      <g transform="translate(74.106477 132.971729) scale(0.06 -0.06)">
       <defs>
        <path id="DejaVuSans-36" d="M 2113 2584 
Q 1688 2584 1439 2293 
Q 1191 2003 1191 1497 
Q 1191 994 1439 701 
Q 1688 409 2113 409 
Q 2538 409 2786 701 
Q 3034 994 3034 1497 
Q 3034 2003 2786 2293 
Q 2538 2584 2113 2584 
z
M 3366 4563 
L 3366 3988 
Q 3128 4100 2886 4159 
Q 2644 4219 2406 4219 
Q 1781 4219 1451 3797 
Q 1122 3375 1075 2522 
Q 1259 2794 1537 2939 
Q 1816 3084 2150 3084 
Q 2853 3084 3261 2657 
Q 3669 2231 3669 1497 
Q 3669 778 3244 343 
Q 2819 -91 2113 -91 
Q 1303 -91 875 529 
Q 447 1150 447 2328 
Q 447 3434 972 4092 
Q 1497 4750 2381 4750 
Q 2619 4750 2861 4703 
Q 3103 4656 3366 4563 
z
" transform="scale(0.015625)"/>
       </defs>
       <use xlink:href="#DejaVuSans-36"/>
       <use xlink:href="#DejaVuSans-30" transform="translate(63.623047 0)"/>
      </g>
     </g>
    </g>
    <g id="xtick_3">
     <g id="line2d_3">
      <g>
       <use xlink:href="#m5d20d54151" x="123.307954" y="122.912666" style="stroke: #000000; stroke-width: 0.8"/>
      </g>
     </g>
     <g id="text_3">
      <!-- 120 -->
      <g transform="translate(117.581704 132.971729) scale(0.06 -0.06)">
       <defs>
        <path id="DejaVuSans-31" d="M 794 531 
L 1825 531 
L 1825 4091 
L 703 3866 
L 703 4441 
L 1819 4666 
L 2450 4666 
L 2450 531 
L 3481 531 
L 3481 0 
L 794 0 
L 794 531 
z
" transform="scale(0.015625)"/>
        <path id="DejaVuSans-32" d="M 1228 531 
L 3431 531 
L 3431 0 
L 469 0 
L 469 531 
Q 828 903 1448 1529 
Q 2069 2156 2228 2338 
Q 2531 2678 2651 2914 
Q 2772 3150 2772 3378 
Q 2772 3750 2511 3984 
Q 2250 4219 1831 4219 
Q 1534 4219 1204 4116 
Q 875 4013 500 3803 
L 500 4441 
Q 881 4594 1212 4672 
Q 1544 4750 1819 4750 
Q 2544 4750 2975 4387 
Q 3406 4025 3406 3419 
Q 3406 3131 3298 2873 
Q 3191 2616 2906 2266 
Q 2828 2175 2409 1742 
Q 1991 1309 1228 531 
z
" transform="scale(0.015625)"/>
       </defs>
       <use xlink:href="#DejaVuSans-31"/>
       <use xlink:href="#DejaVuSans-32" transform="translate(63.623047 0)"/>
       <use xlink:href="#DejaVuSans-30" transform="translate(127.246094 0)"/>
      </g>
     </g>
    </g>
    <g id="xtick_4">
     <g id="line2d_4">
      <g>
       <use xlink:href="#m5d20d54151" x="168.691931" y="122.912666" style="stroke: #000000; stroke-width: 0.8"/>
      </g>
     </g>
     <g id="text_4">
      <!-- 180 -->
      <g transform="translate(162.965681 132.971729) scale(0.06 -0.06)">
       <defs>
        <path id="DejaVuSans-38" d="M 2034 2216 
Q 1584 2216 1326 1975 
Q 1069 1734 1069 1313 
Q 1069 891 1326 650 
Q 1584 409 2034 409 
Q 2484 409 2743 651 
Q 3003 894 3003 1313 
Q 3003 1734 2745 1975 
Q 2488 2216 2034 2216 
z
M 1403 2484 
Q 997 2584 770 2862 
Q 544 3141 544 3541 
Q 544 4100 942 4425 
Q 1341 4750 2034 4750 
Q 2731 4750 3128 4425 
Q 3525 4100 3525 3541 
Q 3525 3141 3298 2862 
Q 3072 2584 2669 2484 
Q 3125 2378 3379 2068 
Q 3634 1759 3634 1313 
Q 3634 634 3220 271 
Q 2806 -91 2034 -91 
Q 1263 -91 848 271 
Q 434 634 434 1313 
Q 434 1759 690 2068 
Q 947 2378 1403 2484 
z
M 1172 3481 
Q 1172 3119 1398 2916 
Q 1625 2713 2034 2713 
Q 2441 2713 2670 2916 
Q 2900 3119 2900 3481 
Q 2900 3844 2670 4047 
Q 2441 4250 2034 4250 
Q 1625 4250 1398 4047 
Q 1172 3844 1172 3481 
z
" transform="scale(0.015625)"/>
       </defs>
       <use xlink:href="#DejaVuSans-31"/>
       <use xlink:href="#DejaVuSans-38" transform="translate(63.623047 0)"/>
       <use xlink:href="#DejaVuSans-30" transform="translate(127.246094 0)"/>
      </g>
     </g>
    </g>
    <g id="xtick_5">
     <g id="line2d_5">
      <g>
       <use xlink:href="#m5d20d54151" x="214.075908" y="122.912666" style="stroke: #000000; stroke-width: 0.8"/>
      </g>
     </g>
     <g id="text_5">
      <!-- 240 -->
      <g transform="translate(208.349658 132.971729) scale(0.06 -0.06)">
       <defs>
        <path id="DejaVuSans-34" d="M 2419 4116 
L 825 1625 
L 2419 1625 
L 2419 4116 
z
M 2253 4666 
L 3047 4666 
L 3047 1625 
L 3713 1625 
L 3713 1100 
L 3047 1100 
L 3047 0 
L 2419 0 
L 2419 1100 
L 313 1100 
L 313 1709 
L 2253 4666 
z
" transform="scale(0.015625)"/>
       </defs>
       <use xlink:href="#DejaVuSans-32"/>
       <use xlink:href="#DejaVuSans-34" transform="translate(63.623047 0)"/>
       <use xlink:href="#DejaVuSans-30" transform="translate(127.246094 0)"/>
      </g>
     </g>
    </g>
    <g id="xtick_6">
     <g id="line2d_6">
      <g>
       <use xlink:href="#m5d20d54151" x="259.459885" y="122.912666" style="stroke: #000000; stroke-width: 0.8"/>
      </g>
     </g>
     <g id="text_6">
      <!-- 300 -->
      <g transform="translate(253.733635 132.971729) scale(0.06 -0.06)">
       <defs>
        <path id="DejaVuSans-33" d="M 2597 2516 
Q 3050 2419 3304 2112 
Q 3559 1806 3559 1356 
Q 3559 666 3084 287 
Q 2609 -91 1734 -91 
Q 1441 -91 1130 -33 
Q 819 25 488 141 
L 488 750 
Q 750 597 1062 519 
Q 1375 441 1716 441 
Q 2309 441 2620 675 
Q 2931 909 2931 1356 
Q 2931 1769 2642 2001 
Q 2353 2234 1838 2234 
L 1294 2234 
L 1294 2753 
L 1863 2753 
Q 2328 2753 2575 2939 
Q 2822 3125 2822 3475 
Q 2822 3834 2567 4026 
Q 2313 4219 1838 4219 
Q 1578 4219 1281 4162 
Q 984 4106 628 3988 
L 628 4550 
Q 988 4650 1302 4700 
Q 1616 4750 1894 4750 
Q 2613 4750 3031 4423 
Q 3450 4097 3450 3541 
Q 3450 3153 3228 2886 
Q 3006 2619 2597 2516 
z
" transform="scale(0.015625)"/>
       </defs>
       <use xlink:href="#DejaVuSans-33"/>
       <use xlink:href="#DejaVuSans-30" transform="translate(63.623047 0)"/>
       <use xlink:href="#DejaVuSans-30" transform="translate(127.246094 0)"/>
      </g>
     </g>
    </g>
    <g id="text_7">
     <!-- Time (h) -->
     <g transform="translate(131.374864 141.538447) scale(0.07 -0.07)">
      <defs>
       <path id="DejaVuSans-54" d="M -19 4666 
L 3928 4666 
L 3928 4134 
L 2272 4134 
L 2272 0 
L 1638 0 
L 1638 4134 
L -19 4134 
L -19 4666 
z
" transform="scale(0.015625)"/>
       <path id="DejaVuSans-69" d="M 603 3500 
L 1178 3500 
L 1178 0 
L 603 0 
L 603 3500 
z
M 603 4863 
L 1178 4863 
L 1178 4134 
L 603 4134 
L 603 4863 
z
" transform="scale(0.015625)"/>
       <path id="DejaVuSans-6d" d="M 3328 2828 
Q 3544 3216 3844 3400 
Q 4144 3584 4550 3584 
Q 5097 3584 5394 3201 
Q 5691 2819 5691 2113 
L 5691 0 
L 5113 0 
L 5113 2094 
Q 5113 2597 4934 2840 
Q 4756 3084 4391 3084 
Q 3944 3084 3684 2787 
Q 3425 2491 3425 1978 
L 3425 0 
L 2847 0 
L 2847 2094 
Q 2847 2600 2669 2842 
Q 2491 3084 2119 3084 
Q 1678 3084 1418 2786 
Q 1159 2488 1159 1978 
L 1159 0 
L 581 0 
L 581 3500 
L 1159 3500 
L 1159 2956 
Q 1356 3278 1631 3431 
Q 1906 3584 2284 3584 
Q 2666 3584 2933 3390 
Q 3200 3197 3328 2828 
z
" transform="scale(0.015625)"/>
       <path id="DejaVuSans-65" d="M 3597 1894 
L 3597 1613 
L 953 1613 
Q 991 1019 1311 708 
Q 1631 397 2203 397 
Q 2534 397 2845 478 
Q 3156 559 3463 722 
L 3463 178 
Q 3153 47 2828 -22 
Q 2503 -91 2169 -91 
Q 1331 -91 842 396 
Q 353 884 353 1716 
Q 353 2575 817 3079 
Q 1281 3584 2069 3584 
Q 2775 3584 3186 3129 
Q 3597 2675 3597 1894 
z
M 3022 2063 
Q 3016 2534 2758 2815 
Q 2500 3097 2075 3097 
Q 1594 3097 1305 2825 
Q 1016 2553 972 2059 
L 3022 2063 
z
" transform="scale(0.015625)"/>
       <path id="DejaVuSans-20" transform="scale(0.015625)"/>
       <path id="DejaVuSans-28" d="M 1984 4856 
Q 1566 4138 1362 3434 
Q 1159 2731 1159 2009 
Q 1159 1288 1364 580 
Q 1569 -128 1984 -844 
L 1484 -844 
Q 1016 -109 783 600 
Q 550 1309 550 2009 
Q 550 2706 781 3412 
Q 1013 4119 1484 4856 
L 1984 4856 
z
" transform="scale(0.015625)"/>
       <path id="DejaVuSans-68" d="M 3513 2113 
L 3513 0 
L 2938 0 
L 2938 2094 
Q 2938 2591 2744 2837 
Q 2550 3084 2163 3084 
Q 1697 3084 1428 2787 
Q 1159 2491 1159 1978 
L 1159 0 
L 581 0 
L 581 4863 
L 1159 4863 
L 1159 2956 
Q 1366 3272 1645 3428 
Q 1925 3584 2291 3584 
Q 2894 3584 3203 3211 
Q 3513 2838 3513 2113 
z
" transform="scale(0.015625)"/>
       <path id="DejaVuSans-29" d="M 513 4856 
L 1013 4856 
Q 1481 4119 1714 3412 
Q 1947 2706 1947 2009 
Q 1947 1309 1714 600 
Q 1481 -109 1013 -844 
L 513 -844 
Q 928 -128 1133 580 
Q 1338 1288 1338 2009 
Q 1338 2731 1133 3434 
Q 928 4138 513 4856 
z
" transform="scale(0.015625)"/>
      </defs>
      <use xlink:href="#DejaVuSans-54"/>
      <use xlink:href="#DejaVuSans-69" transform="translate(57.958984 0)"/>
      <use xlink:href="#DejaVuSans-6d" transform="translate(85.742188 0)"/>
      <use xlink:href="#DejaVuSans-65" transform="translate(183.154297 0)"/>
      <use xlink:href="#DejaVuSans-20" transform="translate(244.677734 0)"/>
      <use xlink:href="#DejaVuSans-28" transform="translate(276.464844 0)"/>
      <use xlink:href="#DejaVuSans-68" transform="translate(315.478516 0)"/>
      <use xlink:href="#DejaVuSans-29" transform="translate(378.857422 0)"/>
     </g>
    </g>
   </g>
   <g id="matplotlib.axis_2">
    <g id="ytick_1">
     <g id="line2d_7">
      <defs>
       <path id="m644e28f69d" d="M 0 0 
L -3.5 0 
" style="stroke: #000000; stroke-width: 0.8"/>
      </defs>
      <g>
       <use xlink:href="#m644e28f69d" x="32.54" y="122.912666" style="stroke: #000000; stroke-width: 0.8"/>
      </g>
     </g>
     <g id="text_8">
      <!-- $10^{0}$ -->
      <g transform="translate(16.48 125.192197) scale(0.06 -0.06)">
       <use xlink:href="#DejaVuSans-31" transform="translate(0 0.765625)"/>
       <use xlink:href="#DejaVuSans-30" transform="translate(63.623047 0.765625)"/>
       <use xlink:href="#DejaVuSans-30" transform="translate(128.203125 39.046875) scale(0.7)"/>
      </g>
     </g>
    </g>
    <g id="ytick_2">
     <g id="line2d_8">
      <g>
       <use xlink:href="#m644e28f69d" x="32.54" y="85.101621" style="stroke: #000000; stroke-width: 0.8"/>
      </g>
     </g>
     <g id="text_9">
      <!-- $10^{3}$ -->
      <g transform="translate(16.48 87.381152) scale(0.06 -0.06)">
       <use xlink:href="#DejaVuSans-31" transform="translate(0 0.765625)"/>
       <use xlink:href="#DejaVuSans-30" transform="translate(63.623047 0.765625)"/>
       <use xlink:href="#DejaVuSans-33" transform="translate(128.203125 39.046875) scale(0.7)"/>
      </g>
     </g>
    </g>
    <g id="ytick_3">
     <g id="line2d_9">
      <g>
       <use xlink:href="#m644e28f69d" x="32.54" y="47.290576" style="stroke: #000000; stroke-width: 0.8"/>
      </g>
     </g>
     <g id="text_10">
      <!-- $10^{6}$ -->
      <g transform="translate(16.48 49.570107) scale(0.06 -0.06)">
       <use xlink:href="#DejaVuSans-31" transform="translate(0 0.765625)"/>
       <use xlink:href="#DejaVuSans-30" transform="translate(63.623047 0.765625)"/>
       <use xlink:href="#DejaVuSans-36" transform="translate(128.203125 39.046875) scale(0.7)"/>
      </g>
     </g>
    </g>
    <g id="ytick_4">
     <g id="line2d_10">
      <g>
       <use xlink:href="#m644e28f69d" x="32.54" y="9.479531" style="stroke: #000000; stroke-width: 0.8"/>
      </g>
     </g>
     <g id="text_11">
      <!-- $10^{9}$ -->
      <g transform="translate(16.48 11.759062) scale(0.06 -0.06)">
       <defs>
        <path id="DejaVuSans-39" d="M 703 97 
L 703 672 
Q 941 559 1184 500 
Q 1428 441 1663 441 
Q 2288 441 2617 861 
Q 2947 1281 2994 2138 
Q 2813 1869 2534 1725 
Q 2256 1581 1919 1581 
Q 1219 1581 811 2004 
Q 403 2428 403 3163 
Q 403 3881 828 4315 
Q 1253 4750 1959 4750 
Q 2769 4750 3195 4129 
Q 3622 3509 3622 2328 
Q 3622 1225 3098 567 
Q 2575 -91 1691 -91 
Q 1453 -91 1209 -44 
Q 966 3 703 97 
z
M 1959 2075 
Q 2384 2075 2632 2365 
Q 2881 2656 2881 3163 
Q 2881 3666 2632 3958 
Q 2384 4250 1959 4250 
Q 1534 4250 1286 3958 
Q 1038 3666 1038 3163 
Q 1038 2656 1286 2365 
Q 1534 2075 1959 2075 
z
" transform="scale(0.015625)"/>
       </defs>
       <use xlink:href="#DejaVuSans-31" transform="translate(0 0.765625)"/>
       <use xlink:href="#DejaVuSans-30" transform="translate(63.623047 0.765625)"/>
       <use xlink:href="#DejaVuSans-39" transform="translate(128.203125 39.046875) scale(0.7)"/>
      </g>
     </g>
    </g>
    <g id="text_12">
     <!-- Concentration ($ml^{-1}$) -->
     <g transform="translate(13.024219 103.156099) rotate(-90) scale(0.07 -0.07)">
      <defs>
       <path id="DejaVuSans-43" d="M 4122 4306 
L 4122 3641 
Q 3803 3938 3442 4084 
Q 3081 4231 2675 4231 
Q 1875 4231 1450 3742 
Q 1025 3253 1025 2328 
Q 1025 1406 1450 917 
Q 1875 428 2675 428 
Q 3081 428 3442 575 
Q 3803 722 4122 1019 
L 4122 359 
Q 3791 134 3420 21 
Q 3050 -91 2638 -91 
Q 1578 -91 968 557 
Q 359 1206 359 2328 
Q 359 3453 968 4101 
Q 1578 4750 2638 4750 
Q 3056 4750 3426 4639 
Q 3797 4528 4122 4306 
z
" transform="scale(0.015625)"/>
       <path id="DejaVuSans-6f" d="M 1959 3097 
Q 1497 3097 1228 2736 
Q 959 2375 959 1747 
Q 959 1119 1226 758 
Q 1494 397 1959 397 
Q 2419 397 2687 759 
Q 2956 1122 2956 1747 
Q 2956 2369 2687 2733 
Q 2419 3097 1959 3097 
z
M 1959 3584 
Q 2709 3584 3137 3096 
Q 3566 2609 3566 1747 
Q 3566 888 3137 398 
Q 2709 -91 1959 -91 
Q 1206 -91 779 398 
Q 353 888 353 1747 
Q 353 2609 779 3096 
Q 1206 3584 1959 3584 
z
" transform="scale(0.015625)"/>
       <path id="DejaVuSans-6e" d="M 3513 2113 
L 3513 0 
L 2938 0 
L 2938 2094 
Q 2938 2591 2744 2837 
Q 2550 3084 2163 3084 
Q 1697 3084 1428 2787 
Q 1159 2491 1159 1978 
L 1159 0 
L 581 0 
L 581 3500 
L 1159 3500 
L 1159 2956 
Q 1366 3272 1645 3428 
Q 1925 3584 2291 3584 
Q 2894 3584 3203 3211 
Q 3513 2838 3513 2113 
z
" transform="scale(0.015625)"/>
       <path id="DejaVuSans-63" d="M 3122 3366 
L 3122 2828 
Q 2878 2963 2633 3030 
Q 2388 3097 2138 3097 
Q 1578 3097 1268 2742 
Q 959 2388 959 1747 
Q 959 1106 1268 751 
Q 1578 397 2138 397 
Q 2388 397 2633 464 
Q 2878 531 3122 666 
L 3122 134 
Q 2881 22 2623 -34 
Q 2366 -91 2075 -91 
Q 1284 -91 818 406 
Q 353 903 353 1747 
Q 353 2603 823 3093 
Q 1294 3584 2113 3584 
Q 2378 3584 2631 3529 
Q 2884 3475 3122 3366 
z
" transform="scale(0.015625)"/>
       <path id="DejaVuSans-74" d="M 1172 4494 
L 1172 3500 
L 2356 3500 
L 2356 3053 
L 1172 3053 
L 1172 1153 
Q 1172 725 1289 603 
Q 1406 481 1766 481 
L 2356 481 
L 2356 0 
L 1766 0 
Q 1100 0 847 248 
Q 594 497 594 1153 
L 594 3053 
L 172 3053 
L 172 3500 
L 594 3500 
L 594 4494 
L 1172 4494 
z
" transform="scale(0.015625)"/>
       <path id="DejaVuSans-72" d="M 2631 2963 
Q 2534 3019 2420 3045 
Q 2306 3072 2169 3072 
Q 1681 3072 1420 2755 
Q 1159 2438 1159 1844 
L 1159 0 
L 581 0 
L 581 3500 
L 1159 3500 
L 1159 2956 
Q 1341 3275 1631 3429 
Q 1922 3584 2338 3584 
Q 2397 3584 2469 3576 
Q 2541 3569 2628 3553 
L 2631 2963 
z
" transform="scale(0.015625)"/>
       <path id="DejaVuSans-61" d="M 2194 1759 
Q 1497 1759 1228 1600 
Q 959 1441 959 1056 
Q 959 750 1161 570 
Q 1363 391 1709 391 
Q 2188 391 2477 730 
Q 2766 1069 2766 1631 
L 2766 1759 
L 2194 1759 
z
M 3341 1997 
L 3341 0 
L 2766 0 
L 2766 531 
Q 2569 213 2275 61 
Q 1981 -91 1556 -91 
Q 1019 -91 701 211 
Q 384 513 384 1019 
Q 384 1609 779 1909 
Q 1175 2209 1959 2209 
L 2766 2209 
L 2766 2266 
Q 2766 2663 2505 2880 
Q 2244 3097 1772 3097 
Q 1472 3097 1187 3025 
Q 903 2953 641 2809 
L 641 3341 
Q 956 3463 1253 3523 
Q 1550 3584 1831 3584 
Q 2591 3584 2966 3190 
Q 3341 2797 3341 1997 
z
" transform="scale(0.015625)"/>
       <path id="DejaVuSans-Oblique-6d" d="M 5747 2113 
L 5338 0 
L 4763 0 
L 5166 2094 
Q 5191 2228 5203 2325 
Q 5216 2422 5216 2491 
Q 5216 2772 5059 2928 
Q 4903 3084 4622 3084 
Q 4203 3084 3875 2770 
Q 3547 2456 3450 1953 
L 3066 0 
L 2491 0 
L 2900 2094 
Q 2925 2209 2937 2307 
Q 2950 2406 2950 2484 
Q 2950 2769 2794 2926 
Q 2638 3084 2363 3084 
Q 1938 3084 1609 2770 
Q 1281 2456 1184 1953 
L 800 0 
L 225 0 
L 909 3500 
L 1484 3500 
L 1375 2956 
Q 1609 3263 1923 3423 
Q 2238 3584 2597 3584 
Q 2978 3584 3223 3384 
Q 3469 3184 3519 2828 
Q 3781 3197 4126 3390 
Q 4472 3584 4856 3584 
Q 5306 3584 5551 3325 
Q 5797 3066 5797 2591 
Q 5797 2488 5784 2364 
Q 5772 2241 5747 2113 
z
" transform="scale(0.015625)"/>
       <path id="DejaVuSans-Oblique-6c" d="M 1172 4863 
L 1747 4863 
L 800 0 
L 225 0 
L 1172 4863 
z
" transform="scale(0.015625)"/>
       <path id="DejaVuSans-2212" d="M 678 2272 
L 4684 2272 
L 4684 1741 
L 678 1741 
L 678 2272 
z
" transform="scale(0.015625)"/>
      </defs>
      <use xlink:href="#DejaVuSans-43" transform="translate(0 0.684375)"/>
      <use xlink:href="#DejaVuSans-6f" transform="translate(69.824219 0.684375)"/>
      <use xlink:href="#DejaVuSans-6e" transform="translate(131.005859 0.684375)"/>
      <use xlink:href="#DejaVuSans-63" transform="translate(194.384766 0.684375)"/>
      <use xlink:href="#DejaVuSans-65" transform="translate(249.365234 0.684375)"/>
      <use xlink:href="#DejaVuSans-6e" transform="translate(310.888672 0.684375)"/>
      <use xlink:href="#DejaVuSans-74" transform="translate(374.267578 0.684375)"/>
      <use xlink:href="#DejaVuSans-72" transform="translate(413.476562 0.684375)"/>
      <use xlink:href="#DejaVuSans-61" transform="translate(454.589844 0.684375)"/>
      <use xlink:href="#DejaVuSans-74" transform="translate(515.869141 0.684375)"/>
      <use xlink:href="#DejaVuSans-69" transform="translate(555.078125 0.684375)"/>
      <use xlink:href="#DejaVuSans-6f" transform="translate(582.861328 0.684375)"/>
      <use xlink:href="#DejaVuSans-6e" transform="translate(644.042969 0.684375)"/>
      <use xlink:href="#DejaVuSans-20" transform="translate(707.421875 0.684375)"/>
      <use xlink:href="#DejaVuSans-28" transform="translate(739.208984 0.684375)"/>
      <use xlink:href="#DejaVuSans-Oblique-6d" transform="translate(778.222656 0.684375)"/>
      <use xlink:href="#DejaVuSans-Oblique-6c" transform="translate(875.634766 0.684375)"/>
      <use xlink:href="#DejaVuSans-2212" transform="translate(910.865677 38.965625) scale(0.7)"/>
      <use xlink:href="#DejaVuSans-31" transform="translate(969.518021 38.965625) scale(0.7)"/>
      <use xlink:href="#DejaVuSans-29" transform="translate(1016.788529 0.684375)"/>
     </g>
    </g>
   </g>
   <g id="line2d_11">
    <path d="M 32.54 50.086687 
L 40.32413 45.59523 
L 42.93397 44.348742 
L 44.681428 43.746487 
L 45.997695 43.516187 
L 47.087019 43.545049 
L 48.062872 43.795381 
L 48.993337 44.270444 
L 49.946496 45.014753 
L 51.03582 46.166392 
L 52.442864 48.007284 
L 56.868244 54.020423 
L 58.411454 55.623771 
L 59.863887 56.816014 
L 61.270931 57.689473 
L 62.700669 58.317335 
L 64.175796 58.721253 
L 65.719005 58.913326 
L 67.39838 58.894328 
L 69.236615 58.6467 
L 71.301793 58.139362 
L 73.68469 57.318027 
L 76.498778 56.104678 
L 79.970999 54.354371 
L 84.623322 51.742302 
L 96.583196 44.90748 
L 98.693762 44.017807 
L 100.214277 43.604572 
L 101.417073 43.500879 
L 102.438314 43.632688 
L 103.368779 43.975017 
L 104.299244 44.559182 
L 105.297791 45.460796 
L 106.477892 46.844974 
L 108.270739 49.340484 
L 111.062132 53.180947 
L 112.673425 55.007781 
L 114.148551 56.351985 
L 115.57829 57.356941 
L 116.985334 58.07948 
L 118.437766 58.576173 
L 119.958281 58.858268 
L 121.569574 58.929126 
L 123.339726 58.779587 
L 125.314126 58.382553 
L 127.560858 57.696116 
L 130.193392 56.649475 
L 133.370588 55.135783 
L 137.43286 52.940232 
L 143.855335 49.180753 
L 150.073562 45.616729 
L 152.683401 44.365675 
L 154.430859 43.757258 
L 155.76982 43.517595 
L 156.859145 43.542564 
L 157.834998 43.788511 
L 158.765462 44.258823 
L 159.718621 44.998179 
L 160.785251 46.11812 
L 162.192295 47.950161 
L 166.708453 54.077664 
L 168.228968 55.648962 
L 169.681401 56.835497 
L 171.088445 57.7038 
L 172.518183 58.326945 
L 173.99331 58.726588 
L 175.536519 58.914809 
L 177.215894 58.892279 
L 179.054129 58.641471 
L 181.119307 58.13128 
L 183.502204 57.307416 
L 186.338986 56.081239 
L 189.833902 54.31552 
L 194.508919 51.686781 
L 206.309933 44.937998 
L 208.443193 44.03213 
L 209.963708 43.612075 
L 211.166504 43.500227 
L 212.187746 43.622814 
L 213.11821 43.955065 
L 214.048675 44.52829 
L 215.047222 45.418635 
L 216.227324 46.792413 
L 217.997476 49.248681 
L 220.856952 53.18661 
L 222.468244 55.012422 
L 223.943371 56.355645 
L 225.373109 57.359693 
L 226.780153 58.081418 
L 228.232586 58.577365 
L 229.753101 58.858782 
L 231.364394 58.929029 
L 233.134546 58.778932 
L 235.108946 58.381394 
L 237.355678 57.69451 
L 239.988212 56.647479 
L 243.165408 55.13346 
L 247.22768 52.937656 
L 253.672849 49.164569 
L 259.459885 45.831737 
L 259.459885 45.831737 
" clip-path="url(#p8651cc4071)" style="fill: none; stroke: #0000ff; stroke-width: 0.75; stroke-linecap: square"/>
   </g>
   <g id="line2d_12">
    <path d="M 32.54 37.483006 
L 34.264764 37.495825 
L 35.830667 37.288856 
L 37.305794 36.869986 
L 38.712838 36.237855 
L 40.097188 35.367183 
L 41.481538 34.227816 
L 42.911276 32.757897 
L 44.499874 30.794375 
L 46.814688 27.525174 
L 48.857171 24.775371 
L 50.059967 23.515907 
L 51.081209 22.756257 
L 52.034368 22.315979 
L 53.010221 22.109792 
L 54.076851 22.117523 
L 55.325035 22.35849 
L 56.890939 22.899824 
L 59.024199 23.890246 
L 62.269478 25.667203 
L 77.656185 34.380969 
L 80.810687 35.782001 
L 83.375138 36.687255 
L 85.576481 37.234615 
L 87.482798 37.486375 
L 89.207562 37.492787 
L 90.773466 37.278897 
L 92.248593 36.852455 
L 93.655637 36.212122 
L 95.039986 35.332521 
L 96.424336 34.183621 
L 97.876769 32.677965 
L 99.488061 30.669994 
L 101.961735 27.163681 
L 103.845358 24.665512 
L 105.02546 23.453982 
L 106.046701 22.715021 
L 106.99986 22.293271 
L 107.975713 22.103415 
L 109.042343 22.125182 
L 110.313222 22.384286 
L 111.90182 22.947455 
L 114.080469 23.972695 
L 117.439219 25.825361 
L 132.054321 34.138064 
L 135.2996 35.617215 
L 137.932134 36.582725 
L 140.178865 37.176349 
L 142.130571 37.467157 
L 143.878029 37.505418 
L 145.466627 37.31954 
L 146.941754 36.924952 
L 148.348798 36.319151 
L 149.733148 35.4772 
L 151.117498 34.368597 
L 152.547236 32.930751 
L 154.11314 31.028411 
L 156.2464 28.042829 
L 158.606603 24.824158 
L 159.809398 23.552479 
L 160.83064 22.780842 
L 161.783799 22.329751 
L 162.759652 22.113981 
L 163.826282 22.113445 
L 165.074466 22.347471 
L 166.64037 22.883231 
L 168.750936 23.857973 
L 171.950826 25.6047 
L 180.55195 30.664471 
L 185.590075 33.448996 
L 189.13038 35.162003 
L 191.944468 36.287445 
L 194.30467 37.00105 
L 196.347154 37.393092 
L 198.162694 37.518718 
L 199.796681 37.412155 
L 201.317196 37.090437 
L 202.746934 36.560544 
L 204.131284 35.809109 
L 205.515634 34.798377 
L 206.922678 33.487859 
L 208.420499 31.779617 
L 210.213345 29.376579 
L 213.799038 24.477196 
L 214.956445 23.33432 
L 215.954992 22.649042 
L 216.908151 22.258047 
L 217.884004 22.095067 
L 218.973329 22.14285 
L 220.266901 22.431818 
L 221.923582 23.045245 
L 224.215702 24.151871 
L 227.824089 26.170289 
L 240.918676 33.672399 
L 244.368203 35.312102 
L 247.136903 36.390369 
L 249.451717 37.061879 
L 251.471506 37.421521 
L 253.264352 37.517582 
L 254.875645 37.38537 
L 256.373466 37.042315 
L 257.803204 36.485655 
L 259.187554 35.705215 
L 259.459885 35.521527 
L 259.459885 35.521527 
" clip-path="url(#p8651cc4071)" style="fill: none; stroke: #ff0000; stroke-width: 0.75; stroke-linecap: square"/>
   </g>
   <g id="line2d_13">
    <path d="M 32.54 50.086687 
L 40.32413 45.59523 
L 42.93397 44.348742 
L 44.681428 43.746487 
L 45.997695 43.516187 
L 47.087019 43.545049 
L 48.062872 43.795381 
L 48.993337 44.270444 
L 49.946496 45.014753 
L 51.03582 46.166392 
L 52.442864 48.007284 
L 56.868244 54.020423 
L 58.411454 55.623771 
L 59.863887 56.816014 
L 61.270931 57.689473 
L 62.700669 58.317335 
L 64.175796 58.721253 
L 65.719005 58.913326 
L 67.39838 58.894328 
L 69.236615 58.6467 
L 71.301793 58.139362 
L 73.68469 57.318027 
L 76.498778 56.104678 
L 79.970999 54.354371 
L 84.623322 51.742302 
L 96.583196 44.90748 
L 98.693762 44.017807 
L 100.214277 43.604572 
L 101.417073 43.500879 
L 102.438314 43.632688 
L 103.368779 43.975017 
L 104.299244 44.559182 
L 105.297791 45.460796 
L 106.477892 46.844974 
L 108.270739 49.340484 
L 111.062132 53.180947 
L 112.673425 55.007781 
L 114.148551 56.351985 
L 115.57829 57.356941 
L 116.985334 58.07948 
L 118.437766 58.576173 
L 119.958281 58.858268 
L 121.569574 58.929126 
L 123.339726 58.779587 
L 125.314126 58.382553 
L 127.560858 57.696116 
L 130.193392 56.649475 
L 133.370588 55.135783 
L 137.43286 52.940232 
L 143.855335 49.180753 
L 150.073562 45.616729 
L 152.683401 44.365675 
L 154.430859 43.757258 
L 155.76982 43.517595 
L 156.859145 43.542564 
L 157.834998 43.788511 
L 158.765462 44.258823 
L 159.718621 44.998179 
L 160.785251 46.11812 
L 162.192295 47.950161 
L 166.708453 54.077664 
L 168.228968 55.648962 
L 169.681401 56.835497 
L 171.088445 57.7038 
L 172.518183 58.326945 
L 173.99331 58.726588 
L 175.536519 58.914809 
L 177.215894 58.892279 
L 179.054129 58.641471 
L 181.119307 58.13128 
L 183.502204 57.307416 
L 186.338986 56.081239 
L 189.833902 54.31552 
L 194.508919 51.686781 
L 206.309933 44.937998 
L 208.443193 44.03213 
L 209.963708 43.612075 
L 211.166504 43.500227 
L 212.187746 43.622814 
L 213.11821 43.955065 
L 214.048675 44.52829 
L 215.047222 45.418635 
L 216.227324 46.792413 
L 217.997476 49.248681 
L 220.856952 53.18661 
L 222.468244 55.012422 
L 223.943371 56.355645 
L 225.373109 57.359693 
L 226.780153 58.081418 
L 228.232586 58.577365 
L 229.753101 58.858782 
L 231.364394 58.929029 
L 233.134546 58.778932 
L 235.108946 58.381394 
L 237.355678 57.69451 
L 239.988212 56.647479 
L 243.165408 55.13346 
L 247.22768 52.937656 
L 253.672849 49.164569 
L 259.459885 45.831737 
L 259.459885 45.831737 
" clip-path="url(#p8651cc4071)" style="fill: none; stroke-dasharray: 3.75,3.75; stroke-dashoffset: 0; stroke: #000000; stroke-width: 0.75"/>
   </g>
   <g id="line2d_14">
    <path d="M 32.54 37.483006 
L 34.264764 37.495825 
L 35.830667 37.288856 
L 37.305794 36.869986 
L 38.712838 36.237855 
L 40.097188 35.367183 
L 41.481538 34.227816 
L 42.911276 32.757897 
L 44.499874 30.794375 
L 46.814688 27.525174 
L 48.857171 24.775371 
L 50.059967 23.515907 
L 51.081209 22.756257 
L 52.034368 22.315979 
L 53.010221 22.109792 
L 54.076851 22.117523 
L 55.325035 22.35849 
L 56.890939 22.899824 
L 59.024199 23.890246 
L 62.269478 25.667203 
L 77.656185 34.380969 
L 80.810687 35.782001 
L 83.375138 36.687255 
L 85.576481 37.234615 
L 87.482798 37.486375 
L 89.207562 37.492787 
L 90.773466 37.278897 
L 92.248593 36.852455 
L 93.655637 36.212122 
L 95.039986 35.332521 
L 96.424336 34.183621 
L 97.876769 32.677965 
L 99.488061 30.669994 
L 101.961735 27.163681 
L 103.845358 24.665512 
L 105.02546 23.453982 
L 106.046701 22.715021 
L 106.99986 22.293271 
L 107.975713 22.103415 
L 109.042343 22.125182 
L 110.313222 22.384286 
L 111.90182 22.947455 
L 114.080469 23.972695 
L 117.439219 25.825361 
L 132.054321 34.138064 
L 135.2996 35.617215 
L 137.932134 36.582725 
L 140.178865 37.176349 
L 142.130571 37.467157 
L 143.878029 37.505418 
L 145.466627 37.31954 
L 146.941754 36.924952 
L 148.348798 36.319151 
L 149.733148 35.4772 
L 151.117498 34.368597 
L 152.547236 32.930751 
L 154.11314 31.028411 
L 156.2464 28.042829 
L 158.606603 24.824158 
L 159.809398 23.552479 
L 160.83064 22.780842 
L 161.783799 22.329751 
L 162.759652 22.113981 
L 163.826282 22.113445 
L 165.074466 22.347471 
L 166.64037 22.883231 
L 168.750936 23.857973 
L 171.950826 25.6047 
L 180.55195 30.664471 
L 185.590075 33.448996 
L 189.13038 35.162003 
L 191.944468 36.287445 
L 194.30467 37.00105 
L 196.347154 37.393092 
L 198.162694 37.518718 
L 199.796681 37.412155 
L 201.317196 37.090437 
L 202.746934 36.560544 
L 204.131284 35.809109 
L 205.515634 34.798377 
L 206.922678 33.487859 
L 208.420499 31.779617 
L 210.213345 29.376579 
L 213.799038 24.477196 
L 214.956445 23.33432 
L 215.954992 22.649042 
L 216.908151 22.258047 
L 217.884004 22.095067 
L 218.973329 22.14285 
L 220.266901 22.431818 
L 221.923582 23.045245 
L 224.215702 24.151871 
L 227.824089 26.170289 
L 240.918676 33.672399 
L 244.368203 35.312102 
L 247.136903 36.390369 
L 249.451717 37.061879 
L 251.471506 37.421521 
L 253.264352 37.517582 
L 254.875645 37.38537 
L 256.373466 37.042315 
L 257.803204 36.485655 
L 259.187554 35.705215 
L 259.459885 35.521527 
L 259.459885 35.521527 
" clip-path="url(#p8651cc4071)" style="fill: none; stroke-dasharray: 3.75,3.75; stroke-dashoffset: 0; stroke: #000000; stroke-width: 0.75"/>
   </g>
   <g id="patch_3">
    <path d="M 32.54 122.912666 
L 32.54 9.479531 
" style="fill: none; stroke: #000000; stroke-width: 0.8; stroke-linejoin: miter; stroke-linecap: square"/>
   </g>
   <g id="patch_4">
    <path d="M 259.459885 122.912666 
L 259.459885 9.479531 
" style="fill: none; stroke: #000000; stroke-width: 0.8; stroke-linejoin: miter; stroke-linecap: square"/>
   </g>
   <g id="patch_5">
    <path d="M 32.54 122.912666 
L 259.459885 122.912666 
" style="fill: none; stroke: #000000; stroke-width: 0.8; stroke-linejoin: miter; stroke-linecap: square"/>
   </g>
   <g id="patch_6">
    <path d="M 32.54 9.479531 
L 259.459885 9.479531 
" style="fill: none; stroke: #000000; stroke-width: 0.8; stroke-linejoin: miter; stroke-linecap: square"/>
   </g>
   <g id="legend_1">
    <g id="patch_7">
     <path d="M 36.04 120.412666 
L 74.170469 120.412666 
Q 75.170469 120.412666 75.170469 119.412666 
L 75.170469 97.895479 
Q 75.170469 96.895479 74.170469 96.895479 
L 36.04 96.895479 
Q 35.04 96.895479 35.04 97.895479 
L 35.04 119.412666 
Q 35.04 120.412666 36.04 120.412666 
z
" style="fill: #ffffff; opacity: 0.8; stroke: #cccccc; stroke-linejoin: miter"/>
    </g>
    <g id="line2d_15">
     <path d="M 37.04 100.944697 
L 42.04 100.944697 
L 47.04 100.944697 
" style="fill: none; stroke: #0000ff; stroke-width: 0.75; stroke-linecap: square"/>
    </g>
    <g id="text_13">
     <!-- Bacteria -->
     <g transform="translate(51.04 102.694697) scale(0.05 -0.05)">
      <defs>
       <path id="DejaVuSans-42" d="M 1259 2228 
L 1259 519 
L 2272 519 
Q 2781 519 3026 730 
Q 3272 941 3272 1375 
Q 3272 1813 3026 2020 
Q 2781 2228 2272 2228 
L 1259 2228 
z
M 1259 4147 
L 1259 2741 
L 2194 2741 
Q 2656 2741 2882 2914 
Q 3109 3088 3109 3444 
Q 3109 3797 2882 3972 
Q 2656 4147 2194 4147 
L 1259 4147 
z
M 628 4666 
L 2241 4666 
Q 2963 4666 3353 4366 
Q 3744 4066 3744 3513 
Q 3744 3084 3544 2831 
Q 3344 2578 2956 2516 
Q 3422 2416 3680 2098 
Q 3938 1781 3938 1306 
Q 3938 681 3513 340 
Q 3088 0 2303 0 
L 628 0 
L 628 4666 
z
" transform="scale(0.015625)"/>
      </defs>
      <use xlink:href="#DejaVuSans-42"/>
      <use xlink:href="#DejaVuSans-61" transform="translate(68.603516 0)"/>
      <use xlink:href="#DejaVuSans-63" transform="translate(129.882812 0)"/>
      <use xlink:href="#DejaVuSans-74" transform="translate(184.863281 0)"/>
      <use xlink:href="#DejaVuSans-65" transform="translate(224.072266 0)"/>
      <use xlink:href="#DejaVuSans-72" transform="translate(285.595703 0)"/>
      <use xlink:href="#DejaVuSans-69" transform="translate(326.708984 0)"/>
      <use xlink:href="#DejaVuSans-61" transform="translate(354.492188 0)"/>
     </g>
    </g>
    <g id="line2d_16">
     <path d="M 37.04 108.28376 
L 42.04 108.28376 
L 47.04 108.28376 
" style="fill: none; stroke: #ff0000; stroke-width: 0.75; stroke-linecap: square"/>
    </g>
    <g id="text_14">
     <!-- Phage -->
     <g transform="translate(51.04 110.03376) scale(0.05 -0.05)">
      <defs>
       <path id="DejaVuSans-50" d="M 1259 4147 
L 1259 2394 
L 2053 2394 
Q 2494 2394 2734 2622 
Q 2975 2850 2975 3272 
Q 2975 3691 2734 3919 
Q 2494 4147 2053 4147 
L 1259 4147 
z
M 628 4666 
L 2053 4666 
Q 2838 4666 3239 4311 
Q 3641 3956 3641 3272 
Q 3641 2581 3239 2228 
Q 2838 1875 2053 1875 
L 1259 1875 
L 1259 0 
L 628 0 
L 628 4666 
z
" transform="scale(0.015625)"/>
       <path id="DejaVuSans-67" d="M 2906 1791 
Q 2906 2416 2648 2759 
Q 2391 3103 1925 3103 
Q 1463 3103 1205 2759 
Q 947 2416 947 1791 
Q 947 1169 1205 825 
Q 1463 481 1925 481 
Q 2391 481 2648 825 
Q 2906 1169 2906 1791 
z
M 3481 434 
Q 3481 -459 3084 -895 
Q 2688 -1331 1869 -1331 
Q 1566 -1331 1297 -1286 
Q 1028 -1241 775 -1147 
L 775 -588 
Q 1028 -725 1275 -790 
Q 1522 -856 1778 -856 
Q 2344 -856 2625 -561 
Q 2906 -266 2906 331 
L 2906 616 
Q 2728 306 2450 153 
Q 2172 0 1784 0 
Q 1141 0 747 490 
Q 353 981 353 1791 
Q 353 2603 747 3093 
Q 1141 3584 1784 3584 
Q 2172 3584 2450 3431 
Q 2728 3278 2906 2969 
L 2906 3500 
L 3481 3500 
L 3481 434 
z
" transform="scale(0.015625)"/>
      </defs>
      <use xlink:href="#DejaVuSans-50"/>
      <use xlink:href="#DejaVuSans-68" transform="translate(60.302734 0)"/>
      <use xlink:href="#DejaVuSans-61" transform="translate(123.681641 0)"/>
      <use xlink:href="#DejaVuSans-67" transform="translate(184.960938 0)"/>
      <use xlink:href="#DejaVuSans-65" transform="translate(248.4375 0)"/>
     </g>
    </g>
    <g id="line2d_17">
     <path d="M 37.04 115.622822 
L 42.04 115.622822 
L 47.04 115.622822 
" style="fill: none; stroke-dasharray: 3.75,3.75; stroke-dashoffset: 0; stroke: #000000; stroke-width: 0.75"/>
    </g>
    <g id="text_15">
     <!-- Adaptive -->
     <g transform="translate(51.04 117.372822) scale(0.05 -0.05)">
      <defs>
       <path id="DejaVuSans-41" d="M 2188 4044 
L 1331 1722 
L 3047 1722 
L 2188 4044 
z
M 1831 4666 
L 2547 4666 
L 4325 0 
L 3669 0 
L 3244 1197 
L 1141 1197 
L 716 0 
L 50 0 
L 1831 4666 
z
" transform="scale(0.015625)"/>
       <path id="DejaVuSans-64" d="M 2906 2969 
L 2906 4863 
L 3481 4863 
L 3481 0 
L 2906 0 
L 2906 525 
Q 2725 213 2448 61 
Q 2172 -91 1784 -91 
Q 1150 -91 751 415 
Q 353 922 353 1747 
Q 353 2572 751 3078 
Q 1150 3584 1784 3584 
Q 2172 3584 2448 3432 
Q 2725 3281 2906 2969 
z
M 947 1747 
Q 947 1113 1208 752 
Q 1469 391 1925 391 
Q 2381 391 2643 752 
Q 2906 1113 2906 1747 
Q 2906 2381 2643 2742 
Q 2381 3103 1925 3103 
Q 1469 3103 1208 2742 
Q 947 2381 947 1747 
z
" transform="scale(0.015625)"/>
       <path id="DejaVuSans-70" d="M 1159 525 
L 1159 -1331 
L 581 -1331 
L 581 3500 
L 1159 3500 
L 1159 2969 
Q 1341 3281 1617 3432 
Q 1894 3584 2278 3584 
Q 2916 3584 3314 3078 
Q 3713 2572 3713 1747 
Q 3713 922 3314 415 
Q 2916 -91 2278 -91 
Q 1894 -91 1617 61 
Q 1341 213 1159 525 
z
M 3116 1747 
Q 3116 2381 2855 2742 
Q 2594 3103 2138 3103 
Q 1681 3103 1420 2742 
Q 1159 2381 1159 1747 
Q 1159 1113 1420 752 
Q 1681 391 2138 391 
Q 2594 391 2855 752 
Q 3116 1113 3116 1747 
z
" transform="scale(0.015625)"/>
       <path id="DejaVuSans-76" d="M 191 3500 
L 800 3500 
L 1894 563 
L 2988 3500 
L 3597 3500 
L 2284 0 
L 1503 0 
L 191 3500 
z
" transform="scale(0.015625)"/>
      </defs>
      <use xlink:href="#DejaVuSans-41"/>
      <use xlink:href="#DejaVuSans-64" transform="translate(66.658203 0)"/>
      <use xlink:href="#DejaVuSans-61" transform="translate(130.134766 0)"/>
      <use xlink:href="#DejaVuSans-70" transform="translate(191.414062 0)"/>
      <use xlink:href="#DejaVuSans-74" transform="translate(254.890625 0)"/>
      <use xlink:href="#DejaVuSans-69" transform="translate(294.099609 0)"/>
      <use xlink:href="#DejaVuSans-76" transform="translate(321.882812 0)"/>
      <use xlink:href="#DejaVuSans-65" transform="translate(381.0625 0)"/>
     </g>
    </g>
   </g>
  </g>
 </g>
 <defs>
  <clipPath id="p8651cc4071">
   <rect x="32.54" y="9.479531" width="226.919885" height="113.433135"/>
  </clipPath>
 </defs>
</svg>
