<?xml version="1.0" encoding="utf-8" standalone="no"?>
<!DOCTYPE svg PUBLIC "-//W3C//DTD SVG 1.1//EN"
  "http://www.w3.org/Graphics/SVG/1.1/DTD/svg11.dtd">
<!-- Created with matplotlib (https://matplotlib.org/) -->
<svg height="113.385827pt" version="1.1" viewBox="0 0 226.771654 113.385827" width="226.771654pt" xmlns="http://www.w3.org/2000/svg" xmlns:xlink="http://www.w3.org/1999/xlink">
 <metadata>
  <rdf:RDF xmlns:cc="http://creativecommons.org/ns#" xmlns:dc="http://purl.org/dc/elements/1.1/" xmlns:rdf="http://www.w3.org/1999/02/22-rdf-syntax-ns#">
   <cc:Work>
    <dc:type rdf:resource="http://purl.org/dc/dcmitype/StillImage"/>
    <dc:date>2023-05-18T11:59:23.516967</dc:date>
    <dc:format>image/svg+xml</dc:format>
    <dc:creator>
     <cc:Agent>
      <dc:title>Matplotlib v3.3.4, https://matplotlib.org/</dc:title>
     </cc:Agent>
    </dc:creator>
   </cc:Work>
  </rdf:RDF>
 </metadata>
 <defs>
  <style type="text/css">*{stroke-linecap:butt;stroke-linejoin:round;}</style>
 </defs>
 <g id="figure_1">
  <g id="patch_1">
   <path d="M 0 113.385827 
L 226.771654 113.385827 
L 226.771654 0 
L 0 0 
z
" style="fill:#ffffff;"/>
  </g>
  <g id="axes_1">
   <g id="patch_2">
    <path d="M 22.677165 104.314961 
L 147.276975 104.314961 
L 147.276975 3.401575 
L 22.677165 3.401575 
z
" style="fill:#ffffff;"/>
   </g>
   <g id="QuadMesh_1">
    <path clip-path="url(#p395baa83f6)" d="M 22.677165 3.401575 
L 30.983819 3.401575 
L 30.983819 28.629921 
L 22.677165 28.629921 
L 22.677165 3.401575 
" style="fill:#f7fbff;"/>
    <path clip-path="url(#p395baa83f6)" d="M 30.983819 3.401575 
L 39.290473 3.401575 
L 39.290473 28.629921 
L 30.983819 28.629921 
L 30.983819 3.401575 
" style="fill:#f7fbff;"/>
    <path clip-path="url(#p395baa83f6)" d="M 39.290473 3.401575 
L 47.597127 3.401575 
L 47.597127 28.629921 
L 39.290473 28.629921 
L 39.290473 3.401575 
" style="fill:#f7fbff;"/>
    <path clip-path="url(#p395baa83f6)" d="M 47.597127 3.401575 
L 55.903781 3.401575 
L 55.903781 28.629921 
L 47.597127 28.629921 
L 47.597127 3.401575 
" style="fill:#f6faff;"/>
    <path clip-path="url(#p395baa83f6)" d="M 55.903781 3.401575 
L 64.210435 3.401575 
L 64.210435 28.629921 
L 55.903781 28.629921 
L 55.903781 3.401575 
" style="fill:#f4f9fe;"/>
    <path clip-path="url(#p395baa83f6)" d="M 64.210435 3.401575 
L 72.517089 3.401575 
L 72.517089 28.629921 
L 64.210435 28.629921 
L 64.210435 3.401575 
" style="fill:#eef5fc;"/>
    <path clip-path="url(#p395baa83f6)" d="M 72.517089 3.401575 
L 80.823743 3.401575 
L 80.823743 28.629921 
L 72.517089 28.629921 
L 72.517089 3.401575 
" style="fill:#e2edf8;"/>
    <path clip-path="url(#p395baa83f6)" d="M 80.823743 3.401575 
L 89.130397 3.401575 
L 89.130397 28.629921 
L 80.823743 28.629921 
L 80.823743 3.401575 
" style="fill:#c2d9ee;"/>
    <path clip-path="url(#p395baa83f6)" d="M 89.130397 3.401575 
L 97.437051 3.401575 
L 97.437051 28.629921 
L 89.130397 28.629921 
L 89.130397 3.401575 
" style="fill:#4594c7;"/>
    <path clip-path="url(#p395baa83f6)" d="M 97.437051 3.401575 
L 105.743705 3.401575 
L 105.743705 28.629921 
L 97.437051 28.629921 
L 97.437051 3.401575 
" style="fill:#f4f9fe;"/>
    <path clip-path="url(#p395baa83f6)" d="M 105.743705 3.401575 
L 114.050359 3.401575 
L 114.050359 28.629921 
L 105.743705 28.629921 
L 105.743705 3.401575 
" style="fill:#f7fbff;"/>
    <path clip-path="url(#p395baa83f6)" d="M 114.050359 3.401575 
L 122.357013 3.401575 
L 122.357013 28.629921 
L 114.050359 28.629921 
L 114.050359 3.401575 
" style="fill:#f7fbff;"/>
    <path clip-path="url(#p395baa83f6)" d="M 122.357013 3.401575 
L 130.663667 3.401575 
L 130.663667 28.629921 
L 122.357013 28.629921 
L 122.357013 3.401575 
" style="fill:#f7fbff;"/>
    <path clip-path="url(#p395baa83f6)" d="M 130.663667 3.401575 
L 138.970321 3.401575 
L 138.970321 28.629921 
L 130.663667 28.629921 
L 130.663667 3.401575 
" style="fill:#f7fbff;"/>
    <path clip-path="url(#p395baa83f6)" d="M 138.970321 3.401575 
L 147.276975 3.401575 
L 147.276975 28.629921 
L 138.970321 28.629921 
L 138.970321 3.401575 
" style="fill:#f7fbff;"/>
    <path clip-path="url(#p395baa83f6)" d="M 22.677165 28.629921 
L 30.983819 28.629921 
L 30.983819 53.858268 
L 22.677165 53.858268 
L 22.677165 28.629921 
" style="fill:#f7fbff;"/>
    <path clip-path="url(#p395baa83f6)" d="M 30.983819 28.629921 
L 39.290473 28.629921 
L 39.290473 53.858268 
L 30.983819 53.858268 
L 30.983819 28.629921 
" style="fill:#f7fbff;"/>
    <path clip-path="url(#p395baa83f6)" d="M 39.290473 28.629921 
L 47.597127 28.629921 
L 47.597127 53.858268 
L 39.290473 53.858268 
L 39.290473 28.629921 
" style="fill:#f7fbff;"/>
    <path clip-path="url(#p395baa83f6)" d="M 47.597127 28.629921 
L 55.903781 28.629921 
L 55.903781 53.858268 
L 47.597127 53.858268 
L 47.597127 28.629921 
" style="fill:#f7fbff;"/>
    <path clip-path="url(#p395baa83f6)" d="M 55.903781 28.629921 
L 64.210435 28.629921 
L 64.210435 53.858268 
L 55.903781 53.858268 
L 55.903781 28.629921 
" style="fill:#f7fbff;"/>
    <path clip-path="url(#p395baa83f6)" d="M 64.210435 28.629921 
L 72.517089 28.629921 
L 72.517089 53.858268 
L 64.210435 53.858268 
L 64.210435 28.629921 
" style="fill:#f7fbff;"/>
    <path clip-path="url(#p395baa83f6)" d="M 72.517089 28.629921 
L 80.823743 28.629921 
L 80.823743 53.858268 
L 72.517089 53.858268 
L 72.517089 28.629921 
" style="fill:#f7fbff;"/>
    <path clip-path="url(#p395baa83f6)" d="M 80.823743 28.629921 
L 89.130397 28.629921 
L 89.130397 53.858268 
L 80.823743 53.858268 
L 80.823743 28.629921 
" style="fill:#f7fbff;"/>
    <path clip-path="url(#p395baa83f6)" d="M 89.130397 28.629921 
L 97.437051 28.629921 
L 97.437051 53.858268 
L 89.130397 53.858268 
L 89.130397 28.629921 
" style="fill:#f7fbff;"/>
    <path clip-path="url(#p395baa83f6)" d="M 97.437051 28.629921 
L 105.743705 28.629921 
L 105.743705 53.858268 
L 97.437051 53.858268 
L 97.437051 28.629921 
" style="fill:#f7fbff;"/>
    <path clip-path="url(#p395baa83f6)" d="M 105.743705 28.629921 
L 114.050359 28.629921 
L 114.050359 53.858268 
L 105.743705 53.858268 
L 105.743705 28.629921 
" style="fill:#f7fbff;"/>
    <path clip-path="url(#p395baa83f6)" d="M 114.050359 28.629921 
L 122.357013 28.629921 
L 122.357013 53.858268 
L 114.050359 53.858268 
L 114.050359 28.629921 
" style="fill:#f7fbff;"/>
    <path clip-path="url(#p395baa83f6)" d="M 122.357013 28.629921 
L 130.663667 28.629921 
L 130.663667 53.858268 
L 122.357013 53.858268 
L 122.357013 28.629921 
" style="fill:#f7fbff;"/>
    <path clip-path="url(#p395baa83f6)" d="M 130.663667 28.629921 
L 138.970321 28.629921 
L 138.970321 53.858268 
L 130.663667 53.858268 
L 130.663667 28.629921 
" style="fill:#f7fbff;"/>
    <path clip-path="url(#p395baa83f6)" d="M 138.970321 28.629921 
L 147.276975 28.629921 
L 147.276975 53.858268 
L 138.970321 53.858268 
L 138.970321 28.629921 
" style="fill:#f7fbff;"/>
    <path clip-path="url(#p395baa83f6)" d="M 22.677165 53.858268 
L 30.983819 53.858268 
L 30.983819 79.086614 
L 22.677165 79.086614 
L 22.677165 53.858268 
" style="fill:#e4eff9;"/>
    <path clip-path="url(#p395baa83f6)" d="M 30.983819 53.858268 
L 39.290473 53.858268 
L 39.290473 79.086614 
L 30.983819 79.086614 
L 30.983819 53.858268 
" style="fill:#e4eff9;"/>
    <path clip-path="url(#p395baa83f6)" d="M 39.290473 53.858268 
L 47.597127 53.858268 
L 47.597127 79.086614 
L 39.290473 79.086614 
L 39.290473 53.858268 
" style="fill:#e4eff9;"/>
    <path clip-path="url(#p395baa83f6)" d="M 47.597127 53.858268 
L 55.903781 53.858268 
L 55.903781 79.086614 
L 47.597127 79.086614 
L 47.597127 53.858268 
" style="fill:#e4eff9;"/>
    <path clip-path="url(#p395baa83f6)" d="M 55.903781 53.858268 
L 64.210435 53.858268 
L 64.210435 79.086614 
L 55.903781 79.086614 
L 55.903781 53.858268 
" style="fill:#e4eff9;"/>
    <path clip-path="url(#p395baa83f6)" d="M 64.210435 53.858268 
L 72.517089 53.858268 
L 72.517089 79.086614 
L 64.210435 79.086614 
L 64.210435 53.858268 
" style="fill:#e4eff9;"/>
    <path clip-path="url(#p395baa83f6)" d="M 72.517089 53.858268 
L 80.823743 53.858268 
L 80.823743 79.086614 
L 72.517089 79.086614 
L 72.517089 53.858268 
" style="fill:#e4eff9;"/>
    <path clip-path="url(#p395baa83f6)" d="M 80.823743 53.858268 
L 89.130397 53.858268 
L 89.130397 79.086614 
L 80.823743 79.086614 
L 80.823743 53.858268 
" style="fill:#e4eff9;"/>
    <path clip-path="url(#p395baa83f6)" d="M 89.130397 53.858268 
L 97.437051 53.858268 
L 97.437051 79.086614 
L 89.130397 79.086614 
L 89.130397 53.858268 
" style="fill:#e4eff9;"/>
    <path clip-path="url(#p395baa83f6)" d="M 97.437051 53.858268 
L 105.743705 53.858268 
L 105.743705 79.086614 
L 97.437051 79.086614 
L 97.437051 53.858268 
" style="fill:#e4eff9;"/>
    <path clip-path="url(#p395baa83f6)" d="M 105.743705 53.858268 
L 114.050359 53.858268 
L 114.050359 79.086614 
L 105.743705 79.086614 
L 105.743705 53.858268 
" style="fill:#e4eff9;"/>
    <path clip-path="url(#p395baa83f6)" d="M 114.050359 53.858268 
L 122.357013 53.858268 
L 122.357013 79.086614 
L 114.050359 79.086614 
L 114.050359 53.858268 
" style="fill:#e4eff9;"/>
    <path clip-path="url(#p395baa83f6)" d="M 122.357013 53.858268 
L 130.663667 53.858268 
L 130.663667 79.086614 
L 122.357013 79.086614 
L 122.357013 53.858268 
" style="fill:#e4eff9;"/>
    <path clip-path="url(#p395baa83f6)" d="M 130.663667 53.858268 
L 138.970321 53.858268 
L 138.970321 79.086614 
L 130.663667 79.086614 
L 130.663667 53.858268 
" style="fill:#e4eff9;"/>
    <path clip-path="url(#p395baa83f6)" d="M 138.970321 53.858268 
L 147.276975 53.858268 
L 147.276975 79.086614 
L 138.970321 79.086614 
L 138.970321 53.858268 
" style="fill:#e4eff9;"/>
    <path clip-path="url(#p395baa83f6)" d="M 22.677165 79.086614 
L 30.983819 79.086614 
L 30.983819 104.314961 
L 22.677165 104.314961 
L 22.677165 79.086614 
" style="fill:#f7fbff;"/>
    <path clip-path="url(#p395baa83f6)" d="M 30.983819 79.086614 
L 39.290473 79.086614 
L 39.290473 104.314961 
L 30.983819 104.314961 
L 30.983819 79.086614 
" style="fill:#f7fbff;"/>
    <path clip-path="url(#p395baa83f6)" d="M 39.290473 79.086614 
L 47.597127 79.086614 
L 47.597127 104.314961 
L 39.290473 104.314961 
L 39.290473 79.086614 
" style="fill:#f7fbff;"/>
    <path clip-path="url(#p395baa83f6)" d="M 47.597127 79.086614 
L 55.903781 79.086614 
L 55.903781 104.314961 
L 47.597127 104.314961 
L 47.597127 79.086614 
" style="fill:#f7fbff;"/>
    <path clip-path="url(#p395baa83f6)" d="M 55.903781 79.086614 
L 64.210435 79.086614 
L 64.210435 104.314961 
L 55.903781 104.314961 
L 55.903781 79.086614 
" style="fill:#f7fbff;"/>
    <path clip-path="url(#p395baa83f6)" d="M 64.210435 79.086614 
L 72.517089 79.086614 
L 72.517089 104.314961 
L 64.210435 104.314961 
L 64.210435 79.086614 
" style="fill:#f7fbff;"/>
    <path clip-path="url(#p395baa83f6)" d="M 72.517089 79.086614 
L 80.823743 79.086614 
L 80.823743 104.314961 
L 72.517089 104.314961 
L 72.517089 79.086614 
" style="fill:#f7fbff;"/>
    <path clip-path="url(#p395baa83f6)" d="M 80.823743 79.086614 
L 89.130397 79.086614 
L 89.130397 104.314961 
L 80.823743 104.314961 
L 80.823743 79.086614 
" style="fill:#f7fbff;"/>
    <path clip-path="url(#p395baa83f6)" d="M 89.130397 79.086614 
L 97.437051 79.086614 
L 97.437051 104.314961 
L 89.130397 104.314961 
L 89.130397 79.086614 
" style="fill:#f2f8fd;"/>
    <path clip-path="url(#p395baa83f6)" d="M 97.437051 79.086614 
L 105.743705 79.086614 
L 105.743705 104.314961 
L 97.437051 104.314961 
L 97.437051 79.086614 
" style="fill:#083471;"/>
    <path clip-path="url(#p395baa83f6)" d="M 105.743705 79.086614 
L 114.050359 79.086614 
L 114.050359 104.314961 
L 105.743705 104.314961 
L 105.743705 79.086614 
" style="fill:#08306b;"/>
    <path clip-path="url(#p395baa83f6)" d="M 114.050359 79.086614 
L 122.357013 79.086614 
L 122.357013 104.314961 
L 114.050359 104.314961 
L 114.050359 79.086614 
" style="fill:#08316d;"/>
    <path clip-path="url(#p395baa83f6)" d="M 122.357013 79.086614 
L 130.663667 79.086614 
L 130.663667 104.314961 
L 122.357013 104.314961 
L 122.357013 79.086614 
" style="fill:#08316d;"/>
    <path clip-path="url(#p395baa83f6)" d="M 130.663667 79.086614 
L 138.970321 79.086614 
L 138.970321 104.314961 
L 130.663667 104.314961 
L 130.663667 79.086614 
" style="fill:#08326e;"/>
    <path clip-path="url(#p395baa83f6)" d="M 138.970321 79.086614 
L 147.276975 79.086614 
L 147.276975 104.314961 
L 138.970321 104.314961 
L 138.970321 79.086614 
" style="fill:#083370;"/>
   </g>
   <g id="matplotlib.axis_1">
    <g id="xtick_1">
     <g id="line2d_1">
      <defs>
       <path d="M 0 0 
L 0 3.5 
" id="m331677ec5f" style="stroke:#000000;stroke-width:0.8;"/>
      </defs>
      <g>
       <use style="stroke:#000000;stroke-width:0.8;" x="22.677165" xlink:href="#m331677ec5f" y="104.314961"/>
      </g>
     </g>
     <g id="text_1">
      <!-- 0 -->
      <g transform="translate(20.768415 115.874023)scale(0.06 -0.06)">
       <defs>
        <path d="M 31.78125 66.40625 
Q 24.171875 66.40625 20.328125 58.90625 
Q 16.5 51.421875 16.5 36.375 
Q 16.5 21.390625 20.328125 13.890625 
Q 24.171875 6.390625 31.78125 6.390625 
Q 39.453125 6.390625 43.28125 13.890625 
Q 47.125 21.390625 47.125 36.375 
Q 47.125 51.421875 43.28125 58.90625 
Q 39.453125 66.40625 31.78125 66.40625 
z
M 31.78125 74.21875 
Q 44.046875 74.21875 50.515625 64.515625 
Q 56.984375 54.828125 56.984375 36.375 
Q 56.984375 17.96875 50.515625 8.265625 
Q 44.046875 -1.421875 31.78125 -1.421875 
Q 19.53125 -1.421875 13.0625 8.265625 
Q 6.59375 17.96875 6.59375 36.375 
Q 6.59375 54.828125 13.0625 64.515625 
Q 19.53125 74.21875 31.78125 74.21875 
z
" id="DejaVuSans-48"/>
       </defs>
       <use xlink:href="#DejaVuSans-48"/>
      </g>
     </g>
    </g>
    <g id="text_2">
     <!-- Time (h) -->
     <g transform="translate(70.351992 126.440742)scale(0.07 -0.07)">
      <defs>
       <path d="M -0.296875 72.90625 
L 61.375 72.90625 
L 61.375 64.59375 
L 35.5 64.59375 
L 35.5 0 
L 25.59375 0 
L 25.59375 64.59375 
L -0.296875 64.59375 
z
" id="DejaVuSans-84"/>
       <path d="M 9.421875 54.6875 
L 18.40625 54.6875 
L 18.40625 0 
L 9.421875 0 
z
M 9.421875 75.984375 
L 18.40625 75.984375 
L 18.40625 64.59375 
L 9.421875 64.59375 
z
" id="DejaVuSans-105"/>
       <path d="M 52 44.1875 
Q 55.375 50.25 60.0625 53.125 
Q 64.75 56 71.09375 56 
Q 79.640625 56 84.28125 50.015625 
Q 88.921875 44.046875 88.921875 33.015625 
L 88.921875 0 
L 79.890625 0 
L 79.890625 32.71875 
Q 79.890625 40.578125 77.09375 44.375 
Q 74.3125 48.1875 68.609375 48.1875 
Q 61.625 48.1875 57.5625 43.546875 
Q 53.515625 38.921875 53.515625 30.90625 
L 53.515625 0 
L 44.484375 0 
L 44.484375 32.71875 
Q 44.484375 40.625 41.703125 44.40625 
Q 38.921875 48.1875 33.109375 48.1875 
Q 26.21875 48.1875 22.15625 43.53125 
Q 18.109375 38.875 18.109375 30.90625 
L 18.109375 0 
L 9.078125 0 
L 9.078125 54.6875 
L 18.109375 54.6875 
L 18.109375 46.1875 
Q 21.1875 51.21875 25.484375 53.609375 
Q 29.78125 56 35.6875 56 
Q 41.65625 56 45.828125 52.96875 
Q 50 49.953125 52 44.1875 
z
" id="DejaVuSans-109"/>
       <path d="M 56.203125 29.59375 
L 56.203125 25.203125 
L 14.890625 25.203125 
Q 15.484375 15.921875 20.484375 11.0625 
Q 25.484375 6.203125 34.421875 6.203125 
Q 39.59375 6.203125 44.453125 7.46875 
Q 49.3125 8.734375 54.109375 11.28125 
L 54.109375 2.78125 
Q 49.265625 0.734375 44.1875 -0.34375 
Q 39.109375 -1.421875 33.890625 -1.421875 
Q 20.796875 -1.421875 13.15625 6.1875 
Q 5.515625 13.8125 5.515625 26.8125 
Q 5.515625 40.234375 12.765625 48.109375 
Q 20.015625 56 32.328125 56 
Q 43.359375 56 49.78125 48.890625 
Q 56.203125 41.796875 56.203125 29.59375 
z
M 47.21875 32.234375 
Q 47.125 39.59375 43.09375 43.984375 
Q 39.0625 48.390625 32.421875 48.390625 
Q 24.90625 48.390625 20.390625 44.140625 
Q 15.875 39.890625 15.1875 32.171875 
z
" id="DejaVuSans-101"/>
       <path id="DejaVuSans-32"/>
       <path d="M 31 75.875 
Q 24.46875 64.65625 21.28125 53.65625 
Q 18.109375 42.671875 18.109375 31.390625 
Q 18.109375 20.125 21.3125 9.0625 
Q 24.515625 -2 31 -13.1875 
L 23.1875 -13.1875 
Q 15.875 -1.703125 12.234375 9.375 
Q 8.59375 20.453125 8.59375 31.390625 
Q 8.59375 42.28125 12.203125 53.3125 
Q 15.828125 64.359375 23.1875 75.875 
z
" id="DejaVuSans-40"/>
       <path d="M 54.890625 33.015625 
L 54.890625 0 
L 45.90625 0 
L 45.90625 32.71875 
Q 45.90625 40.484375 42.875 44.328125 
Q 39.84375 48.1875 33.796875 48.1875 
Q 26.515625 48.1875 22.3125 43.546875 
Q 18.109375 38.921875 18.109375 30.90625 
L 18.109375 0 
L 9.078125 0 
L 9.078125 75.984375 
L 18.109375 75.984375 
L 18.109375 46.1875 
Q 21.34375 51.125 25.703125 53.5625 
Q 30.078125 56 35.796875 56 
Q 45.21875 56 50.046875 50.171875 
Q 54.890625 44.34375 54.890625 33.015625 
z
" id="DejaVuSans-104"/>
       <path d="M 8.015625 75.875 
L 15.828125 75.875 
Q 23.140625 64.359375 26.78125 53.3125 
Q 30.421875 42.28125 30.421875 31.390625 
Q 30.421875 20.453125 26.78125 9.375 
Q 23.140625 -1.703125 15.828125 -13.1875 
L 8.015625 -13.1875 
Q 14.5 -2 17.703125 9.0625 
Q 20.90625 20.125 20.90625 31.390625 
Q 20.90625 42.671875 17.703125 53.65625 
Q 14.5 64.65625 8.015625 75.875 
z
" id="DejaVuSans-41"/>
      </defs>
      <use xlink:href="#DejaVuSans-84"/>
      <use x="57.958984" xlink:href="#DejaVuSans-105"/>
      <use x="85.742188" xlink:href="#DejaVuSans-109"/>
      <use x="183.154297" xlink:href="#DejaVuSans-101"/>
      <use x="244.677734" xlink:href="#DejaVuSans-32"/>
      <use x="276.464844" xlink:href="#DejaVuSans-40"/>
      <use x="315.478516" xlink:href="#DejaVuSans-104"/>
      <use x="378.857422" xlink:href="#DejaVuSans-41"/>
     </g>
    </g>
   </g>
   <g id="matplotlib.axis_2">
    <g id="ytick_1">
     <g id="line2d_2"/>
     <g id="text_3">
      <!-- Burst -->
      <g transform="translate(3.313728 17.671373)scale(0.06 -0.06)">
       <defs>
        <path d="M 19.671875 34.8125 
L 19.671875 8.109375 
L 35.5 8.109375 
Q 43.453125 8.109375 47.28125 11.40625 
Q 51.125 14.703125 51.125 21.484375 
Q 51.125 28.328125 47.28125 31.5625 
Q 43.453125 34.8125 35.5 34.8125 
z
M 19.671875 64.796875 
L 19.671875 42.828125 
L 34.28125 42.828125 
Q 41.5 42.828125 45.03125 45.53125 
Q 48.578125 48.25 48.578125 53.8125 
Q 48.578125 59.328125 45.03125 62.0625 
Q 41.5 64.796875 34.28125 64.796875 
z
M 9.8125 72.90625 
L 35.015625 72.90625 
Q 46.296875 72.90625 52.390625 68.21875 
Q 58.5 63.53125 58.5 54.890625 
Q 58.5 48.1875 55.375 44.234375 
Q 52.25 40.28125 46.1875 39.3125 
Q 53.46875 37.75 57.5 32.78125 
Q 61.53125 27.828125 61.53125 20.40625 
Q 61.53125 10.640625 54.890625 5.3125 
Q 48.25 0 35.984375 0 
L 9.8125 0 
z
" id="DejaVuSans-66"/>
        <path d="M 8.5 21.578125 
L 8.5 54.6875 
L 17.484375 54.6875 
L 17.484375 21.921875 
Q 17.484375 14.15625 20.5 10.265625 
Q 23.53125 6.390625 29.59375 6.390625 
Q 36.859375 6.390625 41.078125 11.03125 
Q 45.3125 15.671875 45.3125 23.6875 
L 45.3125 54.6875 
L 54.296875 54.6875 
L 54.296875 0 
L 45.3125 0 
L 45.3125 8.40625 
Q 42.046875 3.421875 37.71875 1 
Q 33.40625 -1.421875 27.6875 -1.421875 
Q 18.265625 -1.421875 13.375 4.4375 
Q 8.5 10.296875 8.5 21.578125 
z
M 31.109375 56 
z
" id="DejaVuSans-117"/>
        <path d="M 41.109375 46.296875 
Q 39.59375 47.171875 37.8125 47.578125 
Q 36.03125 48 33.890625 48 
Q 26.265625 48 22.1875 43.046875 
Q 18.109375 38.09375 18.109375 28.8125 
L 18.109375 0 
L 9.078125 0 
L 9.078125 54.6875 
L 18.109375 54.6875 
L 18.109375 46.1875 
Q 20.953125 51.171875 25.484375 53.578125 
Q 30.03125 56 36.53125 56 
Q 37.453125 56 38.578125 55.875 
Q 39.703125 55.765625 41.0625 55.515625 
z
" id="DejaVuSans-114"/>
        <path d="M 44.28125 53.078125 
L 44.28125 44.578125 
Q 40.484375 46.53125 36.375 47.5 
Q 32.28125 48.484375 27.875 48.484375 
Q 21.1875 48.484375 17.84375 46.4375 
Q 14.5 44.390625 14.5 40.28125 
Q 14.5 37.15625 16.890625 35.375 
Q 19.28125 33.59375 26.515625 31.984375 
L 29.59375 31.296875 
Q 39.15625 29.25 43.1875 25.515625 
Q 47.21875 21.78125 47.21875 15.09375 
Q 47.21875 7.46875 41.1875 3.015625 
Q 35.15625 -1.421875 24.609375 -1.421875 
Q 20.21875 -1.421875 15.453125 -0.5625 
Q 10.6875 0.296875 5.421875 2 
L 5.421875 11.28125 
Q 10.40625 8.6875 15.234375 7.390625 
Q 20.0625 6.109375 24.8125 6.109375 
Q 31.15625 6.109375 34.5625 8.28125 
Q 37.984375 10.453125 37.984375 14.40625 
Q 37.984375 18.0625 35.515625 20.015625 
Q 33.0625 21.96875 24.703125 23.78125 
L 21.578125 24.515625 
Q 13.234375 26.265625 9.515625 29.90625 
Q 5.8125 33.546875 5.8125 39.890625 
Q 5.8125 47.609375 11.28125 51.796875 
Q 16.75 56 26.8125 56 
Q 31.78125 56 36.171875 55.265625 
Q 40.578125 54.546875 44.28125 53.078125 
z
" id="DejaVuSans-115"/>
        <path d="M 18.3125 70.21875 
L 18.3125 54.6875 
L 36.8125 54.6875 
L 36.8125 47.703125 
L 18.3125 47.703125 
L 18.3125 18.015625 
Q 18.3125 11.328125 20.140625 9.421875 
Q 21.96875 7.515625 27.59375 7.515625 
L 36.8125 7.515625 
L 36.8125 0 
L 27.59375 0 
Q 17.1875 0 13.234375 3.875 
Q 9.28125 7.765625 9.28125 18.015625 
L 9.28125 47.703125 
L 2.6875 47.703125 
L 2.6875 54.6875 
L 9.28125 54.6875 
L 9.28125 70.21875 
z
" id="DejaVuSans-116"/>
       </defs>
       <use xlink:href="#DejaVuSans-66"/>
       <use x="68.603516" xlink:href="#DejaVuSans-117"/>
       <use x="131.982422" xlink:href="#DejaVuSans-114"/>
       <use x="173.095703" xlink:href="#DejaVuSans-115"/>
       <use x="225.195312" xlink:href="#DejaVuSans-116"/>
      </g>
     </g>
    </g>
    <g id="ytick_2">
     <g id="line2d_3"/>
     <g id="text_4">
      <!-- Decay -->
      <g transform="translate(0.338103 42.899719)scale(0.06 -0.06)">
       <defs>
        <path d="M 19.671875 64.796875 
L 19.671875 8.109375 
L 31.59375 8.109375 
Q 46.6875 8.109375 53.6875 14.9375 
Q 60.6875 21.78125 60.6875 36.53125 
Q 60.6875 51.171875 53.6875 57.984375 
Q 46.6875 64.796875 31.59375 64.796875 
z
M 9.8125 72.90625 
L 30.078125 72.90625 
Q 51.265625 72.90625 61.171875 64.09375 
Q 71.09375 55.28125 71.09375 36.53125 
Q 71.09375 17.671875 61.125 8.828125 
Q 51.171875 0 30.078125 0 
L 9.8125 0 
z
" id="DejaVuSans-68"/>
        <path d="M 48.78125 52.59375 
L 48.78125 44.1875 
Q 44.96875 46.296875 41.140625 47.34375 
Q 37.3125 48.390625 33.40625 48.390625 
Q 24.65625 48.390625 19.8125 42.84375 
Q 14.984375 37.3125 14.984375 27.296875 
Q 14.984375 17.28125 19.8125 11.734375 
Q 24.65625 6.203125 33.40625 6.203125 
Q 37.3125 6.203125 41.140625 7.25 
Q 44.96875 8.296875 48.78125 10.40625 
L 48.78125 2.09375 
Q 45.015625 0.34375 40.984375 -0.53125 
Q 36.96875 -1.421875 32.421875 -1.421875 
Q 20.0625 -1.421875 12.78125 6.34375 
Q 5.515625 14.109375 5.515625 27.296875 
Q 5.515625 40.671875 12.859375 48.328125 
Q 20.21875 56 33.015625 56 
Q 37.15625 56 41.109375 55.140625 
Q 45.0625 54.296875 48.78125 52.59375 
z
" id="DejaVuSans-99"/>
        <path d="M 34.28125 27.484375 
Q 23.390625 27.484375 19.1875 25 
Q 14.984375 22.515625 14.984375 16.5 
Q 14.984375 11.71875 18.140625 8.90625 
Q 21.296875 6.109375 26.703125 6.109375 
Q 34.1875 6.109375 38.703125 11.40625 
Q 43.21875 16.703125 43.21875 25.484375 
L 43.21875 27.484375 
z
M 52.203125 31.203125 
L 52.203125 0 
L 43.21875 0 
L 43.21875 8.296875 
Q 40.140625 3.328125 35.546875 0.953125 
Q 30.953125 -1.421875 24.3125 -1.421875 
Q 15.921875 -1.421875 10.953125 3.296875 
Q 6 8.015625 6 15.921875 
Q 6 25.140625 12.171875 29.828125 
Q 18.359375 34.515625 30.609375 34.515625 
L 43.21875 34.515625 
L 43.21875 35.40625 
Q 43.21875 41.609375 39.140625 45 
Q 35.0625 48.390625 27.6875 48.390625 
Q 23 48.390625 18.546875 47.265625 
Q 14.109375 46.140625 10.015625 43.890625 
L 10.015625 52.203125 
Q 14.9375 54.109375 19.578125 55.046875 
Q 24.21875 56 28.609375 56 
Q 40.484375 56 46.34375 49.84375 
Q 52.203125 43.703125 52.203125 31.203125 
z
" id="DejaVuSans-97"/>
        <path d="M 32.171875 -5.078125 
Q 28.375 -14.84375 24.75 -17.8125 
Q 21.140625 -20.796875 15.09375 -20.796875 
L 7.90625 -20.796875 
L 7.90625 -13.28125 
L 13.1875 -13.28125 
Q 16.890625 -13.28125 18.9375 -11.515625 
Q 21 -9.765625 23.484375 -3.21875 
L 25.09375 0.875 
L 2.984375 54.6875 
L 12.5 54.6875 
L 29.59375 11.921875 
L 46.6875 54.6875 
L 56.203125 54.6875 
z
" id="DejaVuSans-121"/>
       </defs>
       <use xlink:href="#DejaVuSans-68"/>
       <use x="77.001953" xlink:href="#DejaVuSans-101"/>
       <use x="138.525391" xlink:href="#DejaVuSans-99"/>
       <use x="193.505859" xlink:href="#DejaVuSans-97"/>
       <use x="254.785156" xlink:href="#DejaVuSans-121"/>
      </g>
     </g>
    </g>
    <g id="ytick_3">
     <g id="line2d_4"/>
     <g id="text_5">
      <!-- Growth -->
      <g transform="translate(-2.536272 68.128066)scale(0.06 -0.06)">
       <defs>
        <path d="M 59.515625 10.40625 
L 59.515625 29.984375 
L 43.40625 29.984375 
L 43.40625 38.09375 
L 69.28125 38.09375 
L 69.28125 6.78125 
Q 63.578125 2.734375 56.6875 0.65625 
Q 49.8125 -1.421875 42 -1.421875 
Q 24.90625 -1.421875 15.25 8.5625 
Q 5.609375 18.5625 5.609375 36.375 
Q 5.609375 54.25 15.25 64.234375 
Q 24.90625 74.21875 42 74.21875 
Q 49.125 74.21875 55.546875 72.453125 
Q 61.96875 70.703125 67.390625 67.28125 
L 67.390625 56.78125 
Q 61.921875 61.421875 55.765625 63.765625 
Q 49.609375 66.109375 42.828125 66.109375 
Q 29.4375 66.109375 22.71875 58.640625 
Q 16.015625 51.171875 16.015625 36.375 
Q 16.015625 21.625 22.71875 14.15625 
Q 29.4375 6.6875 42.828125 6.6875 
Q 48.046875 6.6875 52.140625 7.59375 
Q 56.25 8.5 59.515625 10.40625 
z
" id="DejaVuSans-71"/>
        <path d="M 30.609375 48.390625 
Q 23.390625 48.390625 19.1875 42.75 
Q 14.984375 37.109375 14.984375 27.296875 
Q 14.984375 17.484375 19.15625 11.84375 
Q 23.34375 6.203125 30.609375 6.203125 
Q 37.796875 6.203125 41.984375 11.859375 
Q 46.1875 17.53125 46.1875 27.296875 
Q 46.1875 37.015625 41.984375 42.703125 
Q 37.796875 48.390625 30.609375 48.390625 
z
M 30.609375 56 
Q 42.328125 56 49.015625 48.375 
Q 55.71875 40.765625 55.71875 27.296875 
Q 55.71875 13.875 49.015625 6.21875 
Q 42.328125 -1.421875 30.609375 -1.421875 
Q 18.84375 -1.421875 12.171875 6.21875 
Q 5.515625 13.875 5.515625 27.296875 
Q 5.515625 40.765625 12.171875 48.375 
Q 18.84375 56 30.609375 56 
z
" id="DejaVuSans-111"/>
        <path d="M 4.203125 54.6875 
L 13.1875 54.6875 
L 24.421875 12.015625 
L 35.59375 54.6875 
L 46.1875 54.6875 
L 57.421875 12.015625 
L 68.609375 54.6875 
L 77.59375 54.6875 
L 63.28125 0 
L 52.6875 0 
L 40.921875 44.828125 
L 29.109375 0 
L 18.5 0 
z
" id="DejaVuSans-119"/>
       </defs>
       <use xlink:href="#DejaVuSans-71"/>
       <use x="77.490234" xlink:href="#DejaVuSans-114"/>
       <use x="116.353516" xlink:href="#DejaVuSans-111"/>
       <use x="177.535156" xlink:href="#DejaVuSans-119"/>
       <use x="259.322266" xlink:href="#DejaVuSans-116"/>
       <use x="298.53125" xlink:href="#DejaVuSans-104"/>
      </g>
     </g>
    </g>
    <g id="ytick_4">
     <g id="line2d_5"/>
     <g id="text_6">
      <!-- Predation -->
      <g transform="translate(-9.337835 93.356412)scale(0.06 -0.06)">
       <defs>
        <path d="M 19.671875 64.796875 
L 19.671875 37.40625 
L 32.078125 37.40625 
Q 38.96875 37.40625 42.71875 40.96875 
Q 46.484375 44.53125 46.484375 51.125 
Q 46.484375 57.671875 42.71875 61.234375 
Q 38.96875 64.796875 32.078125 64.796875 
z
M 9.8125 72.90625 
L 32.078125 72.90625 
Q 44.34375 72.90625 50.609375 67.359375 
Q 56.890625 61.8125 56.890625 51.125 
Q 56.890625 40.328125 50.609375 34.8125 
Q 44.34375 29.296875 32.078125 29.296875 
L 19.671875 29.296875 
L 19.671875 0 
L 9.8125 0 
z
" id="DejaVuSans-80"/>
        <path d="M 45.40625 46.390625 
L 45.40625 75.984375 
L 54.390625 75.984375 
L 54.390625 0 
L 45.40625 0 
L 45.40625 8.203125 
Q 42.578125 3.328125 38.25 0.953125 
Q 33.9375 -1.421875 27.875 -1.421875 
Q 17.96875 -1.421875 11.734375 6.484375 
Q 5.515625 14.40625 5.515625 27.296875 
Q 5.515625 40.1875 11.734375 48.09375 
Q 17.96875 56 27.875 56 
Q 33.9375 56 38.25 53.625 
Q 42.578125 51.265625 45.40625 46.390625 
z
M 14.796875 27.296875 
Q 14.796875 17.390625 18.875 11.75 
Q 22.953125 6.109375 30.078125 6.109375 
Q 37.203125 6.109375 41.296875 11.75 
Q 45.40625 17.390625 45.40625 27.296875 
Q 45.40625 37.203125 41.296875 42.84375 
Q 37.203125 48.484375 30.078125 48.484375 
Q 22.953125 48.484375 18.875 42.84375 
Q 14.796875 37.203125 14.796875 27.296875 
z
" id="DejaVuSans-100"/>
        <path d="M 54.890625 33.015625 
L 54.890625 0 
L 45.90625 0 
L 45.90625 32.71875 
Q 45.90625 40.484375 42.875 44.328125 
Q 39.84375 48.1875 33.796875 48.1875 
Q 26.515625 48.1875 22.3125 43.546875 
Q 18.109375 38.921875 18.109375 30.90625 
L 18.109375 0 
L 9.078125 0 
L 9.078125 54.6875 
L 18.109375 54.6875 
L 18.109375 46.1875 
Q 21.34375 51.125 25.703125 53.5625 
Q 30.078125 56 35.796875 56 
Q 45.21875 56 50.046875 50.171875 
Q 54.890625 44.34375 54.890625 33.015625 
z
" id="DejaVuSans-110"/>
       </defs>
       <use xlink:href="#DejaVuSans-80"/>
       <use x="58.552734" xlink:href="#DejaVuSans-114"/>
       <use x="97.416016" xlink:href="#DejaVuSans-101"/>
       <use x="158.939453" xlink:href="#DejaVuSans-100"/>
       <use x="222.416016" xlink:href="#DejaVuSans-97"/>
       <use x="283.695312" xlink:href="#DejaVuSans-116"/>
       <use x="322.904297" xlink:href="#DejaVuSans-105"/>
       <use x="350.6875" xlink:href="#DejaVuSans-111"/>
       <use x="411.869141" xlink:href="#DejaVuSans-110"/>
      </g>
     </g>
    </g>
   </g>
  </g>
 </g>
 <defs>
  <clipPath id="p395baa83f6">
   <rect height="100.913386" width="124.59981" x="22.677165" y="3.401575"/>
  </clipPath>
 </defs>
</svg>
