<?xml version="1.0" encoding="utf-8" standalone="no"?>
<!DOCTYPE svg PUBLIC "-//W3C//DTD SVG 1.1//EN"
  "http://www.w3.org/Graphics/SVG/1.1/DTD/svg11.dtd">
<svg xmlns:xlink="http://www.w3.org/1999/xlink" width="449.230315pt" height="330.234125pt" viewBox="0 0 449.230315 330.234125" xmlns="http://www.w3.org/2000/svg" version="1.1">
 <metadata>
  <rdf:RDF xmlns:dc="http://purl.org/dc/elements/1.1/" xmlns:cc="http://creativecommons.org/ns#" xmlns:rdf="http://www.w3.org/1999/02/22-rdf-syntax-ns#">
   <cc:Work>
    <dc:type rdf:resource="http://purl.org/dc/dcmitype/StillImage"/>
    <dc:date>2025-02-27T13:06:46.395293</dc:date>
    <dc:format>image/svg+xml</dc:format>
    <dc:creator>
     <cc:Agent>
      <dc:title>Matplotlib v3.10.0, https://matplotlib.org/</dc:title>
     </cc:Agent>
    </dc:creator>
   </cc:Work>
  </rdf:RDF>
 </metadata>
 <defs>
  <style type="text/css">*{stroke-linejoin: round; stroke-linecap: butt}</style>
 </defs>
 <g id="figure_1">
  <g id="patch_1">
   <path d="M 0 330.234125 
L 449.230315 330.234125 
L 449.230315 0 
L 0 0 
z
" style="fill: #ffffff"/>
  </g>
  <g id="axes_1">
   <g id="patch_2">
    <path d="M 46.2 291.256 
L 442.030315 291.256 
L 442.030315 7.2 
L 46.2 7.2 
z
" style="fill: #ffffff"/>
   </g>
   <g id="PathCollection_1">
    <defs>
     <path id="m566998f68c" d="M 0 5 
C 1.326016 5 2.597899 4.473168 3.535534 3.535534 
C 4.473168 2.597899 5 1.326016 5 0 
C 5 -1.326016 4.473168 -2.597899 3.535534 -3.535534 
C 2.597899 -4.473168 1.326016 -5 0 -5 
C -1.326016 -5 -2.597899 -4.473168 -3.535534 -3.535534 
C -4.473168 -2.597899 -5 -1.326016 -5 0 
C -5 1.326016 -4.473168 2.597899 -3.535534 3.535534 
C -2.597899 4.473168 -1.326016 5 0 5 
z
" style="stroke: #7f7f7f"/>
    </defs>
    <g clip-path="url(#p7ad14300c5)">
     <use xlink:href="#m566998f68c" x="209.606126" y="192.676178" style="fill: #7f7f7f; stroke: #7f7f7f"/>
     <use xlink:href="#m566998f68c" x="71.706107" y="85.851832" style="fill: #7f7f7f; stroke: #7f7f7f"/>
    </g>
   </g>
   <g id="matplotlib.axis_1">
    <g id="xtick_1">
     <g id="line2d_1">
      <defs>
       <path id="ma443a20e97" d="M 0 0 
L 0 3.5 
" style="stroke: #000000; stroke-width: 0.8"/>
      </defs>
      <g>
       <use xlink:href="#ma443a20e97" x="62.667457" y="291.256" style="stroke: #000000; stroke-width: 0.8"/>
      </g>
     </g>
     <g id="text_1">
      <!-- $\mathdefault{10^{1}}$ -->
      <g transform="translate(53.867457 305.854437) scale(0.1 -0.1)">
       <defs>
        <path id="DejaVuSans-31" d="M 794 531 
L 1825 531 
L 1825 4091 
L 703 3866 
L 703 4441 
L 1819 4666 
L 2450 4666 
L 2450 531 
L 3481 531 
L 3481 0 
L 794 0 
L 794 531 
z
" transform="scale(0.015625)"/>
        <path id="DejaVuSans-30" d="M 2034 4250 
Q 1547 4250 1301 3770 
Q 1056 3291 1056 2328 
Q 1056 1369 1301 889 
Q 1547 409 2034 409 
Q 2525 409 2770 889 
Q 3016 1369 3016 2328 
Q 3016 3291 2770 3770 
Q 2525 4250 2034 4250 
z
M 2034 4750 
Q 2819 4750 3233 4129 
Q 3647 3509 3647 2328 
Q 3647 1150 3233 529 
Q 2819 -91 2034 -91 
Q 1250 -91 836 529 
Q 422 1150 422 2328 
Q 422 3509 836 4129 
Q 1250 4750 2034 4750 
z
" transform="scale(0.015625)"/>
       </defs>
       <use xlink:href="#DejaVuSans-31" transform="translate(0 0.684375)"/>
       <use xlink:href="#DejaVuSans-30" transform="translate(63.623047 0.684375)"/>
       <use xlink:href="#DejaVuSans-31" transform="translate(128.203125 38.965625) scale(0.7)"/>
      </g>
     </g>
    </g>
    <g id="xtick_2">
     <g id="line2d_2">
      <g>
       <use xlink:href="#ma443a20e97" x="123.304585" y="291.256" style="stroke: #000000; stroke-width: 0.8"/>
      </g>
     </g>
     <g id="text_2">
      <!-- $\mathdefault{10^{2}}$ -->
      <g transform="translate(114.504585 305.854437) scale(0.1 -0.1)">
       <defs>
        <path id="DejaVuSans-32" d="M 1228 531 
L 3431 531 
L 3431 0 
L 469 0 
L 469 531 
Q 828 903 1448 1529 
Q 2069 2156 2228 2338 
Q 2531 2678 2651 2914 
Q 2772 3150 2772 3378 
Q 2772 3750 2511 3984 
Q 2250 4219 1831 4219 
Q 1534 4219 1204 4116 
Q 875 4013 500 3803 
L 500 4441 
Q 881 4594 1212 4672 
Q 1544 4750 1819 4750 
Q 2544 4750 2975 4387 
Q 3406 4025 3406 3419 
Q 3406 3131 3298 2873 
Q 3191 2616 2906 2266 
Q 2828 2175 2409 1742 
Q 1991 1309 1228 531 
z
" transform="scale(0.015625)"/>
       </defs>
       <use xlink:href="#DejaVuSans-31" transform="translate(0 0.765625)"/>
       <use xlink:href="#DejaVuSans-30" transform="translate(63.623047 0.765625)"/>
       <use xlink:href="#DejaVuSans-32" transform="translate(128.203125 39.046875) scale(0.7)"/>
      </g>
     </g>
    </g>
    <g id="xtick_3">
     <g id="line2d_3">
      <g>
       <use xlink:href="#ma443a20e97" x="183.941712" y="291.256" style="stroke: #000000; stroke-width: 0.8"/>
      </g>
     </g>
     <g id="text_3">
      <!-- $\mathdefault{10^{3}}$ -->
      <g transform="translate(175.141712 305.854437) scale(0.1 -0.1)">
       <defs>
        <path id="DejaVuSans-33" d="M 2597 2516 
Q 3050 2419 3304 2112 
Q 3559 1806 3559 1356 
Q 3559 666 3084 287 
Q 2609 -91 1734 -91 
Q 1441 -91 1130 -33 
Q 819 25 488 141 
L 488 750 
Q 750 597 1062 519 
Q 1375 441 1716 441 
Q 2309 441 2620 675 
Q 2931 909 2931 1356 
Q 2931 1769 2642 2001 
Q 2353 2234 1838 2234 
L 1294 2234 
L 1294 2753 
L 1863 2753 
Q 2328 2753 2575 2939 
Q 2822 3125 2822 3475 
Q 2822 3834 2567 4026 
Q 2313 4219 1838 4219 
Q 1578 4219 1281 4162 
Q 984 4106 628 3988 
L 628 4550 
Q 988 4650 1302 4700 
Q 1616 4750 1894 4750 
Q 2613 4750 3031 4423 
Q 3450 4097 3450 3541 
Q 3450 3153 3228 2886 
Q 3006 2619 2597 2516 
z
" transform="scale(0.015625)"/>
       </defs>
       <use xlink:href="#DejaVuSans-31" transform="translate(0 0.765625)"/>
       <use xlink:href="#DejaVuSans-30" transform="translate(63.623047 0.765625)"/>
       <use xlink:href="#DejaVuSans-33" transform="translate(128.203125 39.046875) scale(0.7)"/>
      </g>
     </g>
    </g>
    <g id="xtick_4">
     <g id="line2d_4">
      <g>
       <use xlink:href="#ma443a20e97" x="244.578839" y="291.256" style="stroke: #000000; stroke-width: 0.8"/>
      </g>
     </g>
     <g id="text_4">
      <!-- $\mathdefault{10^{4}}$ -->
      <g transform="translate(235.778839 305.854437) scale(0.1 -0.1)">
       <defs>
        <path id="DejaVuSans-34" d="M 2419 4116 
L 825 1625 
L 2419 1625 
L 2419 4116 
z
M 2253 4666 
L 3047 4666 
L 3047 1625 
L 3713 1625 
L 3713 1100 
L 3047 1100 
L 3047 0 
L 2419 0 
L 2419 1100 
L 313 1100 
L 313 1709 
L 2253 4666 
z
" transform="scale(0.015625)"/>
       </defs>
       <use xlink:href="#DejaVuSans-31" transform="translate(0 0.684375)"/>
       <use xlink:href="#DejaVuSans-30" transform="translate(63.623047 0.684375)"/>
       <use xlink:href="#DejaVuSans-34" transform="translate(128.203125 38.965625) scale(0.7)"/>
      </g>
     </g>
    </g>
    <g id="xtick_5">
     <g id="line2d_5">
      <g>
       <use xlink:href="#ma443a20e97" x="305.215967" y="291.256" style="stroke: #000000; stroke-width: 0.8"/>
      </g>
     </g>
     <g id="text_5">
      <!-- $\mathdefault{10^{5}}$ -->
      <g transform="translate(296.415967 305.854437) scale(0.1 -0.1)">
       <defs>
        <path id="DejaVuSans-35" d="M 691 4666 
L 3169 4666 
L 3169 4134 
L 1269 4134 
L 1269 2991 
Q 1406 3038 1543 3061 
Q 1681 3084 1819 3084 
Q 2600 3084 3056 2656 
Q 3513 2228 3513 1497 
Q 3513 744 3044 326 
Q 2575 -91 1722 -91 
Q 1428 -91 1123 -41 
Q 819 9 494 109 
L 494 744 
Q 775 591 1075 516 
Q 1375 441 1709 441 
Q 2250 441 2565 725 
Q 2881 1009 2881 1497 
Q 2881 1984 2565 2268 
Q 2250 2553 1709 2553 
Q 1456 2553 1204 2497 
Q 953 2441 691 2322 
L 691 4666 
z
" transform="scale(0.015625)"/>
       </defs>
       <use xlink:href="#DejaVuSans-31" transform="translate(0 0.684375)"/>
       <use xlink:href="#DejaVuSans-30" transform="translate(63.623047 0.684375)"/>
       <use xlink:href="#DejaVuSans-35" transform="translate(128.203125 38.965625) scale(0.7)"/>
      </g>
     </g>
    </g>
    <g id="xtick_6">
     <g id="line2d_6">
      <g>
       <use xlink:href="#ma443a20e97" x="365.853094" y="291.256" style="stroke: #000000; stroke-width: 0.8"/>
      </g>
     </g>
     <g id="text_6">
      <!-- $\mathdefault{10^{6}}$ -->
      <g transform="translate(357.053094 305.854437) scale(0.1 -0.1)">
       <defs>
        <path id="DejaVuSans-36" d="M 2113 2584 
Q 1688 2584 1439 2293 
Q 1191 2003 1191 1497 
Q 1191 994 1439 701 
Q 1688 409 2113 409 
Q 2538 409 2786 701 
Q 3034 994 3034 1497 
Q 3034 2003 2786 2293 
Q 2538 2584 2113 2584 
z
M 3366 4563 
L 3366 3988 
Q 3128 4100 2886 4159 
Q 2644 4219 2406 4219 
Q 1781 4219 1451 3797 
Q 1122 3375 1075 2522 
Q 1259 2794 1537 2939 
Q 1816 3084 2150 3084 
Q 2853 3084 3261 2657 
Q 3669 2231 3669 1497 
Q 3669 778 3244 343 
Q 2819 -91 2113 -91 
Q 1303 -91 875 529 
Q 447 1150 447 2328 
Q 447 3434 972 4092 
Q 1497 4750 2381 4750 
Q 2619 4750 2861 4703 
Q 3103 4656 3366 4563 
z
" transform="scale(0.015625)"/>
       </defs>
       <use xlink:href="#DejaVuSans-31" transform="translate(0 0.765625)"/>
       <use xlink:href="#DejaVuSans-30" transform="translate(63.623047 0.765625)"/>
       <use xlink:href="#DejaVuSans-36" transform="translate(128.203125 39.046875) scale(0.7)"/>
      </g>
     </g>
    </g>
    <g id="xtick_7">
     <g id="line2d_7">
      <g>
       <use xlink:href="#ma443a20e97" x="426.490222" y="291.256" style="stroke: #000000; stroke-width: 0.8"/>
      </g>
     </g>
     <g id="text_7">
      <!-- $\mathdefault{10^{7}}$ -->
      <g transform="translate(417.690222 305.854437) scale(0.1 -0.1)">
       <defs>
        <path id="DejaVuSans-37" d="M 525 4666 
L 3525 4666 
L 3525 4397 
L 1831 0 
L 1172 0 
L 2766 4134 
L 525 4134 
L 525 4666 
z
" transform="scale(0.015625)"/>
       </defs>
       <use xlink:href="#DejaVuSans-31" transform="translate(0 0.684375)"/>
       <use xlink:href="#DejaVuSans-30" transform="translate(63.623047 0.684375)"/>
       <use xlink:href="#DejaVuSans-37" transform="translate(128.203125 38.965625) scale(0.7)"/>
      </g>
     </g>
    </g>
    <g id="text_8">
     <!-- Prey Concentration ($ml^{-1}$) -->
     <g transform="translate(178.615158 320.934125) scale(0.1 -0.1)">
      <defs>
       <path id="DejaVuSans-50" d="M 1259 4147 
L 1259 2394 
L 2053 2394 
Q 2494 2394 2734 2622 
Q 2975 2850 2975 3272 
Q 2975 3691 2734 3919 
Q 2494 4147 2053 4147 
L 1259 4147 
z
M 628 4666 
L 2053 4666 
Q 2838 4666 3239 4311 
Q 3641 3956 3641 3272 
Q 3641 2581 3239 2228 
Q 2838 1875 2053 1875 
L 1259 1875 
L 1259 0 
L 628 0 
L 628 4666 
z
" transform="scale(0.015625)"/>
       <path id="DejaVuSans-72" d="M 2631 2963 
Q 2534 3019 2420 3045 
Q 2306 3072 2169 3072 
Q 1681 3072 1420 2755 
Q 1159 2438 1159 1844 
L 1159 0 
L 581 0 
L 581 3500 
L 1159 3500 
L 1159 2956 
Q 1341 3275 1631 3429 
Q 1922 3584 2338 3584 
Q 2397 3584 2469 3576 
Q 2541 3569 2628 3553 
L 2631 2963 
z
" transform="scale(0.015625)"/>
       <path id="DejaVuSans-65" d="M 3597 1894 
L 3597 1613 
L 953 1613 
Q 991 1019 1311 708 
Q 1631 397 2203 397 
Q 2534 397 2845 478 
Q 3156 559 3463 722 
L 3463 178 
Q 3153 47 2828 -22 
Q 2503 -91 2169 -91 
Q 1331 -91 842 396 
Q 353 884 353 1716 
Q 353 2575 817 3079 
Q 1281 3584 2069 3584 
Q 2775 3584 3186 3129 
Q 3597 2675 3597 1894 
z
M 3022 2063 
Q 3016 2534 2758 2815 
Q 2500 3097 2075 3097 
Q 1594 3097 1305 2825 
Q 1016 2553 972 2059 
L 3022 2063 
z
" transform="scale(0.015625)"/>
       <path id="DejaVuSans-79" d="M 2059 -325 
Q 1816 -950 1584 -1140 
Q 1353 -1331 966 -1331 
L 506 -1331 
L 506 -850 
L 844 -850 
Q 1081 -850 1212 -737 
Q 1344 -625 1503 -206 
L 1606 56 
L 191 3500 
L 800 3500 
L 1894 763 
L 2988 3500 
L 3597 3500 
L 2059 -325 
z
" transform="scale(0.015625)"/>
       <path id="DejaVuSans-20" transform="scale(0.015625)"/>
       <path id="DejaVuSans-43" d="M 4122 4306 
L 4122 3641 
Q 3803 3938 3442 4084 
Q 3081 4231 2675 4231 
Q 1875 4231 1450 3742 
Q 1025 3253 1025 2328 
Q 1025 1406 1450 917 
Q 1875 428 2675 428 
Q 3081 428 3442 575 
Q 3803 722 4122 1019 
L 4122 359 
Q 3791 134 3420 21 
Q 3050 -91 2638 -91 
Q 1578 -91 968 557 
Q 359 1206 359 2328 
Q 359 3453 968 4101 
Q 1578 4750 2638 4750 
Q 3056 4750 3426 4639 
Q 3797 4528 4122 4306 
z
" transform="scale(0.015625)"/>
       <path id="DejaVuSans-6f" d="M 1959 3097 
Q 1497 3097 1228 2736 
Q 959 2375 959 1747 
Q 959 1119 1226 758 
Q 1494 397 1959 397 
Q 2419 397 2687 759 
Q 2956 1122 2956 1747 
Q 2956 2369 2687 2733 
Q 2419 3097 1959 3097 
z
M 1959 3584 
Q 2709 3584 3137 3096 
Q 3566 2609 3566 1747 
Q 3566 888 3137 398 
Q 2709 -91 1959 -91 
Q 1206 -91 779 398 
Q 353 888 353 1747 
Q 353 2609 779 3096 
Q 1206 3584 1959 3584 
z
" transform="scale(0.015625)"/>
       <path id="DejaVuSans-6e" d="M 3513 2113 
L 3513 0 
L 2938 0 
L 2938 2094 
Q 2938 2591 2744 2837 
Q 2550 3084 2163 3084 
Q 1697 3084 1428 2787 
Q 1159 2491 1159 1978 
L 1159 0 
L 581 0 
L 581 3500 
L 1159 3500 
L 1159 2956 
Q 1366 3272 1645 3428 
Q 1925 3584 2291 3584 
Q 2894 3584 3203 3211 
Q 3513 2838 3513 2113 
z
" transform="scale(0.015625)"/>
       <path id="DejaVuSans-63" d="M 3122 3366 
L 3122 2828 
Q 2878 2963 2633 3030 
Q 2388 3097 2138 3097 
Q 1578 3097 1268 2742 
Q 959 2388 959 1747 
Q 959 1106 1268 751 
Q 1578 397 2138 397 
Q 2388 397 2633 464 
Q 2878 531 3122 666 
L 3122 134 
Q 2881 22 2623 -34 
Q 2366 -91 2075 -91 
Q 1284 -91 818 406 
Q 353 903 353 1747 
Q 353 2603 823 3093 
Q 1294 3584 2113 3584 
Q 2378 3584 2631 3529 
Q 2884 3475 3122 3366 
z
" transform="scale(0.015625)"/>
       <path id="DejaVuSans-74" d="M 1172 4494 
L 1172 3500 
L 2356 3500 
L 2356 3053 
L 1172 3053 
L 1172 1153 
Q 1172 725 1289 603 
Q 1406 481 1766 481 
L 2356 481 
L 2356 0 
L 1766 0 
Q 1100 0 847 248 
Q 594 497 594 1153 
L 594 3053 
L 172 3053 
L 172 3500 
L 594 3500 
L 594 4494 
L 1172 4494 
z
" transform="scale(0.015625)"/>
       <path id="DejaVuSans-61" d="M 2194 1759 
Q 1497 1759 1228 1600 
Q 959 1441 959 1056 
Q 959 750 1161 570 
Q 1363 391 1709 391 
Q 2188 391 2477 730 
Q 2766 1069 2766 1631 
L 2766 1759 
L 2194 1759 
z
M 3341 1997 
L 3341 0 
L 2766 0 
L 2766 531 
Q 2569 213 2275 61 
Q 1981 -91 1556 -91 
Q 1019 -91 701 211 
Q 384 513 384 1019 
Q 384 1609 779 1909 
Q 1175 2209 1959 2209 
L 2766 2209 
L 2766 2266 
Q 2766 2663 2505 2880 
Q 2244 3097 1772 3097 
Q 1472 3097 1187 3025 
Q 903 2953 641 2809 
L 641 3341 
Q 956 3463 1253 3523 
Q 1550 3584 1831 3584 
Q 2591 3584 2966 3190 
Q 3341 2797 3341 1997 
z
" transform="scale(0.015625)"/>
       <path id="DejaVuSans-69" d="M 603 3500 
L 1178 3500 
L 1178 0 
L 603 0 
L 603 3500 
z
M 603 4863 
L 1178 4863 
L 1178 4134 
L 603 4134 
L 603 4863 
z
" transform="scale(0.015625)"/>
       <path id="DejaVuSans-28" d="M 1984 4856 
Q 1566 4138 1362 3434 
Q 1159 2731 1159 2009 
Q 1159 1288 1364 580 
Q 1569 -128 1984 -844 
L 1484 -844 
Q 1016 -109 783 600 
Q 550 1309 550 2009 
Q 550 2706 781 3412 
Q 1013 4119 1484 4856 
L 1984 4856 
z
" transform="scale(0.015625)"/>
       <path id="DejaVuSans-Oblique-6d" d="M 5747 2113 
L 5338 0 
L 4763 0 
L 5166 2094 
Q 5191 2228 5203 2325 
Q 5216 2422 5216 2491 
Q 5216 2772 5059 2928 
Q 4903 3084 4622 3084 
Q 4203 3084 3875 2770 
Q 3547 2456 3450 1953 
L 3066 0 
L 2491 0 
L 2900 2094 
Q 2925 2209 2937 2307 
Q 2950 2406 2950 2484 
Q 2950 2769 2794 2926 
Q 2638 3084 2363 3084 
Q 1938 3084 1609 2770 
Q 1281 2456 1184 1953 
L 800 0 
L 225 0 
L 909 3500 
L 1484 3500 
L 1375 2956 
Q 1609 3263 1923 3423 
Q 2238 3584 2597 3584 
Q 2978 3584 3223 3384 
Q 3469 3184 3519 2828 
Q 3781 3197 4126 3390 
Q 4472 3584 4856 3584 
Q 5306 3584 5551 3325 
Q 5797 3066 5797 2591 
Q 5797 2488 5784 2364 
Q 5772 2241 5747 2113 
z
" transform="scale(0.015625)"/>
       <path id="DejaVuSans-Oblique-6c" d="M 1172 4863 
L 1747 4863 
L 800 0 
L 225 0 
L 1172 4863 
z
" transform="scale(0.015625)"/>
       <path id="DejaVuSans-2212" d="M 678 2272 
L 4684 2272 
L 4684 1741 
L 678 1741 
L 678 2272 
z
" transform="scale(0.015625)"/>
       <path id="DejaVuSans-29" d="M 513 4856 
L 1013 4856 
Q 1481 4119 1714 3412 
Q 1947 2706 1947 2009 
Q 1947 1309 1714 600 
Q 1481 -109 1013 -844 
L 513 -844 
Q 928 -128 1133 580 
Q 1338 1288 1338 2009 
Q 1338 2731 1133 3434 
Q 928 4138 513 4856 
z
" transform="scale(0.015625)"/>
      </defs>
      <use xlink:href="#DejaVuSans-50" transform="translate(0 0.684375)"/>
      <use xlink:href="#DejaVuSans-72" transform="translate(60.302734 0.684375)"/>
      <use xlink:href="#DejaVuSans-65" transform="translate(101.416016 0.684375)"/>
      <use xlink:href="#DejaVuSans-79" transform="translate(162.939453 0.684375)"/>
      <use xlink:href="#DejaVuSans-20" transform="translate(222.119141 0.684375)"/>
      <use xlink:href="#DejaVuSans-43" transform="translate(253.90625 0.684375)"/>
      <use xlink:href="#DejaVuSans-6f" transform="translate(323.730469 0.684375)"/>
      <use xlink:href="#DejaVuSans-6e" transform="translate(384.912109 0.684375)"/>
      <use xlink:href="#DejaVuSans-63" transform="translate(448.291016 0.684375)"/>
      <use xlink:href="#DejaVuSans-65" transform="translate(503.271484 0.684375)"/>
      <use xlink:href="#DejaVuSans-6e" transform="translate(564.794922 0.684375)"/>
      <use xlink:href="#DejaVuSans-74" transform="translate(628.173828 0.684375)"/>
      <use xlink:href="#DejaVuSans-72" transform="translate(667.382812 0.684375)"/>
      <use xlink:href="#DejaVuSans-61" transform="translate(708.496094 0.684375)"/>
      <use xlink:href="#DejaVuSans-74" transform="translate(769.775391 0.684375)"/>
      <use xlink:href="#DejaVuSans-69" transform="translate(808.984375 0.684375)"/>
      <use xlink:href="#DejaVuSans-6f" transform="translate(836.767578 0.684375)"/>
      <use xlink:href="#DejaVuSans-6e" transform="translate(897.949219 0.684375)"/>
      <use xlink:href="#DejaVuSans-20" transform="translate(961.328125 0.684375)"/>
      <use xlink:href="#DejaVuSans-28" transform="translate(993.115234 0.684375)"/>
      <use xlink:href="#DejaVuSans-Oblique-6d" transform="translate(1032.128906 0.684375)"/>
      <use xlink:href="#DejaVuSans-Oblique-6c" transform="translate(1129.541016 0.684375)"/>
      <use xlink:href="#DejaVuSans-2212" transform="translate(1164.771927 38.965625) scale(0.7)"/>
      <use xlink:href="#DejaVuSans-31" transform="translate(1223.424271 38.965625) scale(0.7)"/>
      <use xlink:href="#DejaVuSans-29" transform="translate(1270.694779 0.684375)"/>
     </g>
    </g>
   </g>
   <g id="matplotlib.axis_2">
    <g id="ytick_1">
     <g id="line2d_8">
      <defs>
       <path id="m759dd9527e" d="M 0 0 
L -3.5 0 
" style="stroke: #000000; stroke-width: 0.8"/>
      </defs>
      <g>
       <use xlink:href="#m759dd9527e" x="46.2" y="266.339461" style="stroke: #000000; stroke-width: 0.8"/>
      </g>
     </g>
     <g id="text_9">
      <!-- $\mathdefault{10^{3}}$ -->
      <g transform="translate(21.6 270.13868) scale(0.1 -0.1)">
       <use xlink:href="#DejaVuSans-31" transform="translate(0 0.765625)"/>
       <use xlink:href="#DejaVuSans-30" transform="translate(63.623047 0.765625)"/>
       <use xlink:href="#DejaVuSans-33" transform="translate(128.203125 39.046875) scale(0.7)"/>
      </g>
     </g>
    </g>
    <g id="ytick_2">
     <g id="line2d_9">
      <g>
       <use xlink:href="#m759dd9527e" x="46.2" y="222.825023" style="stroke: #000000; stroke-width: 0.8"/>
      </g>
     </g>
     <g id="text_10">
      <!-- $\mathdefault{10^{4}}$ -->
      <g transform="translate(21.6 226.624242) scale(0.1 -0.1)">
       <use xlink:href="#DejaVuSans-31" transform="translate(0 0.684375)"/>
       <use xlink:href="#DejaVuSans-30" transform="translate(63.623047 0.684375)"/>
       <use xlink:href="#DejaVuSans-34" transform="translate(128.203125 38.965625) scale(0.7)"/>
      </g>
     </g>
    </g>
    <g id="ytick_3">
     <g id="line2d_10">
      <g>
       <use xlink:href="#m759dd9527e" x="46.2" y="179.310584" style="stroke: #000000; stroke-width: 0.8"/>
      </g>
     </g>
     <g id="text_11">
      <!-- $\mathdefault{10^{5}}$ -->
      <g transform="translate(21.6 183.109803) scale(0.1 -0.1)">
       <use xlink:href="#DejaVuSans-31" transform="translate(0 0.684375)"/>
       <use xlink:href="#DejaVuSans-30" transform="translate(63.623047 0.684375)"/>
       <use xlink:href="#DejaVuSans-35" transform="translate(128.203125 38.965625) scale(0.7)"/>
      </g>
     </g>
    </g>
    <g id="ytick_4">
     <g id="line2d_11">
      <g>
       <use xlink:href="#m759dd9527e" x="46.2" y="135.796146" style="stroke: #000000; stroke-width: 0.8"/>
      </g>
     </g>
     <g id="text_12">
      <!-- $\mathdefault{10^{6}}$ -->
      <g transform="translate(21.6 139.595365) scale(0.1 -0.1)">
       <use xlink:href="#DejaVuSans-31" transform="translate(0 0.765625)"/>
       <use xlink:href="#DejaVuSans-30" transform="translate(63.623047 0.765625)"/>
       <use xlink:href="#DejaVuSans-36" transform="translate(128.203125 39.046875) scale(0.7)"/>
      </g>
     </g>
    </g>
    <g id="ytick_5">
     <g id="line2d_12">
      <g>
       <use xlink:href="#m759dd9527e" x="46.2" y="92.281707" style="stroke: #000000; stroke-width: 0.8"/>
      </g>
     </g>
     <g id="text_13">
      <!-- $\mathdefault{10^{7}}$ -->
      <g transform="translate(21.6 96.080926) scale(0.1 -0.1)">
       <use xlink:href="#DejaVuSans-31" transform="translate(0 0.684375)"/>
       <use xlink:href="#DejaVuSans-30" transform="translate(63.623047 0.684375)"/>
       <use xlink:href="#DejaVuSans-37" transform="translate(128.203125 38.965625) scale(0.7)"/>
      </g>
     </g>
    </g>
    <g id="ytick_6">
     <g id="line2d_13">
      <g>
       <use xlink:href="#m759dd9527e" x="46.2" y="48.767269" style="stroke: #000000; stroke-width: 0.8"/>
      </g>
     </g>
     <g id="text_14">
      <!-- $\mathdefault{10^{8}}$ -->
      <g transform="translate(21.6 52.566488) scale(0.1 -0.1)">
       <defs>
        <path id="DejaVuSans-38" d="M 2034 2216 
Q 1584 2216 1326 1975 
Q 1069 1734 1069 1313 
Q 1069 891 1326 650 
Q 1584 409 2034 409 
Q 2484 409 2743 651 
Q 3003 894 3003 1313 
Q 3003 1734 2745 1975 
Q 2488 2216 2034 2216 
z
M 1403 2484 
Q 997 2584 770 2862 
Q 544 3141 544 3541 
Q 544 4100 942 4425 
Q 1341 4750 2034 4750 
Q 2731 4750 3128 4425 
Q 3525 4100 3525 3541 
Q 3525 3141 3298 2862 
Q 3072 2584 2669 2484 
Q 3125 2378 3379 2068 
Q 3634 1759 3634 1313 
Q 3634 634 3220 271 
Q 2806 -91 2034 -91 
Q 1263 -91 848 271 
Q 434 634 434 1313 
Q 434 1759 690 2068 
Q 947 2378 1403 2484 
z
M 1172 3481 
Q 1172 3119 1398 2916 
Q 1625 2713 2034 2713 
Q 2441 2713 2670 2916 
Q 2900 3119 2900 3481 
Q 2900 3844 2670 4047 
Q 2441 4250 2034 4250 
Q 1625 4250 1398 4047 
Q 1172 3844 1172 3481 
z
" transform="scale(0.015625)"/>
       </defs>
       <use xlink:href="#DejaVuSans-31" transform="translate(0 0.765625)"/>
       <use xlink:href="#DejaVuSans-30" transform="translate(63.623047 0.765625)"/>
       <use xlink:href="#DejaVuSans-38" transform="translate(128.203125 39.046875) scale(0.7)"/>
      </g>
     </g>
    </g>
    <g id="text_15">
     <!-- Predator Concentration ($ml^{-1}$) -->
     <g transform="translate(15.520313 225.078) rotate(-90) scale(0.1 -0.1)">
      <defs>
       <path id="DejaVuSans-64" d="M 2906 2969 
L 2906 4863 
L 3481 4863 
L 3481 0 
L 2906 0 
L 2906 525 
Q 2725 213 2448 61 
Q 2172 -91 1784 -91 
Q 1150 -91 751 415 
Q 353 922 353 1747 
Q 353 2572 751 3078 
Q 1150 3584 1784 3584 
Q 2172 3584 2448 3432 
Q 2725 3281 2906 2969 
z
M 947 1747 
Q 947 1113 1208 752 
Q 1469 391 1925 391 
Q 2381 391 2643 752 
Q 2906 1113 2906 1747 
Q 2906 2381 2643 2742 
Q 2381 3103 1925 3103 
Q 1469 3103 1208 2742 
Q 947 2381 947 1747 
z
" transform="scale(0.015625)"/>
      </defs>
      <use xlink:href="#DejaVuSans-50" transform="translate(0 0.684375)"/>
      <use xlink:href="#DejaVuSans-72" transform="translate(60.302734 0.684375)"/>
      <use xlink:href="#DejaVuSans-65" transform="translate(101.416016 0.684375)"/>
      <use xlink:href="#DejaVuSans-64" transform="translate(162.939453 0.684375)"/>
      <use xlink:href="#DejaVuSans-61" transform="translate(226.416016 0.684375)"/>
      <use xlink:href="#DejaVuSans-74" transform="translate(287.695312 0.684375)"/>
      <use xlink:href="#DejaVuSans-6f" transform="translate(326.904297 0.684375)"/>
      <use xlink:href="#DejaVuSans-72" transform="translate(388.085938 0.684375)"/>
      <use xlink:href="#DejaVuSans-20" transform="translate(429.199219 0.684375)"/>
      <use xlink:href="#DejaVuSans-43" transform="translate(460.986328 0.684375)"/>
      <use xlink:href="#DejaVuSans-6f" transform="translate(530.810547 0.684375)"/>
      <use xlink:href="#DejaVuSans-6e" transform="translate(591.992188 0.684375)"/>
      <use xlink:href="#DejaVuSans-63" transform="translate(655.371094 0.684375)"/>
      <use xlink:href="#DejaVuSans-65" transform="translate(710.351562 0.684375)"/>
      <use xlink:href="#DejaVuSans-6e" transform="translate(771.875 0.684375)"/>
      <use xlink:href="#DejaVuSans-74" transform="translate(835.253906 0.684375)"/>
      <use xlink:href="#DejaVuSans-72" transform="translate(874.462891 0.684375)"/>
      <use xlink:href="#DejaVuSans-61" transform="translate(915.576172 0.684375)"/>
      <use xlink:href="#DejaVuSans-74" transform="translate(976.855469 0.684375)"/>
      <use xlink:href="#DejaVuSans-69" transform="translate(1016.064453 0.684375)"/>
      <use xlink:href="#DejaVuSans-6f" transform="translate(1043.847656 0.684375)"/>
      <use xlink:href="#DejaVuSans-6e" transform="translate(1105.029297 0.684375)"/>
      <use xlink:href="#DejaVuSans-20" transform="translate(1168.408203 0.684375)"/>
      <use xlink:href="#DejaVuSans-28" transform="translate(1200.195312 0.684375)"/>
      <use xlink:href="#DejaVuSans-Oblique-6d" transform="translate(1239.208984 0.684375)"/>
      <use xlink:href="#DejaVuSans-Oblique-6c" transform="translate(1336.621094 0.684375)"/>
      <use xlink:href="#DejaVuSans-2212" transform="translate(1371.852005 38.965625) scale(0.7)"/>
      <use xlink:href="#DejaVuSans-31" transform="translate(1430.504349 38.965625) scale(0.7)"/>
      <use xlink:href="#DejaVuSans-29" transform="translate(1477.774857 0.684375)"/>
     </g>
    </g>
   </g>
   <g id="line2d_14">
    <path d="M 209.606126 192.676178 
L 245.84296 218.478993 
L 267.407366 233.58088 
L 282.496496 243.888732 
L 294.03117 251.509375 
L 303.353944 257.412484 
L 311.254709 262.158327 
L 318.049426 265.984997 
L 323.975085 269.072946 
L 329.268694 271.585084 
L 334.009253 273.593385 
L 338.275764 275.167297 
L 342.226242 276.392268 
L 345.860686 277.290048 
L 349.258104 277.901089 
L 352.418493 278.244323 
L 355.341854 278.343986 
L 358.107195 278.22278 
L 360.793526 277.88202 
L 363.321837 277.339207 
L 365.771136 276.587077 
L 368.141424 275.626524 
L 370.4327 274.459956 
L 372.723973 273.037868 
L 374.936233 271.400593 
L 377.148488 269.480703 
L 379.281728 267.338567 
L 381.41496 264.886511 
L 383.548183 262.098386 
L 385.681394 258.945838 
L 387.814587 255.39812 
L 389.947757 251.421895 
L 392.080896 246.981012 
L 394.21399 242.036277 
L 396.426019 236.330737 
L 398.637942 229.986141 
L 400.849702 222.946533 
L 403.061197 215.151095 
L 405.272248 206.53374 
L 407.482522 197.022723 
L 409.69137 186.540275 
L 411.89747 175.002374 
L 414.097959 162.318901 
L 416.286292 148.39486 
L 418.370169 133.703632 
L 420.245571 118.926766 
L 421.796105 104.963443 
L 422.913747 92.890795 
L 423.599959 83.145888 
L 423.945608 75.32552 
L 424.03303 68.870117 
L 423.90037 63.136922 
L 423.565976 58.168114 
L 423.071585 53.981174 
L 422.480565 50.569411 
L 421.697364 47.252433 
L 420.692508 44.055222 
L 419.70883 41.601211 
L 418.549104 39.25393 
L 417.199501 37.026241 
L 415.648047 34.929931 
L 413.885364 32.97515 
L 411.905331 31.169889 
L 409.705591 29.519552 
L 407.287834 28.026694 
L 404.657808 26.690935 
L 401.825065 25.509078 
L 398.802458 24.475408 
L 395.60547 23.582118 
L 391.390532 22.648515 
L 386.966296 21.899045 
L 381.432203 21.212459 
L 375.709447 20.723506 
L 368.86706 20.357774 
L 360.918634 20.15265 
L 350.918016 20.132896 
L 338.984672 20.348071 
L 324.369676 20.846085 
L 306.552555 21.681016 
L 284.485316 22.947805 
L 260.133641 24.573577 
L 235.923306 26.41181 
L 213.591677 28.325683 
L 193.674873 30.24727 
L 175.945338 32.172042 
L 160.193552 34.098242 
L 146.228819 36.025133 
L 133.878339 37.952381 
L 123.286727 39.823135 
L 113.939152 41.693996 
L 105.71841 43.564925 
L 98.722457 45.3792 
L 92.598355 47.193502 
L 87.421679 48.951125 
L 82.922282 50.70876 
L 79.156194 52.409706 
L 75.918297 54.110659 
L 73.247639 55.754918 
L 70.990458 57.39918 
L 69.112299 59.043444 
L 67.628903 60.631012 
L 66.443289 62.218582 
L 65.531463 63.806152 
L 64.871364 65.393724 
L 64.431443 67.037995 
L 64.219115 68.682266 
L 64.218794 70.383236 
L 64.442927 72.197604 
L 64.911741 74.12537 
L 65.642078 76.166533 
L 66.676809 78.377792 
L 68.04315 80.759145 
L 69.803779 83.367292 
L 71.990436 86.202229 
L 74.729526 89.377353 
L 78.064417 92.892659 
L 82.146215 96.861537 
L 87.079698 101.340675 
L 93.100926 106.500148 
L 100.532763 112.566705 
L 109.858421 119.880439 
L 121.800957 128.951393 
L 137.862762 140.856053 
L 161.129022 157.802232 
L 198.156552 184.471021 
L 238.799804 213.49232 
L 262.969347 230.500108 
L 279.243163 241.692868 
L 291.488772 249.855384 
L 301.28554 256.127603 
L 309.423305 261.083555 
L 316.455035 265.111911 
L 322.538704 268.348934 
L 327.990327 271.002507 
L 332.888901 273.141744 
L 337.313429 274.833651 
L 341.342916 276.139612 
L 345.056369 277.111961 
L 348.453786 277.77796 
L 351.614175 278.179093 
L 354.616545 278.340138 
L 357.460897 278.271089 
L 360.147228 277.985326 
L 362.754548 277.480864 
L 365.203848 276.782222 
L 367.574137 275.87839 
L 369.865413 274.771725 
L 372.156687 273.414986 
L 374.368948 271.846437 
L 376.581204 270.001296 
L 378.793455 267.855324 
L 380.926689 265.476437 
L 383.059914 262.767654 
L 385.193128 259.701141 
L 387.326326 256.246718 
L 389.459502 252.371658 
L 391.592649 248.040475 
L 393.725755 243.214693 
L 395.937801 237.643119 
L 398.149752 231.44422 
L 400.361554 224.563066 
L 402.573119 216.939942 
L 404.78429 208.509961 
L 406.994776 199.20266 
L 409.204022 188.941626 
L 411.410899 177.644224 
L 413.613008 165.221628 
L 415.804924 151.579712 
L 417.896825 137.180201 
L 419.863898 122.083555 
L 421.513001 107.685216 
L 422.672519 95.743359 
L 423.463973 85.382891 
L 423.895024 76.883658 
L 424.034205 69.717417 
L 423.935019 63.98021 
L 423.639132 59.00058 
L 423.186095 54.797611 
L 422.505002 50.690726 
L 421.729223 47.369911 
L 420.732868 44.16794 
L 419.756766 41.709439 
L 418.60527 39.357073 
L 417.264485 37.12374 
L 415.722337 35.021286 
L 413.969316 33.059947 
L 411.999144 31.247821 
L 409.809284 29.590437 
L 407.401243 28.090479 
L 404.78059 26.747699 
L 401.956715 25.559023 
L 398.942336 24.518838 
L 395.752833 23.619423 
L 391.546109 22.6788 
L 387.128772 21.923073 
L 381.601248 21.230002 
L 375.883323 20.735631 
L 369.044637 20.364791 
L 361.098327 20.155181 
L 351.097932 20.131402 
L 339.162407 20.343403 
L 324.54243 20.839058 
L 306.717235 21.672426 
L 284.638401 22.938299 
L 260.272937 24.563649 
L 236.048373 26.401715 
L 213.703329 28.315525 
L 193.774355 30.237087 
L 176.03381 32.161848 
L 160.272072 34.088043 
L 146.298349 36.014931 
L 133.939749 37.942178 
L 123.341009 39.812931 
L 113.986977 41.683792 
L 105.760387 43.554721 
L 98.75929 45.368995 
L 92.630514 47.183297 
L 87.449719 48.94092 
L 82.946569 50.698555 
L 79.177167 52.399501 
L 75.93624 54.100454 
L 73.262902 55.744712 
L 71.003264 57.388975 
L 69.122853 59.033239 
L 67.637461 60.620807 
L 66.450011 62.208377 
L 65.536498 63.795947 
L 64.874847 65.383519 
L 64.433451 67.02779 
L 64.219771 68.672061 
L 64.218169 70.373031 
L 64.441057 72.187399 
L 64.908673 74.115165 
L 65.637868 76.156328 
L 66.671495 78.367587 
L 68.036781 80.74894 
L 69.796398 83.357087 
L 71.706107 85.851832 
L 71.706107 85.851832 
" clip-path="url(#p7ad14300c5)" style="fill: none; stroke: #000000; stroke-width: 1.5; stroke-linecap: square"/>
   </g>
   <g id="line2d_15">
    <path d="M 209.606126 192.676178 
L 247.847455 219.873123 
L 268.864384 234.563354 
L 283.560432 244.576824 
L 294.859006 252.017539 
L 304.103295 257.846957 
L 311.846374 262.474665 
L 318.56231 266.234922 
L 324.409124 269.260919 
L 329.623851 271.71649 
L 334.364512 273.705865 
L 338.631106 275.259567 
L 342.581657 276.462663 
L 346.216163 277.337201 
L 349.534626 277.912545 
L 352.695066 278.235461 
L 355.618474 278.314025 
L 358.383859 278.170582 
L 360.991222 277.819979 
L 363.519575 277.259402 
L 365.968916 276.488354 
L 368.339246 275.507734 
L 370.630566 274.319969 
L 372.921885 272.874752 
L 375.134193 271.213146 
L 377.346501 269.266787 
L 379.479799 267.096925 
L 381.613096 264.614794 
L 383.746393 261.794045 
L 385.879691 258.606105 
L 388.012988 255.019991 
L 390.146285 251.002106 
L 392.279582 246.516016 
L 394.41288 241.522214 
L 396.625188 235.761348 
L 398.837496 229.356476 
L 401.049805 222.25116 
L 403.262113 214.384014 
L 405.474421 205.688273 
L 407.68673 196.09132 
L 409.899038 185.514176 
L 412.10903 173.871104 
L 414.308749 161.072708 
L 416.495353 147.024457 
L 418.575312 132.204991 
L 420.44207 117.303807 
L 421.909142 103.889922 
L 422.953391 92.452725 
L 423.629574 82.693777 
L 423.962424 74.865819 
L 424.034432 68.40789 
L 423.88286 62.676473 
L 423.526703 57.71335 
L 423.008943 53.535088 
L 422.394642 50.133685 
L 421.584385 46.830225 
L 420.548536 43.649897 
L 419.537242 41.21187 
L 418.347521 38.882733 
L 416.965787 36.675218 
L 415.380434 34.60089 
L 413.582564 32.669586 
L 411.566636 30.888905 
L 409.330935 29.263805 
L 406.877817 27.796364 
L 404.213677 26.485732 
L 401.348645 25.328275 
L 398.296059 24.317904 
L 394.240889 23.249285 
L 389.952068 22.378763 
L 385.465994 21.685357 
L 379.87321 21.056725 
L 373.133483 20.55855 
L 365.248131 20.236566 
L 356.26425 20.112921 
L 345.273869 20.205277 
L 332.444943 20.542065 
L 316.140853 21.203411 
L 296.054255 22.253357 
L 273.102684 23.67666 
L 248.306159 25.439388 
L 224.647215 27.345386 
L 203.524824 29.264375 
L 184.18639 31.248872 
L 167.512425 33.176669 
L 152.716018 35.104466 
L 139.615086 37.032263 
L 128.365067 38.90336 
L 118.421332 40.774457 
L 109.660742 42.645554 
L 102.19002 44.459952 
L 95.634661 46.274349 
L 89.910867 48.088746 
L 85.087043 49.846443 
L 80.909186 51.60414 
L 77.427066 53.305138 
L 74.448708 55.006135 
L 72.007692 56.650433 
L 69.961025 58.29473 
L 68.328275 59.882327 
L 67.005345 61.469925 
L 65.967273 63.057523 
L 65.191105 64.64512 
L 64.655738 66.232718 
L 64.334422 67.877015 
L 64.230905 69.578012 
L 64.347427 71.33571 
L 64.698692 73.206807 
L 65.303193 75.191304 
L 66.176003 77.2892 
L 67.361248 79.557197 
L 68.922017 82.051993 
L 70.893835 84.773589 
L 73.353372 87.778684 
L 76.388453 91.123979 
L 80.094253 94.866173 
L 84.569152 99.061966 
L 90.042836 103.881459 
L 96.766002 109.49475 
L 105.069646 116.12864 
L 115.587884 124.236727 
L 129.43155 134.612811 
L 148.74049 148.787789 
L 179.12352 170.787355 
L 216.696516 197.741176 
L 251.066305 222.14131 
L 270.97708 236.019919 
L 285.120051 245.620041 
L 296.102581 252.817452 
L 305.109836 258.463396 
L 312.694893 262.964179 
L 319.252807 266.605424 
L 325.020611 269.561712 
L 330.156327 271.952318 
L 334.817976 273.882352 
L 339.084571 275.40986 
L 342.95611 276.563616 
L 346.511606 277.397492 
L 349.830068 277.952461 
L 352.911498 278.248839 
L 355.834905 278.310739 
L 358.60029 278.149736 
L 361.207654 277.780798 
L 363.736006 277.200622 
L 366.185348 276.408705 
L 368.555678 275.405955 
L 370.846997 274.194818 
L 373.059305 272.779392 
L 375.271614 271.100787 
L 377.483922 269.135939 
L 379.617219 266.946714 
L 381.750517 264.443587 
L 383.883814 261.600071 
L 386.017111 258.387442 
L 388.150408 254.774557 
L 390.283706 250.72764 
L 392.417003 246.21007 
L 394.629311 240.98556 
L 396.84162 235.16405 
L 399.053928 228.693221 
L 401.266236 221.516167 
L 403.478544 213.570996 
L 405.690853 204.790392 
L 407.903161 195.101139 
L 410.115469 184.423606 
L 412.324568 172.671489 
L 414.523415 159.755078 
L 416.70806 145.579362 
L 418.783556 130.628511 
L 420.640426 115.600454 
L 422.088709 102.080775 
L 423.102158 90.565291 
L 423.696246 81.463723 
L 423.992743 73.619782 
L 424.021108 67.159276 
L 423.816175 61.436933 
L 423.398852 56.493302 
L 422.81569 52.342299 
L 422.136505 48.97221 
L 421.251187 45.708653 
L 420.374411 43.191716 
L 419.33123 40.772819 
L 418.106997 38.465228 
L 416.688435 36.2815 
L 415.064384 34.232924 
L 413.226523 32.328959 
L 411.169987 30.576741 
L 408.893805 28.98071 
L 406.401088 27.5424 
L 403.698953 26.260429 
L 400.798169 25.130681 
L 397.712593 24.146658 
L 393.620631 23.108588 
L 389.300337 22.265604 
L 384.788199 21.596552 
L 379.171021 20.992981 
L 372.411473 20.518695 
L 364.513157 20.217886 
L 355.52444 20.11176 
L 344.53826 20.218811 
L 330.749426 20.600393 
L 314.509249 21.280309 
L 294.518772 22.341825 
L 270.879398 23.825377 
L 246.300388 25.59212 
L 222.854719 27.499645 
L 201.926359 29.419691 
L 182.768843 31.404188 
L 166.25334 33.331985 
L 151.600029 35.259782 
L 138.628314 37.187579 
L 127.491717 39.058676 
L 117.650711 40.929773 
L 108.983167 42.80087 
L 101.594287 44.615267 
L 95.113277 46.429664 
L 89.457026 48.244062 
L 84.692733 50.001759 
L 80.569118 51.759456 
L 77.1349 53.460453 
L 74.200321 55.161451 
L 71.798038 56.805748 
L 69.786878 58.450046 
L 68.185599 60.037643 
L 66.891605 61.625241 
L 65.880137 63.212838 
L 65.128429 64.800436 
L 64.615551 66.388033 
L 64.315619 68.032331 
L 64.232351 69.733328 
L 64.367967 71.491025 
L 64.737698 73.362122 
L 65.359885 75.346619 
L 66.276595 77.501216 
L 67.516998 79.825912 
L 69.104814 82.320708 
L 71.102338 85.042304 
L 71.869294 86.006203 
L 71.869294 86.006203 
" clip-path="url(#p7ad14300c5)" style="fill: none; stroke-dasharray: 7.5,15; stroke-dashoffset: 0; stroke: #7f7f7f; stroke-width: 1.5"/>
   </g>
   <g id="line2d_16">
    <path d="M 58.074909 177.319473 
L 434.113709 177.319473 
" clip-path="url(#p7ad14300c5)" style="fill: none; stroke: #ff0000; stroke-width: 1.5; stroke-linecap: square"/>
   </g>
   <g id="line2d_17">
    <path d="M 204.969909 282.73432 
L 204.969909 12.88112 
" clip-path="url(#p7ad14300c5)" style="fill: none; stroke: #0000ff; stroke-width: 1.5; stroke-linecap: square"/>
   </g>
   <g id="patch_3">
    <path d="M 46.2 291.256 
L 46.2 7.2 
" style="fill: none; stroke: #000000; stroke-width: 0.8; stroke-linejoin: miter; stroke-linecap: square"/>
   </g>
   <g id="patch_4">
    <path d="M 442.030315 291.256 
L 442.030315 7.2 
" style="fill: none; stroke: #000000; stroke-width: 0.8; stroke-linejoin: miter; stroke-linecap: square"/>
   </g>
   <g id="patch_5">
    <path d="M 46.2 291.256 
L 442.030315 291.256 
" style="fill: none; stroke: #000000; stroke-width: 0.8; stroke-linejoin: miter; stroke-linecap: square"/>
   </g>
   <g id="patch_6">
    <path d="M 46.2 7.2 
L 442.030315 7.2 
" style="fill: none; stroke: #000000; stroke-width: 0.8; stroke-linejoin: miter; stroke-linecap: square"/>
   </g>
   <g id="text_16">
    <!-- t0 -->
    <g transform="translate(215.606126 186.676178) scale(0.1 -0.1)">
     <use xlink:href="#DejaVuSans-74"/>
     <use xlink:href="#DejaVuSans-30" transform="translate(39.208984 0)"/>
    </g>
   </g>
   <g id="text_17">
    <!-- tf -->
    <g transform="translate(77.706107 79.851832) scale(0.1 -0.1)">
     <defs>
      <path id="DejaVuSans-66" d="M 2375 4863 
L 2375 4384 
L 1825 4384 
Q 1516 4384 1395 4259 
Q 1275 4134 1275 3809 
L 1275 3500 
L 2222 3500 
L 2222 3053 
L 1275 3053 
L 1275 0 
L 697 0 
L 697 3053 
L 147 3053 
L 147 3500 
L 697 3500 
L 697 3744 
Q 697 4328 969 4595 
Q 1241 4863 1831 4863 
L 2375 4863 
z
" transform="scale(0.015625)"/>
     </defs>
     <use xlink:href="#DejaVuSans-74"/>
     <use xlink:href="#DejaVuSans-66" transform="translate(39.208984 0)"/>
    </g>
   </g>
  </g>
 </g>
 <defs>
  <clipPath id="p7ad14300c5">
   <rect x="46.2" y="7.2" width="395.830315" height="284.056"/>
  </clipPath>
 </defs>
</svg>
