<?xml version="1.0" encoding="utf-8" standalone="no"?>
<!DOCTYPE svg PUBLIC "-//W3C//DTD SVG 1.1//EN"
  "http://www.w3.org/Graphics/SVG/1.1/DTD/svg11.dtd">
<!-- Created with matplotlib (https://matplotlib.org/) -->
<svg height="141.732283pt" version="1.1" viewBox="0 0 226.771654 141.732283" width="226.771654pt" xmlns="http://www.w3.org/2000/svg" xmlns:xlink="http://www.w3.org/1999/xlink">
 <metadata>
  <rdf:RDF xmlns:cc="http://creativecommons.org/ns#" xmlns:dc="http://purl.org/dc/elements/1.1/" xmlns:rdf="http://www.w3.org/1999/02/22-rdf-syntax-ns#">
   <cc:Work>
    <dc:type rdf:resource="http://purl.org/dc/dcmitype/StillImage"/>
    <dc:date>2023-04-24T14:54:51.278214</dc:date>
    <dc:format>image/svg+xml</dc:format>
    <dc:creator>
     <cc:Agent>
      <dc:title>Matplotlib v3.3.4, https://matplotlib.org/</dc:title>
     </cc:Agent>
    </dc:creator>
   </cc:Work>
  </rdf:RDF>
 </metadata>
 <defs>
  <style type="text/css">*{stroke-linecap:butt;stroke-linejoin:round;}</style>
 </defs>
 <g id="figure_1">
  <g id="patch_1">
   <path d="M 0 141.732283 
L 226.771654 141.732283 
L 226.771654 0 
L 0 0 
z
" style="fill:#ffffff;"/>
  </g>
  <g id="axes_1">
   <g id="patch_2">
    <path d="M 28.346457 126.141732 
L 204.094488 126.141732 
L 204.094488 17.007874 
L 28.346457 17.007874 
z
" style="fill:#ffffff;"/>
   </g>
   <g id="matplotlib.axis_1">
    <g id="xtick_1">
     <g id="line2d_1">
      <defs>
       <path d="M 0 0 
L 0 3.5 
" id="mb425000668" style="stroke:#000000;stroke-width:0.8;"/>
      </defs>
      <g>
       <use style="stroke:#000000;stroke-width:0.8;" x="28.346457" xlink:href="#mb425000668" y="126.141732"/>
      </g>
     </g>
     <g id="text_1">
      <!-- 0 -->
      <g transform="translate(26.437707 137.700795)scale(0.06 -0.06)">
       <defs>
        <path d="M 31.78125 66.40625 
Q 24.171875 66.40625 20.328125 58.90625 
Q 16.5 51.421875 16.5 36.375 
Q 16.5 21.390625 20.328125 13.890625 
Q 24.171875 6.390625 31.78125 6.390625 
Q 39.453125 6.390625 43.28125 13.890625 
Q 47.125 21.390625 47.125 36.375 
Q 47.125 51.421875 43.28125 58.90625 
Q 39.453125 66.40625 31.78125 66.40625 
z
M 31.78125 74.21875 
Q 44.046875 74.21875 50.515625 64.515625 
Q 56.984375 54.828125 56.984375 36.375 
Q 56.984375 17.96875 50.515625 8.265625 
Q 44.046875 -1.421875 31.78125 -1.421875 
Q 19.53125 -1.421875 13.0625 8.265625 
Q 6.59375 17.96875 6.59375 36.375 
Q 6.59375 54.828125 13.0625 64.515625 
Q 19.53125 74.21875 31.78125 74.21875 
z
" id="DejaVuSans-48"/>
       </defs>
       <use xlink:href="#DejaVuSans-48"/>
      </g>
     </g>
    </g>
    <g id="xtick_2">
     <g id="line2d_2">
      <g>
       <use style="stroke:#000000;stroke-width:0.8;" x="45.92126" xlink:href="#mb425000668" y="126.141732"/>
      </g>
     </g>
     <g id="text_2">
      <!-- 200 -->
      <g transform="translate(40.19501 137.700795)scale(0.06 -0.06)">
       <defs>
        <path d="M 19.1875 8.296875 
L 53.609375 8.296875 
L 53.609375 0 
L 7.328125 0 
L 7.328125 8.296875 
Q 12.9375 14.109375 22.625 23.890625 
Q 32.328125 33.6875 34.8125 36.53125 
Q 39.546875 41.84375 41.421875 45.53125 
Q 43.3125 49.21875 43.3125 52.78125 
Q 43.3125 58.59375 39.234375 62.25 
Q 35.15625 65.921875 28.609375 65.921875 
Q 23.96875 65.921875 18.8125 64.3125 
Q 13.671875 62.703125 7.8125 59.421875 
L 7.8125 69.390625 
Q 13.765625 71.78125 18.9375 73 
Q 24.125 74.21875 28.421875 74.21875 
Q 39.75 74.21875 46.484375 68.546875 
Q 53.21875 62.890625 53.21875 53.421875 
Q 53.21875 48.921875 51.53125 44.890625 
Q 49.859375 40.875 45.40625 35.40625 
Q 44.1875 33.984375 37.640625 27.21875 
Q 31.109375 20.453125 19.1875 8.296875 
z
" id="DejaVuSans-50"/>
       </defs>
       <use xlink:href="#DejaVuSans-50"/>
       <use x="63.623047" xlink:href="#DejaVuSans-48"/>
       <use x="127.246094" xlink:href="#DejaVuSans-48"/>
      </g>
     </g>
    </g>
    <g id="xtick_3">
     <g id="line2d_3">
      <g>
       <use style="stroke:#000000;stroke-width:0.8;" x="63.496063" xlink:href="#mb425000668" y="126.141732"/>
      </g>
     </g>
     <g id="text_3">
      <!-- 400 -->
      <g transform="translate(57.769813 137.700795)scale(0.06 -0.06)">
       <defs>
        <path d="M 37.796875 64.3125 
L 12.890625 25.390625 
L 37.796875 25.390625 
z
M 35.203125 72.90625 
L 47.609375 72.90625 
L 47.609375 25.390625 
L 58.015625 25.390625 
L 58.015625 17.1875 
L 47.609375 17.1875 
L 47.609375 0 
L 37.796875 0 
L 37.796875 17.1875 
L 4.890625 17.1875 
L 4.890625 26.703125 
z
" id="DejaVuSans-52"/>
       </defs>
       <use xlink:href="#DejaVuSans-52"/>
       <use x="63.623047" xlink:href="#DejaVuSans-48"/>
       <use x="127.246094" xlink:href="#DejaVuSans-48"/>
      </g>
     </g>
    </g>
    <g id="xtick_4">
     <g id="line2d_4">
      <g>
       <use style="stroke:#000000;stroke-width:0.8;" x="81.070866" xlink:href="#mb425000668" y="126.141732"/>
      </g>
     </g>
     <g id="text_4">
      <!-- 600 -->
      <g transform="translate(75.344616 137.700795)scale(0.06 -0.06)">
       <defs>
        <path d="M 33.015625 40.375 
Q 26.375 40.375 22.484375 35.828125 
Q 18.609375 31.296875 18.609375 23.390625 
Q 18.609375 15.53125 22.484375 10.953125 
Q 26.375 6.390625 33.015625 6.390625 
Q 39.65625 6.390625 43.53125 10.953125 
Q 47.40625 15.53125 47.40625 23.390625 
Q 47.40625 31.296875 43.53125 35.828125 
Q 39.65625 40.375 33.015625 40.375 
z
M 52.59375 71.296875 
L 52.59375 62.3125 
Q 48.875 64.0625 45.09375 64.984375 
Q 41.3125 65.921875 37.59375 65.921875 
Q 27.828125 65.921875 22.671875 59.328125 
Q 17.53125 52.734375 16.796875 39.40625 
Q 19.671875 43.65625 24.015625 45.921875 
Q 28.375 48.1875 33.59375 48.1875 
Q 44.578125 48.1875 50.953125 41.515625 
Q 57.328125 34.859375 57.328125 23.390625 
Q 57.328125 12.15625 50.6875 5.359375 
Q 44.046875 -1.421875 33.015625 -1.421875 
Q 20.359375 -1.421875 13.671875 8.265625 
Q 6.984375 17.96875 6.984375 36.375 
Q 6.984375 53.65625 15.1875 63.9375 
Q 23.390625 74.21875 37.203125 74.21875 
Q 40.921875 74.21875 44.703125 73.484375 
Q 48.484375 72.75 52.59375 71.296875 
z
" id="DejaVuSans-54"/>
       </defs>
       <use xlink:href="#DejaVuSans-54"/>
       <use x="63.623047" xlink:href="#DejaVuSans-48"/>
       <use x="127.246094" xlink:href="#DejaVuSans-48"/>
      </g>
     </g>
    </g>
    <g id="xtick_5">
     <g id="line2d_5">
      <g>
       <use style="stroke:#000000;stroke-width:0.8;" x="98.645669" xlink:href="#mb425000668" y="126.141732"/>
      </g>
     </g>
     <g id="text_5">
      <!-- 800 -->
      <g transform="translate(92.919419 137.700795)scale(0.06 -0.06)">
       <defs>
        <path d="M 31.78125 34.625 
Q 24.75 34.625 20.71875 30.859375 
Q 16.703125 27.09375 16.703125 20.515625 
Q 16.703125 13.921875 20.71875 10.15625 
Q 24.75 6.390625 31.78125 6.390625 
Q 38.8125 6.390625 42.859375 10.171875 
Q 46.921875 13.96875 46.921875 20.515625 
Q 46.921875 27.09375 42.890625 30.859375 
Q 38.875 34.625 31.78125 34.625 
z
M 21.921875 38.8125 
Q 15.578125 40.375 12.03125 44.71875 
Q 8.5 49.078125 8.5 55.328125 
Q 8.5 64.0625 14.71875 69.140625 
Q 20.953125 74.21875 31.78125 74.21875 
Q 42.671875 74.21875 48.875 69.140625 
Q 55.078125 64.0625 55.078125 55.328125 
Q 55.078125 49.078125 51.53125 44.71875 
Q 48 40.375 41.703125 38.8125 
Q 48.828125 37.15625 52.796875 32.3125 
Q 56.78125 27.484375 56.78125 20.515625 
Q 56.78125 9.90625 50.3125 4.234375 
Q 43.84375 -1.421875 31.78125 -1.421875 
Q 19.734375 -1.421875 13.25 4.234375 
Q 6.78125 9.90625 6.78125 20.515625 
Q 6.78125 27.484375 10.78125 32.3125 
Q 14.796875 37.15625 21.921875 38.8125 
z
M 18.3125 54.390625 
Q 18.3125 48.734375 21.84375 45.5625 
Q 25.390625 42.390625 31.78125 42.390625 
Q 38.140625 42.390625 41.71875 45.5625 
Q 45.3125 48.734375 45.3125 54.390625 
Q 45.3125 60.0625 41.71875 63.234375 
Q 38.140625 66.40625 31.78125 66.40625 
Q 25.390625 66.40625 21.84375 63.234375 
Q 18.3125 60.0625 18.3125 54.390625 
z
" id="DejaVuSans-56"/>
       </defs>
       <use xlink:href="#DejaVuSans-56"/>
       <use x="63.623047" xlink:href="#DejaVuSans-48"/>
       <use x="127.246094" xlink:href="#DejaVuSans-48"/>
      </g>
     </g>
    </g>
    <g id="xtick_6">
     <g id="line2d_6">
      <g>
       <use style="stroke:#000000;stroke-width:0.8;" x="116.220472" xlink:href="#mb425000668" y="126.141732"/>
      </g>
     </g>
     <g id="text_6">
      <!-- 1000 -->
      <g transform="translate(108.585472 137.700795)scale(0.06 -0.06)">
       <defs>
        <path d="M 12.40625 8.296875 
L 28.515625 8.296875 
L 28.515625 63.921875 
L 10.984375 60.40625 
L 10.984375 69.390625 
L 28.421875 72.90625 
L 38.28125 72.90625 
L 38.28125 8.296875 
L 54.390625 8.296875 
L 54.390625 0 
L 12.40625 0 
z
" id="DejaVuSans-49"/>
       </defs>
       <use xlink:href="#DejaVuSans-49"/>
       <use x="63.623047" xlink:href="#DejaVuSans-48"/>
       <use x="127.246094" xlink:href="#DejaVuSans-48"/>
       <use x="190.869141" xlink:href="#DejaVuSans-48"/>
      </g>
     </g>
    </g>
    <g id="xtick_7">
     <g id="line2d_7">
      <g>
       <use style="stroke:#000000;stroke-width:0.8;" x="133.795276" xlink:href="#mb425000668" y="126.141732"/>
      </g>
     </g>
     <g id="text_7">
      <!-- 1200 -->
      <g transform="translate(126.160276 137.700795)scale(0.06 -0.06)">
       <use xlink:href="#DejaVuSans-49"/>
       <use x="63.623047" xlink:href="#DejaVuSans-50"/>
       <use x="127.246094" xlink:href="#DejaVuSans-48"/>
       <use x="190.869141" xlink:href="#DejaVuSans-48"/>
      </g>
     </g>
    </g>
    <g id="xtick_8">
     <g id="line2d_8">
      <g>
       <use style="stroke:#000000;stroke-width:0.8;" x="151.370079" xlink:href="#mb425000668" y="126.141732"/>
      </g>
     </g>
     <g id="text_8">
      <!-- 1400 -->
      <g transform="translate(143.735079 137.700795)scale(0.06 -0.06)">
       <use xlink:href="#DejaVuSans-49"/>
       <use x="63.623047" xlink:href="#DejaVuSans-52"/>
       <use x="127.246094" xlink:href="#DejaVuSans-48"/>
       <use x="190.869141" xlink:href="#DejaVuSans-48"/>
      </g>
     </g>
    </g>
    <g id="xtick_9">
     <g id="line2d_9">
      <g>
       <use style="stroke:#000000;stroke-width:0.8;" x="168.944882" xlink:href="#mb425000668" y="126.141732"/>
      </g>
     </g>
     <g id="text_9">
      <!-- 1600 -->
      <g transform="translate(161.309882 137.700795)scale(0.06 -0.06)">
       <use xlink:href="#DejaVuSans-49"/>
       <use x="63.623047" xlink:href="#DejaVuSans-54"/>
       <use x="127.246094" xlink:href="#DejaVuSans-48"/>
       <use x="190.869141" xlink:href="#DejaVuSans-48"/>
      </g>
     </g>
    </g>
    <g id="xtick_10">
     <g id="line2d_10">
      <g>
       <use style="stroke:#000000;stroke-width:0.8;" x="186.519685" xlink:href="#mb425000668" y="126.141732"/>
      </g>
     </g>
     <g id="text_10">
      <!-- 1800 -->
      <g transform="translate(178.884685 137.700795)scale(0.06 -0.06)">
       <use xlink:href="#DejaVuSans-49"/>
       <use x="63.623047" xlink:href="#DejaVuSans-56"/>
       <use x="127.246094" xlink:href="#DejaVuSans-48"/>
       <use x="190.869141" xlink:href="#DejaVuSans-48"/>
      </g>
     </g>
    </g>
    <g id="xtick_11">
     <g id="line2d_11">
      <g>
       <use style="stroke:#000000;stroke-width:0.8;" x="204.094488" xlink:href="#mb425000668" y="126.141732"/>
      </g>
     </g>
     <g id="text_11">
      <!-- 2000 -->
      <g transform="translate(196.459488 137.700795)scale(0.06 -0.06)">
       <use xlink:href="#DejaVuSans-50"/>
       <use x="63.623047" xlink:href="#DejaVuSans-48"/>
       <use x="127.246094" xlink:href="#DejaVuSans-48"/>
       <use x="190.869141" xlink:href="#DejaVuSans-48"/>
      </g>
     </g>
    </g>
    <g id="text_12">
     <!-- Time (h) -->
     <g transform="translate(101.595394 148.267514)scale(0.07 -0.07)">
      <defs>
       <path d="M -0.296875 72.90625 
L 61.375 72.90625 
L 61.375 64.59375 
L 35.5 64.59375 
L 35.5 0 
L 25.59375 0 
L 25.59375 64.59375 
L -0.296875 64.59375 
z
" id="DejaVuSans-84"/>
       <path d="M 9.421875 54.6875 
L 18.40625 54.6875 
L 18.40625 0 
L 9.421875 0 
z
M 9.421875 75.984375 
L 18.40625 75.984375 
L 18.40625 64.59375 
L 9.421875 64.59375 
z
" id="DejaVuSans-105"/>
       <path d="M 52 44.1875 
Q 55.375 50.25 60.0625 53.125 
Q 64.75 56 71.09375 56 
Q 79.640625 56 84.28125 50.015625 
Q 88.921875 44.046875 88.921875 33.015625 
L 88.921875 0 
L 79.890625 0 
L 79.890625 32.71875 
Q 79.890625 40.578125 77.09375 44.375 
Q 74.3125 48.1875 68.609375 48.1875 
Q 61.625 48.1875 57.5625 43.546875 
Q 53.515625 38.921875 53.515625 30.90625 
L 53.515625 0 
L 44.484375 0 
L 44.484375 32.71875 
Q 44.484375 40.625 41.703125 44.40625 
Q 38.921875 48.1875 33.109375 48.1875 
Q 26.21875 48.1875 22.15625 43.53125 
Q 18.109375 38.875 18.109375 30.90625 
L 18.109375 0 
L 9.078125 0 
L 9.078125 54.6875 
L 18.109375 54.6875 
L 18.109375 46.1875 
Q 21.1875 51.21875 25.484375 53.609375 
Q 29.78125 56 35.6875 56 
Q 41.65625 56 45.828125 52.96875 
Q 50 49.953125 52 44.1875 
z
" id="DejaVuSans-109"/>
       <path d="M 56.203125 29.59375 
L 56.203125 25.203125 
L 14.890625 25.203125 
Q 15.484375 15.921875 20.484375 11.0625 
Q 25.484375 6.203125 34.421875 6.203125 
Q 39.59375 6.203125 44.453125 7.46875 
Q 49.3125 8.734375 54.109375 11.28125 
L 54.109375 2.78125 
Q 49.265625 0.734375 44.1875 -0.34375 
Q 39.109375 -1.421875 33.890625 -1.421875 
Q 20.796875 -1.421875 13.15625 6.1875 
Q 5.515625 13.8125 5.515625 26.8125 
Q 5.515625 40.234375 12.765625 48.109375 
Q 20.015625 56 32.328125 56 
Q 43.359375 56 49.78125 48.890625 
Q 56.203125 41.796875 56.203125 29.59375 
z
M 47.21875 32.234375 
Q 47.125 39.59375 43.09375 43.984375 
Q 39.0625 48.390625 32.421875 48.390625 
Q 24.90625 48.390625 20.390625 44.140625 
Q 15.875 39.890625 15.1875 32.171875 
z
" id="DejaVuSans-101"/>
       <path id="DejaVuSans-32"/>
       <path d="M 31 75.875 
Q 24.46875 64.65625 21.28125 53.65625 
Q 18.109375 42.671875 18.109375 31.390625 
Q 18.109375 20.125 21.3125 9.0625 
Q 24.515625 -2 31 -13.1875 
L 23.1875 -13.1875 
Q 15.875 -1.703125 12.234375 9.375 
Q 8.59375 20.453125 8.59375 31.390625 
Q 8.59375 42.28125 12.203125 53.3125 
Q 15.828125 64.359375 23.1875 75.875 
z
" id="DejaVuSans-40"/>
       <path d="M 54.890625 33.015625 
L 54.890625 0 
L 45.90625 0 
L 45.90625 32.71875 
Q 45.90625 40.484375 42.875 44.328125 
Q 39.84375 48.1875 33.796875 48.1875 
Q 26.515625 48.1875 22.3125 43.546875 
Q 18.109375 38.921875 18.109375 30.90625 
L 18.109375 0 
L 9.078125 0 
L 9.078125 75.984375 
L 18.109375 75.984375 
L 18.109375 46.1875 
Q 21.34375 51.125 25.703125 53.5625 
Q 30.078125 56 35.796875 56 
Q 45.21875 56 50.046875 50.171875 
Q 54.890625 44.34375 54.890625 33.015625 
z
" id="DejaVuSans-104"/>
       <path d="M 8.015625 75.875 
L 15.828125 75.875 
Q 23.140625 64.359375 26.78125 53.3125 
Q 30.421875 42.28125 30.421875 31.390625 
Q 30.421875 20.453125 26.78125 9.375 
Q 23.140625 -1.703125 15.828125 -13.1875 
L 8.015625 -13.1875 
Q 14.5 -2 17.703125 9.0625 
Q 20.90625 20.125 20.90625 31.390625 
Q 20.90625 42.671875 17.703125 53.65625 
Q 14.5 64.65625 8.015625 75.875 
z
" id="DejaVuSans-41"/>
      </defs>
      <use xlink:href="#DejaVuSans-84"/>
      <use x="57.958984" xlink:href="#DejaVuSans-105"/>
      <use x="85.742188" xlink:href="#DejaVuSans-109"/>
      <use x="183.154297" xlink:href="#DejaVuSans-101"/>
      <use x="244.677734" xlink:href="#DejaVuSans-32"/>
      <use x="276.464844" xlink:href="#DejaVuSans-40"/>
      <use x="315.478516" xlink:href="#DejaVuSans-104"/>
      <use x="378.857422" xlink:href="#DejaVuSans-41"/>
     </g>
    </g>
   </g>
   <g id="matplotlib.axis_2">
    <g id="ytick_1">
     <g id="line2d_12">
      <defs>
       <path d="M 0 0 
L -3.5 0 
" id="mf1ed1d025c" style="stroke:#000000;stroke-width:0.8;"/>
      </defs>
      <g>
       <use style="stroke:#000000;stroke-width:0.8;" x="28.346457" xlink:href="#mf1ed1d025c" y="126.141732"/>
      </g>
     </g>
     <g id="text_13">
      <!-- $\mathdefault{10^{0}}$ -->
      <g transform="translate(10.786457 128.421264)scale(0.06 -0.06)">
       <use transform="translate(0 0.765625)" xlink:href="#DejaVuSans-49"/>
       <use transform="translate(63.623047 0.765625)" xlink:href="#DejaVuSans-48"/>
       <use transform="translate(128.203125 39.046875)scale(0.7)" xlink:href="#DejaVuSans-48"/>
      </g>
     </g>
    </g>
    <g id="ytick_2">
     <g id="line2d_13">
      <g>
       <use style="stroke:#000000;stroke-width:0.8;" x="28.346457" xlink:href="#mf1ed1d025c" y="101.050518"/>
      </g>
     </g>
     <g id="text_14">
      <!-- $\mathdefault{10^{2}}$ -->
      <g transform="translate(10.786457 103.33005)scale(0.06 -0.06)">
       <use transform="translate(0 0.765625)" xlink:href="#DejaVuSans-49"/>
       <use transform="translate(63.623047 0.765625)" xlink:href="#DejaVuSans-48"/>
       <use transform="translate(128.203125 39.046875)scale(0.7)" xlink:href="#DejaVuSans-50"/>
      </g>
     </g>
    </g>
    <g id="ytick_3">
     <g id="line2d_14">
      <g>
       <use style="stroke:#000000;stroke-width:0.8;" x="28.346457" xlink:href="#mf1ed1d025c" y="75.959305"/>
      </g>
     </g>
     <g id="text_15">
      <!-- $\mathdefault{10^{4}}$ -->
      <g transform="translate(10.786457 78.238836)scale(0.06 -0.06)">
       <use transform="translate(0 0.684375)" xlink:href="#DejaVuSans-49"/>
       <use transform="translate(63.623047 0.684375)" xlink:href="#DejaVuSans-48"/>
       <use transform="translate(128.203125 38.965625)scale(0.7)" xlink:href="#DejaVuSans-52"/>
      </g>
     </g>
    </g>
    <g id="ytick_4">
     <g id="line2d_15">
      <g>
       <use style="stroke:#000000;stroke-width:0.8;" x="28.346457" xlink:href="#mf1ed1d025c" y="50.868091"/>
      </g>
     </g>
     <g id="text_16">
      <!-- $\mathdefault{10^{6}}$ -->
      <g transform="translate(10.786457 53.147622)scale(0.06 -0.06)">
       <use transform="translate(0 0.765625)" xlink:href="#DejaVuSans-49"/>
       <use transform="translate(63.623047 0.765625)" xlink:href="#DejaVuSans-48"/>
       <use transform="translate(128.203125 39.046875)scale(0.7)" xlink:href="#DejaVuSans-54"/>
      </g>
     </g>
    </g>
    <g id="ytick_5">
     <g id="line2d_16">
      <g>
       <use style="stroke:#000000;stroke-width:0.8;" x="28.346457" xlink:href="#mf1ed1d025c" y="25.776877"/>
      </g>
     </g>
     <g id="text_17">
      <!-- $\mathdefault{10^{8}}$ -->
      <g transform="translate(10.786457 28.056408)scale(0.06 -0.06)">
       <use transform="translate(0 0.765625)" xlink:href="#DejaVuSans-49"/>
       <use transform="translate(63.623047 0.765625)" xlink:href="#DejaVuSans-48"/>
       <use transform="translate(128.203125 39.046875)scale(0.7)" xlink:href="#DejaVuSans-56"/>
      </g>
     </g>
    </g>
    <g id="text_18">
     <!-- Concentration $\mathrm{(ml^{-1})}$ -->
     <g transform="translate(5.330675 108.324803)rotate(-90)scale(0.07 -0.07)">
      <defs>
       <path d="M 64.40625 67.28125 
L 64.40625 56.890625 
Q 59.421875 61.53125 53.78125 63.8125 
Q 48.140625 66.109375 41.796875 66.109375 
Q 29.296875 66.109375 22.65625 58.46875 
Q 16.015625 50.828125 16.015625 36.375 
Q 16.015625 21.96875 22.65625 14.328125 
Q 29.296875 6.6875 41.796875 6.6875 
Q 48.140625 6.6875 53.78125 8.984375 
Q 59.421875 11.28125 64.40625 15.921875 
L 64.40625 5.609375 
Q 59.234375 2.09375 53.4375 0.328125 
Q 47.65625 -1.421875 41.21875 -1.421875 
Q 24.65625 -1.421875 15.125 8.703125 
Q 5.609375 18.84375 5.609375 36.375 
Q 5.609375 53.953125 15.125 64.078125 
Q 24.65625 74.21875 41.21875 74.21875 
Q 47.75 74.21875 53.53125 72.484375 
Q 59.328125 70.75 64.40625 67.28125 
z
" id="DejaVuSans-67"/>
       <path d="M 30.609375 48.390625 
Q 23.390625 48.390625 19.1875 42.75 
Q 14.984375 37.109375 14.984375 27.296875 
Q 14.984375 17.484375 19.15625 11.84375 
Q 23.34375 6.203125 30.609375 6.203125 
Q 37.796875 6.203125 41.984375 11.859375 
Q 46.1875 17.53125 46.1875 27.296875 
Q 46.1875 37.015625 41.984375 42.703125 
Q 37.796875 48.390625 30.609375 48.390625 
z
M 30.609375 56 
Q 42.328125 56 49.015625 48.375 
Q 55.71875 40.765625 55.71875 27.296875 
Q 55.71875 13.875 49.015625 6.21875 
Q 42.328125 -1.421875 30.609375 -1.421875 
Q 18.84375 -1.421875 12.171875 6.21875 
Q 5.515625 13.875 5.515625 27.296875 
Q 5.515625 40.765625 12.171875 48.375 
Q 18.84375 56 30.609375 56 
z
" id="DejaVuSans-111"/>
       <path d="M 54.890625 33.015625 
L 54.890625 0 
L 45.90625 0 
L 45.90625 32.71875 
Q 45.90625 40.484375 42.875 44.328125 
Q 39.84375 48.1875 33.796875 48.1875 
Q 26.515625 48.1875 22.3125 43.546875 
Q 18.109375 38.921875 18.109375 30.90625 
L 18.109375 0 
L 9.078125 0 
L 9.078125 54.6875 
L 18.109375 54.6875 
L 18.109375 46.1875 
Q 21.34375 51.125 25.703125 53.5625 
Q 30.078125 56 35.796875 56 
Q 45.21875 56 50.046875 50.171875 
Q 54.890625 44.34375 54.890625 33.015625 
z
" id="DejaVuSans-110"/>
       <path d="M 48.78125 52.59375 
L 48.78125 44.1875 
Q 44.96875 46.296875 41.140625 47.34375 
Q 37.3125 48.390625 33.40625 48.390625 
Q 24.65625 48.390625 19.8125 42.84375 
Q 14.984375 37.3125 14.984375 27.296875 
Q 14.984375 17.28125 19.8125 11.734375 
Q 24.65625 6.203125 33.40625 6.203125 
Q 37.3125 6.203125 41.140625 7.25 
Q 44.96875 8.296875 48.78125 10.40625 
L 48.78125 2.09375 
Q 45.015625 0.34375 40.984375 -0.53125 
Q 36.96875 -1.421875 32.421875 -1.421875 
Q 20.0625 -1.421875 12.78125 6.34375 
Q 5.515625 14.109375 5.515625 27.296875 
Q 5.515625 40.671875 12.859375 48.328125 
Q 20.21875 56 33.015625 56 
Q 37.15625 56 41.109375 55.140625 
Q 45.0625 54.296875 48.78125 52.59375 
z
" id="DejaVuSans-99"/>
       <path d="M 18.3125 70.21875 
L 18.3125 54.6875 
L 36.8125 54.6875 
L 36.8125 47.703125 
L 18.3125 47.703125 
L 18.3125 18.015625 
Q 18.3125 11.328125 20.140625 9.421875 
Q 21.96875 7.515625 27.59375 7.515625 
L 36.8125 7.515625 
L 36.8125 0 
L 27.59375 0 
Q 17.1875 0 13.234375 3.875 
Q 9.28125 7.765625 9.28125 18.015625 
L 9.28125 47.703125 
L 2.6875 47.703125 
L 2.6875 54.6875 
L 9.28125 54.6875 
L 9.28125 70.21875 
z
" id="DejaVuSans-116"/>
       <path d="M 41.109375 46.296875 
Q 39.59375 47.171875 37.8125 47.578125 
Q 36.03125 48 33.890625 48 
Q 26.265625 48 22.1875 43.046875 
Q 18.109375 38.09375 18.109375 28.8125 
L 18.109375 0 
L 9.078125 0 
L 9.078125 54.6875 
L 18.109375 54.6875 
L 18.109375 46.1875 
Q 20.953125 51.171875 25.484375 53.578125 
Q 30.03125 56 36.53125 56 
Q 37.453125 56 38.578125 55.875 
Q 39.703125 55.765625 41.0625 55.515625 
z
" id="DejaVuSans-114"/>
       <path d="M 34.28125 27.484375 
Q 23.390625 27.484375 19.1875 25 
Q 14.984375 22.515625 14.984375 16.5 
Q 14.984375 11.71875 18.140625 8.90625 
Q 21.296875 6.109375 26.703125 6.109375 
Q 34.1875 6.109375 38.703125 11.40625 
Q 43.21875 16.703125 43.21875 25.484375 
L 43.21875 27.484375 
z
M 52.203125 31.203125 
L 52.203125 0 
L 43.21875 0 
L 43.21875 8.296875 
Q 40.140625 3.328125 35.546875 0.953125 
Q 30.953125 -1.421875 24.3125 -1.421875 
Q 15.921875 -1.421875 10.953125 3.296875 
Q 6 8.015625 6 15.921875 
Q 6 25.140625 12.171875 29.828125 
Q 18.359375 34.515625 30.609375 34.515625 
L 43.21875 34.515625 
L 43.21875 35.40625 
Q 43.21875 41.609375 39.140625 45 
Q 35.0625 48.390625 27.6875 48.390625 
Q 23 48.390625 18.546875 47.265625 
Q 14.109375 46.140625 10.015625 43.890625 
L 10.015625 52.203125 
Q 14.9375 54.109375 19.578125 55.046875 
Q 24.21875 56 28.609375 56 
Q 40.484375 56 46.34375 49.84375 
Q 52.203125 43.703125 52.203125 31.203125 
z
" id="DejaVuSans-97"/>
       <path d="M 9.421875 75.984375 
L 18.40625 75.984375 
L 18.40625 0 
L 9.421875 0 
z
" id="DejaVuSans-108"/>
       <path d="M 10.59375 35.5 
L 73.1875 35.5 
L 73.1875 27.203125 
L 10.59375 27.203125 
z
" id="DejaVuSans-8722"/>
      </defs>
      <use transform="translate(0 0.684375)" xlink:href="#DejaVuSans-67"/>
      <use transform="translate(69.824219 0.684375)" xlink:href="#DejaVuSans-111"/>
      <use transform="translate(131.005859 0.684375)" xlink:href="#DejaVuSans-110"/>
      <use transform="translate(194.384766 0.684375)" xlink:href="#DejaVuSans-99"/>
      <use transform="translate(249.365234 0.684375)" xlink:href="#DejaVuSans-101"/>
      <use transform="translate(310.888672 0.684375)" xlink:href="#DejaVuSans-110"/>
      <use transform="translate(374.267578 0.684375)" xlink:href="#DejaVuSans-116"/>
      <use transform="translate(413.476562 0.684375)" xlink:href="#DejaVuSans-114"/>
      <use transform="translate(454.589844 0.684375)" xlink:href="#DejaVuSans-97"/>
      <use transform="translate(515.869141 0.684375)" xlink:href="#DejaVuSans-116"/>
      <use transform="translate(555.078125 0.684375)" xlink:href="#DejaVuSans-105"/>
      <use transform="translate(582.861328 0.684375)" xlink:href="#DejaVuSans-111"/>
      <use transform="translate(644.042969 0.684375)" xlink:href="#DejaVuSans-110"/>
      <use transform="translate(707.421875 0.684375)" xlink:href="#DejaVuSans-32"/>
      <use transform="translate(739.208984 0.684375)" xlink:href="#DejaVuSans-40"/>
      <use transform="translate(778.222656 0.684375)" xlink:href="#DejaVuSans-109"/>
      <use transform="translate(875.634766 0.684375)" xlink:href="#DejaVuSans-108"/>
      <use transform="translate(904.375 38.965625)scale(0.7)" xlink:href="#DejaVuSans-8722"/>
      <use transform="translate(963.027344 38.965625)scale(0.7)" xlink:href="#DejaVuSans-49"/>
      <use transform="translate(1010.297852 0.684375)" xlink:href="#DejaVuSans-41"/>
     </g>
    </g>
   </g>
   <g id="line2d_17">
    <path clip-path="url(#pc976f666f2)" d="M 28.346457 71.608645 
L 37.13298 71.608645 
L 37.13298 88.504912 
L 37.243701 87.847512 
L 41.809635 60.795286 
L 41.877298 60.927546 
L 41.980989 61.812412 
L 42.141798 65.567522 
L 43.136532 94.069472 
L 43.538117 98.328274 
L 43.88434 99.988525 
L 44.151477 100.402924 
L 44.33777 100.362816 
L 44.564485 100.032083 
L 44.914224 99.064861 
L 45.465194 96.797165 
L 46.398416 91.880047 
L 48.43182 79.706649 
L 51.623405 60.81261 
L 51.670857 60.802625 
L 51.7104 60.879929 
L 51.807061 61.556092 
L 51.95469 64.543527 
L 52.402847 80.749052 
L 52.863307 92.139931 
L 53.276315 97.47089 
L 53.640113 99.693857 
L 53.931855 100.357734 
L 54.133965 100.396829 
L 54.338712 100.167184 
L 54.648028 99.427068 
L 55.132214 97.610753 
L 55.928353 93.641877 
L 57.491631 84.508882 
L 61.50308 60.795233 
L 61.514504 60.800346 
L 61.583924 60.990545 
L 61.694646 62.125749 
L 61.871272 66.804617 
L 62.698167 91.934192 
L 63.112054 97.376145 
L 63.477609 99.660352 
L 63.771987 100.352044 
L 63.975855 100.399556 
L 64.178844 100.17819 
L 64.484646 99.457015 
L 64.96268 97.680581 
L 65.747395 93.791265 
L 67.276403 84.882923 
L 71.349364 60.795112 
L 71.36606 60.804555 
L 71.438117 61.031728 
L 71.553231 62.330408 
L 71.740403 67.613383 
L 72.491726 90.94445 
L 72.910885 96.927802 
L 73.283471 99.494616 
L 73.587515 100.317434 
L 73.801049 100.408804 
L 73.996129 100.224836 
L 74.286113 99.588214 
L 74.738665 97.980857 
L 75.473291 94.439527 
L 76.857307 86.485442 
L 81.195647 60.794982 
L 81.237827 60.846253 
L 81.32658 61.345909 
L 81.462784 63.688125 
L 81.746617 73.733143 
L 82.26771 89.500033 
L 82.69302 96.255714 
L 83.074394 99.235313 
L 83.391619 100.256533 
L 83.620091 100.416136 
L 83.808142 100.274064 
L 84.078794 99.734913 
L 84.500589 98.326124 
L 85.178098 95.182835 
L 86.409213 88.246048 
L 89.995351 66.295628 
L 90.997994 60.828285 
L 91.052476 60.798875 
L 91.096413 60.878873 
L 91.192195 61.543014 
L 91.339824 64.511236 
L 91.773043 80.221565 
L 92.236139 91.901992 
L 92.650904 97.368665 
L 93.01646 99.657963 
L 93.310838 100.352474 
L 93.514706 100.401455 
L 93.716816 100.182698 
L 94.021739 99.466623 
L 94.498894 97.697674 
L 95.280973 93.826634 
L 96.802072 84.970102 
L 100.889093 60.794828 
L 100.907546 60.805762 
L 100.980482 61.04464 
L 101.096476 62.386629 
L 101.287162 67.857399 
L 102.020031 90.714497 
L 102.440069 96.820708 
L 102.814413 99.455883 
L 103.121093 100.310442 
L 103.337263 100.411509 
L 103.531465 100.233372 
L 103.818813 99.610403 
L 104.26697 98.031356 
L 104.993688 94.545478 
L 106.355735 86.737031 
L 110.736255 60.794803 
L 110.782828 60.857723 
L 110.874217 61.417165 
L 111.014816 63.992259 
L 111.333798 75.512028 
L 111.832044 90.007939 
L 112.255597 96.497501 
L 112.634334 99.332345 
L 112.947165 100.281658 
L 113.170365 100.415692 
L 113.360173 100.259798 
L 113.637855 99.686988 
L 114.070195 98.21051 
L 114.767036 94.932342 
L 116.048239 87.660696 
L 120.583417 60.794767 
L 120.646687 60.911888 
L 120.74862 61.736678 
L 120.905915 65.278288 
L 121.952494 94.679172 
L 122.348806 98.586955 
L 122.688879 100.074431 
L 122.94635 100.414455 
L 123.130006 100.349893 
L 123.366387 99.975517 
L 123.731943 98.91442 
L 124.310154 96.459951 
L 125.303131 91.133434 
L 127.575553 77.433829 
L 130.386643 60.826497 
L 130.440246 60.798648 
L 130.484183 60.878789 
L 130.579965 61.543681 
L 130.727594 64.513665 
L 131.16257 80.28354 
L 131.624787 91.920778 
L 132.038674 97.3711 
L 132.40423 99.660096 
L 132.698608 100.354438 
L 132.902476 100.403329 
L 133.104586 100.184502 
L 133.409509 99.468346 
L 133.886665 97.699314 
L 134.668743 93.828205 
L 136.189843 84.971627 
L 140.277742 60.794648 
L 140.295317 60.805179 
L 140.368252 61.042771 
L 140.484246 62.38145 
L 140.674932 67.847407 
L 141.40868 90.727803 
L 141.828718 96.82841 
L 142.203061 99.460351 
L 142.509742 100.313106 
L 142.725912 100.413229 
L 142.920113 100.234419 
L 143.207461 99.61069 
L 143.655619 98.030856 
L 144.382337 94.544309 
L 145.744384 86.735447 
L 150.124904 60.794563 
L 150.170598 60.855693 
L 150.261987 61.410397 
L 150.402586 63.975167 
L 150.719811 75.423048 
L 151.218935 89.977804 
L 151.642488 96.483043 
L 152.021225 99.326903 
L 152.334057 100.281251 
L 152.557257 100.417931 
L 152.747065 100.263815 
L 153.023868 99.695353 
L 153.45445 98.229255 
L 154.148655 94.969731 
L 155.422828 87.745069 
L 159.972066 60.79446 
L 160.037093 60.917892 
L 160.139906 61.769888 
L 160.298957 65.413356 
L 161.320932 94.397447 
L 161.71988 98.470775 
L 162.062589 100.03797 
L 162.324454 100.412973 
L 162.508989 100.360714 
L 162.740976 100.007829 
L 163.098624 98.993792 
L 163.662775 96.634923 
L 164.624995 91.518549 
L 166.771757 78.619951 
L 169.780564 60.819214 
L 169.831531 60.799831 
L 169.87371 60.879741 
L 169.970372 61.558097 
L 170.118879 64.576138 
L 170.588126 81.468181 
L 171.045071 92.47009 
L 171.456321 97.622894 
L 171.818362 99.755001 
L 172.106589 100.373957 
L 172.305184 100.398203 
L 172.513446 100.152971 
L 172.828913 99.37859 
L 173.323644 97.492242 
L 174.139994 93.382295 
L 175.76742 83.830658 
L 179.667269 60.794357 
L 179.669906 60.794998 
L 179.735811 60.933069 
L 179.840381 61.846142 
L 180.002948 65.705199 
L 180.974835 93.797608 
L 181.378176 98.212789 
L 181.727915 99.95695 
L 181.998567 100.404882 
L 182.185739 100.376665 
L 182.40806 100.065696 
L 182.74989 99.143289 
L 183.287679 96.96485 
L 184.19366 92.235728 
L 186.124252 80.722156 
L 189.488069 60.804753 
L 189.533764 60.806229 
L 189.568913 60.879929 
L 189.665575 61.55913 
L 189.814082 64.579033 
L 190.285087 81.527701 
L 190.741153 92.487623 
L 191.152403 97.632082 
L 191.513565 99.756269 
L 191.801792 100.374986 
L 192.000387 100.399107 
L 192.208649 100.153771 
L 192.524117 99.379272 
L 193.018847 97.492805 
L 193.835197 93.382761 
L 195.462624 83.831068 
L 199.362472 60.794189 
L 199.365109 60.794819 
L 199.430135 60.928963 
L 199.534706 61.832566 
L 199.696394 65.645491 
L 200.677946 93.916043 
L 201.080409 98.264322 
L 201.428391 99.972889 
L 201.697285 100.407546 
L 201.884457 100.37495 
L 202.108535 100.056341 
L 202.453002 99.118098 
L 202.996063 96.904951 
L 203.912589 92.103343 
L 204.093609 91.071377 
L 204.093609 91.071377 
" style="fill:none;stroke:#2065ab;stroke-linecap:square;stroke-width:2;"/>
   </g>
   <g id="line2d_18">
    <path clip-path="url(#pc976f666f2)" d="M 28.346457 44.30826 
L 37.13298 44.30826 
L 37.243701 61.858203 
L 38.68132 69.65641 
L 39.356192 72.259834 
L 39.746353 73.036424 
L 39.966917 73.09921 
L 40.141786 72.890699 
L 40.36235 72.216758 
L 40.634759 70.56923 
L 40.950227 67.134812 
L 41.299087 60.64736 
L 41.689247 48.784258 
L 42.205068 33.781722 
L 42.309638 33.494924 
L 42.354454 33.541161 
L 42.498567 34.033898 
L 42.979238 36.736892 
L 48.594387 69.962384 
L 49.240261 72.365195 
L 49.614605 73.057231 
L 49.825502 73.093174 
L 50.002129 72.862961 
L 50.226208 72.140756 
L 50.501254 70.404501 
L 50.819357 66.807935 
L 51.169975 60.057079 
L 51.565408 47.668205 
L 52.041685 33.84764 
L 52.155043 33.494718 
L 52.197222 33.534829 
L 52.335184 33.99019 
L 52.785978 36.49823 
L 58.52503 70.33623 
L 59.133997 72.489182 
L 59.488129 73.078821 
L 59.688482 73.083017 
L 59.868624 72.819806 
L 60.097975 72.024063 
L 60.378293 70.141295 
L 60.699912 66.295586 
L 61.054044 59.113121 
L 61.460901 45.790036 
L 61.878302 33.922678 
L 62.001326 33.494629 
L 62.039112 33.527384 
L 62.169165 33.935809 
L 62.583052 36.202298 
L 68.493458 70.850511 
L 69.05058 72.65526 
L 69.374835 73.102135 
L 69.561128 73.062332 
L 69.74742 72.741967 
L 69.985559 71.817633 
L 70.272907 69.695121 
L 70.599798 65.437284 
L 70.959203 57.546191 
L 71.397694 42.28897 
L 71.727222 33.903362 
L 71.848488 33.494644 
L 71.886274 33.52832 
L 72.017206 33.942305 
L 72.435487 36.23763 
L 78.324803 70.788556 
L 78.888954 72.637415 
L 79.216724 73.100471 
L 79.403896 73.066249 
L 79.58931 72.754501 
L 79.825691 71.852112 
L 80.112161 69.766426 
L 80.438173 65.574718 
L 80.796699 57.797758 
L 81.228161 42.910827 
L 81.571748 33.919874 
L 81.694772 33.49453 
L 81.731679 33.526381 
L 81.860854 33.92955 
L 82.271225 36.172638 
L 88.200085 70.905596 
L 88.751934 72.673883 
L 89.072674 73.105016 
L 89.257209 73.060699 
L 89.444381 72.733359 
L 89.683398 71.794324 
L 89.971625 69.643081 
L 90.299395 65.331978 
L 90.6588 57.371328 
L 91.102564 41.847024 
L 91.422425 33.888353 
L 91.541055 33.49441 
L 91.580598 33.529799 
L 91.713288 33.954209 
L 92.139477 36.301505 
L 97.991008 70.676565 
L 98.566583 72.602231 
L 98.901383 73.097033 
L 99.092069 73.071763 
L 99.276605 72.770928 
L 99.512107 71.889528 
L 99.796819 69.851056 
L 100.121953 65.734804 
L 100.4796 58.086522 
L 100.904031 43.593838 
L 101.263436 33.934333 
L 101.388217 33.494383 
L 101.424246 33.524846 
L 101.551663 33.918057 
L 101.954126 36.109412 
L 107.923408 71.025415 
L 108.462954 72.711884 
L 108.775786 73.109546 
L 108.957685 73.055067 
L 109.146614 72.71144 
L 109.387389 71.739136 
L 109.677373 69.524037 
L 110.006022 65.111103 
L 110.367184 56.956159 
L 110.828523 40.635893 
L 111.12378 33.831545 
L 111.23538 33.494348 
L 111.277559 33.535129 
L 111.4164 33.995645 
L 111.870709 36.526964 
L 117.594822 70.292827 
L 118.209061 72.478557 
L 118.564951 73.079144 
L 118.767061 73.087146 
L 118.947203 72.82678 
L 119.176554 72.035606 
L 119.455994 70.168041 
L 119.776734 66.353499 
L 120.130866 59.207705 
L 120.536844 45.964653 
L 120.959518 33.915924 
L 121.081663 33.494188 
L 121.119449 33.526777 
L 121.249502 33.93498 
L 121.663389 36.201359 
L 127.574674 70.854474 
L 128.131795 72.658716 
L 128.45605 73.105108 
L 128.642343 73.064935 
L 128.828636 72.744112 
L 129.066775 71.819032 
L 129.354123 69.695302 
L 129.681014 65.435508 
L 130.040419 57.541276 
L 130.47891 42.280508 
L 130.808438 33.901026 
L 130.928825 33.494126 
L 130.96749 33.528246 
L 131.099301 33.946726 
L 131.521096 36.265007 
L 137.394595 70.743191 
L 137.96314 72.623761 
L 138.293546 73.101065 
L 138.482476 73.071632 
L 138.667011 72.766877 
L 138.902513 71.879128 
L 139.188104 69.822035 
L 139.513238 65.68321 
L 139.870885 57.999628 
L 140.297074 43.399788 
L 140.652085 33.929016 
L 140.775987 33.494052 
L 140.812894 33.525471 
L 140.942069 33.927863 
L 141.351562 36.165259 
L 147.285694 70.922935 
L 147.835786 72.680706 
L 148.155647 73.108257 
L 148.340183 73.062657 
L 148.528233 72.731398 
L 148.76725 71.787338 
L 149.055477 69.627938 
L 149.383247 65.303753 
L 149.743531 57.298076 
L 150.189931 41.645947 
L 150.505398 33.880884 
L 150.62315 33.493967 
L 150.663572 33.530841 
L 150.798019 33.965459 
L 151.232117 36.364603 
L 157.04674 70.566614 
L 157.633739 72.568883 
L 157.97469 73.094742 
L 158.168013 73.080008 
L 158.350791 72.794179 
L 158.583657 71.948046 
L 158.866611 69.972768 
L 159.189987 65.971834 
L 159.545877 58.52523 
L 159.9624 44.537166 
L 160.345531 33.938039 
L 160.470312 33.493871 
L 160.507219 33.524971 
L 160.635515 33.922984 
L 161.041493 36.137529 
L 166.9932 70.975228 
L 167.538019 72.697774 
L 167.854365 73.110766 
L 168.037143 73.061481 
L 168.225194 72.72643 
L 168.46509 71.771469 
L 168.754195 69.589471 
L 169.082844 65.221751 
L 169.443128 57.161917 
L 169.8948 41.263567 
L 170.202359 33.864032 
L 170.318353 33.493866 
L 170.358775 33.531466 
L 170.494101 33.971214 
L 170.932592 36.398914 
L 176.727883 70.509073 
L 177.320154 72.549442 
L 177.66462 73.092702 
L 177.86058 73.082783 
L 178.042479 72.80279 
L 178.274466 71.969321 
L 178.556542 70.019274 
L 178.879918 66.051804 
L 179.235808 58.657547 
L 179.649694 44.834073 
L 180.040734 33.935551 
L 180.165515 33.493742 
L 180.202422 33.525264 
L 180.331597 33.927806 
L 180.74109 36.165337 
L 186.675222 70.923683 
L 187.225313 72.681992 
L 187.545175 73.110048 
L 187.72971 73.064834 
L 187.916882 72.736371 
L 188.155899 71.795505 
L 188.444126 69.641288 
L 188.771896 65.325389 
L 189.13218 57.332612 
L 189.577701 41.724503 
L 189.894926 33.882985 
L 190.013556 33.493718 
L 190.053099 33.530054 
L 190.187546 33.96384 
L 190.620765 36.357252 
L 196.439783 70.580654 
L 197.025024 72.573434 
L 197.365975 73.097295 
L 197.559298 73.081034 
L 197.742076 72.79342 
L 197.974942 71.944404 
L 198.257896 69.964438 
L 198.581272 65.955984 
L 198.937162 58.497569 
L 199.353685 44.495335 
L 199.735937 33.93605 
L 199.860718 33.493572 
L 199.897625 33.525005 
L 200.0268 33.927349 
L 200.436293 36.164771 
L 204.093609 58.587001 
L 204.093609 58.587001 
" style="fill:none;stroke:#b1182b;stroke-linecap:square;stroke-width:2;"/>
   </g>
   <g id="line2d_19">
    <path clip-path="url(#pc976f666f2)" d="M 37.13298 126.141732 
L 37.13298 17.007874 
" style="fill:none;stroke:#000000;stroke-dasharray:0.75,1.2375;stroke-dashoffset:0;stroke-width:0.75;"/>
   </g>
   <g id="line2d_20">
    <path clip-path="url(#pc976f666f2)" d="M 28.346457 87.930856 
L 204.094488 87.930856 
" style="fill:none;stroke:#2065ab;stroke-dasharray:0.75,1.2375;stroke-dashoffset:0;stroke-width:0.75;"/>
   </g>
   <g id="line2d_21">
    <path clip-path="url(#pc976f666f2)" d="M 28.346457 60.63047 
L 204.094488 60.63047 
" style="fill:none;stroke:#b1182b;stroke-dasharray:0.75,1.2375;stroke-dashoffset:0;stroke-width:0.75;"/>
   </g>
   <g id="patch_3">
    <path d="M 28.346457 126.141732 
L 28.346457 17.007874 
" style="fill:none;stroke:#000000;stroke-linecap:square;stroke-linejoin:miter;stroke-width:0.8;"/>
   </g>
   <g id="patch_4">
    <path d="M 28.346457 126.141732 
L 204.094488 126.141732 
" style="fill:none;stroke:#000000;stroke-linecap:square;stroke-linejoin:miter;stroke-width:0.8;"/>
   </g>
   <g id="legend_1">
    <g id="line2d_22">
     <path d="M 156.382301 108.587045 
L 168.382301 108.587045 
" style="fill:none;stroke:#2065ab;stroke-linecap:square;stroke-width:2;"/>
    </g>
    <g id="line2d_23"/>
    <g id="text_19">
     <!-- Prey -->
     <g transform="translate(173.182301 110.687045)scale(0.06 -0.06)">
      <defs>
       <path d="M 19.671875 64.796875 
L 19.671875 37.40625 
L 32.078125 37.40625 
Q 38.96875 37.40625 42.71875 40.96875 
Q 46.484375 44.53125 46.484375 51.125 
Q 46.484375 57.671875 42.71875 61.234375 
Q 38.96875 64.796875 32.078125 64.796875 
z
M 9.8125 72.90625 
L 32.078125 72.90625 
Q 44.34375 72.90625 50.609375 67.359375 
Q 56.890625 61.8125 56.890625 51.125 
Q 56.890625 40.328125 50.609375 34.8125 
Q 44.34375 29.296875 32.078125 29.296875 
L 19.671875 29.296875 
L 19.671875 0 
L 9.8125 0 
z
" id="DejaVuSans-80"/>
       <path d="M 32.171875 -5.078125 
Q 28.375 -14.84375 24.75 -17.8125 
Q 21.140625 -20.796875 15.09375 -20.796875 
L 7.90625 -20.796875 
L 7.90625 -13.28125 
L 13.1875 -13.28125 
Q 16.890625 -13.28125 18.9375 -11.515625 
Q 21 -9.765625 23.484375 -3.21875 
L 25.09375 0.875 
L 2.984375 54.6875 
L 12.5 54.6875 
L 29.59375 11.921875 
L 46.6875 54.6875 
L 56.203125 54.6875 
z
" id="DejaVuSans-121"/>
      </defs>
      <use xlink:href="#DejaVuSans-80"/>
      <use x="58.552734" xlink:href="#DejaVuSans-114"/>
      <use x="97.416016" xlink:href="#DejaVuSans-101"/>
      <use x="158.939453" xlink:href="#DejaVuSans-121"/>
     </g>
    </g>
    <g id="line2d_24">
     <path d="M 156.382301 117.39392 
L 168.382301 117.39392 
" style="fill:none;stroke:#b1182b;stroke-linecap:square;stroke-width:2;"/>
    </g>
    <g id="line2d_25"/>
    <g id="text_20">
     <!-- Predator -->
     <g transform="translate(173.182301 119.49392)scale(0.06 -0.06)">
      <defs>
       <path d="M 45.40625 46.390625 
L 45.40625 75.984375 
L 54.390625 75.984375 
L 54.390625 0 
L 45.40625 0 
L 45.40625 8.203125 
Q 42.578125 3.328125 38.25 0.953125 
Q 33.9375 -1.421875 27.875 -1.421875 
Q 17.96875 -1.421875 11.734375 6.484375 
Q 5.515625 14.40625 5.515625 27.296875 
Q 5.515625 40.1875 11.734375 48.09375 
Q 17.96875 56 27.875 56 
Q 33.9375 56 38.25 53.625 
Q 42.578125 51.265625 45.40625 46.390625 
z
M 14.796875 27.296875 
Q 14.796875 17.390625 18.875 11.75 
Q 22.953125 6.109375 30.078125 6.109375 
Q 37.203125 6.109375 41.296875 11.75 
Q 45.40625 17.390625 45.40625 27.296875 
Q 45.40625 37.203125 41.296875 42.84375 
Q 37.203125 48.484375 30.078125 48.484375 
Q 22.953125 48.484375 18.875 42.84375 
Q 14.796875 37.203125 14.796875 27.296875 
z
" id="DejaVuSans-100"/>
      </defs>
      <use xlink:href="#DejaVuSans-80"/>
      <use x="58.552734" xlink:href="#DejaVuSans-114"/>
      <use x="97.416016" xlink:href="#DejaVuSans-101"/>
      <use x="158.939453" xlink:href="#DejaVuSans-100"/>
      <use x="222.416016" xlink:href="#DejaVuSans-97"/>
      <use x="283.695312" xlink:href="#DejaVuSans-116"/>
      <use x="322.904297" xlink:href="#DejaVuSans-111"/>
      <use x="384.085938" xlink:href="#DejaVuSans-114"/>
     </g>
    </g>
   </g>
  </g>
 </g>
 <defs>
  <clipPath id="pc976f666f2">
   <rect height="109.133858" width="175.748031" x="28.346457" y="17.007874"/>
  </clipPath>
 </defs>
</svg>
