<?xml version="1.0" encoding="utf-8" standalone="no"?>
<!DOCTYPE svg PUBLIC "-//W3C//DTD SVG 1.1//EN"
  "http://www.w3.org/Graphics/SVG/1.1/DTD/svg11.dtd">
<!-- Created with matplotlib (https://matplotlib.org/) -->
<svg height="141.732283pt" version="1.1" viewBox="0 0 226.771654 141.732283" width="226.771654pt" xmlns="http://www.w3.org/2000/svg" xmlns:xlink="http://www.w3.org/1999/xlink">
 <metadata>
  <rdf:RDF xmlns:cc="http://creativecommons.org/ns#" xmlns:dc="http://purl.org/dc/elements/1.1/" xmlns:rdf="http://www.w3.org/1999/02/22-rdf-syntax-ns#">
   <cc:Work>
    <dc:type rdf:resource="http://purl.org/dc/dcmitype/StillImage"/>
    <dc:date>2023-04-24T12:16:44.863798</dc:date>
    <dc:format>image/svg+xml</dc:format>
    <dc:creator>
     <cc:Agent>
      <dc:title>Matplotlib v3.3.4, https://matplotlib.org/</dc:title>
     </cc:Agent>
    </dc:creator>
   </cc:Work>
  </rdf:RDF>
 </metadata>
 <defs>
  <style type="text/css">*{stroke-linecap:butt;stroke-linejoin:round;}</style>
 </defs>
 <g id="figure_1">
  <g id="patch_1">
   <path d="M 0 141.732283 
L 226.771654 141.732283 
L 226.771654 0 
L 0 0 
z
" style="fill:#ffffff;"/>
  </g>
  <g id="axes_1">
   <g id="patch_2">
    <path d="M 28.346457 126.141732 
L 204.094488 126.141732 
L 204.094488 17.007874 
L 28.346457 17.007874 
z
" style="fill:#ffffff;"/>
   </g>
   <g id="matplotlib.axis_1">
    <g id="xtick_1">
     <g id="line2d_1">
      <defs>
       <path d="M 0 0 
L 0 3.5 
" id="mb91a8097ef" style="stroke:#000000;stroke-width:0.8;"/>
      </defs>
      <g>
       <use style="stroke:#000000;stroke-width:0.8;" x="28.346457" xlink:href="#mb91a8097ef" y="126.141732"/>
      </g>
     </g>
     <g id="text_1">
      <!-- 0 -->
      <g transform="translate(26.437707 137.700795)scale(0.06 -0.06)">
       <defs>
        <path d="M 31.78125 66.40625 
Q 24.171875 66.40625 20.328125 58.90625 
Q 16.5 51.421875 16.5 36.375 
Q 16.5 21.390625 20.328125 13.890625 
Q 24.171875 6.390625 31.78125 6.390625 
Q 39.453125 6.390625 43.28125 13.890625 
Q 47.125 21.390625 47.125 36.375 
Q 47.125 51.421875 43.28125 58.90625 
Q 39.453125 66.40625 31.78125 66.40625 
z
M 31.78125 74.21875 
Q 44.046875 74.21875 50.515625 64.515625 
Q 56.984375 54.828125 56.984375 36.375 
Q 56.984375 17.96875 50.515625 8.265625 
Q 44.046875 -1.421875 31.78125 -1.421875 
Q 19.53125 -1.421875 13.0625 8.265625 
Q 6.59375 17.96875 6.59375 36.375 
Q 6.59375 54.828125 13.0625 64.515625 
Q 19.53125 74.21875 31.78125 74.21875 
z
" id="DejaVuSans-48"/>
       </defs>
       <use xlink:href="#DejaVuSans-48"/>
      </g>
     </g>
    </g>
    <g id="xtick_2">
     <g id="line2d_2">
      <g>
       <use style="stroke:#000000;stroke-width:0.8;" x="45.92126" xlink:href="#mb91a8097ef" y="126.141732"/>
      </g>
     </g>
     <g id="text_2">
      <!-- 200 -->
      <g transform="translate(40.19501 137.700795)scale(0.06 -0.06)">
       <defs>
        <path d="M 19.1875 8.296875 
L 53.609375 8.296875 
L 53.609375 0 
L 7.328125 0 
L 7.328125 8.296875 
Q 12.9375 14.109375 22.625 23.890625 
Q 32.328125 33.6875 34.8125 36.53125 
Q 39.546875 41.84375 41.421875 45.53125 
Q 43.3125 49.21875 43.3125 52.78125 
Q 43.3125 58.59375 39.234375 62.25 
Q 35.15625 65.921875 28.609375 65.921875 
Q 23.96875 65.921875 18.8125 64.3125 
Q 13.671875 62.703125 7.8125 59.421875 
L 7.8125 69.390625 
Q 13.765625 71.78125 18.9375 73 
Q 24.125 74.21875 28.421875 74.21875 
Q 39.75 74.21875 46.484375 68.546875 
Q 53.21875 62.890625 53.21875 53.421875 
Q 53.21875 48.921875 51.53125 44.890625 
Q 49.859375 40.875 45.40625 35.40625 
Q 44.1875 33.984375 37.640625 27.21875 
Q 31.109375 20.453125 19.1875 8.296875 
z
" id="DejaVuSans-50"/>
       </defs>
       <use xlink:href="#DejaVuSans-50"/>
       <use x="63.623047" xlink:href="#DejaVuSans-48"/>
       <use x="127.246094" xlink:href="#DejaVuSans-48"/>
      </g>
     </g>
    </g>
    <g id="xtick_3">
     <g id="line2d_3">
      <g>
       <use style="stroke:#000000;stroke-width:0.8;" x="63.496063" xlink:href="#mb91a8097ef" y="126.141732"/>
      </g>
     </g>
     <g id="text_3">
      <!-- 400 -->
      <g transform="translate(57.769813 137.700795)scale(0.06 -0.06)">
       <defs>
        <path d="M 37.796875 64.3125 
L 12.890625 25.390625 
L 37.796875 25.390625 
z
M 35.203125 72.90625 
L 47.609375 72.90625 
L 47.609375 25.390625 
L 58.015625 25.390625 
L 58.015625 17.1875 
L 47.609375 17.1875 
L 47.609375 0 
L 37.796875 0 
L 37.796875 17.1875 
L 4.890625 17.1875 
L 4.890625 26.703125 
z
" id="DejaVuSans-52"/>
       </defs>
       <use xlink:href="#DejaVuSans-52"/>
       <use x="63.623047" xlink:href="#DejaVuSans-48"/>
       <use x="127.246094" xlink:href="#DejaVuSans-48"/>
      </g>
     </g>
    </g>
    <g id="xtick_4">
     <g id="line2d_4">
      <g>
       <use style="stroke:#000000;stroke-width:0.8;" x="81.070866" xlink:href="#mb91a8097ef" y="126.141732"/>
      </g>
     </g>
     <g id="text_4">
      <!-- 600 -->
      <g transform="translate(75.344616 137.700795)scale(0.06 -0.06)">
       <defs>
        <path d="M 33.015625 40.375 
Q 26.375 40.375 22.484375 35.828125 
Q 18.609375 31.296875 18.609375 23.390625 
Q 18.609375 15.53125 22.484375 10.953125 
Q 26.375 6.390625 33.015625 6.390625 
Q 39.65625 6.390625 43.53125 10.953125 
Q 47.40625 15.53125 47.40625 23.390625 
Q 47.40625 31.296875 43.53125 35.828125 
Q 39.65625 40.375 33.015625 40.375 
z
M 52.59375 71.296875 
L 52.59375 62.3125 
Q 48.875 64.0625 45.09375 64.984375 
Q 41.3125 65.921875 37.59375 65.921875 
Q 27.828125 65.921875 22.671875 59.328125 
Q 17.53125 52.734375 16.796875 39.40625 
Q 19.671875 43.65625 24.015625 45.921875 
Q 28.375 48.1875 33.59375 48.1875 
Q 44.578125 48.1875 50.953125 41.515625 
Q 57.328125 34.859375 57.328125 23.390625 
Q 57.328125 12.15625 50.6875 5.359375 
Q 44.046875 -1.421875 33.015625 -1.421875 
Q 20.359375 -1.421875 13.671875 8.265625 
Q 6.984375 17.96875 6.984375 36.375 
Q 6.984375 53.65625 15.1875 63.9375 
Q 23.390625 74.21875 37.203125 74.21875 
Q 40.921875 74.21875 44.703125 73.484375 
Q 48.484375 72.75 52.59375 71.296875 
z
" id="DejaVuSans-54"/>
       </defs>
       <use xlink:href="#DejaVuSans-54"/>
       <use x="63.623047" xlink:href="#DejaVuSans-48"/>
       <use x="127.246094" xlink:href="#DejaVuSans-48"/>
      </g>
     </g>
    </g>
    <g id="xtick_5">
     <g id="line2d_5">
      <g>
       <use style="stroke:#000000;stroke-width:0.8;" x="98.645669" xlink:href="#mb91a8097ef" y="126.141732"/>
      </g>
     </g>
     <g id="text_5">
      <!-- 800 -->
      <g transform="translate(92.919419 137.700795)scale(0.06 -0.06)">
       <defs>
        <path d="M 31.78125 34.625 
Q 24.75 34.625 20.71875 30.859375 
Q 16.703125 27.09375 16.703125 20.515625 
Q 16.703125 13.921875 20.71875 10.15625 
Q 24.75 6.390625 31.78125 6.390625 
Q 38.8125 6.390625 42.859375 10.171875 
Q 46.921875 13.96875 46.921875 20.515625 
Q 46.921875 27.09375 42.890625 30.859375 
Q 38.875 34.625 31.78125 34.625 
z
M 21.921875 38.8125 
Q 15.578125 40.375 12.03125 44.71875 
Q 8.5 49.078125 8.5 55.328125 
Q 8.5 64.0625 14.71875 69.140625 
Q 20.953125 74.21875 31.78125 74.21875 
Q 42.671875 74.21875 48.875 69.140625 
Q 55.078125 64.0625 55.078125 55.328125 
Q 55.078125 49.078125 51.53125 44.71875 
Q 48 40.375 41.703125 38.8125 
Q 48.828125 37.15625 52.796875 32.3125 
Q 56.78125 27.484375 56.78125 20.515625 
Q 56.78125 9.90625 50.3125 4.234375 
Q 43.84375 -1.421875 31.78125 -1.421875 
Q 19.734375 -1.421875 13.25 4.234375 
Q 6.78125 9.90625 6.78125 20.515625 
Q 6.78125 27.484375 10.78125 32.3125 
Q 14.796875 37.15625 21.921875 38.8125 
z
M 18.3125 54.390625 
Q 18.3125 48.734375 21.84375 45.5625 
Q 25.390625 42.390625 31.78125 42.390625 
Q 38.140625 42.390625 41.71875 45.5625 
Q 45.3125 48.734375 45.3125 54.390625 
Q 45.3125 60.0625 41.71875 63.234375 
Q 38.140625 66.40625 31.78125 66.40625 
Q 25.390625 66.40625 21.84375 63.234375 
Q 18.3125 60.0625 18.3125 54.390625 
z
" id="DejaVuSans-56"/>
       </defs>
       <use xlink:href="#DejaVuSans-56"/>
       <use x="63.623047" xlink:href="#DejaVuSans-48"/>
       <use x="127.246094" xlink:href="#DejaVuSans-48"/>
      </g>
     </g>
    </g>
    <g id="xtick_6">
     <g id="line2d_6">
      <g>
       <use style="stroke:#000000;stroke-width:0.8;" x="116.220472" xlink:href="#mb91a8097ef" y="126.141732"/>
      </g>
     </g>
     <g id="text_6">
      <!-- 1000 -->
      <g transform="translate(108.585472 137.700795)scale(0.06 -0.06)">
       <defs>
        <path d="M 12.40625 8.296875 
L 28.515625 8.296875 
L 28.515625 63.921875 
L 10.984375 60.40625 
L 10.984375 69.390625 
L 28.421875 72.90625 
L 38.28125 72.90625 
L 38.28125 8.296875 
L 54.390625 8.296875 
L 54.390625 0 
L 12.40625 0 
z
" id="DejaVuSans-49"/>
       </defs>
       <use xlink:href="#DejaVuSans-49"/>
       <use x="63.623047" xlink:href="#DejaVuSans-48"/>
       <use x="127.246094" xlink:href="#DejaVuSans-48"/>
       <use x="190.869141" xlink:href="#DejaVuSans-48"/>
      </g>
     </g>
    </g>
    <g id="xtick_7">
     <g id="line2d_7">
      <g>
       <use style="stroke:#000000;stroke-width:0.8;" x="133.795276" xlink:href="#mb91a8097ef" y="126.141732"/>
      </g>
     </g>
     <g id="text_7">
      <!-- 1200 -->
      <g transform="translate(126.160276 137.700795)scale(0.06 -0.06)">
       <use xlink:href="#DejaVuSans-49"/>
       <use x="63.623047" xlink:href="#DejaVuSans-50"/>
       <use x="127.246094" xlink:href="#DejaVuSans-48"/>
       <use x="190.869141" xlink:href="#DejaVuSans-48"/>
      </g>
     </g>
    </g>
    <g id="xtick_8">
     <g id="line2d_8">
      <g>
       <use style="stroke:#000000;stroke-width:0.8;" x="151.370079" xlink:href="#mb91a8097ef" y="126.141732"/>
      </g>
     </g>
     <g id="text_8">
      <!-- 1400 -->
      <g transform="translate(143.735079 137.700795)scale(0.06 -0.06)">
       <use xlink:href="#DejaVuSans-49"/>
       <use x="63.623047" xlink:href="#DejaVuSans-52"/>
       <use x="127.246094" xlink:href="#DejaVuSans-48"/>
       <use x="190.869141" xlink:href="#DejaVuSans-48"/>
      </g>
     </g>
    </g>
    <g id="xtick_9">
     <g id="line2d_9">
      <g>
       <use style="stroke:#000000;stroke-width:0.8;" x="168.944882" xlink:href="#mb91a8097ef" y="126.141732"/>
      </g>
     </g>
     <g id="text_9">
      <!-- 1600 -->
      <g transform="translate(161.309882 137.700795)scale(0.06 -0.06)">
       <use xlink:href="#DejaVuSans-49"/>
       <use x="63.623047" xlink:href="#DejaVuSans-54"/>
       <use x="127.246094" xlink:href="#DejaVuSans-48"/>
       <use x="190.869141" xlink:href="#DejaVuSans-48"/>
      </g>
     </g>
    </g>
    <g id="xtick_10">
     <g id="line2d_10">
      <g>
       <use style="stroke:#000000;stroke-width:0.8;" x="186.519685" xlink:href="#mb91a8097ef" y="126.141732"/>
      </g>
     </g>
     <g id="text_10">
      <!-- 1800 -->
      <g transform="translate(178.884685 137.700795)scale(0.06 -0.06)">
       <use xlink:href="#DejaVuSans-49"/>
       <use x="63.623047" xlink:href="#DejaVuSans-56"/>
       <use x="127.246094" xlink:href="#DejaVuSans-48"/>
       <use x="190.869141" xlink:href="#DejaVuSans-48"/>
      </g>
     </g>
    </g>
    <g id="xtick_11">
     <g id="line2d_11">
      <g>
       <use style="stroke:#000000;stroke-width:0.8;" x="204.094488" xlink:href="#mb91a8097ef" y="126.141732"/>
      </g>
     </g>
     <g id="text_11">
      <!-- 2000 -->
      <g transform="translate(196.459488 137.700795)scale(0.06 -0.06)">
       <use xlink:href="#DejaVuSans-50"/>
       <use x="63.623047" xlink:href="#DejaVuSans-48"/>
       <use x="127.246094" xlink:href="#DejaVuSans-48"/>
       <use x="190.869141" xlink:href="#DejaVuSans-48"/>
      </g>
     </g>
    </g>
    <g id="text_12">
     <!-- Time (h) -->
     <g transform="translate(101.595394 148.267514)scale(0.07 -0.07)">
      <defs>
       <path d="M -0.296875 72.90625 
L 61.375 72.90625 
L 61.375 64.59375 
L 35.5 64.59375 
L 35.5 0 
L 25.59375 0 
L 25.59375 64.59375 
L -0.296875 64.59375 
z
" id="DejaVuSans-84"/>
       <path d="M 9.421875 54.6875 
L 18.40625 54.6875 
L 18.40625 0 
L 9.421875 0 
z
M 9.421875 75.984375 
L 18.40625 75.984375 
L 18.40625 64.59375 
L 9.421875 64.59375 
z
" id="DejaVuSans-105"/>
       <path d="M 52 44.1875 
Q 55.375 50.25 60.0625 53.125 
Q 64.75 56 71.09375 56 
Q 79.640625 56 84.28125 50.015625 
Q 88.921875 44.046875 88.921875 33.015625 
L 88.921875 0 
L 79.890625 0 
L 79.890625 32.71875 
Q 79.890625 40.578125 77.09375 44.375 
Q 74.3125 48.1875 68.609375 48.1875 
Q 61.625 48.1875 57.5625 43.546875 
Q 53.515625 38.921875 53.515625 30.90625 
L 53.515625 0 
L 44.484375 0 
L 44.484375 32.71875 
Q 44.484375 40.625 41.703125 44.40625 
Q 38.921875 48.1875 33.109375 48.1875 
Q 26.21875 48.1875 22.15625 43.53125 
Q 18.109375 38.875 18.109375 30.90625 
L 18.109375 0 
L 9.078125 0 
L 9.078125 54.6875 
L 18.109375 54.6875 
L 18.109375 46.1875 
Q 21.1875 51.21875 25.484375 53.609375 
Q 29.78125 56 35.6875 56 
Q 41.65625 56 45.828125 52.96875 
Q 50 49.953125 52 44.1875 
z
" id="DejaVuSans-109"/>
       <path d="M 56.203125 29.59375 
L 56.203125 25.203125 
L 14.890625 25.203125 
Q 15.484375 15.921875 20.484375 11.0625 
Q 25.484375 6.203125 34.421875 6.203125 
Q 39.59375 6.203125 44.453125 7.46875 
Q 49.3125 8.734375 54.109375 11.28125 
L 54.109375 2.78125 
Q 49.265625 0.734375 44.1875 -0.34375 
Q 39.109375 -1.421875 33.890625 -1.421875 
Q 20.796875 -1.421875 13.15625 6.1875 
Q 5.515625 13.8125 5.515625 26.8125 
Q 5.515625 40.234375 12.765625 48.109375 
Q 20.015625 56 32.328125 56 
Q 43.359375 56 49.78125 48.890625 
Q 56.203125 41.796875 56.203125 29.59375 
z
M 47.21875 32.234375 
Q 47.125 39.59375 43.09375 43.984375 
Q 39.0625 48.390625 32.421875 48.390625 
Q 24.90625 48.390625 20.390625 44.140625 
Q 15.875 39.890625 15.1875 32.171875 
z
" id="DejaVuSans-101"/>
       <path id="DejaVuSans-32"/>
       <path d="M 31 75.875 
Q 24.46875 64.65625 21.28125 53.65625 
Q 18.109375 42.671875 18.109375 31.390625 
Q 18.109375 20.125 21.3125 9.0625 
Q 24.515625 -2 31 -13.1875 
L 23.1875 -13.1875 
Q 15.875 -1.703125 12.234375 9.375 
Q 8.59375 20.453125 8.59375 31.390625 
Q 8.59375 42.28125 12.203125 53.3125 
Q 15.828125 64.359375 23.1875 75.875 
z
" id="DejaVuSans-40"/>
       <path d="M 54.890625 33.015625 
L 54.890625 0 
L 45.90625 0 
L 45.90625 32.71875 
Q 45.90625 40.484375 42.875 44.328125 
Q 39.84375 48.1875 33.796875 48.1875 
Q 26.515625 48.1875 22.3125 43.546875 
Q 18.109375 38.921875 18.109375 30.90625 
L 18.109375 0 
L 9.078125 0 
L 9.078125 75.984375 
L 18.109375 75.984375 
L 18.109375 46.1875 
Q 21.34375 51.125 25.703125 53.5625 
Q 30.078125 56 35.796875 56 
Q 45.21875 56 50.046875 50.171875 
Q 54.890625 44.34375 54.890625 33.015625 
z
" id="DejaVuSans-104"/>
       <path d="M 8.015625 75.875 
L 15.828125 75.875 
Q 23.140625 64.359375 26.78125 53.3125 
Q 30.421875 42.28125 30.421875 31.390625 
Q 30.421875 20.453125 26.78125 9.375 
Q 23.140625 -1.703125 15.828125 -13.1875 
L 8.015625 -13.1875 
Q 14.5 -2 17.703125 9.0625 
Q 20.90625 20.125 20.90625 31.390625 
Q 20.90625 42.671875 17.703125 53.65625 
Q 14.5 64.65625 8.015625 75.875 
z
" id="DejaVuSans-41"/>
      </defs>
      <use xlink:href="#DejaVuSans-84"/>
      <use x="57.958984" xlink:href="#DejaVuSans-105"/>
      <use x="85.742188" xlink:href="#DejaVuSans-109"/>
      <use x="183.154297" xlink:href="#DejaVuSans-101"/>
      <use x="244.677734" xlink:href="#DejaVuSans-32"/>
      <use x="276.464844" xlink:href="#DejaVuSans-40"/>
      <use x="315.478516" xlink:href="#DejaVuSans-104"/>
      <use x="378.857422" xlink:href="#DejaVuSans-41"/>
     </g>
    </g>
   </g>
   <g id="matplotlib.axis_2">
    <g id="ytick_1">
     <g id="line2d_12">
      <defs>
       <path d="M 0 0 
L -3.5 0 
" id="m0353429bb1" style="stroke:#000000;stroke-width:0.8;"/>
      </defs>
      <g>
       <use style="stroke:#000000;stroke-width:0.8;" x="28.346457" xlink:href="#m0353429bb1" y="126.141732"/>
      </g>
     </g>
     <g id="text_13">
      <!-- $\mathdefault{10^{0}}$ -->
      <g transform="translate(10.786457 128.421264)scale(0.06 -0.06)">
       <use transform="translate(0 0.765625)" xlink:href="#DejaVuSans-49"/>
       <use transform="translate(63.623047 0.765625)" xlink:href="#DejaVuSans-48"/>
       <use transform="translate(128.203125 39.046875)scale(0.7)" xlink:href="#DejaVuSans-48"/>
      </g>
     </g>
    </g>
    <g id="ytick_2">
     <g id="line2d_13">
      <g>
       <use style="stroke:#000000;stroke-width:0.8;" x="28.346457" xlink:href="#m0353429bb1" y="101.050518"/>
      </g>
     </g>
     <g id="text_14">
      <!-- $\mathdefault{10^{2}}$ -->
      <g transform="translate(10.786457 103.33005)scale(0.06 -0.06)">
       <use transform="translate(0 0.765625)" xlink:href="#DejaVuSans-49"/>
       <use transform="translate(63.623047 0.765625)" xlink:href="#DejaVuSans-48"/>
       <use transform="translate(128.203125 39.046875)scale(0.7)" xlink:href="#DejaVuSans-50"/>
      </g>
     </g>
    </g>
    <g id="ytick_3">
     <g id="line2d_14">
      <g>
       <use style="stroke:#000000;stroke-width:0.8;" x="28.346457" xlink:href="#m0353429bb1" y="75.959305"/>
      </g>
     </g>
     <g id="text_15">
      <!-- $\mathdefault{10^{4}}$ -->
      <g transform="translate(10.786457 78.238836)scale(0.06 -0.06)">
       <use transform="translate(0 0.684375)" xlink:href="#DejaVuSans-49"/>
       <use transform="translate(63.623047 0.684375)" xlink:href="#DejaVuSans-48"/>
       <use transform="translate(128.203125 38.965625)scale(0.7)" xlink:href="#DejaVuSans-52"/>
      </g>
     </g>
    </g>
    <g id="ytick_4">
     <g id="line2d_15">
      <g>
       <use style="stroke:#000000;stroke-width:0.8;" x="28.346457" xlink:href="#m0353429bb1" y="50.868091"/>
      </g>
     </g>
     <g id="text_16">
      <!-- $\mathdefault{10^{6}}$ -->
      <g transform="translate(10.786457 53.147622)scale(0.06 -0.06)">
       <use transform="translate(0 0.765625)" xlink:href="#DejaVuSans-49"/>
       <use transform="translate(63.623047 0.765625)" xlink:href="#DejaVuSans-48"/>
       <use transform="translate(128.203125 39.046875)scale(0.7)" xlink:href="#DejaVuSans-54"/>
      </g>
     </g>
    </g>
    <g id="ytick_5">
     <g id="line2d_16">
      <g>
       <use style="stroke:#000000;stroke-width:0.8;" x="28.346457" xlink:href="#m0353429bb1" y="25.776877"/>
      </g>
     </g>
     <g id="text_17">
      <!-- $\mathdefault{10^{8}}$ -->
      <g transform="translate(10.786457 28.056408)scale(0.06 -0.06)">
       <use transform="translate(0 0.765625)" xlink:href="#DejaVuSans-49"/>
       <use transform="translate(63.623047 0.765625)" xlink:href="#DejaVuSans-48"/>
       <use transform="translate(128.203125 39.046875)scale(0.7)" xlink:href="#DejaVuSans-56"/>
      </g>
     </g>
    </g>
    <g id="text_18">
     <!-- Concentration $\mathrm{(ml^{-1})}$ -->
     <g transform="translate(5.330675 108.324803)rotate(-90)scale(0.07 -0.07)">
      <defs>
       <path d="M 64.40625 67.28125 
L 64.40625 56.890625 
Q 59.421875 61.53125 53.78125 63.8125 
Q 48.140625 66.109375 41.796875 66.109375 
Q 29.296875 66.109375 22.65625 58.46875 
Q 16.015625 50.828125 16.015625 36.375 
Q 16.015625 21.96875 22.65625 14.328125 
Q 29.296875 6.6875 41.796875 6.6875 
Q 48.140625 6.6875 53.78125 8.984375 
Q 59.421875 11.28125 64.40625 15.921875 
L 64.40625 5.609375 
Q 59.234375 2.09375 53.4375 0.328125 
Q 47.65625 -1.421875 41.21875 -1.421875 
Q 24.65625 -1.421875 15.125 8.703125 
Q 5.609375 18.84375 5.609375 36.375 
Q 5.609375 53.953125 15.125 64.078125 
Q 24.65625 74.21875 41.21875 74.21875 
Q 47.75 74.21875 53.53125 72.484375 
Q 59.328125 70.75 64.40625 67.28125 
z
" id="DejaVuSans-67"/>
       <path d="M 30.609375 48.390625 
Q 23.390625 48.390625 19.1875 42.75 
Q 14.984375 37.109375 14.984375 27.296875 
Q 14.984375 17.484375 19.15625 11.84375 
Q 23.34375 6.203125 30.609375 6.203125 
Q 37.796875 6.203125 41.984375 11.859375 
Q 46.1875 17.53125 46.1875 27.296875 
Q 46.1875 37.015625 41.984375 42.703125 
Q 37.796875 48.390625 30.609375 48.390625 
z
M 30.609375 56 
Q 42.328125 56 49.015625 48.375 
Q 55.71875 40.765625 55.71875 27.296875 
Q 55.71875 13.875 49.015625 6.21875 
Q 42.328125 -1.421875 30.609375 -1.421875 
Q 18.84375 -1.421875 12.171875 6.21875 
Q 5.515625 13.875 5.515625 27.296875 
Q 5.515625 40.765625 12.171875 48.375 
Q 18.84375 56 30.609375 56 
z
" id="DejaVuSans-111"/>
       <path d="M 54.890625 33.015625 
L 54.890625 0 
L 45.90625 0 
L 45.90625 32.71875 
Q 45.90625 40.484375 42.875 44.328125 
Q 39.84375 48.1875 33.796875 48.1875 
Q 26.515625 48.1875 22.3125 43.546875 
Q 18.109375 38.921875 18.109375 30.90625 
L 18.109375 0 
L 9.078125 0 
L 9.078125 54.6875 
L 18.109375 54.6875 
L 18.109375 46.1875 
Q 21.34375 51.125 25.703125 53.5625 
Q 30.078125 56 35.796875 56 
Q 45.21875 56 50.046875 50.171875 
Q 54.890625 44.34375 54.890625 33.015625 
z
" id="DejaVuSans-110"/>
       <path d="M 48.78125 52.59375 
L 48.78125 44.1875 
Q 44.96875 46.296875 41.140625 47.34375 
Q 37.3125 48.390625 33.40625 48.390625 
Q 24.65625 48.390625 19.8125 42.84375 
Q 14.984375 37.3125 14.984375 27.296875 
Q 14.984375 17.28125 19.8125 11.734375 
Q 24.65625 6.203125 33.40625 6.203125 
Q 37.3125 6.203125 41.140625 7.25 
Q 44.96875 8.296875 48.78125 10.40625 
L 48.78125 2.09375 
Q 45.015625 0.34375 40.984375 -0.53125 
Q 36.96875 -1.421875 32.421875 -1.421875 
Q 20.0625 -1.421875 12.78125 6.34375 
Q 5.515625 14.109375 5.515625 27.296875 
Q 5.515625 40.671875 12.859375 48.328125 
Q 20.21875 56 33.015625 56 
Q 37.15625 56 41.109375 55.140625 
Q 45.0625 54.296875 48.78125 52.59375 
z
" id="DejaVuSans-99"/>
       <path d="M 18.3125 70.21875 
L 18.3125 54.6875 
L 36.8125 54.6875 
L 36.8125 47.703125 
L 18.3125 47.703125 
L 18.3125 18.015625 
Q 18.3125 11.328125 20.140625 9.421875 
Q 21.96875 7.515625 27.59375 7.515625 
L 36.8125 7.515625 
L 36.8125 0 
L 27.59375 0 
Q 17.1875 0 13.234375 3.875 
Q 9.28125 7.765625 9.28125 18.015625 
L 9.28125 47.703125 
L 2.6875 47.703125 
L 2.6875 54.6875 
L 9.28125 54.6875 
L 9.28125 70.21875 
z
" id="DejaVuSans-116"/>
       <path d="M 41.109375 46.296875 
Q 39.59375 47.171875 37.8125 47.578125 
Q 36.03125 48 33.890625 48 
Q 26.265625 48 22.1875 43.046875 
Q 18.109375 38.09375 18.109375 28.8125 
L 18.109375 0 
L 9.078125 0 
L 9.078125 54.6875 
L 18.109375 54.6875 
L 18.109375 46.1875 
Q 20.953125 51.171875 25.484375 53.578125 
Q 30.03125 56 36.53125 56 
Q 37.453125 56 38.578125 55.875 
Q 39.703125 55.765625 41.0625 55.515625 
z
" id="DejaVuSans-114"/>
       <path d="M 34.28125 27.484375 
Q 23.390625 27.484375 19.1875 25 
Q 14.984375 22.515625 14.984375 16.5 
Q 14.984375 11.71875 18.140625 8.90625 
Q 21.296875 6.109375 26.703125 6.109375 
Q 34.1875 6.109375 38.703125 11.40625 
Q 43.21875 16.703125 43.21875 25.484375 
L 43.21875 27.484375 
z
M 52.203125 31.203125 
L 52.203125 0 
L 43.21875 0 
L 43.21875 8.296875 
Q 40.140625 3.328125 35.546875 0.953125 
Q 30.953125 -1.421875 24.3125 -1.421875 
Q 15.921875 -1.421875 10.953125 3.296875 
Q 6 8.015625 6 15.921875 
Q 6 25.140625 12.171875 29.828125 
Q 18.359375 34.515625 30.609375 34.515625 
L 43.21875 34.515625 
L 43.21875 35.40625 
Q 43.21875 41.609375 39.140625 45 
Q 35.0625 48.390625 27.6875 48.390625 
Q 23 48.390625 18.546875 47.265625 
Q 14.109375 46.140625 10.015625 43.890625 
L 10.015625 52.203125 
Q 14.9375 54.109375 19.578125 55.046875 
Q 24.21875 56 28.609375 56 
Q 40.484375 56 46.34375 49.84375 
Q 52.203125 43.703125 52.203125 31.203125 
z
" id="DejaVuSans-97"/>
       <path d="M 9.421875 75.984375 
L 18.40625 75.984375 
L 18.40625 0 
L 9.421875 0 
z
" id="DejaVuSans-108"/>
       <path d="M 10.59375 35.5 
L 73.1875 35.5 
L 73.1875 27.203125 
L 10.59375 27.203125 
z
" id="DejaVuSans-8722"/>
      </defs>
      <use transform="translate(0 0.684375)" xlink:href="#DejaVuSans-67"/>
      <use transform="translate(69.824219 0.684375)" xlink:href="#DejaVuSans-111"/>
      <use transform="translate(131.005859 0.684375)" xlink:href="#DejaVuSans-110"/>
      <use transform="translate(194.384766 0.684375)" xlink:href="#DejaVuSans-99"/>
      <use transform="translate(249.365234 0.684375)" xlink:href="#DejaVuSans-101"/>
      <use transform="translate(310.888672 0.684375)" xlink:href="#DejaVuSans-110"/>
      <use transform="translate(374.267578 0.684375)" xlink:href="#DejaVuSans-116"/>
      <use transform="translate(413.476562 0.684375)" xlink:href="#DejaVuSans-114"/>
      <use transform="translate(454.589844 0.684375)" xlink:href="#DejaVuSans-97"/>
      <use transform="translate(515.869141 0.684375)" xlink:href="#DejaVuSans-116"/>
      <use transform="translate(555.078125 0.684375)" xlink:href="#DejaVuSans-105"/>
      <use transform="translate(582.861328 0.684375)" xlink:href="#DejaVuSans-111"/>
      <use transform="translate(644.042969 0.684375)" xlink:href="#DejaVuSans-110"/>
      <use transform="translate(707.421875 0.684375)" xlink:href="#DejaVuSans-32"/>
      <use transform="translate(739.208984 0.684375)" xlink:href="#DejaVuSans-40"/>
      <use transform="translate(778.222656 0.684375)" xlink:href="#DejaVuSans-109"/>
      <use transform="translate(875.634766 0.684375)" xlink:href="#DejaVuSans-108"/>
      <use transform="translate(904.375 38.965625)scale(0.7)" xlink:href="#DejaVuSans-8722"/>
      <use transform="translate(963.027344 38.965625)scale(0.7)" xlink:href="#DejaVuSans-49"/>
      <use transform="translate(1010.297852 0.684375)" xlink:href="#DejaVuSans-41"/>
     </g>
    </g>
   </g>
   <g id="line2d_17">
    <path clip-path="url(#p22bdd4a284)" d="M 28.346457 71.608645 
L 37.13298 71.608645 
L 37.13298 89.49831 
L 37.243701 88.836047 
L 41.998564 60.50118 
L 42.061833 60.625675 
L 42.162009 61.499543 
L 42.317546 65.306574 
L 43.314038 95.495887 
L 43.718258 100.029312 
L 44.069754 101.833949 
L 44.343043 102.307797 
L 44.531972 102.287412 
L 44.751657 101.987656 
L 45.089093 101.089557 
L 45.619852 98.957699 
L 46.510894 94.328348 
L 48.388762 83.1473 
L 52.19898 60.501153 
L 52.263128 60.600314 
L 52.359789 61.361486 
L 52.508296 64.737361 
L 53.611994 96.79497 
L 54.006548 100.587171 
L 54.343106 102.010817 
L 54.597061 102.326681 
L 54.779839 102.253819 
L 55.019735 101.863041 
L 55.390564 100.768142 
L 55.978441 98.244992 
L 56.993386 92.764753 
L 59.359833 78.457878 
L 62.383578 60.517275 
L 62.428394 60.508129 
L 62.467937 60.588972 
L 62.561962 61.287085 
L 62.706954 64.439449 
L 63.877436 97.528641 
L 64.264961 100.889655 
L 64.591852 102.099906 
L 64.832627 102.330815 
L 65.016283 102.224392 
L 65.271118 101.763325 
L 65.666551 100.518553 
L 66.296608 97.702172 
L 67.41085 91.547385 
L 70.250939 74.24404 
L 72.583994 60.527375 
L 72.633203 60.50537 
L 72.676261 60.589278 
L 72.771165 61.299427 
L 72.917036 64.498595 
L 74.074337 97.390538 
L 74.463619 100.83585 
L 74.792268 102.084922 
L 75.035679 102.331305 
L 75.219335 102.230927 
L 75.471534 101.782698 
L 75.862573 100.56511 
L 76.4856 97.798944 
L 77.582268 91.763389 
L 80.331846 75.030817 
L 82.793197 60.526015 
L 82.841528 60.505255 
L 82.884586 60.589188 
L 82.97949 61.299291 
L 83.125361 64.49848 
L 84.282661 97.391105 
L 84.671943 100.836499 
L 85.000592 102.085617 
L 85.244003 102.332023 
L 85.42766 102.23166 
L 85.679858 101.783447 
L 86.070898 100.565875 
L 86.693924 97.799723 
L 87.790592 91.764176 
L 90.54017 75.031604 
L 93.001521 60.526116 
L 93.050731 60.505644 
L 93.09291 60.588654 
L 93.187814 61.297504 
L 93.333685 64.494111 
L 94.491865 97.400875 
L 94.881146 100.841437 
L 95.209795 102.087834 
L 95.453206 102.332787 
L 95.636863 102.231564 
L 95.889061 101.782426 
L 96.280101 100.563855 
L 96.903128 97.796796 
L 97.999795 91.760621 
L 100.751131 75.016955 
L 103.210724 60.525158 
L 103.259055 60.505329 
L 103.301235 60.587639 
L 103.39526 61.283205 
L 103.540252 64.430537 
L 104.714249 97.570261 
L 105.101773 100.910508 
L 105.427786 102.107344 
L 105.667682 102.333721 
L 105.851339 102.225618 
L 106.107052 101.760601 
L 106.503364 100.509336 
L 107.136057 97.675787 
L 108.255572 91.485164 
L 111.12378 74.004643 
L 113.41817 60.526899 
L 113.46738 60.504952 
L 113.509559 60.586162 
L 113.603584 61.278077 
L 113.748576 64.417687 
L 114.925209 97.597748 
L 115.312734 100.923618 
L 115.638746 102.112381 
L 115.877764 102.334454 
L 116.06142 102.224789 
L 116.317134 101.758074 
L 116.714324 100.501647 
L 117.347896 97.660955 
L 118.470047 91.452264 
L 121.353194 73.877687 
L 123.627373 60.526303 
L 123.676583 60.505097 
L 123.718762 60.587099 
L 123.812787 61.282025 
L 123.95778 64.428075 
L 125.130898 97.559883 
L 125.518422 100.906467 
L 125.845313 102.10859 
L 126.085209 102.335156 
L 126.268866 102.227165 
L 126.52458 101.76227 
L 126.920891 100.511136 
L 127.553584 97.677705 
L 128.673099 91.48716 
L 131.541307 74.006661 
L 133.835698 60.527185 
L 133.884907 60.504515 
L 133.927965 60.587626 
L 134.021991 61.284301 
L 134.166983 64.434213 
L 135.339222 97.552217 
L 135.726746 100.903299 
L 136.053638 102.107953 
L 136.294413 102.335878 
L 136.478069 102.227668 
L 136.733783 101.762535 
L 137.130973 100.507812 
L 137.764545 97.668653 
L 138.885817 91.466161 
L 141.763691 73.924802 
L 144.044901 60.526998 
L 144.09411 60.504439 
L 144.137169 60.587758 
L 144.231194 61.284961 
L 144.376186 64.436099 
L 145.548425 97.553559 
L 145.93595 100.90431 
L 146.262841 102.108775 
L 146.503616 102.336599 
L 146.687272 102.228329 
L 146.942986 101.763129 
L 147.340176 100.508335 
L 147.973748 97.669111 
L 149.09502 91.466575 
L 151.972894 73.925196 
L 154.254104 60.52701 
L 154.303313 60.504248 
L 154.346372 60.587432 
L 154.440397 61.283972 
L 154.585389 64.433734 
L 155.757628 97.553251 
L 156.145153 100.904556 
L 156.472044 102.109329 
L 156.712819 102.337318 
L 156.896476 102.229146 
L 157.152189 101.764053 
L 157.54938 100.509374 
L 158.182072 97.674668 
L 159.302466 91.478094 
L 162.175946 73.964422 
L 164.464186 60.525937 
L 164.513395 60.50461 
L 164.555575 60.586618 
L 164.6496 61.281274 
L 164.794592 64.427071 
L 165.968589 97.572599 
L 166.356113 100.913911 
L 166.683005 102.113061 
L 166.922901 102.338046 
L 167.106557 102.229105 
L 167.362271 101.763176 
L 167.759461 100.507595 
L 168.393033 97.667663 
L 169.515184 91.459486 
L 172.396573 73.895937 
L 174.673389 60.526334 
L 174.722598 60.504283 
L 174.765657 60.588248 
L 174.859682 61.287695 
L 175.004674 64.443612 
L 176.174277 97.526302 
L 176.561802 100.892816 
L 176.888693 102.106151 
L 177.129468 102.3387 
L 177.313124 102.233259 
L 177.56708 101.775369 
L 177.961635 100.536259 
L 178.590813 97.727477 
L 179.70154 91.596211 
L 182.524054 74.40358 
L 184.883471 60.525643 
L 184.93268 60.504464 
L 184.97486 60.586488 
L 185.068885 61.28164 
L 185.213877 64.428637 
L 186.386995 97.563761 
L 186.77452 100.910585 
L 187.101411 102.112839 
L 187.341307 102.339471 
L 187.524964 102.231521 
L 187.780677 101.766668 
L 188.176989 100.515578 
L 188.809682 97.682185 
L 189.929197 91.49166 
L 192.797405 74.011149 
L 195.092674 60.52644 
L 195.141883 60.503919 
L 195.184942 60.587261 
L 195.278967 61.284714 
L 195.423959 64.43671 
L 196.59532 97.54619 
L 196.982844 100.902823 
L 197.309735 102.110595 
L 197.55051 102.34018 
L 197.734167 102.232963 
L 197.989002 101.771033 
L 198.384435 100.525328 
L 199.01537 97.703694 
L 200.13137 91.537271 
L 202.980246 74.178559 
L 204.093609 67.302403 
L 204.093609 67.302403 
" style="fill:none;stroke:#2065ab;stroke-linecap:square;stroke-width:2;"/>
   </g>
   <g id="line2d_18">
    <path clip-path="url(#p22bdd4a284)" d="M 28.346457 44.30826 
L 37.13298 44.30826 
L 37.243701 62.85704 
L 38.780617 71.314249 
L 39.479216 74.08476 
L 39.881679 74.931056 
L 40.110151 75.016763 
L 40.283263 74.825371 
L 40.500312 74.191058 
L 40.769206 72.62339 
L 41.082038 69.326108 
L 41.428261 63.067551 
L 41.807877 51.747236 
L 42.417723 33.303049 
L 42.484507 33.201267 
L 42.539868 33.276266 
L 42.709465 33.946312 
L 43.369398 37.826113 
L 48.752561 70.155689 
L 49.560123 73.680533 
L 50.01531 74.834758 
L 50.276296 75.02825 
L 50.44765 74.897932 
L 50.652397 74.402335 
L 50.909868 73.110744 
L 51.213033 70.313791 
L 51.552227 64.893045 
L 51.922176 55.042749 
L 52.68668 33.200385 
L 52.762252 33.312314 
L 52.959969 34.166085 
L 53.822891 39.336195 
L 58.821165 69.436805 
L 59.695512 73.426075 
L 60.180576 74.76612 
L 60.460894 75.029508 
L 60.634006 74.92826 
L 60.832602 74.49517 
L 61.083921 73.331918 
L 61.381814 70.770784 
L 61.716614 65.75907 
L 62.08217 56.60363 
L 62.895005 33.200302 
L 62.933669 33.232788 
L 63.061965 33.646141 
L 63.489912 36.026113 
L 69.627912 72.327798 
L 70.22897 74.429239 
L 70.578709 74.99738 
L 70.776425 74.994789 
L 70.957446 74.723485 
L 71.187676 73.910682 
L 71.468872 71.993485 
L 71.790491 68.093578 
L 72.143745 60.825167 
L 72.540057 47.558963 
L 72.99788 33.5402 
L 73.105965 33.200424 
L 73.149902 33.246551 
L 73.293137 33.74998 
L 73.796655 36.622687 
L 79.627096 71.383362 
L 80.319543 74.110886 
L 80.718491 74.938659 
L 80.945206 75.018535 
L 81.119197 74.821753 
L 81.337124 74.175969 
L 81.606898 72.585392 
L 81.919729 69.256997 
L 82.265953 62.949043 
L 82.645569 51.555625 
L 83.246627 33.316036 
L 83.316926 33.200848 
L 83.371408 33.273709 
L 83.539247 33.932431 
L 84.187757 37.739176 
L 89.598161 70.22246 
L 90.399572 73.705289 
L 90.852123 74.843358 
L 91.111351 75.030889 
L 91.282706 74.897777 
L 91.488331 74.394981 
L 91.74668 73.087786 
L 92.050724 70.259946 
L 92.389918 64.799413 
L 92.759868 54.888139 
L 93.516463 33.200216 
L 93.591156 33.30102 
L 93.780964 34.102424 
L 94.582375 38.882991 
L 99.68434 69.59451 
L 100.544627 73.485008 
L 101.02354 74.785093 
L 101.299465 75.032593 
L 101.471698 74.925772 
L 101.671172 74.482 
L 101.92337 73.297622 
L 102.222142 70.696919 
L 102.55782 65.613824 
L 102.923376 56.363238 
L 103.729181 33.199866 
L 103.760816 33.222912 
L 103.878567 33.573197 
L 104.255546 35.618408 
L 107.911106 58.098032 
L 110.014809 70.220544 
L 110.81622 73.704488 
L 111.268772 74.843809 
L 111.528879 75.032301 
L 111.700233 74.898896 
L 111.905858 74.395663 
L 112.164208 73.087755 
L 112.468252 70.258751 
L 112.807446 64.796365 
L 113.177395 54.88213 
L 113.933112 33.200095 
L 114.007805 33.299062 
L 114.195855 34.089532 
L 114.985843 38.797527 
L 120.108019 69.627669 
L 120.964791 73.495662 
L 121.442825 74.789388 
L 121.717871 75.034048 
L 121.890104 74.926129 
L 122.089578 74.480787 
L 122.341776 73.293841 
L 122.641427 70.678976 
L 122.977106 65.582176 
L 123.34354 56.282317 
L 124.146709 33.199677 
L 124.175707 33.219154 
L 124.288186 33.540279 
L 124.643197 35.44009 
L 127.64058 53.886632 
L 130.30492 69.565405 
L 131.167843 73.475125 
L 131.648513 74.78454 
L 131.925317 75.034729 
L 132.09755 74.928873 
L 132.297024 74.486483 
L 132.549222 73.30436 
L 132.847994 70.707301 
L 133.183672 65.630042 
L 133.549228 56.38837 
L 134.355912 33.199584 
L 134.387546 33.222755 
L 134.505298 33.57345 
L 134.883156 35.624163 
L 138.571228 58.301868 
L 140.64857 70.256962 
L 141.447345 73.720613 
L 141.898139 74.849504 
L 142.156488 75.034378 
L 142.327843 74.900125 
L 142.533468 74.395631 
L 142.791817 73.085658 
L 143.095861 70.25332 
L 143.435055 64.785601 
L 143.805005 54.863261 
L 144.559843 33.199859 
L 144.634535 33.298045 
L 144.822586 34.087799 
L 145.610816 38.784758 
L 150.736507 69.635522 
L 151.593279 73.501727 
L 152.070435 74.791909 
L 152.34548 75.036209 
L 152.517713 74.928 
L 152.718066 74.479405 
L 152.971143 73.28345 
L 153.270794 70.658576 
L 153.606472 65.545792 
L 153.972907 56.221176 
L 154.774318 33.199344 
L 154.801559 33.216906 
L 154.91228 33.526645 
L 155.257625 35.362911 
L 158.04411 52.509611 
L 160.902652 69.410281 
L 161.780513 73.422704 
L 162.267335 74.771307 
L 162.547654 75.036625 
L 162.720765 74.936911 
L 162.918482 74.508756 
L 163.168923 73.357213 
L 163.466816 70.810544 
L 163.801616 65.821898 
L 164.166293 56.729667 
L 164.983521 33.199218 
L 165.024822 33.236928 
L 165.159269 33.686536 
L 165.617093 36.261859 
L 171.625039 71.928824 
L 172.26652 74.303037 
L 172.638227 74.98226 
L 172.848246 75.013628 
L 173.025751 74.777123 
L 173.250709 74.040985 
L 173.526633 72.275794 
L 173.844737 68.633879 
L 174.195354 61.791655 
L 174.582879 49.411835 
L 175.102214 33.439723 
L 175.196239 33.199496 
L 175.245449 33.257637 
L 175.400107 33.832514 
L 175.967773 37.120183 
L 181.590831 70.7799 
L 182.341276 73.907129 
L 182.769222 74.898525 
L 183.013512 75.033502 
L 183.184866 74.872991 
L 183.395764 74.309722 
L 183.659386 72.880106 
L 183.967824 69.830524 
L 184.310532 63.991771 
L 184.684876 53.42034 
L 185.368535 33.22756 
L 185.41423 33.202491 
L 185.465197 33.279779 
L 185.639187 33.977909 
L 186.32812 38.043001 
L 191.648891 70.019768 
L 192.469635 73.637619 
L 192.930973 74.830527 
L 193.196353 75.03875 
L 193.367707 74.915072 
L 193.570696 74.435264 
L 193.826409 73.177075 
L 194.128696 70.434895 
L 194.466132 65.127696 
L 194.834324 55.477641 
L 195.612009 33.198914 
L 195.621676 33.201183 
L 195.705156 33.362817 
L 195.940658 34.466812 
L 197.141017 41.759957 
L 201.671802 69.044247 
L 202.583934 73.294731 
L 203.085694 74.737312 
L 203.375679 75.03835 
L 203.550548 74.951034 
L 203.745628 74.547997 
L 203.993433 73.448305 
L 204.093609 72.775137 
L 204.093609 72.775137 
" style="fill:none;stroke:#b1182b;stroke-linecap:square;stroke-width:2;"/>
   </g>
   <g id="line2d_19">
    <path clip-path="url(#p22bdd4a284)" d="M 37.13298 126.141732 
L 37.13298 17.007874 
" style="fill:none;stroke:#000000;stroke-dasharray:0.75,1.2375;stroke-dashoffset:0;stroke-width:0.75;"/>
   </g>
   <g id="line2d_20">
    <path clip-path="url(#p22bdd4a284)" d="M 28.346457 60.499314 
L 204.094488 60.499314 
" style="fill:none;stroke:#2065ab;stroke-dasharray:0.75,1.2375;stroke-dashoffset:0;stroke-width:0.75;"/>
   </g>
   <g id="line2d_21">
    <path clip-path="url(#p22bdd4a284)" d="M 28.346457 102.340212 
L 204.094488 102.340212 
" style="fill:none;stroke:#2065ab;stroke-dasharray:0.75,1.2375;stroke-dashoffset:0;stroke-width:0.75;"/>
   </g>
   <g id="line2d_22">
    <path clip-path="url(#p22bdd4a284)" d="M 28.346457 33.198914 
L 204.094488 33.198914 
" style="fill:none;stroke:#b1182b;stroke-dasharray:0.75,1.2375;stroke-dashoffset:0;stroke-width:0.75;"/>
   </g>
   <g id="line2d_23">
    <path clip-path="url(#p22bdd4a284)" d="M 28.346457 75.039826 
L 204.094488 75.039826 
" style="fill:none;stroke:#b1182b;stroke-dasharray:0.75,1.2375;stroke-dashoffset:0;stroke-width:0.75;"/>
   </g>
   <g id="patch_3">
    <path d="M 28.346457 126.141732 
L 28.346457 17.007874 
" style="fill:none;stroke:#000000;stroke-linecap:square;stroke-linejoin:miter;stroke-width:0.8;"/>
   </g>
   <g id="patch_4">
    <path d="M 28.346457 126.141732 
L 204.094488 126.141732 
" style="fill:none;stroke:#000000;stroke-linecap:square;stroke-linejoin:miter;stroke-width:0.8;"/>
   </g>
   <g id="legend_1">
    <g id="line2d_24">
     <path d="M 156.382301 108.587045 
L 168.382301 108.587045 
" style="fill:none;stroke:#2065ab;stroke-linecap:square;stroke-width:2;"/>
    </g>
    <g id="line2d_25"/>
    <g id="text_19">
     <!-- Prey -->
     <g transform="translate(173.182301 110.687045)scale(0.06 -0.06)">
      <defs>
       <path d="M 19.671875 64.796875 
L 19.671875 37.40625 
L 32.078125 37.40625 
Q 38.96875 37.40625 42.71875 40.96875 
Q 46.484375 44.53125 46.484375 51.125 
Q 46.484375 57.671875 42.71875 61.234375 
Q 38.96875 64.796875 32.078125 64.796875 
z
M 9.8125 72.90625 
L 32.078125 72.90625 
Q 44.34375 72.90625 50.609375 67.359375 
Q 56.890625 61.8125 56.890625 51.125 
Q 56.890625 40.328125 50.609375 34.8125 
Q 44.34375 29.296875 32.078125 29.296875 
L 19.671875 29.296875 
L 19.671875 0 
L 9.8125 0 
z
" id="DejaVuSans-80"/>
       <path d="M 32.171875 -5.078125 
Q 28.375 -14.84375 24.75 -17.8125 
Q 21.140625 -20.796875 15.09375 -20.796875 
L 7.90625 -20.796875 
L 7.90625 -13.28125 
L 13.1875 -13.28125 
Q 16.890625 -13.28125 18.9375 -11.515625 
Q 21 -9.765625 23.484375 -3.21875 
L 25.09375 0.875 
L 2.984375 54.6875 
L 12.5 54.6875 
L 29.59375 11.921875 
L 46.6875 54.6875 
L 56.203125 54.6875 
z
" id="DejaVuSans-121"/>
      </defs>
      <use xlink:href="#DejaVuSans-80"/>
      <use x="58.552734" xlink:href="#DejaVuSans-114"/>
      <use x="97.416016" xlink:href="#DejaVuSans-101"/>
      <use x="158.939453" xlink:href="#DejaVuSans-121"/>
     </g>
    </g>
    <g id="line2d_26">
     <path d="M 156.382301 117.39392 
L 168.382301 117.39392 
" style="fill:none;stroke:#b1182b;stroke-linecap:square;stroke-width:2;"/>
    </g>
    <g id="line2d_27"/>
    <g id="text_20">
     <!-- Predator -->
     <g transform="translate(173.182301 119.49392)scale(0.06 -0.06)">
      <defs>
       <path d="M 45.40625 46.390625 
L 45.40625 75.984375 
L 54.390625 75.984375 
L 54.390625 0 
L 45.40625 0 
L 45.40625 8.203125 
Q 42.578125 3.328125 38.25 0.953125 
Q 33.9375 -1.421875 27.875 -1.421875 
Q 17.96875 -1.421875 11.734375 6.484375 
Q 5.515625 14.40625 5.515625 27.296875 
Q 5.515625 40.1875 11.734375 48.09375 
Q 17.96875 56 27.875 56 
Q 33.9375 56 38.25 53.625 
Q 42.578125 51.265625 45.40625 46.390625 
z
M 14.796875 27.296875 
Q 14.796875 17.390625 18.875 11.75 
Q 22.953125 6.109375 30.078125 6.109375 
Q 37.203125 6.109375 41.296875 11.75 
Q 45.40625 17.390625 45.40625 27.296875 
Q 45.40625 37.203125 41.296875 42.84375 
Q 37.203125 48.484375 30.078125 48.484375 
Q 22.953125 48.484375 18.875 42.84375 
Q 14.796875 37.203125 14.796875 27.296875 
z
" id="DejaVuSans-100"/>
      </defs>
      <use xlink:href="#DejaVuSans-80"/>
      <use x="58.552734" xlink:href="#DejaVuSans-114"/>
      <use x="97.416016" xlink:href="#DejaVuSans-101"/>
      <use x="158.939453" xlink:href="#DejaVuSans-100"/>
      <use x="222.416016" xlink:href="#DejaVuSans-97"/>
      <use x="283.695312" xlink:href="#DejaVuSans-116"/>
      <use x="322.904297" xlink:href="#DejaVuSans-111"/>
      <use x="384.085938" xlink:href="#DejaVuSans-114"/>
     </g>
    </g>
   </g>
  </g>
 </g>
 <defs>
  <clipPath id="p22bdd4a284">
   <rect height="109.133858" width="175.748031" x="28.346457" y="17.007874"/>
  </clipPath>
 </defs>
</svg>
