<?xml version="1.0" encoding="utf-8" standalone="no"?>
<!DOCTYPE svg PUBLIC "-//W3C//DTD SVG 1.1//EN"
  "http://www.w3.org/Graphics/SVG/1.1/DTD/svg11.dtd">
<!-- Created with matplotlib (https://matplotlib.org/) -->
<svg height="141.732283pt" version="1.1" viewBox="0 0 226.771654 141.732283" width="226.771654pt" xmlns="http://www.w3.org/2000/svg" xmlns:xlink="http://www.w3.org/1999/xlink">
 <metadata>
  <rdf:RDF xmlns:cc="http://creativecommons.org/ns#" xmlns:dc="http://purl.org/dc/elements/1.1/" xmlns:rdf="http://www.w3.org/1999/02/22-rdf-syntax-ns#">
   <cc:Work>
    <dc:type rdf:resource="http://purl.org/dc/dcmitype/StillImage"/>
    <dc:date>2023-04-24T13:29:48.086755</dc:date>
    <dc:format>image/svg+xml</dc:format>
    <dc:creator>
     <cc:Agent>
      <dc:title>Matplotlib v3.3.4, https://matplotlib.org/</dc:title>
     </cc:Agent>
    </dc:creator>
   </cc:Work>
  </rdf:RDF>
 </metadata>
 <defs>
  <style type="text/css">*{stroke-linecap:butt;stroke-linejoin:round;}</style>
 </defs>
 <g id="figure_1">
  <g id="patch_1">
   <path d="M 0 141.732283 
L 226.771654 141.732283 
L 226.771654 0 
L 0 0 
z
" style="fill:#ffffff;"/>
  </g>
  <g id="axes_1">
   <g id="patch_2">
    <path d="M 28.346457 126.141732 
L 204.094488 126.141732 
L 204.094488 17.007874 
L 28.346457 17.007874 
z
" style="fill:#ffffff;"/>
   </g>
   <g id="matplotlib.axis_1">
    <g id="xtick_1">
     <g id="line2d_1">
      <defs>
       <path d="M 0 0 
L 0 3.5 
" id="m0f32303afa" style="stroke:#000000;stroke-width:0.8;"/>
      </defs>
      <g>
       <use style="stroke:#000000;stroke-width:0.8;" x="28.346457" xlink:href="#m0f32303afa" y="126.141732"/>
      </g>
     </g>
     <g id="text_1">
      <!-- 0 -->
      <g transform="translate(26.437707 137.700795)scale(0.06 -0.06)">
       <defs>
        <path d="M 31.78125 66.40625 
Q 24.171875 66.40625 20.328125 58.90625 
Q 16.5 51.421875 16.5 36.375 
Q 16.5 21.390625 20.328125 13.890625 
Q 24.171875 6.390625 31.78125 6.390625 
Q 39.453125 6.390625 43.28125 13.890625 
Q 47.125 21.390625 47.125 36.375 
Q 47.125 51.421875 43.28125 58.90625 
Q 39.453125 66.40625 31.78125 66.40625 
z
M 31.78125 74.21875 
Q 44.046875 74.21875 50.515625 64.515625 
Q 56.984375 54.828125 56.984375 36.375 
Q 56.984375 17.96875 50.515625 8.265625 
Q 44.046875 -1.421875 31.78125 -1.421875 
Q 19.53125 -1.421875 13.0625 8.265625 
Q 6.59375 17.96875 6.59375 36.375 
Q 6.59375 54.828125 13.0625 64.515625 
Q 19.53125 74.21875 31.78125 74.21875 
z
" id="DejaVuSans-48"/>
       </defs>
       <use xlink:href="#DejaVuSans-48"/>
      </g>
     </g>
    </g>
    <g id="xtick_2">
     <g id="line2d_2">
      <g>
       <use style="stroke:#000000;stroke-width:0.8;" x="45.92126" xlink:href="#m0f32303afa" y="126.141732"/>
      </g>
     </g>
     <g id="text_2">
      <!-- 100 -->
      <g transform="translate(40.19501 137.700795)scale(0.06 -0.06)">
       <defs>
        <path d="M 12.40625 8.296875 
L 28.515625 8.296875 
L 28.515625 63.921875 
L 10.984375 60.40625 
L 10.984375 69.390625 
L 28.421875 72.90625 
L 38.28125 72.90625 
L 38.28125 8.296875 
L 54.390625 8.296875 
L 54.390625 0 
L 12.40625 0 
z
" id="DejaVuSans-49"/>
       </defs>
       <use xlink:href="#DejaVuSans-49"/>
       <use x="63.623047" xlink:href="#DejaVuSans-48"/>
       <use x="127.246094" xlink:href="#DejaVuSans-48"/>
      </g>
     </g>
    </g>
    <g id="xtick_3">
     <g id="line2d_3">
      <g>
       <use style="stroke:#000000;stroke-width:0.8;" x="63.496063" xlink:href="#m0f32303afa" y="126.141732"/>
      </g>
     </g>
     <g id="text_3">
      <!-- 200 -->
      <g transform="translate(57.769813 137.700795)scale(0.06 -0.06)">
       <defs>
        <path d="M 19.1875 8.296875 
L 53.609375 8.296875 
L 53.609375 0 
L 7.328125 0 
L 7.328125 8.296875 
Q 12.9375 14.109375 22.625 23.890625 
Q 32.328125 33.6875 34.8125 36.53125 
Q 39.546875 41.84375 41.421875 45.53125 
Q 43.3125 49.21875 43.3125 52.78125 
Q 43.3125 58.59375 39.234375 62.25 
Q 35.15625 65.921875 28.609375 65.921875 
Q 23.96875 65.921875 18.8125 64.3125 
Q 13.671875 62.703125 7.8125 59.421875 
L 7.8125 69.390625 
Q 13.765625 71.78125 18.9375 73 
Q 24.125 74.21875 28.421875 74.21875 
Q 39.75 74.21875 46.484375 68.546875 
Q 53.21875 62.890625 53.21875 53.421875 
Q 53.21875 48.921875 51.53125 44.890625 
Q 49.859375 40.875 45.40625 35.40625 
Q 44.1875 33.984375 37.640625 27.21875 
Q 31.109375 20.453125 19.1875 8.296875 
z
" id="DejaVuSans-50"/>
       </defs>
       <use xlink:href="#DejaVuSans-50"/>
       <use x="63.623047" xlink:href="#DejaVuSans-48"/>
       <use x="127.246094" xlink:href="#DejaVuSans-48"/>
      </g>
     </g>
    </g>
    <g id="xtick_4">
     <g id="line2d_4">
      <g>
       <use style="stroke:#000000;stroke-width:0.8;" x="81.070866" xlink:href="#m0f32303afa" y="126.141732"/>
      </g>
     </g>
     <g id="text_4">
      <!-- 300 -->
      <g transform="translate(75.344616 137.700795)scale(0.06 -0.06)">
       <defs>
        <path d="M 40.578125 39.3125 
Q 47.65625 37.796875 51.625 33 
Q 55.609375 28.21875 55.609375 21.1875 
Q 55.609375 10.40625 48.1875 4.484375 
Q 40.765625 -1.421875 27.09375 -1.421875 
Q 22.515625 -1.421875 17.65625 -0.515625 
Q 12.796875 0.390625 7.625 2.203125 
L 7.625 11.71875 
Q 11.71875 9.328125 16.59375 8.109375 
Q 21.484375 6.890625 26.8125 6.890625 
Q 36.078125 6.890625 40.9375 10.546875 
Q 45.796875 14.203125 45.796875 21.1875 
Q 45.796875 27.640625 41.28125 31.265625 
Q 36.765625 34.90625 28.71875 34.90625 
L 20.21875 34.90625 
L 20.21875 43.015625 
L 29.109375 43.015625 
Q 36.375 43.015625 40.234375 45.921875 
Q 44.09375 48.828125 44.09375 54.296875 
Q 44.09375 59.90625 40.109375 62.90625 
Q 36.140625 65.921875 28.71875 65.921875 
Q 24.65625 65.921875 20.015625 65.03125 
Q 15.375 64.15625 9.8125 62.3125 
L 9.8125 71.09375 
Q 15.4375 72.65625 20.34375 73.4375 
Q 25.25 74.21875 29.59375 74.21875 
Q 40.828125 74.21875 47.359375 69.109375 
Q 53.90625 64.015625 53.90625 55.328125 
Q 53.90625 49.265625 50.4375 45.09375 
Q 46.96875 40.921875 40.578125 39.3125 
z
" id="DejaVuSans-51"/>
       </defs>
       <use xlink:href="#DejaVuSans-51"/>
       <use x="63.623047" xlink:href="#DejaVuSans-48"/>
       <use x="127.246094" xlink:href="#DejaVuSans-48"/>
      </g>
     </g>
    </g>
    <g id="xtick_5">
     <g id="line2d_5">
      <g>
       <use style="stroke:#000000;stroke-width:0.8;" x="98.645669" xlink:href="#m0f32303afa" y="126.141732"/>
      </g>
     </g>
     <g id="text_5">
      <!-- 400 -->
      <g transform="translate(92.919419 137.700795)scale(0.06 -0.06)">
       <defs>
        <path d="M 37.796875 64.3125 
L 12.890625 25.390625 
L 37.796875 25.390625 
z
M 35.203125 72.90625 
L 47.609375 72.90625 
L 47.609375 25.390625 
L 58.015625 25.390625 
L 58.015625 17.1875 
L 47.609375 17.1875 
L 47.609375 0 
L 37.796875 0 
L 37.796875 17.1875 
L 4.890625 17.1875 
L 4.890625 26.703125 
z
" id="DejaVuSans-52"/>
       </defs>
       <use xlink:href="#DejaVuSans-52"/>
       <use x="63.623047" xlink:href="#DejaVuSans-48"/>
       <use x="127.246094" xlink:href="#DejaVuSans-48"/>
      </g>
     </g>
    </g>
    <g id="xtick_6">
     <g id="line2d_6">
      <g>
       <use style="stroke:#000000;stroke-width:0.8;" x="116.220472" xlink:href="#m0f32303afa" y="126.141732"/>
      </g>
     </g>
     <g id="text_6">
      <!-- 500 -->
      <g transform="translate(110.494222 137.700795)scale(0.06 -0.06)">
       <defs>
        <path d="M 10.796875 72.90625 
L 49.515625 72.90625 
L 49.515625 64.59375 
L 19.828125 64.59375 
L 19.828125 46.734375 
Q 21.96875 47.46875 24.109375 47.828125 
Q 26.265625 48.1875 28.421875 48.1875 
Q 40.625 48.1875 47.75 41.5 
Q 54.890625 34.8125 54.890625 23.390625 
Q 54.890625 11.625 47.5625 5.09375 
Q 40.234375 -1.421875 26.90625 -1.421875 
Q 22.3125 -1.421875 17.546875 -0.640625 
Q 12.796875 0.140625 7.71875 1.703125 
L 7.71875 11.625 
Q 12.109375 9.234375 16.796875 8.0625 
Q 21.484375 6.890625 26.703125 6.890625 
Q 35.15625 6.890625 40.078125 11.328125 
Q 45.015625 15.765625 45.015625 23.390625 
Q 45.015625 31 40.078125 35.4375 
Q 35.15625 39.890625 26.703125 39.890625 
Q 22.75 39.890625 18.8125 39.015625 
Q 14.890625 38.140625 10.796875 36.28125 
z
" id="DejaVuSans-53"/>
       </defs>
       <use xlink:href="#DejaVuSans-53"/>
       <use x="63.623047" xlink:href="#DejaVuSans-48"/>
       <use x="127.246094" xlink:href="#DejaVuSans-48"/>
      </g>
     </g>
    </g>
    <g id="xtick_7">
     <g id="line2d_7">
      <g>
       <use style="stroke:#000000;stroke-width:0.8;" x="133.795276" xlink:href="#m0f32303afa" y="126.141732"/>
      </g>
     </g>
     <g id="text_7">
      <!-- 600 -->
      <g transform="translate(128.069026 137.700795)scale(0.06 -0.06)">
       <defs>
        <path d="M 33.015625 40.375 
Q 26.375 40.375 22.484375 35.828125 
Q 18.609375 31.296875 18.609375 23.390625 
Q 18.609375 15.53125 22.484375 10.953125 
Q 26.375 6.390625 33.015625 6.390625 
Q 39.65625 6.390625 43.53125 10.953125 
Q 47.40625 15.53125 47.40625 23.390625 
Q 47.40625 31.296875 43.53125 35.828125 
Q 39.65625 40.375 33.015625 40.375 
z
M 52.59375 71.296875 
L 52.59375 62.3125 
Q 48.875 64.0625 45.09375 64.984375 
Q 41.3125 65.921875 37.59375 65.921875 
Q 27.828125 65.921875 22.671875 59.328125 
Q 17.53125 52.734375 16.796875 39.40625 
Q 19.671875 43.65625 24.015625 45.921875 
Q 28.375 48.1875 33.59375 48.1875 
Q 44.578125 48.1875 50.953125 41.515625 
Q 57.328125 34.859375 57.328125 23.390625 
Q 57.328125 12.15625 50.6875 5.359375 
Q 44.046875 -1.421875 33.015625 -1.421875 
Q 20.359375 -1.421875 13.671875 8.265625 
Q 6.984375 17.96875 6.984375 36.375 
Q 6.984375 53.65625 15.1875 63.9375 
Q 23.390625 74.21875 37.203125 74.21875 
Q 40.921875 74.21875 44.703125 73.484375 
Q 48.484375 72.75 52.59375 71.296875 
z
" id="DejaVuSans-54"/>
       </defs>
       <use xlink:href="#DejaVuSans-54"/>
       <use x="63.623047" xlink:href="#DejaVuSans-48"/>
       <use x="127.246094" xlink:href="#DejaVuSans-48"/>
      </g>
     </g>
    </g>
    <g id="xtick_8">
     <g id="line2d_8">
      <g>
       <use style="stroke:#000000;stroke-width:0.8;" x="151.370079" xlink:href="#m0f32303afa" y="126.141732"/>
      </g>
     </g>
     <g id="text_8">
      <!-- 700 -->
      <g transform="translate(145.643829 137.700795)scale(0.06 -0.06)">
       <defs>
        <path d="M 8.203125 72.90625 
L 55.078125 72.90625 
L 55.078125 68.703125 
L 28.609375 0 
L 18.3125 0 
L 43.21875 64.59375 
L 8.203125 64.59375 
z
" id="DejaVuSans-55"/>
       </defs>
       <use xlink:href="#DejaVuSans-55"/>
       <use x="63.623047" xlink:href="#DejaVuSans-48"/>
       <use x="127.246094" xlink:href="#DejaVuSans-48"/>
      </g>
     </g>
    </g>
    <g id="xtick_9">
     <g id="line2d_9">
      <g>
       <use style="stroke:#000000;stroke-width:0.8;" x="168.944882" xlink:href="#m0f32303afa" y="126.141732"/>
      </g>
     </g>
     <g id="text_9">
      <!-- 800 -->
      <g transform="translate(163.218632 137.700795)scale(0.06 -0.06)">
       <defs>
        <path d="M 31.78125 34.625 
Q 24.75 34.625 20.71875 30.859375 
Q 16.703125 27.09375 16.703125 20.515625 
Q 16.703125 13.921875 20.71875 10.15625 
Q 24.75 6.390625 31.78125 6.390625 
Q 38.8125 6.390625 42.859375 10.171875 
Q 46.921875 13.96875 46.921875 20.515625 
Q 46.921875 27.09375 42.890625 30.859375 
Q 38.875 34.625 31.78125 34.625 
z
M 21.921875 38.8125 
Q 15.578125 40.375 12.03125 44.71875 
Q 8.5 49.078125 8.5 55.328125 
Q 8.5 64.0625 14.71875 69.140625 
Q 20.953125 74.21875 31.78125 74.21875 
Q 42.671875 74.21875 48.875 69.140625 
Q 55.078125 64.0625 55.078125 55.328125 
Q 55.078125 49.078125 51.53125 44.71875 
Q 48 40.375 41.703125 38.8125 
Q 48.828125 37.15625 52.796875 32.3125 
Q 56.78125 27.484375 56.78125 20.515625 
Q 56.78125 9.90625 50.3125 4.234375 
Q 43.84375 -1.421875 31.78125 -1.421875 
Q 19.734375 -1.421875 13.25 4.234375 
Q 6.78125 9.90625 6.78125 20.515625 
Q 6.78125 27.484375 10.78125 32.3125 
Q 14.796875 37.15625 21.921875 38.8125 
z
M 18.3125 54.390625 
Q 18.3125 48.734375 21.84375 45.5625 
Q 25.390625 42.390625 31.78125 42.390625 
Q 38.140625 42.390625 41.71875 45.5625 
Q 45.3125 48.734375 45.3125 54.390625 
Q 45.3125 60.0625 41.71875 63.234375 
Q 38.140625 66.40625 31.78125 66.40625 
Q 25.390625 66.40625 21.84375 63.234375 
Q 18.3125 60.0625 18.3125 54.390625 
z
" id="DejaVuSans-56"/>
       </defs>
       <use xlink:href="#DejaVuSans-56"/>
       <use x="63.623047" xlink:href="#DejaVuSans-48"/>
       <use x="127.246094" xlink:href="#DejaVuSans-48"/>
      </g>
     </g>
    </g>
    <g id="xtick_10">
     <g id="line2d_10">
      <g>
       <use style="stroke:#000000;stroke-width:0.8;" x="186.519685" xlink:href="#m0f32303afa" y="126.141732"/>
      </g>
     </g>
     <g id="text_10">
      <!-- 900 -->
      <g transform="translate(180.793435 137.700795)scale(0.06 -0.06)">
       <defs>
        <path d="M 10.984375 1.515625 
L 10.984375 10.5 
Q 14.703125 8.734375 18.5 7.8125 
Q 22.3125 6.890625 25.984375 6.890625 
Q 35.75 6.890625 40.890625 13.453125 
Q 46.046875 20.015625 46.78125 33.40625 
Q 43.953125 29.203125 39.59375 26.953125 
Q 35.25 24.703125 29.984375 24.703125 
Q 19.046875 24.703125 12.671875 31.3125 
Q 6.296875 37.9375 6.296875 49.421875 
Q 6.296875 60.640625 12.9375 67.421875 
Q 19.578125 74.21875 30.609375 74.21875 
Q 43.265625 74.21875 49.921875 64.515625 
Q 56.59375 54.828125 56.59375 36.375 
Q 56.59375 19.140625 48.40625 8.859375 
Q 40.234375 -1.421875 26.421875 -1.421875 
Q 22.703125 -1.421875 18.890625 -0.6875 
Q 15.09375 0.046875 10.984375 1.515625 
z
M 30.609375 32.421875 
Q 37.25 32.421875 41.125 36.953125 
Q 45.015625 41.5 45.015625 49.421875 
Q 45.015625 57.28125 41.125 61.84375 
Q 37.25 66.40625 30.609375 66.40625 
Q 23.96875 66.40625 20.09375 61.84375 
Q 16.21875 57.28125 16.21875 49.421875 
Q 16.21875 41.5 20.09375 36.953125 
Q 23.96875 32.421875 30.609375 32.421875 
z
" id="DejaVuSans-57"/>
       </defs>
       <use xlink:href="#DejaVuSans-57"/>
       <use x="63.623047" xlink:href="#DejaVuSans-48"/>
       <use x="127.246094" xlink:href="#DejaVuSans-48"/>
      </g>
     </g>
    </g>
    <g id="xtick_11">
     <g id="line2d_11">
      <g>
       <use style="stroke:#000000;stroke-width:0.8;" x="204.094488" xlink:href="#m0f32303afa" y="126.141732"/>
      </g>
     </g>
     <g id="text_11">
      <!-- 1000 -->
      <g transform="translate(196.459488 137.700795)scale(0.06 -0.06)">
       <use xlink:href="#DejaVuSans-49"/>
       <use x="63.623047" xlink:href="#DejaVuSans-48"/>
       <use x="127.246094" xlink:href="#DejaVuSans-48"/>
       <use x="190.869141" xlink:href="#DejaVuSans-48"/>
      </g>
     </g>
    </g>
    <g id="text_12">
     <!-- Time (h) -->
     <g transform="translate(101.595394 148.267514)scale(0.07 -0.07)">
      <defs>
       <path d="M -0.296875 72.90625 
L 61.375 72.90625 
L 61.375 64.59375 
L 35.5 64.59375 
L 35.5 0 
L 25.59375 0 
L 25.59375 64.59375 
L -0.296875 64.59375 
z
" id="DejaVuSans-84"/>
       <path d="M 9.421875 54.6875 
L 18.40625 54.6875 
L 18.40625 0 
L 9.421875 0 
z
M 9.421875 75.984375 
L 18.40625 75.984375 
L 18.40625 64.59375 
L 9.421875 64.59375 
z
" id="DejaVuSans-105"/>
       <path d="M 52 44.1875 
Q 55.375 50.25 60.0625 53.125 
Q 64.75 56 71.09375 56 
Q 79.640625 56 84.28125 50.015625 
Q 88.921875 44.046875 88.921875 33.015625 
L 88.921875 0 
L 79.890625 0 
L 79.890625 32.71875 
Q 79.890625 40.578125 77.09375 44.375 
Q 74.3125 48.1875 68.609375 48.1875 
Q 61.625 48.1875 57.5625 43.546875 
Q 53.515625 38.921875 53.515625 30.90625 
L 53.515625 0 
L 44.484375 0 
L 44.484375 32.71875 
Q 44.484375 40.625 41.703125 44.40625 
Q 38.921875 48.1875 33.109375 48.1875 
Q 26.21875 48.1875 22.15625 43.53125 
Q 18.109375 38.875 18.109375 30.90625 
L 18.109375 0 
L 9.078125 0 
L 9.078125 54.6875 
L 18.109375 54.6875 
L 18.109375 46.1875 
Q 21.1875 51.21875 25.484375 53.609375 
Q 29.78125 56 35.6875 56 
Q 41.65625 56 45.828125 52.96875 
Q 50 49.953125 52 44.1875 
z
" id="DejaVuSans-109"/>
       <path d="M 56.203125 29.59375 
L 56.203125 25.203125 
L 14.890625 25.203125 
Q 15.484375 15.921875 20.484375 11.0625 
Q 25.484375 6.203125 34.421875 6.203125 
Q 39.59375 6.203125 44.453125 7.46875 
Q 49.3125 8.734375 54.109375 11.28125 
L 54.109375 2.78125 
Q 49.265625 0.734375 44.1875 -0.34375 
Q 39.109375 -1.421875 33.890625 -1.421875 
Q 20.796875 -1.421875 13.15625 6.1875 
Q 5.515625 13.8125 5.515625 26.8125 
Q 5.515625 40.234375 12.765625 48.109375 
Q 20.015625 56 32.328125 56 
Q 43.359375 56 49.78125 48.890625 
Q 56.203125 41.796875 56.203125 29.59375 
z
M 47.21875 32.234375 
Q 47.125 39.59375 43.09375 43.984375 
Q 39.0625 48.390625 32.421875 48.390625 
Q 24.90625 48.390625 20.390625 44.140625 
Q 15.875 39.890625 15.1875 32.171875 
z
" id="DejaVuSans-101"/>
       <path id="DejaVuSans-32"/>
       <path d="M 31 75.875 
Q 24.46875 64.65625 21.28125 53.65625 
Q 18.109375 42.671875 18.109375 31.390625 
Q 18.109375 20.125 21.3125 9.0625 
Q 24.515625 -2 31 -13.1875 
L 23.1875 -13.1875 
Q 15.875 -1.703125 12.234375 9.375 
Q 8.59375 20.453125 8.59375 31.390625 
Q 8.59375 42.28125 12.203125 53.3125 
Q 15.828125 64.359375 23.1875 75.875 
z
" id="DejaVuSans-40"/>
       <path d="M 54.890625 33.015625 
L 54.890625 0 
L 45.90625 0 
L 45.90625 32.71875 
Q 45.90625 40.484375 42.875 44.328125 
Q 39.84375 48.1875 33.796875 48.1875 
Q 26.515625 48.1875 22.3125 43.546875 
Q 18.109375 38.921875 18.109375 30.90625 
L 18.109375 0 
L 9.078125 0 
L 9.078125 75.984375 
L 18.109375 75.984375 
L 18.109375 46.1875 
Q 21.34375 51.125 25.703125 53.5625 
Q 30.078125 56 35.796875 56 
Q 45.21875 56 50.046875 50.171875 
Q 54.890625 44.34375 54.890625 33.015625 
z
" id="DejaVuSans-104"/>
       <path d="M 8.015625 75.875 
L 15.828125 75.875 
Q 23.140625 64.359375 26.78125 53.3125 
Q 30.421875 42.28125 30.421875 31.390625 
Q 30.421875 20.453125 26.78125 9.375 
Q 23.140625 -1.703125 15.828125 -13.1875 
L 8.015625 -13.1875 
Q 14.5 -2 17.703125 9.0625 
Q 20.90625 20.125 20.90625 31.390625 
Q 20.90625 42.671875 17.703125 53.65625 
Q 14.5 64.65625 8.015625 75.875 
z
" id="DejaVuSans-41"/>
      </defs>
      <use xlink:href="#DejaVuSans-84"/>
      <use x="57.958984" xlink:href="#DejaVuSans-105"/>
      <use x="85.742188" xlink:href="#DejaVuSans-109"/>
      <use x="183.154297" xlink:href="#DejaVuSans-101"/>
      <use x="244.677734" xlink:href="#DejaVuSans-32"/>
      <use x="276.464844" xlink:href="#DejaVuSans-40"/>
      <use x="315.478516" xlink:href="#DejaVuSans-104"/>
      <use x="378.857422" xlink:href="#DejaVuSans-41"/>
     </g>
    </g>
   </g>
   <g id="matplotlib.axis_2">
    <g id="ytick_1">
     <g id="line2d_12">
      <defs>
       <path d="M 0 0 
L -3.5 0 
" id="m96b4bc82ab" style="stroke:#000000;stroke-width:0.8;"/>
      </defs>
      <g>
       <use style="stroke:#000000;stroke-width:0.8;" x="28.346457" xlink:href="#m96b4bc82ab" y="126.141732"/>
      </g>
     </g>
     <g id="text_13">
      <!-- $\mathdefault{10^{0}}$ -->
      <g transform="translate(10.786457 128.421264)scale(0.06 -0.06)">
       <use transform="translate(0 0.765625)" xlink:href="#DejaVuSans-49"/>
       <use transform="translate(63.623047 0.765625)" xlink:href="#DejaVuSans-48"/>
       <use transform="translate(128.203125 39.046875)scale(0.7)" xlink:href="#DejaVuSans-48"/>
      </g>
     </g>
    </g>
    <g id="ytick_2">
     <g id="line2d_13">
      <g>
       <use style="stroke:#000000;stroke-width:0.8;" x="28.346457" xlink:href="#m96b4bc82ab" y="101.050518"/>
      </g>
     </g>
     <g id="text_14">
      <!-- $\mathdefault{10^{2}}$ -->
      <g transform="translate(10.786457 103.33005)scale(0.06 -0.06)">
       <use transform="translate(0 0.765625)" xlink:href="#DejaVuSans-49"/>
       <use transform="translate(63.623047 0.765625)" xlink:href="#DejaVuSans-48"/>
       <use transform="translate(128.203125 39.046875)scale(0.7)" xlink:href="#DejaVuSans-50"/>
      </g>
     </g>
    </g>
    <g id="ytick_3">
     <g id="line2d_14">
      <g>
       <use style="stroke:#000000;stroke-width:0.8;" x="28.346457" xlink:href="#m96b4bc82ab" y="75.959305"/>
      </g>
     </g>
     <g id="text_15">
      <!-- $\mathdefault{10^{4}}$ -->
      <g transform="translate(10.786457 78.238836)scale(0.06 -0.06)">
       <use transform="translate(0 0.684375)" xlink:href="#DejaVuSans-49"/>
       <use transform="translate(63.623047 0.684375)" xlink:href="#DejaVuSans-48"/>
       <use transform="translate(128.203125 38.965625)scale(0.7)" xlink:href="#DejaVuSans-52"/>
      </g>
     </g>
    </g>
    <g id="ytick_4">
     <g id="line2d_15">
      <g>
       <use style="stroke:#000000;stroke-width:0.8;" x="28.346457" xlink:href="#m96b4bc82ab" y="50.868091"/>
      </g>
     </g>
     <g id="text_16">
      <!-- $\mathdefault{10^{6}}$ -->
      <g transform="translate(10.786457 53.147622)scale(0.06 -0.06)">
       <use transform="translate(0 0.765625)" xlink:href="#DejaVuSans-49"/>
       <use transform="translate(63.623047 0.765625)" xlink:href="#DejaVuSans-48"/>
       <use transform="translate(128.203125 39.046875)scale(0.7)" xlink:href="#DejaVuSans-54"/>
      </g>
     </g>
    </g>
    <g id="ytick_5">
     <g id="line2d_16">
      <g>
       <use style="stroke:#000000;stroke-width:0.8;" x="28.346457" xlink:href="#m96b4bc82ab" y="25.776877"/>
      </g>
     </g>
     <g id="text_17">
      <!-- $\mathdefault{10^{8}}$ -->
      <g transform="translate(10.786457 28.056408)scale(0.06 -0.06)">
       <use transform="translate(0 0.765625)" xlink:href="#DejaVuSans-49"/>
       <use transform="translate(63.623047 0.765625)" xlink:href="#DejaVuSans-48"/>
       <use transform="translate(128.203125 39.046875)scale(0.7)" xlink:href="#DejaVuSans-56"/>
      </g>
     </g>
    </g>
    <g id="text_18">
     <!-- Concentration $\mathrm{(ml^{-1})}$ -->
     <g transform="translate(5.330675 108.324803)rotate(-90)scale(0.07 -0.07)">
      <defs>
       <path d="M 64.40625 67.28125 
L 64.40625 56.890625 
Q 59.421875 61.53125 53.78125 63.8125 
Q 48.140625 66.109375 41.796875 66.109375 
Q 29.296875 66.109375 22.65625 58.46875 
Q 16.015625 50.828125 16.015625 36.375 
Q 16.015625 21.96875 22.65625 14.328125 
Q 29.296875 6.6875 41.796875 6.6875 
Q 48.140625 6.6875 53.78125 8.984375 
Q 59.421875 11.28125 64.40625 15.921875 
L 64.40625 5.609375 
Q 59.234375 2.09375 53.4375 0.328125 
Q 47.65625 -1.421875 41.21875 -1.421875 
Q 24.65625 -1.421875 15.125 8.703125 
Q 5.609375 18.84375 5.609375 36.375 
Q 5.609375 53.953125 15.125 64.078125 
Q 24.65625 74.21875 41.21875 74.21875 
Q 47.75 74.21875 53.53125 72.484375 
Q 59.328125 70.75 64.40625 67.28125 
z
" id="DejaVuSans-67"/>
       <path d="M 30.609375 48.390625 
Q 23.390625 48.390625 19.1875 42.75 
Q 14.984375 37.109375 14.984375 27.296875 
Q 14.984375 17.484375 19.15625 11.84375 
Q 23.34375 6.203125 30.609375 6.203125 
Q 37.796875 6.203125 41.984375 11.859375 
Q 46.1875 17.53125 46.1875 27.296875 
Q 46.1875 37.015625 41.984375 42.703125 
Q 37.796875 48.390625 30.609375 48.390625 
z
M 30.609375 56 
Q 42.328125 56 49.015625 48.375 
Q 55.71875 40.765625 55.71875 27.296875 
Q 55.71875 13.875 49.015625 6.21875 
Q 42.328125 -1.421875 30.609375 -1.421875 
Q 18.84375 -1.421875 12.171875 6.21875 
Q 5.515625 13.875 5.515625 27.296875 
Q 5.515625 40.765625 12.171875 48.375 
Q 18.84375 56 30.609375 56 
z
" id="DejaVuSans-111"/>
       <path d="M 54.890625 33.015625 
L 54.890625 0 
L 45.90625 0 
L 45.90625 32.71875 
Q 45.90625 40.484375 42.875 44.328125 
Q 39.84375 48.1875 33.796875 48.1875 
Q 26.515625 48.1875 22.3125 43.546875 
Q 18.109375 38.921875 18.109375 30.90625 
L 18.109375 0 
L 9.078125 0 
L 9.078125 54.6875 
L 18.109375 54.6875 
L 18.109375 46.1875 
Q 21.34375 51.125 25.703125 53.5625 
Q 30.078125 56 35.796875 56 
Q 45.21875 56 50.046875 50.171875 
Q 54.890625 44.34375 54.890625 33.015625 
z
" id="DejaVuSans-110"/>
       <path d="M 48.78125 52.59375 
L 48.78125 44.1875 
Q 44.96875 46.296875 41.140625 47.34375 
Q 37.3125 48.390625 33.40625 48.390625 
Q 24.65625 48.390625 19.8125 42.84375 
Q 14.984375 37.3125 14.984375 27.296875 
Q 14.984375 17.28125 19.8125 11.734375 
Q 24.65625 6.203125 33.40625 6.203125 
Q 37.3125 6.203125 41.140625 7.25 
Q 44.96875 8.296875 48.78125 10.40625 
L 48.78125 2.09375 
Q 45.015625 0.34375 40.984375 -0.53125 
Q 36.96875 -1.421875 32.421875 -1.421875 
Q 20.0625 -1.421875 12.78125 6.34375 
Q 5.515625 14.109375 5.515625 27.296875 
Q 5.515625 40.671875 12.859375 48.328125 
Q 20.21875 56 33.015625 56 
Q 37.15625 56 41.109375 55.140625 
Q 45.0625 54.296875 48.78125 52.59375 
z
" id="DejaVuSans-99"/>
       <path d="M 18.3125 70.21875 
L 18.3125 54.6875 
L 36.8125 54.6875 
L 36.8125 47.703125 
L 18.3125 47.703125 
L 18.3125 18.015625 
Q 18.3125 11.328125 20.140625 9.421875 
Q 21.96875 7.515625 27.59375 7.515625 
L 36.8125 7.515625 
L 36.8125 0 
L 27.59375 0 
Q 17.1875 0 13.234375 3.875 
Q 9.28125 7.765625 9.28125 18.015625 
L 9.28125 47.703125 
L 2.6875 47.703125 
L 2.6875 54.6875 
L 9.28125 54.6875 
L 9.28125 70.21875 
z
" id="DejaVuSans-116"/>
       <path d="M 41.109375 46.296875 
Q 39.59375 47.171875 37.8125 47.578125 
Q 36.03125 48 33.890625 48 
Q 26.265625 48 22.1875 43.046875 
Q 18.109375 38.09375 18.109375 28.8125 
L 18.109375 0 
L 9.078125 0 
L 9.078125 54.6875 
L 18.109375 54.6875 
L 18.109375 46.1875 
Q 20.953125 51.171875 25.484375 53.578125 
Q 30.03125 56 36.53125 56 
Q 37.453125 56 38.578125 55.875 
Q 39.703125 55.765625 41.0625 55.515625 
z
" id="DejaVuSans-114"/>
       <path d="M 34.28125 27.484375 
Q 23.390625 27.484375 19.1875 25 
Q 14.984375 22.515625 14.984375 16.5 
Q 14.984375 11.71875 18.140625 8.90625 
Q 21.296875 6.109375 26.703125 6.109375 
Q 34.1875 6.109375 38.703125 11.40625 
Q 43.21875 16.703125 43.21875 25.484375 
L 43.21875 27.484375 
z
M 52.203125 31.203125 
L 52.203125 0 
L 43.21875 0 
L 43.21875 8.296875 
Q 40.140625 3.328125 35.546875 0.953125 
Q 30.953125 -1.421875 24.3125 -1.421875 
Q 15.921875 -1.421875 10.953125 3.296875 
Q 6 8.015625 6 15.921875 
Q 6 25.140625 12.171875 29.828125 
Q 18.359375 34.515625 30.609375 34.515625 
L 43.21875 34.515625 
L 43.21875 35.40625 
Q 43.21875 41.609375 39.140625 45 
Q 35.0625 48.390625 27.6875 48.390625 
Q 23 48.390625 18.546875 47.265625 
Q 14.109375 46.140625 10.015625 43.890625 
L 10.015625 52.203125 
Q 14.9375 54.109375 19.578125 55.046875 
Q 24.21875 56 28.609375 56 
Q 40.484375 56 46.34375 49.84375 
Q 52.203125 43.703125 52.203125 31.203125 
z
" id="DejaVuSans-97"/>
       <path d="M 9.421875 75.984375 
L 18.40625 75.984375 
L 18.40625 0 
L 9.421875 0 
z
" id="DejaVuSans-108"/>
       <path d="M 10.59375 35.5 
L 73.1875 35.5 
L 73.1875 27.203125 
L 10.59375 27.203125 
z
" id="DejaVuSans-8722"/>
      </defs>
      <use transform="translate(0 0.684375)" xlink:href="#DejaVuSans-67"/>
      <use transform="translate(69.824219 0.684375)" xlink:href="#DejaVuSans-111"/>
      <use transform="translate(131.005859 0.684375)" xlink:href="#DejaVuSans-110"/>
      <use transform="translate(194.384766 0.684375)" xlink:href="#DejaVuSans-99"/>
      <use transform="translate(249.365234 0.684375)" xlink:href="#DejaVuSans-101"/>
      <use transform="translate(310.888672 0.684375)" xlink:href="#DejaVuSans-110"/>
      <use transform="translate(374.267578 0.684375)" xlink:href="#DejaVuSans-116"/>
      <use transform="translate(413.476562 0.684375)" xlink:href="#DejaVuSans-114"/>
      <use transform="translate(454.589844 0.684375)" xlink:href="#DejaVuSans-97"/>
      <use transform="translate(515.869141 0.684375)" xlink:href="#DejaVuSans-116"/>
      <use transform="translate(555.078125 0.684375)" xlink:href="#DejaVuSans-105"/>
      <use transform="translate(582.861328 0.684375)" xlink:href="#DejaVuSans-111"/>
      <use transform="translate(644.042969 0.684375)" xlink:href="#DejaVuSans-110"/>
      <use transform="translate(707.421875 0.684375)" xlink:href="#DejaVuSans-32"/>
      <use transform="translate(739.208984 0.684375)" xlink:href="#DejaVuSans-40"/>
      <use transform="translate(778.222656 0.684375)" xlink:href="#DejaVuSans-109"/>
      <use transform="translate(875.634766 0.684375)" xlink:href="#DejaVuSans-108"/>
      <use transform="translate(904.375 38.965625)scale(0.7)" xlink:href="#DejaVuSans-8722"/>
      <use transform="translate(963.027344 38.965625)scale(0.7)" xlink:href="#DejaVuSans-49"/>
      <use transform="translate(1010.297852 0.684375)" xlink:href="#DejaVuSans-41"/>
     </g>
    </g>
   </g>
   <g id="line2d_17">
    <path clip-path="url(#p141f51fc98)" d="M 28.346457 71.608645 
L 45.954652 71.7176 
L 47.026715 74.678507 
L 47.659408 75.804628 
L 48.190167 76.333162 
L 48.662929 76.509737 
L 49.128661 76.447233 
L 49.654148 76.139399 
L 50.304416 75.479762 
L 51.165581 74.261064 
L 52.499509 71.934852 
L 54.358923 68.751946 
L 55.025008 68.026254 
L 55.46965 67.834161 
L 55.819389 67.915957 
L 56.169128 68.243524 
L 56.587408 68.973867 
L 57.172649 70.505488 
L 58.83171 75.075211 
L 59.429254 75.997971 
L 59.938923 76.410093 
L 60.404655 76.514449 
L 60.880932 76.388893 
L 61.434539 75.997282 
L 62.132258 75.208848 
L 63.07954 73.771477 
L 64.866898 70.55725 
L 66.072529 68.619112 
L 66.701707 67.98231 
L 67.128775 67.832058 
L 67.473241 67.940175 
L 67.828252 68.304361 
L 68.258835 69.100539 
L 68.880983 70.787247 
L 70.351994 74.885745 
L 70.965354 75.904888 
L 71.485569 76.374156 
L 71.953058 76.514163 
L 72.424063 76.421098 
L 72.961852 76.074143 
L 73.633209 75.355549 
L 74.533039 74.03748 
L 76.014595 71.407815 
L 77.578753 68.763945 
L 78.248353 68.030146 
L 78.694753 67.834467 
L 79.044491 67.913994 
L 79.39423 68.239017 
L 79.81251 68.966403 
L 80.395994 70.490059 
L 82.067357 75.089021 
L 82.663143 76.004023 
L 83.172813 76.412692 
L 83.636787 76.514335 
L 84.113065 76.387157 
L 84.666671 75.994009 
L 85.366148 75.201786 
L 86.315187 73.759581 
L 88.125392 70.503526 
L 89.311691 68.605353 
L 89.937354 67.977636 
L 90.362665 67.832042 
L 90.707131 67.943683 
L 91.063899 68.314374 
L 91.496239 69.120679 
L 92.125417 70.835358 
L 93.568309 74.8602 
L 94.183427 75.89178 
L 94.705398 76.369115 
L 95.174646 76.513865 
L 95.643893 76.424739 
L 96.179924 76.083048 
L 96.849524 75.371004 
L 97.744082 74.066004 
L 99.202791 71.482053 
L 100.803855 68.768709 
L 101.475213 68.03142 
L 101.921613 67.834625 
L 102.271351 67.913039 
L 102.62109 68.236813 
L 103.037613 68.958962 
L 103.619339 70.474652 
L 105.301247 75.099363 
L 105.897033 76.010038 
L 106.404945 76.414416 
L 106.86892 76.514208 
L 107.345197 76.38541 
L 107.900561 75.989111 
L 108.601795 75.192376 
L 109.55435 73.741763 
L 111.403219 70.41544 
L 112.559641 68.580413 
L 113.178274 67.969646 
L 113.600069 67.832125 
L 113.944535 67.949633 
L 114.301304 68.327019 
L 114.737159 69.149053 
L 115.375124 70.899651 
L 116.781109 74.827026 
L 117.399742 75.876287 
L 117.921713 76.361887 
L 118.390961 76.513217 
L 118.860208 76.429731 
L 119.394482 76.094815 
L 120.058809 75.395175 
L 120.946337 74.108662 
L 122.375169 71.585427 
L 124.030715 68.771052 
L 124.702072 68.032698 
L 125.148472 67.834788 
L 125.498211 67.91209 
L 125.84795 68.234615 
L 126.264472 68.955315 
L 126.844441 70.464452 
L 128.535137 75.109667 
L 129.129165 76.014049 
L 129.637077 76.416125 
L 130.101052 76.514067 
L 130.579087 76.382784 
L 131.13445 75.984193 
L 131.835685 75.185282 
L 132.789997 73.729834 
L 134.670501 70.346518 
L 135.802318 68.562436 
L 136.415679 67.964053 
L 136.835717 67.832293 
L 137.178425 67.953297 
L 137.536951 68.337274 
L 137.974564 69.169524 
L 138.619559 70.948061 
L 140.000939 74.808512 
L 140.621329 75.867377 
L 141.145058 76.358754 
L 141.614306 76.512893 
L 142.083553 76.431815 
L 142.616069 76.10062 
L 143.278639 75.406055 
L 144.162652 74.128444 
L 145.577424 71.63383 
L 147.259332 68.770968 
L 147.93069 68.032652 
L 148.37709 67.834782 
L 148.726828 67.912124 
L 149.076567 68.234694 
L 149.49309 68.955446 
L 150.073058 70.464632 
L 151.763754 75.109785 
L 152.357783 76.014117 
L 152.865694 76.416154 
L 153.329669 76.514065 
L 153.807704 76.382754 
L 154.363068 75.984137 
L 155.064302 75.185201 
L 156.018614 73.729732 
L 157.899118 70.346409 
L 159.030935 68.562359 
L 159.644296 67.964015 
L 160.064334 67.832294 
L 160.407043 67.953339 
L 160.765569 68.337362 
L 161.203181 69.169666 
L 161.848176 70.948247 
L 163.229556 74.808641 
L 163.849946 75.867455 
L 164.373676 76.358791 
L 164.842923 76.512897 
L 165.31217 76.431791 
L 165.844687 76.100569 
L 166.507257 75.40598 
L 167.391269 74.128346 
L 168.806041 71.633718 
L 170.48795 68.770884 
L 171.159307 68.032606 
L 171.605707 67.834776 
L 171.955446 67.912158 
L 172.305184 68.234772 
L 172.721707 68.955577 
L 173.301676 70.464812 
L 174.990614 75.106511 
L 175.584643 76.012216 
L 176.092554 76.415345 
L 176.556529 76.514133 
L 177.032806 76.384458 
L 177.58817 75.987324 
L 178.289405 75.189797 
L 179.243717 73.735544 
L 181.108403 70.380672 
L 182.252523 68.571211 
L 182.867641 67.967296 
L 183.287679 67.832162 
L 183.632145 67.950959 
L 183.988913 68.329814 
L 184.424769 69.15353 
L 185.064491 70.910914 
L 186.465203 74.823692 
L 187.083836 75.87428 
L 187.607565 76.361996 
L 188.076813 76.513228 
L 188.54606 76.429657 
L 189.080334 76.094662 
L 189.744661 75.394946 
L 190.632189 74.108367 
L 192.06102 71.585091 
L 193.716567 68.770799 
L 194.387924 68.03256 
L 194.834324 67.83477 
L 195.184063 67.912192 
L 195.533802 68.234851 
L 195.950324 68.955708 
L 196.530293 70.464992 
L 198.219231 75.106629 
L 198.81326 76.012284 
L 199.321172 76.415375 
L 199.785146 76.514131 
L 200.261424 76.384428 
L 200.816787 75.987268 
L 201.518022 75.189716 
L 202.472334 73.735442 
L 204.092731 70.820224 
L 204.092731 70.820224 
" style="fill:none;stroke:#2065ab;stroke-linecap:square;stroke-width:2;"/>
   </g>
   <g id="line2d_18">
    <path clip-path="url(#p141f51fc98)" d="M 28.346457 44.30826 
L 45.919502 44.30826 
L 45.919502 40.531656 
L 46.030224 40.542238 
L 46.416869 40.728454 
L 46.923024 41.245619 
L 47.682255 42.37933 
L 49.372951 45.424651 
L 50.761361 47.692038 
L 51.615496 48.694469 
L 52.246431 49.122193 
L 52.749071 49.211748 
L 53.193713 49.066629 
L 53.645386 48.672275 
L 54.146268 47.9169 
L 54.743811 46.576639 
L 55.654186 43.889715 
L 56.541713 41.513608 
L 57.033808 40.770718 
L 57.422211 40.542863 
L 57.782494 40.583572 
L 58.202532 40.87406 
L 58.782501 41.575907 
L 59.71045 43.096501 
L 62.548781 47.92703 
L 63.353707 48.802609 
L 63.956523 49.158079 
L 64.443345 49.202165 
L 64.88623 49.016912 
L 65.343175 48.570079 
L 65.858117 47.729838 
L 66.482022 46.244982 
L 68.564636 40.860516 
L 68.967099 40.561498 
L 69.325625 40.558509 
L 69.728088 40.794431 
L 70.269392 41.39904 
L 71.104195 42.708785 
L 74.452195 48.285822 
L 75.179792 48.961271 
L 75.736913 49.199911 
L 76.202646 49.166713 
L 76.643773 48.906007 
L 77.114778 48.351878 
L 77.656082 47.343034 
L 78.341499 45.545922 
L 79.919717 41.234327 
L 80.374904 40.67301 
L 80.74749 40.531851 
L 81.114803 40.633657 
L 81.568233 41.01359 
L 82.214986 41.879447 
L 83.330986 43.806003 
L 85.494444 47.536039 
L 86.380214 48.620846 
L 87.030482 49.096087 
L 87.543666 49.214197 
L 87.991824 49.09168 
L 88.439981 48.727049 
L 88.933833 48.017109 
L 89.517317 46.754867 
L 90.350362 44.343537 
L 91.369701 41.543787 
L 91.86531 40.78204 
L 92.255471 40.544891 
L 92.613997 40.57906 
L 93.032277 40.861763 
L 93.606973 41.549761 
L 94.520863 43.038842 
L 97.429493 47.976515 
L 98.223874 48.824979 
L 98.821417 49.165145 
L 99.304724 49.198944 
L 99.745852 49.005255 
L 100.204554 48.546108 
L 100.721254 47.689295 
L 101.350431 46.174581 
L 103.375049 40.899424 
L 103.784542 40.570629 
L 104.143068 40.55148 
L 104.538501 40.767577 
L 105.065745 41.337275 
L 105.868913 42.574345 
L 109.419024 48.425442 
L 110.114986 49.019473 
L 110.654532 49.209946 
L 111.111477 49.14263 
L 111.554362 48.844414 
L 112.034154 48.233483 
L 112.589518 47.13604 
L 113.317115 45.148646 
L 114.670375 41.401261 
L 115.148409 40.730046 
L 115.53154 40.536503 
L 115.893581 40.600887 
L 116.325921 40.924708 
L 116.930494 41.687189 
L 117.923471 43.350532 
L 120.48412 47.743553 
L 121.32771 48.71854 
L 121.953373 49.130881 
L 122.452498 49.210219 
L 122.89714 49.056006 
L 123.35057 48.649233 
L 123.854967 47.873914 
L 124.457783 46.502337 
L 125.412094 43.667986 
L 126.246898 41.474597 
L 126.73372 40.756875 
L 127.120365 40.540475 
L 127.480649 40.588765 
L 127.904202 40.889341 
L 128.492957 41.611533 
L 129.441997 43.178422 
L 132.187181 47.864284 
L 133.004409 48.773202 
L 133.616013 49.149107 
L 134.10635 49.205587 
L 134.549235 49.032092 
L 135.004422 48.600937 
L 135.514091 47.788135 
L 136.129209 46.349682 
L 137.241694 43.023851 
L 137.948202 41.309868 
L 138.413934 40.69838 
L 138.791792 40.533219 
L 139.155591 40.617271 
L 139.598476 40.969741 
L 140.225896 41.787046 
L 141.280384 43.583239 
L 143.623106 47.618096 
L 144.491301 48.658773 
L 145.132781 49.110194 
L 145.638935 49.213294 
L 146.085335 49.079593 
L 146.53525 48.700324 
L 147.032617 47.967964 
L 147.623131 46.667055 
L 148.491326 44.127917 
L 149.44388 41.538086 
L 149.93949 40.779229 
L 150.32965 40.544283 
L 150.688176 40.580152 
L 151.106457 40.864367 
L 151.68291 41.556215 
L 152.600315 43.053158 
L 155.49137 47.964153 
L 156.287509 48.818686 
L 156.886809 49.163269 
L 157.371874 49.199714 
L 157.813002 49.008233 
L 158.271704 48.551632 
L 158.788403 47.697811 
L 159.415824 46.191152 
L 161.454501 40.88954 
L 161.862236 40.568245 
L 162.220762 40.553129 
L 162.617953 40.774138 
L 163.148712 41.352511 
L 163.95891 42.606209 
L 167.459811 48.391828 
L 168.164561 49.006351 
L 168.707622 49.208008 
L 169.166324 49.149143 
L 169.609209 48.860002 
L 170.087244 48.262523 
L 170.639093 47.186837 
L 171.356145 45.246419 
L 172.760372 41.366171 
L 173.233134 40.718293 
L 173.614507 40.535092 
L 173.976548 40.606374 
L 174.412403 40.939933 
L 175.024006 41.719961 
L 176.036315 43.425461 
L 178.524907 47.701092 
L 179.377285 48.698793 
L 180.00822 49.124159 
L 180.509102 49.211515 
L 180.953745 49.064878 
L 181.405417 48.6688 
L 181.908057 47.908133 
L 182.5056 46.564286 
L 183.423005 43.853502 
L 184.301745 41.507621 
L 184.792082 40.769521 
L 185.180485 40.542618 
L 185.540769 40.584066 
L 185.962564 40.876877 
L 186.54429 41.582675 
L 187.475754 43.111193 
L 190.29651 47.91473 
L 191.103194 48.796315 
L 191.707767 49.156141 
L 192.196346 49.202819 
L 192.639231 49.019677 
L 193.096176 48.575263 
L 193.609361 47.74135 
L 194.231509 46.265706 
L 196.32994 40.850982 
L 196.732403 40.558803 
L 197.090929 40.56101 
L 197.49515 40.802963 
L 198.039969 41.417288 
L 198.883559 42.747475 
L 202.17532 48.246056 
L 202.911704 48.944238 
L 203.474098 49.196308 
L 203.941587 49.172443 
L 204.092731 49.112944 
L 204.092731 49.112944 
" style="fill:none;stroke:#b1182b;stroke-linecap:square;stroke-width:2;"/>
   </g>
   <g id="line2d_19">
    <path clip-path="url(#p141f51fc98)" d="M 45.919502 126.141732 
L 45.919502 17.007874 
" style="fill:none;stroke:#000000;stroke-dasharray:0.75,1.2375;stroke-dashoffset:0;stroke-width:0.75;"/>
   </g>
   <g id="line2d_20">
    <path clip-path="url(#p141f51fc98)" d="M 28.346457 87.930856 
L 204.094488 87.930856 
" style="fill:none;stroke:#2065ab;stroke-dasharray:0.75,1.2375;stroke-dashoffset:0;stroke-width:0.75;"/>
   </g>
   <g id="line2d_21">
    <path clip-path="url(#p141f51fc98)" d="M 28.346457 60.63047 
L 204.094488 60.63047 
" style="fill:none;stroke:#b1182b;stroke-dasharray:0.75,1.2375;stroke-dashoffset:0;stroke-width:0.75;"/>
   </g>
   <g id="patch_3">
    <path d="M 28.346457 126.141732 
L 28.346457 17.007874 
" style="fill:none;stroke:#000000;stroke-linecap:square;stroke-linejoin:miter;stroke-width:0.8;"/>
   </g>
   <g id="patch_4">
    <path d="M 28.346457 126.141732 
L 204.094488 126.141732 
" style="fill:none;stroke:#000000;stroke-linecap:square;stroke-linejoin:miter;stroke-width:0.8;"/>
   </g>
   <g id="legend_1">
    <g id="line2d_22">
     <path d="M 156.382301 24.866937 
L 168.382301 24.866937 
" style="fill:none;stroke:#2065ab;stroke-linecap:square;stroke-width:2;"/>
    </g>
    <g id="line2d_23"/>
    <g id="text_19">
     <!-- Prey -->
     <g transform="translate(173.182301 26.966937)scale(0.06 -0.06)">
      <defs>
       <path d="M 19.671875 64.796875 
L 19.671875 37.40625 
L 32.078125 37.40625 
Q 38.96875 37.40625 42.71875 40.96875 
Q 46.484375 44.53125 46.484375 51.125 
Q 46.484375 57.671875 42.71875 61.234375 
Q 38.96875 64.796875 32.078125 64.796875 
z
M 9.8125 72.90625 
L 32.078125 72.90625 
Q 44.34375 72.90625 50.609375 67.359375 
Q 56.890625 61.8125 56.890625 51.125 
Q 56.890625 40.328125 50.609375 34.8125 
Q 44.34375 29.296875 32.078125 29.296875 
L 19.671875 29.296875 
L 19.671875 0 
L 9.8125 0 
z
" id="DejaVuSans-80"/>
       <path d="M 32.171875 -5.078125 
Q 28.375 -14.84375 24.75 -17.8125 
Q 21.140625 -20.796875 15.09375 -20.796875 
L 7.90625 -20.796875 
L 7.90625 -13.28125 
L 13.1875 -13.28125 
Q 16.890625 -13.28125 18.9375 -11.515625 
Q 21 -9.765625 23.484375 -3.21875 
L 25.09375 0.875 
L 2.984375 54.6875 
L 12.5 54.6875 
L 29.59375 11.921875 
L 46.6875 54.6875 
L 56.203125 54.6875 
z
" id="DejaVuSans-121"/>
      </defs>
      <use xlink:href="#DejaVuSans-80"/>
      <use x="58.552734" xlink:href="#DejaVuSans-114"/>
      <use x="97.416016" xlink:href="#DejaVuSans-101"/>
      <use x="158.939453" xlink:href="#DejaVuSans-121"/>
     </g>
    </g>
    <g id="line2d_24">
     <path d="M 156.382301 33.673812 
L 168.382301 33.673812 
" style="fill:none;stroke:#b1182b;stroke-linecap:square;stroke-width:2;"/>
    </g>
    <g id="line2d_25"/>
    <g id="text_20">
     <!-- Predator -->
     <g transform="translate(173.182301 35.773812)scale(0.06 -0.06)">
      <defs>
       <path d="M 45.40625 46.390625 
L 45.40625 75.984375 
L 54.390625 75.984375 
L 54.390625 0 
L 45.40625 0 
L 45.40625 8.203125 
Q 42.578125 3.328125 38.25 0.953125 
Q 33.9375 -1.421875 27.875 -1.421875 
Q 17.96875 -1.421875 11.734375 6.484375 
Q 5.515625 14.40625 5.515625 27.296875 
Q 5.515625 40.1875 11.734375 48.09375 
Q 17.96875 56 27.875 56 
Q 33.9375 56 38.25 53.625 
Q 42.578125 51.265625 45.40625 46.390625 
z
M 14.796875 27.296875 
Q 14.796875 17.390625 18.875 11.75 
Q 22.953125 6.109375 30.078125 6.109375 
Q 37.203125 6.109375 41.296875 11.75 
Q 45.40625 17.390625 45.40625 27.296875 
Q 45.40625 37.203125 41.296875 42.84375 
Q 37.203125 48.484375 30.078125 48.484375 
Q 22.953125 48.484375 18.875 42.84375 
Q 14.796875 37.203125 14.796875 27.296875 
z
" id="DejaVuSans-100"/>
      </defs>
      <use xlink:href="#DejaVuSans-80"/>
      <use x="58.552734" xlink:href="#DejaVuSans-114"/>
      <use x="97.416016" xlink:href="#DejaVuSans-101"/>
      <use x="158.939453" xlink:href="#DejaVuSans-100"/>
      <use x="222.416016" xlink:href="#DejaVuSans-97"/>
      <use x="283.695312" xlink:href="#DejaVuSans-116"/>
      <use x="322.904297" xlink:href="#DejaVuSans-111"/>
      <use x="384.085938" xlink:href="#DejaVuSans-114"/>
     </g>
    </g>
   </g>
  </g>
 </g>
 <defs>
  <clipPath id="p141f51fc98">
   <rect height="109.133858" width="175.748031" x="28.346457" y="17.007874"/>
  </clipPath>
 </defs>
</svg>
