<?xml version="1.0" encoding="utf-8" standalone="no"?>
<!DOCTYPE svg PUBLIC "-//W3C//DTD SVG 1.1//EN"
  "http://www.w3.org/Graphics/SVG/1.1/DTD/svg11.dtd">
<svg xmlns:xlink="http://www.w3.org/1999/xlink" width="226.771654pt" height="113.385827pt" viewBox="0 0 226.771654 113.385827" xmlns="http://www.w3.org/2000/svg" version="1.1">
 <metadata>
  <rdf:RDF xmlns:dc="http://purl.org/dc/elements/1.1/" xmlns:cc="http://creativecommons.org/ns#" xmlns:rdf="http://www.w3.org/1999/02/22-rdf-syntax-ns#">
   <cc:Work>
    <dc:type rdf:resource="http://purl.org/dc/dcmitype/StillImage"/>
    <dc:date>2024-06-05T15:09:09.904449</dc:date>
    <dc:format>image/svg+xml</dc:format>
    <dc:creator>
     <cc:Agent>
      <dc:title>Matplotlib v3.9.0, https://matplotlib.org/</dc:title>
     </cc:Agent>
    </dc:creator>
   </cc:Work>
  </rdf:RDF>
 </metadata>
 <defs>
  <style type="text/css">*{stroke-linejoin: round; stroke-linecap: butt}</style>
 </defs>
 <g id="figure_1">
  <g id="patch_1">
   <path d="M 0 113.385827 
L 226.771654 113.385827 
L 226.771654 0 
L 0 0 
z
" style="fill: #ffffff"/>
  </g>
  <g id="axes_1">
   <g id="patch_2">
    <path d="M 28.346457 73.133858 
L 204.094488 73.133858 
L 204.094488 13.606299 
L 28.346457 13.606299 
z
" style="fill: #ffffff"/>
   </g>
   <g id="PathCollection_1">
    <defs>
     <path id="mf85faf2a97" d="M 0 3 
C 0.795609 3 1.55874 2.683901 2.12132 2.12132 
C 2.683901 1.55874 3 0.795609 3 0 
C 3 -0.795609 2.683901 -1.55874 2.12132 -2.12132 
C 1.55874 -2.683901 0.795609 -3 0 -3 
C -0.795609 -3 -1.55874 -2.683901 -2.12132 -2.12132 
C -2.683901 -1.55874 -3 -0.795609 -3 0 
C -3 0.795609 -2.683901 1.55874 -2.12132 2.12132 
C -1.55874 2.683901 -0.795609 3 0 3 
z
" style="stroke: #808080"/>
    </defs>
    <g clip-path="url(#p8c0f3a269b)">
     <use xlink:href="#mf85faf2a97" x="105.503308" y="68.967512" style="fill: #808080; stroke: #808080"/>
    </g>
   </g>
   <g id="matplotlib.axis_1">
    <g id="xtick_1"/>
    <g id="xtick_2"/>
   </g>
   <g id="matplotlib.axis_2">
    <g id="ytick_1">
     <g id="line2d_1">
      <defs>
       <path id="mfd74375adc" d="M 0 0 
L -3.5 0 
" style="stroke: #000000; stroke-width: 0.8"/>
      </defs>
      <g>
       <use xlink:href="#mfd74375adc" x="28.346457" y="68.967512" style="stroke: #000000; stroke-width: 0.8"/>
      </g>
     </g>
     <g id="text_1">
      <!-- $\mathdefault{10^{3}}$ -->
      <g transform="translate(10.786457 71.247043) scale(0.06 -0.06)">
       <defs>
        <path id="DejaVuSans-31" d="M 794 531 
L 1825 531 
L 1825 4091 
L 703 3866 
L 703 4441 
L 1819 4666 
L 2450 4666 
L 2450 531 
L 3481 531 
L 3481 0 
L 794 0 
L 794 531 
z
" transform="scale(0.015625)"/>
        <path id="DejaVuSans-30" d="M 2034 4250 
Q 1547 4250 1301 3770 
Q 1056 3291 1056 2328 
Q 1056 1369 1301 889 
Q 1547 409 2034 409 
Q 2525 409 2770 889 
Q 3016 1369 3016 2328 
Q 3016 3291 2770 3770 
Q 2525 4250 2034 4250 
z
M 2034 4750 
Q 2819 4750 3233 4129 
Q 3647 3509 3647 2328 
Q 3647 1150 3233 529 
Q 2819 -91 2034 -91 
Q 1250 -91 836 529 
Q 422 1150 422 2328 
Q 422 3509 836 4129 
Q 1250 4750 2034 4750 
z
" transform="scale(0.015625)"/>
        <path id="DejaVuSans-33" d="M 2597 2516 
Q 3050 2419 3304 2112 
Q 3559 1806 3559 1356 
Q 3559 666 3084 287 
Q 2609 -91 1734 -91 
Q 1441 -91 1130 -33 
Q 819 25 488 141 
L 488 750 
Q 750 597 1062 519 
Q 1375 441 1716 441 
Q 2309 441 2620 675 
Q 2931 909 2931 1356 
Q 2931 1769 2642 2001 
Q 2353 2234 1838 2234 
L 1294 2234 
L 1294 2753 
L 1863 2753 
Q 2328 2753 2575 2939 
Q 2822 3125 2822 3475 
Q 2822 3834 2567 4026 
Q 2313 4219 1838 4219 
Q 1578 4219 1281 4162 
Q 984 4106 628 3988 
L 628 4550 
Q 988 4650 1302 4700 
Q 1616 4750 1894 4750 
Q 2613 4750 3031 4423 
Q 3450 4097 3450 3541 
Q 3450 3153 3228 2886 
Q 3006 2619 2597 2516 
z
" transform="scale(0.015625)"/>
       </defs>
       <use xlink:href="#DejaVuSans-31" transform="translate(0 0.765625)"/>
       <use xlink:href="#DejaVuSans-30" transform="translate(63.623047 0.765625)"/>
       <use xlink:href="#DejaVuSans-33" transform="translate(128.203125 39.046875) scale(0.7)"/>
      </g>
     </g>
    </g>
    <g id="ytick_2">
     <g id="line2d_2">
      <g>
       <use xlink:href="#mfd74375adc" x="28.346457" y="27.446602" style="stroke: #000000; stroke-width: 0.8"/>
      </g>
     </g>
     <g id="text_2">
      <!-- $\mathdefault{10^{6}}$ -->
      <g transform="translate(10.786457 29.726134) scale(0.06 -0.06)">
       <defs>
        <path id="DejaVuSans-36" d="M 2113 2584 
Q 1688 2584 1439 2293 
Q 1191 2003 1191 1497 
Q 1191 994 1439 701 
Q 1688 409 2113 409 
Q 2538 409 2786 701 
Q 3034 994 3034 1497 
Q 3034 2003 2786 2293 
Q 2538 2584 2113 2584 
z
M 3366 4563 
L 3366 3988 
Q 3128 4100 2886 4159 
Q 2644 4219 2406 4219 
Q 1781 4219 1451 3797 
Q 1122 3375 1075 2522 
Q 1259 2794 1537 2939 
Q 1816 3084 2150 3084 
Q 2853 3084 3261 2657 
Q 3669 2231 3669 1497 
Q 3669 778 3244 343 
Q 2819 -91 2113 -91 
Q 1303 -91 875 529 
Q 447 1150 447 2328 
Q 447 3434 972 4092 
Q 1497 4750 2381 4750 
Q 2619 4750 2861 4703 
Q 3103 4656 3366 4563 
z
" transform="scale(0.015625)"/>
       </defs>
       <use xlink:href="#DejaVuSans-31" transform="translate(0 0.765625)"/>
       <use xlink:href="#DejaVuSans-30" transform="translate(63.623047 0.765625)"/>
       <use xlink:href="#DejaVuSans-36" transform="translate(128.203125 39.046875) scale(0.7)"/>
      </g>
     </g>
    </g>
    <g id="text_3">
     <!-- Prey concentration, B $\mathrm{(ml^{-1})}$ -->
     <g transform="translate(5.316457 93.105079) rotate(-90) scale(0.07 -0.07)">
      <defs>
       <path id="DejaVuSans-50" d="M 1259 4147 
L 1259 2394 
L 2053 2394 
Q 2494 2394 2734 2622 
Q 2975 2850 2975 3272 
Q 2975 3691 2734 3919 
Q 2494 4147 2053 4147 
L 1259 4147 
z
M 628 4666 
L 2053 4666 
Q 2838 4666 3239 4311 
Q 3641 3956 3641 3272 
Q 3641 2581 3239 2228 
Q 2838 1875 2053 1875 
L 1259 1875 
L 1259 0 
L 628 0 
L 628 4666 
z
" transform="scale(0.015625)"/>
       <path id="DejaVuSans-72" d="M 2631 2963 
Q 2534 3019 2420 3045 
Q 2306 3072 2169 3072 
Q 1681 3072 1420 2755 
Q 1159 2438 1159 1844 
L 1159 0 
L 581 0 
L 581 3500 
L 1159 3500 
L 1159 2956 
Q 1341 3275 1631 3429 
Q 1922 3584 2338 3584 
Q 2397 3584 2469 3576 
Q 2541 3569 2628 3553 
L 2631 2963 
z
" transform="scale(0.015625)"/>
       <path id="DejaVuSans-65" d="M 3597 1894 
L 3597 1613 
L 953 1613 
Q 991 1019 1311 708 
Q 1631 397 2203 397 
Q 2534 397 2845 478 
Q 3156 559 3463 722 
L 3463 178 
Q 3153 47 2828 -22 
Q 2503 -91 2169 -91 
Q 1331 -91 842 396 
Q 353 884 353 1716 
Q 353 2575 817 3079 
Q 1281 3584 2069 3584 
Q 2775 3584 3186 3129 
Q 3597 2675 3597 1894 
z
M 3022 2063 
Q 3016 2534 2758 2815 
Q 2500 3097 2075 3097 
Q 1594 3097 1305 2825 
Q 1016 2553 972 2059 
L 3022 2063 
z
" transform="scale(0.015625)"/>
       <path id="DejaVuSans-79" d="M 2059 -325 
Q 1816 -950 1584 -1140 
Q 1353 -1331 966 -1331 
L 506 -1331 
L 506 -850 
L 844 -850 
Q 1081 -850 1212 -737 
Q 1344 -625 1503 -206 
L 1606 56 
L 191 3500 
L 800 3500 
L 1894 763 
L 2988 3500 
L 3597 3500 
L 2059 -325 
z
" transform="scale(0.015625)"/>
       <path id="DejaVuSans-20" transform="scale(0.015625)"/>
       <path id="DejaVuSans-63" d="M 3122 3366 
L 3122 2828 
Q 2878 2963 2633 3030 
Q 2388 3097 2138 3097 
Q 1578 3097 1268 2742 
Q 959 2388 959 1747 
Q 959 1106 1268 751 
Q 1578 397 2138 397 
Q 2388 397 2633 464 
Q 2878 531 3122 666 
L 3122 134 
Q 2881 22 2623 -34 
Q 2366 -91 2075 -91 
Q 1284 -91 818 406 
Q 353 903 353 1747 
Q 353 2603 823 3093 
Q 1294 3584 2113 3584 
Q 2378 3584 2631 3529 
Q 2884 3475 3122 3366 
z
" transform="scale(0.015625)"/>
       <path id="DejaVuSans-6f" d="M 1959 3097 
Q 1497 3097 1228 2736 
Q 959 2375 959 1747 
Q 959 1119 1226 758 
Q 1494 397 1959 397 
Q 2419 397 2687 759 
Q 2956 1122 2956 1747 
Q 2956 2369 2687 2733 
Q 2419 3097 1959 3097 
z
M 1959 3584 
Q 2709 3584 3137 3096 
Q 3566 2609 3566 1747 
Q 3566 888 3137 398 
Q 2709 -91 1959 -91 
Q 1206 -91 779 398 
Q 353 888 353 1747 
Q 353 2609 779 3096 
Q 1206 3584 1959 3584 
z
" transform="scale(0.015625)"/>
       <path id="DejaVuSans-6e" d="M 3513 2113 
L 3513 0 
L 2938 0 
L 2938 2094 
Q 2938 2591 2744 2837 
Q 2550 3084 2163 3084 
Q 1697 3084 1428 2787 
Q 1159 2491 1159 1978 
L 1159 0 
L 581 0 
L 581 3500 
L 1159 3500 
L 1159 2956 
Q 1366 3272 1645 3428 
Q 1925 3584 2291 3584 
Q 2894 3584 3203 3211 
Q 3513 2838 3513 2113 
z
" transform="scale(0.015625)"/>
       <path id="DejaVuSans-74" d="M 1172 4494 
L 1172 3500 
L 2356 3500 
L 2356 3053 
L 1172 3053 
L 1172 1153 
Q 1172 725 1289 603 
Q 1406 481 1766 481 
L 2356 481 
L 2356 0 
L 1766 0 
Q 1100 0 847 248 
Q 594 497 594 1153 
L 594 3053 
L 172 3053 
L 172 3500 
L 594 3500 
L 594 4494 
L 1172 4494 
z
" transform="scale(0.015625)"/>
       <path id="DejaVuSans-61" d="M 2194 1759 
Q 1497 1759 1228 1600 
Q 959 1441 959 1056 
Q 959 750 1161 570 
Q 1363 391 1709 391 
Q 2188 391 2477 730 
Q 2766 1069 2766 1631 
L 2766 1759 
L 2194 1759 
z
M 3341 1997 
L 3341 0 
L 2766 0 
L 2766 531 
Q 2569 213 2275 61 
Q 1981 -91 1556 -91 
Q 1019 -91 701 211 
Q 384 513 384 1019 
Q 384 1609 779 1909 
Q 1175 2209 1959 2209 
L 2766 2209 
L 2766 2266 
Q 2766 2663 2505 2880 
Q 2244 3097 1772 3097 
Q 1472 3097 1187 3025 
Q 903 2953 641 2809 
L 641 3341 
Q 956 3463 1253 3523 
Q 1550 3584 1831 3584 
Q 2591 3584 2966 3190 
Q 3341 2797 3341 1997 
z
" transform="scale(0.015625)"/>
       <path id="DejaVuSans-69" d="M 603 3500 
L 1178 3500 
L 1178 0 
L 603 0 
L 603 3500 
z
M 603 4863 
L 1178 4863 
L 1178 4134 
L 603 4134 
L 603 4863 
z
" transform="scale(0.015625)"/>
       <path id="DejaVuSans-2c" d="M 750 794 
L 1409 794 
L 1409 256 
L 897 -744 
L 494 -744 
L 750 256 
L 750 794 
z
" transform="scale(0.015625)"/>
       <path id="DejaVuSans-42" d="M 1259 2228 
L 1259 519 
L 2272 519 
Q 2781 519 3026 730 
Q 3272 941 3272 1375 
Q 3272 1813 3026 2020 
Q 2781 2228 2272 2228 
L 1259 2228 
z
M 1259 4147 
L 1259 2741 
L 2194 2741 
Q 2656 2741 2882 2914 
Q 3109 3088 3109 3444 
Q 3109 3797 2882 3972 
Q 2656 4147 2194 4147 
L 1259 4147 
z
M 628 4666 
L 2241 4666 
Q 2963 4666 3353 4366 
Q 3744 4066 3744 3513 
Q 3744 3084 3544 2831 
Q 3344 2578 2956 2516 
Q 3422 2416 3680 2098 
Q 3938 1781 3938 1306 
Q 3938 681 3513 340 
Q 3088 0 2303 0 
L 628 0 
L 628 4666 
z
" transform="scale(0.015625)"/>
       <path id="DejaVuSans-28" d="M 1984 4856 
Q 1566 4138 1362 3434 
Q 1159 2731 1159 2009 
Q 1159 1288 1364 580 
Q 1569 -128 1984 -844 
L 1484 -844 
Q 1016 -109 783 600 
Q 550 1309 550 2009 
Q 550 2706 781 3412 
Q 1013 4119 1484 4856 
L 1984 4856 
z
" transform="scale(0.015625)"/>
       <path id="DejaVuSans-6d" d="M 3328 2828 
Q 3544 3216 3844 3400 
Q 4144 3584 4550 3584 
Q 5097 3584 5394 3201 
Q 5691 2819 5691 2113 
L 5691 0 
L 5113 0 
L 5113 2094 
Q 5113 2597 4934 2840 
Q 4756 3084 4391 3084 
Q 3944 3084 3684 2787 
Q 3425 2491 3425 1978 
L 3425 0 
L 2847 0 
L 2847 2094 
Q 2847 2600 2669 2842 
Q 2491 3084 2119 3084 
Q 1678 3084 1418 2786 
Q 1159 2488 1159 1978 
L 1159 0 
L 581 0 
L 581 3500 
L 1159 3500 
L 1159 2956 
Q 1356 3278 1631 3431 
Q 1906 3584 2284 3584 
Q 2666 3584 2933 3390 
Q 3200 3197 3328 2828 
z
" transform="scale(0.015625)"/>
       <path id="DejaVuSans-6c" d="M 603 4863 
L 1178 4863 
L 1178 0 
L 603 0 
L 603 4863 
z
" transform="scale(0.015625)"/>
       <path id="DejaVuSans-2212" d="M 678 2272 
L 4684 2272 
L 4684 1741 
L 678 1741 
L 678 2272 
z
" transform="scale(0.015625)"/>
       <path id="DejaVuSans-29" d="M 513 4856 
L 1013 4856 
Q 1481 4119 1714 3412 
Q 1947 2706 1947 2009 
Q 1947 1309 1714 600 
Q 1481 -109 1013 -844 
L 513 -844 
Q 928 -128 1133 580 
Q 1338 1288 1338 2009 
Q 1338 2731 1133 3434 
Q 928 4138 513 4856 
z
" transform="scale(0.015625)"/>
      </defs>
      <use xlink:href="#DejaVuSans-50" transform="translate(0 0.684375)"/>
      <use xlink:href="#DejaVuSans-72" transform="translate(60.302734 0.684375)"/>
      <use xlink:href="#DejaVuSans-65" transform="translate(101.416016 0.684375)"/>
      <use xlink:href="#DejaVuSans-79" transform="translate(162.939453 0.684375)"/>
      <use xlink:href="#DejaVuSans-20" transform="translate(222.119141 0.684375)"/>
      <use xlink:href="#DejaVuSans-63" transform="translate(253.90625 0.684375)"/>
      <use xlink:href="#DejaVuSans-6f" transform="translate(308.886719 0.684375)"/>
      <use xlink:href="#DejaVuSans-6e" transform="translate(370.068359 0.684375)"/>
      <use xlink:href="#DejaVuSans-63" transform="translate(433.447266 0.684375)"/>
      <use xlink:href="#DejaVuSans-65" transform="translate(488.427734 0.684375)"/>
      <use xlink:href="#DejaVuSans-6e" transform="translate(549.951172 0.684375)"/>
      <use xlink:href="#DejaVuSans-74" transform="translate(613.330078 0.684375)"/>
      <use xlink:href="#DejaVuSans-72" transform="translate(652.539062 0.684375)"/>
      <use xlink:href="#DejaVuSans-61" transform="translate(693.652344 0.684375)"/>
      <use xlink:href="#DejaVuSans-74" transform="translate(754.931641 0.684375)"/>
      <use xlink:href="#DejaVuSans-69" transform="translate(794.140625 0.684375)"/>
      <use xlink:href="#DejaVuSans-6f" transform="translate(821.923828 0.684375)"/>
      <use xlink:href="#DejaVuSans-6e" transform="translate(883.105469 0.684375)"/>
      <use xlink:href="#DejaVuSans-2c" transform="translate(946.484375 0.684375)"/>
      <use xlink:href="#DejaVuSans-20" transform="translate(978.271484 0.684375)"/>
      <use xlink:href="#DejaVuSans-42" transform="translate(1010.058594 0.684375)"/>
      <use xlink:href="#DejaVuSans-20" transform="translate(1078.662109 0.684375)"/>
      <use xlink:href="#DejaVuSans-28" transform="translate(1110.449219 0.684375)"/>
      <use xlink:href="#DejaVuSans-6d" transform="translate(1149.462891 0.684375)"/>
      <use xlink:href="#DejaVuSans-6c" transform="translate(1246.875 0.684375)"/>
      <use xlink:href="#DejaVuSans-2212" transform="translate(1275.615234 38.965625) scale(0.7)"/>
      <use xlink:href="#DejaVuSans-31" transform="translate(1334.267578 38.965625) scale(0.7)"/>
      <use xlink:href="#DejaVuSans-29" transform="translate(1381.538086 0.684375)"/>
     </g>
    </g>
   </g>
   <g id="line2d_3">
    <path d="M 105.503308 68.967512 
L 105.641829 59.071095 
L 105.92082 53.987732 
L 106.325391 50.472688 
L 106.852615 47.768861 
L 107.50687 45.551782 
L 108.295277 43.659218 
L 109.236719 41.983024 
L 110.346894 40.469133 
L 111.662418 39.063491 
L 113.183888 37.766117 
L 114.986116 36.522992 
L 117.097391 35.334181 
L 119.671486 34.145775 
L 122.809324 32.958036 
L 126.442824 31.825369 
L 130.830185 30.69467 
L 136.12507 29.567942 
L 142.50846 28.450133 
L 149.786962 27.406302 
L 157.946545 26.466536 
L 165.814804 25.786482 
L 172.239885 25.450167 
L 177.212883 25.410618 
L 181.031349 25.604518 
L 183.642667 25.922136 
L 186.081198 26.436557 
L 187.860772 27.017698 
L 189.45436 27.768234 
L 190.840532 28.697975 
L 192.010694 29.807541 
L 192.969973 31.088086 
L 193.735262 32.522968 
L 194.331275 34.090696 
L 194.881033 36.201986 
L 195.324121 38.902313 
L 195.638342 42.2076 
L 195.867628 47.09596 
L 196.000038 55.598736 
L 196.031713 77.316277 
L 196.014885 114.385827 
L 196.014885 114.385827 
" clip-path="url(#p8c0f3a269b)" style="fill: none; stroke: #000000; stroke-linecap: square"/>
   </g>
   <g id="line2d_4">
    <path d="M 105.503308 68.967512 
L 105.610903 51.484471 
L 106.112965 48.563238 
L 106.729338 46.237071 
L 107.4883 44.235485 
L 108.38266 42.504384 
L 109.448534 40.935574 
L 110.67182 39.529054 
L 112.151236 38.176632 
L 113.839907 36.932403 
L 115.916944 35.688174 
L 118.349247 34.498042 
L 121.314133 33.30791 
L 124.747953 32.171875 
L 128.896149 31.03584 
L 133.907339 29.899805 
L 139.961063 28.76377 
L 147.274208 27.627735 
L 155.183929 26.619759 
L 163.398759 25.846942 
L 170.349911 25.409338 
L 175.391701 25.284224 
L 179.324864 25.373562 
L 182.595181 25.653324 
L 185.163568 26.084486 
L 187.06293 26.591271 
L 188.785568 27.264253 
L 190.303465 28.117936 
L 191.600672 29.157985 
L 192.675754 30.379881 
L 193.541122 31.769739 
L 194.219597 33.306967 
L 194.848419 35.399395 
L 195.287039 37.638786 
L 195.677003 40.945936 
L 195.942967 45.377804 
L 196.105941 52.350021 
L 196.105941 114.385827 
L 196.105941 114.385827 
" clip-path="url(#p8c0f3a269b)" style="fill: none; stroke-dasharray: 5,5; stroke-dashoffset: 0; stroke: #808080"/>
   </g>
   <g id="LineCollection_1">
    <path d="M 153.405315 114.385827 
L 153.405315 7.277574 
" clip-path="url(#p8c0f3a269b)" style="fill: none; stroke: #b1182b"/>
   </g>
   <g id="LineCollection_2">
    <path d="M 99.436226 52.350021 
L 219.809366 52.350021 
" clip-path="url(#p8c0f3a269b)" style="fill: none; stroke: #2065ab"/>
   </g>
   <g id="line2d_5">
    <defs>
     <path id="mfe0d752d9c" d="M -6 1.8 
L 6 -1.8 
" style="stroke: #000000"/>
    </defs>
    <g>
     <use xlink:href="#mfe0d752d9c" x="28.346457" y="73.133858" style="stroke: #000000"/>
    </g>
   </g>
   <g id="patch_3">
    <path d="M 28.346457 73.133858 
L 28.346457 13.606299 
" style="fill: none; stroke: #000000; stroke-width: 0.8; stroke-linejoin: miter; stroke-linecap: square"/>
   </g>
   <g id="text_4">
    <!-- $t_0$ -->
    <g transform="translate(105.503308 68.967512) scale(0.06 -0.06)">
     <defs>
      <path id="DejaVuSans-Oblique-74" d="M 2706 3500 
L 2619 3053 
L 1472 3053 
L 1100 1153 
Q 1081 1047 1072 975 
Q 1063 903 1063 863 
Q 1063 663 1183 572 
Q 1303 481 1569 481 
L 2150 481 
L 2053 0 
L 1503 0 
Q 991 0 739 200 
Q 488 400 488 806 
Q 488 878 497 964 
Q 506 1050 525 1153 
L 897 3053 
L 409 3053 
L 500 3500 
L 978 3500 
L 1172 4494 
L 1747 4494 
L 1556 3500 
L 2706 3500 
z
" transform="scale(0.015625)"/>
     </defs>
     <use xlink:href="#DejaVuSans-Oblique-74" transform="translate(0 0.78125)"/>
     <use xlink:href="#DejaVuSans-30" transform="translate(39.208984 -15.625) scale(0.7)"/>
    </g>
   </g>
  </g>
  <g id="axes_2">
   <g id="patch_4">
    <path d="M 28.346457 100.913386 
L 204.094488 100.913386 
L 204.094488 81.070866 
L 28.346457 81.070866 
z
" style="fill: #ffffff"/>
   </g>
   <g id="PathCollection_2">
    <g clip-path="url(#p048a8070e1)">
     <use xlink:href="#mf85faf2a97" x="195.9248" y="96.09012" style="fill: #808080; stroke: #808080"/>
    </g>
   </g>
   <g id="matplotlib.axis_3">
    <g id="xtick_3">
     <g id="line2d_6">
      <defs>
       <path id="mb9fff7d4a4" d="M 0 0 
L 0 3.5 
" style="stroke: #000000; stroke-width: 0.8"/>
      </defs>
      <g>
       <use xlink:href="#mb9fff7d4a4" x="125.657718" y="100.913386" style="stroke: #000000; stroke-width: 0.8"/>
      </g>
     </g>
     <g id="text_5">
      <!-- $\mathdefault{10^{5}}$ -->
      <g transform="translate(120.377718 112.472448) scale(0.06 -0.06)">
       <defs>
        <path id="DejaVuSans-35" d="M 691 4666 
L 3169 4666 
L 3169 4134 
L 1269 4134 
L 1269 2991 
Q 1406 3038 1543 3061 
Q 1681 3084 1819 3084 
Q 2600 3084 3056 2656 
Q 3513 2228 3513 1497 
Q 3513 744 3044 326 
Q 2575 -91 1722 -91 
Q 1428 -91 1123 -41 
Q 819 9 494 109 
L 494 744 
Q 775 591 1075 516 
Q 1375 441 1709 441 
Q 2250 441 2565 725 
Q 2881 1009 2881 1497 
Q 2881 1984 2565 2268 
Q 2250 2553 1709 2553 
Q 1456 2553 1204 2497 
Q 953 2441 691 2322 
L 691 4666 
z
" transform="scale(0.015625)"/>
       </defs>
       <use xlink:href="#DejaVuSans-31" transform="translate(0 0.684375)"/>
       <use xlink:href="#DejaVuSans-30" transform="translate(63.623047 0.684375)"/>
       <use xlink:href="#DejaVuSans-35" transform="translate(128.203125 38.965625) scale(0.7)"/>
      </g>
     </g>
    </g>
    <g id="xtick_4">
     <g id="line2d_7">
      <g>
       <use xlink:href="#mb9fff7d4a4" x="165.966536" y="100.913386" style="stroke: #000000; stroke-width: 0.8"/>
      </g>
     </g>
     <g id="text_6">
      <!-- $\mathdefault{10^{7}}$ -->
      <g transform="translate(160.686536 112.472448) scale(0.06 -0.06)">
       <defs>
        <path id="DejaVuSans-37" d="M 525 4666 
L 3525 4666 
L 3525 4397 
L 1831 0 
L 1172 0 
L 2766 4134 
L 525 4134 
L 525 4666 
z
" transform="scale(0.015625)"/>
       </defs>
       <use xlink:href="#DejaVuSans-31" transform="translate(0 0.684375)"/>
       <use xlink:href="#DejaVuSans-30" transform="translate(63.623047 0.684375)"/>
       <use xlink:href="#DejaVuSans-37" transform="translate(128.203125 38.965625) scale(0.7)"/>
      </g>
     </g>
    </g>
    <g id="text_7">
     <!-- Predator concentration, P $\mathrm{(ml^{-1})}$ -->
     <g transform="translate(59.520472 123.54448) scale(0.07 -0.07)">
      <defs>
       <path id="DejaVuSans-64" d="M 2906 2969 
L 2906 4863 
L 3481 4863 
L 3481 0 
L 2906 0 
L 2906 525 
Q 2725 213 2448 61 
Q 2172 -91 1784 -91 
Q 1150 -91 751 415 
Q 353 922 353 1747 
Q 353 2572 751 3078 
Q 1150 3584 1784 3584 
Q 2172 3584 2448 3432 
Q 2725 3281 2906 2969 
z
M 947 1747 
Q 947 1113 1208 752 
Q 1469 391 1925 391 
Q 2381 391 2643 752 
Q 2906 1113 2906 1747 
Q 2906 2381 2643 2742 
Q 2381 3103 1925 3103 
Q 1469 3103 1208 2742 
Q 947 2381 947 1747 
z
" transform="scale(0.015625)"/>
      </defs>
      <use xlink:href="#DejaVuSans-50" transform="translate(0 0.684375)"/>
      <use xlink:href="#DejaVuSans-72" transform="translate(60.302734 0.684375)"/>
      <use xlink:href="#DejaVuSans-65" transform="translate(101.416016 0.684375)"/>
      <use xlink:href="#DejaVuSans-64" transform="translate(162.939453 0.684375)"/>
      <use xlink:href="#DejaVuSans-61" transform="translate(226.416016 0.684375)"/>
      <use xlink:href="#DejaVuSans-74" transform="translate(287.695312 0.684375)"/>
      <use xlink:href="#DejaVuSans-6f" transform="translate(326.904297 0.684375)"/>
      <use xlink:href="#DejaVuSans-72" transform="translate(388.085938 0.684375)"/>
      <use xlink:href="#DejaVuSans-20" transform="translate(429.199219 0.684375)"/>
      <use xlink:href="#DejaVuSans-63" transform="translate(460.986328 0.684375)"/>
      <use xlink:href="#DejaVuSans-6f" transform="translate(515.966797 0.684375)"/>
      <use xlink:href="#DejaVuSans-6e" transform="translate(577.148438 0.684375)"/>
      <use xlink:href="#DejaVuSans-63" transform="translate(640.527344 0.684375)"/>
      <use xlink:href="#DejaVuSans-65" transform="translate(695.507812 0.684375)"/>
      <use xlink:href="#DejaVuSans-6e" transform="translate(757.03125 0.684375)"/>
      <use xlink:href="#DejaVuSans-74" transform="translate(820.410156 0.684375)"/>
      <use xlink:href="#DejaVuSans-72" transform="translate(859.619141 0.684375)"/>
      <use xlink:href="#DejaVuSans-61" transform="translate(900.732422 0.684375)"/>
      <use xlink:href="#DejaVuSans-74" transform="translate(962.011719 0.684375)"/>
      <use xlink:href="#DejaVuSans-69" transform="translate(1001.220703 0.684375)"/>
      <use xlink:href="#DejaVuSans-6f" transform="translate(1029.003906 0.684375)"/>
      <use xlink:href="#DejaVuSans-6e" transform="translate(1090.185547 0.684375)"/>
      <use xlink:href="#DejaVuSans-2c" transform="translate(1153.564453 0.684375)"/>
      <use xlink:href="#DejaVuSans-20" transform="translate(1185.351562 0.684375)"/>
      <use xlink:href="#DejaVuSans-50" transform="translate(1217.138672 0.684375)"/>
      <use xlink:href="#DejaVuSans-20" transform="translate(1277.441406 0.684375)"/>
      <use xlink:href="#DejaVuSans-28" transform="translate(1309.228516 0.684375)"/>
      <use xlink:href="#DejaVuSans-6d" transform="translate(1348.242188 0.684375)"/>
      <use xlink:href="#DejaVuSans-6c" transform="translate(1445.654297 0.684375)"/>
      <use xlink:href="#DejaVuSans-2212" transform="translate(1474.394531 38.965625) scale(0.7)"/>
      <use xlink:href="#DejaVuSans-31" transform="translate(1533.046875 38.965625) scale(0.7)"/>
      <use xlink:href="#DejaVuSans-29" transform="translate(1580.317383 0.684375)"/>
     </g>
    </g>
   </g>
   <g id="matplotlib.axis_4">
    <g id="ytick_3">
     <g id="line2d_8">
      <g>
       <use xlink:href="#mfd74375adc" x="28.346457" y="86.435352" style="stroke: #000000; stroke-width: 0.8"/>
      </g>
     </g>
     <g id="text_8">
      <!-- $\mathdefault{10^{-10}}$ -->
      <g transform="translate(4.606457 88.714884) scale(0.06 -0.06)">
       <use xlink:href="#DejaVuSans-31" transform="translate(0 0.765625)"/>
       <use xlink:href="#DejaVuSans-30" transform="translate(63.623047 0.765625)"/>
       <use xlink:href="#DejaVuSans-2212" transform="translate(128.203125 39.046875) scale(0.7)"/>
       <use xlink:href="#DejaVuSans-31" transform="translate(186.855469 39.046875) scale(0.7)"/>
       <use xlink:href="#DejaVuSans-30" transform="translate(231.391602 39.046875) scale(0.7)"/>
      </g>
     </g>
    </g>
   </g>
   <g id="line2d_9">
    <path d="M 105.503308 51.566192 
L 105.641829 49.648272 
L 105.925357 48.652638 
L 106.350637 47.950465 
L 106.961787 47.374066 
L 107.85858 46.850085 
L 109.167675 46.35757 
L 111.119575 45.87558 
L 114.077504 45.393677 
L 118.438082 44.922434 
L 124.977239 44.451655 
L 134.772881 43.982462 
L 149.392362 43.521598 
L 167.385388 43.177563 
L 179.410229 43.140398 
L 186.081198 43.323716 
L 189.820921 43.623547 
L 192.2698 44.036051 
L 193.735262 44.503259 
L 194.684076 45.049148 
L 195.263494 45.650389 
L 195.638342 46.380136 
L 195.881767 47.423516 
L 196.006254 49.170516 
L 196.030324 53.967673 
L 195.9248 96.09012 
L 195.9248 96.09012 
" clip-path="url(#p048a8070e1)" style="fill: none; stroke: #000000; stroke-linecap: square"/>
   </g>
   <g id="line2d_10">
    <path d="M 105.503308 51.566192 
L 105.610903 48.177988 
L 106.173001 47.559435 
L 106.967735 47.024754 
L 108.134375 46.521524 
L 109.840007 46.039262 
L 112.420385 45.557 
L 116.220954 45.085223 
L 121.919156 44.613445 
L 130.462484 44.141667 
L 143.271518 43.669889 
L 160.378748 43.259144 
L 175.391701 43.100395 
L 183.644279 43.200605 
L 188.373184 43.448318 
L 191.297392 43.797365 
L 193.133417 44.218765 
L 194.363295 44.733602 
L 195.130938 45.31822 
L 195.58658 45.949392 
L 195.89958 46.801333 
L 196.086331 48.071087 
L 196.105941 49.72989 
L 196.105941 97.186775 
L 196.105941 97.186775 
" clip-path="url(#p048a8070e1)" style="fill: none; stroke-dasharray: 5,5; stroke-dashoffset: 0; stroke: #808080"/>
   </g>
   <g id="LineCollection_3">
    <path d="M 153.405315 97.994211 
L 153.405315 39.610716 
" clip-path="url(#p048a8070e1)" style="fill: none; stroke: #b1182b"/>
   </g>
   <g id="LineCollection_4">
    <path d="M 99.436226 48.345731 
L 219.809366 48.345731 
" clip-path="url(#p048a8070e1)" style="fill: none; stroke: #2065ab"/>
   </g>
   <g id="line2d_11">
    <g>
     <use xlink:href="#mfe0d752d9c" x="28.346457" y="81.070866" style="stroke: #000000"/>
    </g>
   </g>
   <g id="patch_5">
    <path d="M 28.346457 100.913386 
L 28.346457 81.070866 
" style="fill: none; stroke: #000000; stroke-width: 0.8; stroke-linejoin: miter; stroke-linecap: square"/>
   </g>
   <g id="patch_6">
    <path d="M 28.346457 100.913386 
L 204.094488 100.913386 
" style="fill: none; stroke: #000000; stroke-width: 0.8; stroke-linejoin: miter; stroke-linecap: square"/>
   </g>
   <g id="text_9">
    <!-- $t_f$ -->
    <g transform="translate(195.9248 96.09012) scale(0.06 -0.06)">
     <defs>
      <path id="DejaVuSans-Oblique-66" d="M 3059 4863 
L 2969 4384 
L 2419 4384 
Q 2106 4384 1964 4261 
Q 1822 4138 1753 3809 
L 1691 3500 
L 2638 3500 
L 2553 3053 
L 1606 3053 
L 1013 0 
L 434 0 
L 1031 3053 
L 481 3053 
L 563 3500 
L 1113 3500 
L 1159 3744 
Q 1278 4363 1576 4613 
Q 1875 4863 2516 4863 
L 3059 4863 
z
" transform="scale(0.015625)"/>
     </defs>
     <use xlink:href="#DejaVuSans-Oblique-74" transform="translate(0 0.78125)"/>
     <use xlink:href="#DejaVuSans-Oblique-66" transform="translate(39.208984 -15.625) scale(0.7)"/>
    </g>
   </g>
   <g id="text_10">
    <!-- $t_f$ -->
    <g transform="translate(195.9248 96.09012) scale(0.06 -0.06)">
     <use xlink:href="#DejaVuSans-Oblique-74" transform="translate(0 0.78125)"/>
     <use xlink:href="#DejaVuSans-Oblique-66" transform="translate(39.208984 -15.625) scale(0.7)"/>
    </g>
   </g>
   <g id="legend_1">
    <g id="line2d_12">
     <path d="M 33.746457 88.929929 
L 39.746457 88.929929 
L 45.746457 88.929929 
" style="fill: none; stroke: #000000; stroke-linecap: square"/>
    </g>
    <g id="text_11">
     <!-- Full -->
     <g transform="translate(50.546457 91.029929) scale(0.06 -0.06)">
      <defs>
       <path id="DejaVuSans-46" d="M 628 4666 
L 3309 4666 
L 3309 4134 
L 1259 4134 
L 1259 2759 
L 3109 2759 
L 3109 2228 
L 1259 2228 
L 1259 0 
L 628 0 
L 628 4666 
z
" transform="scale(0.015625)"/>
       <path id="DejaVuSans-75" d="M 544 1381 
L 544 3500 
L 1119 3500 
L 1119 1403 
Q 1119 906 1312 657 
Q 1506 409 1894 409 
Q 2359 409 2629 706 
Q 2900 1003 2900 1516 
L 2900 3500 
L 3475 3500 
L 3475 0 
L 2900 0 
L 2900 538 
Q 2691 219 2414 64 
Q 2138 -91 1772 -91 
Q 1169 -91 856 284 
Q 544 659 544 1381 
z
M 1991 3584 
L 1991 3584 
z
" transform="scale(0.015625)"/>
      </defs>
      <use xlink:href="#DejaVuSans-46"/>
      <use xlink:href="#DejaVuSans-75" x="52.019531"/>
      <use xlink:href="#DejaVuSans-6c" x="115.398438"/>
      <use xlink:href="#DejaVuSans-6c" x="143.181641"/>
     </g>
    </g>
    <g id="line2d_13">
     <path d="M 33.746457 97.736804 
L 39.746457 97.736804 
L 45.746457 97.736804 
" style="fill: none; stroke-dasharray: 5,5; stroke-dashoffset: 0; stroke: #808080"/>
    </g>
    <g id="text_12">
     <!-- Simplified -->
     <g transform="translate(50.546457 99.836804) scale(0.06 -0.06)">
      <defs>
       <path id="DejaVuSans-53" d="M 3425 4513 
L 3425 3897 
Q 3066 4069 2747 4153 
Q 2428 4238 2131 4238 
Q 1616 4238 1336 4038 
Q 1056 3838 1056 3469 
Q 1056 3159 1242 3001 
Q 1428 2844 1947 2747 
L 2328 2669 
Q 3034 2534 3370 2195 
Q 3706 1856 3706 1288 
Q 3706 609 3251 259 
Q 2797 -91 1919 -91 
Q 1588 -91 1214 -16 
Q 841 59 441 206 
L 441 856 
Q 825 641 1194 531 
Q 1563 422 1919 422 
Q 2459 422 2753 634 
Q 3047 847 3047 1241 
Q 3047 1584 2836 1778 
Q 2625 1972 2144 2069 
L 1759 2144 
Q 1053 2284 737 2584 
Q 422 2884 422 3419 
Q 422 4038 858 4394 
Q 1294 4750 2059 4750 
Q 2388 4750 2728 4690 
Q 3069 4631 3425 4513 
z
" transform="scale(0.015625)"/>
       <path id="DejaVuSans-70" d="M 1159 525 
L 1159 -1331 
L 581 -1331 
L 581 3500 
L 1159 3500 
L 1159 2969 
Q 1341 3281 1617 3432 
Q 1894 3584 2278 3584 
Q 2916 3584 3314 3078 
Q 3713 2572 3713 1747 
Q 3713 922 3314 415 
Q 2916 -91 2278 -91 
Q 1894 -91 1617 61 
Q 1341 213 1159 525 
z
M 3116 1747 
Q 3116 2381 2855 2742 
Q 2594 3103 2138 3103 
Q 1681 3103 1420 2742 
Q 1159 2381 1159 1747 
Q 1159 1113 1420 752 
Q 1681 391 2138 391 
Q 2594 391 2855 752 
Q 3116 1113 3116 1747 
z
" transform="scale(0.015625)"/>
       <path id="DejaVuSans-66" d="M 2375 4863 
L 2375 4384 
L 1825 4384 
Q 1516 4384 1395 4259 
Q 1275 4134 1275 3809 
L 1275 3500 
L 2222 3500 
L 2222 3053 
L 1275 3053 
L 1275 0 
L 697 0 
L 697 3053 
L 147 3053 
L 147 3500 
L 697 3500 
L 697 3744 
Q 697 4328 969 4595 
Q 1241 4863 1831 4863 
L 2375 4863 
z
" transform="scale(0.015625)"/>
      </defs>
      <use xlink:href="#DejaVuSans-53"/>
      <use xlink:href="#DejaVuSans-69" x="63.476562"/>
      <use xlink:href="#DejaVuSans-6d" x="91.259766"/>
      <use xlink:href="#DejaVuSans-70" x="188.671875"/>
      <use xlink:href="#DejaVuSans-6c" x="252.148438"/>
      <use xlink:href="#DejaVuSans-69" x="279.931641"/>
      <use xlink:href="#DejaVuSans-66" x="307.714844"/>
      <use xlink:href="#DejaVuSans-69" x="342.919922"/>
      <use xlink:href="#DejaVuSans-65" x="370.703125"/>
      <use xlink:href="#DejaVuSans-64" x="432.226562"/>
     </g>
    </g>
   </g>
  </g>
 </g>
 <defs>
  <clipPath id="p8c0f3a269b">
   <rect x="28.346457" y="13.606299" width="175.748031" height="59.527559"/>
  </clipPath>
  <clipPath id="p048a8070e1">
   <rect x="28.346457" y="81.070866" width="175.748031" height="19.84252"/>
  </clipPath>
 </defs>
</svg>
