<?xml version="1.0" encoding="utf-8" standalone="no"?>
<!DOCTYPE svg PUBLIC "-//W3C//DTD SVG 1.1//EN"
  "http://www.w3.org/Graphics/SVG/1.1/DTD/svg11.dtd">
<svg xmlns:xlink="http://www.w3.org/1999/xlink" width="226.771654pt" height="113.385827pt" viewBox="0 0 226.771654 113.385827" xmlns="http://www.w3.org/2000/svg" version="1.1">
 <metadata>
  <rdf:RDF xmlns:dc="http://purl.org/dc/elements/1.1/" xmlns:cc="http://creativecommons.org/ns#" xmlns:rdf="http://www.w3.org/1999/02/22-rdf-syntax-ns#">
   <cc:Work>
    <dc:type rdf:resource="http://purl.org/dc/dcmitype/StillImage"/>
    <dc:date>2024-05-23T11:46:46.044354</dc:date>
    <dc:format>image/svg+xml</dc:format>
    <dc:creator>
     <cc:Agent>
      <dc:title>Matplotlib v3.9.0, https://matplotlib.org/</dc:title>
     </cc:Agent>
    </dc:creator>
   </cc:Work>
  </rdf:RDF>
 </metadata>
 <defs>
  <style type="text/css">*{stroke-linejoin: round; stroke-linecap: butt}</style>
 </defs>
 <g id="figure_1">
  <g id="patch_1">
   <path d="M 0 113.385827 
L 226.771654 113.385827 
L 226.771654 0 
L 0 0 
z
" style="fill: #ffffff"/>
  </g>
  <g id="axes_1">
   <g id="patch_2">
    <path d="M 28.346457 100.913386 
L 204.094488 100.913386 
L 204.094488 13.606299 
L 28.346457 13.606299 
z
" style="fill: #ffffff"/>
   </g>
   <g id="matplotlib.axis_1">
    <g id="xtick_1">
     <g id="line2d_1">
      <defs>
       <path id="m2e4d077f75" d="M 0 0 
L 0 3.5 
" style="stroke: #000000; stroke-width: 0.8"/>
      </defs>
      <g>
       <use xlink:href="#m2e4d077f75" x="36.335004" y="100.913386" style="stroke: #000000; stroke-width: 0.8"/>
      </g>
     </g>
     <g id="text_1">
      <!-- 0 -->
      <g transform="translate(34.426254 112.472448) scale(0.06 -0.06)">
       <defs>
        <path id="DejaVuSans-30" d="M 2034 4250 
Q 1547 4250 1301 3770 
Q 1056 3291 1056 2328 
Q 1056 1369 1301 889 
Q 1547 409 2034 409 
Q 2525 409 2770 889 
Q 3016 1369 3016 2328 
Q 3016 3291 2770 3770 
Q 2525 4250 2034 4250 
z
M 2034 4750 
Q 2819 4750 3233 4129 
Q 3647 3509 3647 2328 
Q 3647 1150 3233 529 
Q 2819 -91 2034 -91 
Q 1250 -91 836 529 
Q 422 1150 422 2328 
Q 422 3509 836 4129 
Q 1250 4750 2034 4750 
z
" transform="scale(0.015625)"/>
       </defs>
       <use xlink:href="#DejaVuSans-30"/>
      </g>
     </g>
    </g>
    <g id="xtick_2">
     <g id="line2d_2">
      <g>
       <use xlink:href="#m2e4d077f75" x="68.289191" y="100.913386" style="stroke: #000000; stroke-width: 0.8"/>
      </g>
     </g>
     <g id="text_2">
      <!-- 50 -->
      <g transform="translate(64.471691 112.472448) scale(0.06 -0.06)">
       <defs>
        <path id="DejaVuSans-35" d="M 691 4666 
L 3169 4666 
L 3169 4134 
L 1269 4134 
L 1269 2991 
Q 1406 3038 1543 3061 
Q 1681 3084 1819 3084 
Q 2600 3084 3056 2656 
Q 3513 2228 3513 1497 
Q 3513 744 3044 326 
Q 2575 -91 1722 -91 
Q 1428 -91 1123 -41 
Q 819 9 494 109 
L 494 744 
Q 775 591 1075 516 
Q 1375 441 1709 441 
Q 2250 441 2565 725 
Q 2881 1009 2881 1497 
Q 2881 1984 2565 2268 
Q 2250 2553 1709 2553 
Q 1456 2553 1204 2497 
Q 953 2441 691 2322 
L 691 4666 
z
" transform="scale(0.015625)"/>
       </defs>
       <use xlink:href="#DejaVuSans-35"/>
       <use xlink:href="#DejaVuSans-30" x="63.623047"/>
      </g>
     </g>
    </g>
    <g id="xtick_3">
     <g id="line2d_3">
      <g>
       <use xlink:href="#m2e4d077f75" x="100.243379" y="100.913386" style="stroke: #000000; stroke-width: 0.8"/>
      </g>
     </g>
     <g id="text_3">
      <!-- 100 -->
      <g transform="translate(94.517129 112.472448) scale(0.06 -0.06)">
       <defs>
        <path id="DejaVuSans-31" d="M 794 531 
L 1825 531 
L 1825 4091 
L 703 3866 
L 703 4441 
L 1819 4666 
L 2450 4666 
L 2450 531 
L 3481 531 
L 3481 0 
L 794 0 
L 794 531 
z
" transform="scale(0.015625)"/>
       </defs>
       <use xlink:href="#DejaVuSans-31"/>
       <use xlink:href="#DejaVuSans-30" x="63.623047"/>
       <use xlink:href="#DejaVuSans-30" x="127.246094"/>
      </g>
     </g>
    </g>
    <g id="xtick_4">
     <g id="line2d_4">
      <g>
       <use xlink:href="#m2e4d077f75" x="132.197566" y="100.913386" style="stroke: #000000; stroke-width: 0.8"/>
      </g>
     </g>
     <g id="text_4">
      <!-- 150 -->
      <g transform="translate(126.471316 112.472448) scale(0.06 -0.06)">
       <use xlink:href="#DejaVuSans-31"/>
       <use xlink:href="#DejaVuSans-35" x="63.623047"/>
       <use xlink:href="#DejaVuSans-30" x="127.246094"/>
      </g>
     </g>
    </g>
    <g id="xtick_5">
     <g id="line2d_5">
      <g>
       <use xlink:href="#m2e4d077f75" x="164.151754" y="100.913386" style="stroke: #000000; stroke-width: 0.8"/>
      </g>
     </g>
     <g id="text_5">
      <!-- 200 -->
      <g transform="translate(158.425504 112.472448) scale(0.06 -0.06)">
       <defs>
        <path id="DejaVuSans-32" d="M 1228 531 
L 3431 531 
L 3431 0 
L 469 0 
L 469 531 
Q 828 903 1448 1529 
Q 2069 2156 2228 2338 
Q 2531 2678 2651 2914 
Q 2772 3150 2772 3378 
Q 2772 3750 2511 3984 
Q 2250 4219 1831 4219 
Q 1534 4219 1204 4116 
Q 875 4013 500 3803 
L 500 4441 
Q 881 4594 1212 4672 
Q 1544 4750 1819 4750 
Q 2544 4750 2975 4387 
Q 3406 4025 3406 3419 
Q 3406 3131 3298 2873 
Q 3191 2616 2906 2266 
Q 2828 2175 2409 1742 
Q 1991 1309 1228 531 
z
" transform="scale(0.015625)"/>
       </defs>
       <use xlink:href="#DejaVuSans-32"/>
       <use xlink:href="#DejaVuSans-30" x="63.623047"/>
       <use xlink:href="#DejaVuSans-30" x="127.246094"/>
      </g>
     </g>
    </g>
    <g id="xtick_6">
     <g id="line2d_6">
      <g>
       <use xlink:href="#m2e4d077f75" x="196.105941" y="100.913386" style="stroke: #000000; stroke-width: 0.8"/>
      </g>
     </g>
     <g id="text_6">
      <!-- 250 -->
      <g transform="translate(190.379691 112.472448) scale(0.06 -0.06)">
       <use xlink:href="#DejaVuSans-32"/>
       <use xlink:href="#DejaVuSans-35" x="63.623047"/>
       <use xlink:href="#DejaVuSans-30" x="127.246094"/>
      </g>
     </g>
    </g>
    <g id="text_7">
     <!-- Time (h) -->
     <g transform="translate(101.595394 123.039167) scale(0.07 -0.07)">
      <defs>
       <path id="DejaVuSans-54" d="M -19 4666 
L 3928 4666 
L 3928 4134 
L 2272 4134 
L 2272 0 
L 1638 0 
L 1638 4134 
L -19 4134 
L -19 4666 
z
" transform="scale(0.015625)"/>
       <path id="DejaVuSans-69" d="M 603 3500 
L 1178 3500 
L 1178 0 
L 603 0 
L 603 3500 
z
M 603 4863 
L 1178 4863 
L 1178 4134 
L 603 4134 
L 603 4863 
z
" transform="scale(0.015625)"/>
       <path id="DejaVuSans-6d" d="M 3328 2828 
Q 3544 3216 3844 3400 
Q 4144 3584 4550 3584 
Q 5097 3584 5394 3201 
Q 5691 2819 5691 2113 
L 5691 0 
L 5113 0 
L 5113 2094 
Q 5113 2597 4934 2840 
Q 4756 3084 4391 3084 
Q 3944 3084 3684 2787 
Q 3425 2491 3425 1978 
L 3425 0 
L 2847 0 
L 2847 2094 
Q 2847 2600 2669 2842 
Q 2491 3084 2119 3084 
Q 1678 3084 1418 2786 
Q 1159 2488 1159 1978 
L 1159 0 
L 581 0 
L 581 3500 
L 1159 3500 
L 1159 2956 
Q 1356 3278 1631 3431 
Q 1906 3584 2284 3584 
Q 2666 3584 2933 3390 
Q 3200 3197 3328 2828 
z
" transform="scale(0.015625)"/>
       <path id="DejaVuSans-65" d="M 3597 1894 
L 3597 1613 
L 953 1613 
Q 991 1019 1311 708 
Q 1631 397 2203 397 
Q 2534 397 2845 478 
Q 3156 559 3463 722 
L 3463 178 
Q 3153 47 2828 -22 
Q 2503 -91 2169 -91 
Q 1331 -91 842 396 
Q 353 884 353 1716 
Q 353 2575 817 3079 
Q 1281 3584 2069 3584 
Q 2775 3584 3186 3129 
Q 3597 2675 3597 1894 
z
M 3022 2063 
Q 3016 2534 2758 2815 
Q 2500 3097 2075 3097 
Q 1594 3097 1305 2825 
Q 1016 2553 972 2059 
L 3022 2063 
z
" transform="scale(0.015625)"/>
       <path id="DejaVuSans-20" transform="scale(0.015625)"/>
       <path id="DejaVuSans-28" d="M 1984 4856 
Q 1566 4138 1362 3434 
Q 1159 2731 1159 2009 
Q 1159 1288 1364 580 
Q 1569 -128 1984 -844 
L 1484 -844 
Q 1016 -109 783 600 
Q 550 1309 550 2009 
Q 550 2706 781 3412 
Q 1013 4119 1484 4856 
L 1984 4856 
z
" transform="scale(0.015625)"/>
       <path id="DejaVuSans-68" d="M 3513 2113 
L 3513 0 
L 2938 0 
L 2938 2094 
Q 2938 2591 2744 2837 
Q 2550 3084 2163 3084 
Q 1697 3084 1428 2787 
Q 1159 2491 1159 1978 
L 1159 0 
L 581 0 
L 581 4863 
L 1159 4863 
L 1159 2956 
Q 1366 3272 1645 3428 
Q 1925 3584 2291 3584 
Q 2894 3584 3203 3211 
Q 3513 2838 3513 2113 
z
" transform="scale(0.015625)"/>
       <path id="DejaVuSans-29" d="M 513 4856 
L 1013 4856 
Q 1481 4119 1714 3412 
Q 1947 2706 1947 2009 
Q 1947 1309 1714 600 
Q 1481 -109 1013 -844 
L 513 -844 
Q 928 -128 1133 580 
Q 1338 1288 1338 2009 
Q 1338 2731 1133 3434 
Q 928 4138 513 4856 
z
" transform="scale(0.015625)"/>
      </defs>
      <use xlink:href="#DejaVuSans-54"/>
      <use xlink:href="#DejaVuSans-69" x="57.958984"/>
      <use xlink:href="#DejaVuSans-6d" x="85.742188"/>
      <use xlink:href="#DejaVuSans-65" x="183.154297"/>
      <use xlink:href="#DejaVuSans-20" x="244.677734"/>
      <use xlink:href="#DejaVuSans-28" x="276.464844"/>
      <use xlink:href="#DejaVuSans-68" x="315.478516"/>
      <use xlink:href="#DejaVuSans-29" x="378.857422"/>
     </g>
    </g>
   </g>
   <g id="matplotlib.axis_2">
    <g id="ytick_1">
     <g id="line2d_7">
      <defs>
       <path id="m678cdfd46f" d="M 0 0 
L -3.5 0 
" style="stroke: #000000; stroke-width: 0.8"/>
      </defs>
      <g>
       <use xlink:href="#m678cdfd46f" x="28.346457" y="98.225551" style="stroke: #000000; stroke-width: 0.8"/>
      </g>
     </g>
     <g id="text_8">
      <!-- $\mathdefault{10^{-8}}$ -->
      <g transform="translate(7.246457 100.505083) scale(0.06 -0.06)">
       <defs>
        <path id="DejaVuSans-2212" d="M 678 2272 
L 4684 2272 
L 4684 1741 
L 678 1741 
L 678 2272 
z
" transform="scale(0.015625)"/>
        <path id="DejaVuSans-38" d="M 2034 2216 
Q 1584 2216 1326 1975 
Q 1069 1734 1069 1313 
Q 1069 891 1326 650 
Q 1584 409 2034 409 
Q 2484 409 2743 651 
Q 3003 894 3003 1313 
Q 3003 1734 2745 1975 
Q 2488 2216 2034 2216 
z
M 1403 2484 
Q 997 2584 770 2862 
Q 544 3141 544 3541 
Q 544 4100 942 4425 
Q 1341 4750 2034 4750 
Q 2731 4750 3128 4425 
Q 3525 4100 3525 3541 
Q 3525 3141 3298 2862 
Q 3072 2584 2669 2484 
Q 3125 2378 3379 2068 
Q 3634 1759 3634 1313 
Q 3634 634 3220 271 
Q 2806 -91 2034 -91 
Q 1263 -91 848 271 
Q 434 634 434 1313 
Q 434 1759 690 2068 
Q 947 2378 1403 2484 
z
M 1172 3481 
Q 1172 3119 1398 2916 
Q 1625 2713 2034 2713 
Q 2441 2713 2670 2916 
Q 2900 3119 2900 3481 
Q 2900 3844 2670 4047 
Q 2441 4250 2034 4250 
Q 1625 4250 1398 4047 
Q 1172 3844 1172 3481 
z
" transform="scale(0.015625)"/>
       </defs>
       <use xlink:href="#DejaVuSans-31" transform="translate(0 0.765625)"/>
       <use xlink:href="#DejaVuSans-30" transform="translate(63.623047 0.765625)"/>
       <use xlink:href="#DejaVuSans-2212" transform="translate(128.203125 39.046875) scale(0.7)"/>
       <use xlink:href="#DejaVuSans-38" transform="translate(186.855469 39.046875) scale(0.7)"/>
      </g>
     </g>
    </g>
    <g id="ytick_2">
     <g id="line2d_8">
      <g>
       <use xlink:href="#m678cdfd46f" x="28.346457" y="71.439173" style="stroke: #000000; stroke-width: 0.8"/>
      </g>
     </g>
     <g id="text_9">
      <!-- $\mathdefault{10^{-5}}$ -->
      <g transform="translate(7.246457 73.718704) scale(0.06 -0.06)">
       <use xlink:href="#DejaVuSans-31" transform="translate(0 0.684375)"/>
       <use xlink:href="#DejaVuSans-30" transform="translate(63.623047 0.684375)"/>
       <use xlink:href="#DejaVuSans-2212" transform="translate(128.203125 38.965625) scale(0.7)"/>
       <use xlink:href="#DejaVuSans-35" transform="translate(186.855469 38.965625) scale(0.7)"/>
      </g>
     </g>
    </g>
    <g id="ytick_3">
     <g id="line2d_9">
      <g>
       <use xlink:href="#m678cdfd46f" x="28.346457" y="44.652794" style="stroke: #000000; stroke-width: 0.8"/>
      </g>
     </g>
     <g id="text_10">
      <!-- $\mathdefault{10^{-2}}$ -->
      <g transform="translate(7.246457 46.932326) scale(0.06 -0.06)">
       <use xlink:href="#DejaVuSans-31" transform="translate(0 0.765625)"/>
       <use xlink:href="#DejaVuSans-30" transform="translate(63.623047 0.765625)"/>
       <use xlink:href="#DejaVuSans-2212" transform="translate(128.203125 39.046875) scale(0.7)"/>
       <use xlink:href="#DejaVuSans-32" transform="translate(186.855469 39.046875) scale(0.7)"/>
      </g>
     </g>
    </g>
    <g id="ytick_4">
     <g id="line2d_10">
      <g>
       <use xlink:href="#m678cdfd46f" x="28.346457" y="17.866416" style="stroke: #000000; stroke-width: 0.8"/>
      </g>
     </g>
     <g id="text_11">
      <!-- $\mathdefault{10^{1}}$ -->
      <g transform="translate(10.786457 20.145947) scale(0.06 -0.06)">
       <use xlink:href="#DejaVuSans-31" transform="translate(0 0.684375)"/>
       <use xlink:href="#DejaVuSans-30" transform="translate(63.623047 0.684375)"/>
       <use xlink:href="#DejaVuSans-31" transform="translate(128.203125 38.965625) scale(0.7)"/>
      </g>
     </g>
    </g>
    <g id="text_12">
     <!-- Logratio error -->
     <g transform="translate(1.790675 81.165936) rotate(-90) scale(0.07 -0.07)">
      <defs>
       <path id="DejaVuSans-4c" d="M 628 4666 
L 1259 4666 
L 1259 531 
L 3531 531 
L 3531 0 
L 628 0 
L 628 4666 
z
" transform="scale(0.015625)"/>
       <path id="DejaVuSans-6f" d="M 1959 3097 
Q 1497 3097 1228 2736 
Q 959 2375 959 1747 
Q 959 1119 1226 758 
Q 1494 397 1959 397 
Q 2419 397 2687 759 
Q 2956 1122 2956 1747 
Q 2956 2369 2687 2733 
Q 2419 3097 1959 3097 
z
M 1959 3584 
Q 2709 3584 3137 3096 
Q 3566 2609 3566 1747 
Q 3566 888 3137 398 
Q 2709 -91 1959 -91 
Q 1206 -91 779 398 
Q 353 888 353 1747 
Q 353 2609 779 3096 
Q 1206 3584 1959 3584 
z
" transform="scale(0.015625)"/>
       <path id="DejaVuSans-67" d="M 2906 1791 
Q 2906 2416 2648 2759 
Q 2391 3103 1925 3103 
Q 1463 3103 1205 2759 
Q 947 2416 947 1791 
Q 947 1169 1205 825 
Q 1463 481 1925 481 
Q 2391 481 2648 825 
Q 2906 1169 2906 1791 
z
M 3481 434 
Q 3481 -459 3084 -895 
Q 2688 -1331 1869 -1331 
Q 1566 -1331 1297 -1286 
Q 1028 -1241 775 -1147 
L 775 -588 
Q 1028 -725 1275 -790 
Q 1522 -856 1778 -856 
Q 2344 -856 2625 -561 
Q 2906 -266 2906 331 
L 2906 616 
Q 2728 306 2450 153 
Q 2172 0 1784 0 
Q 1141 0 747 490 
Q 353 981 353 1791 
Q 353 2603 747 3093 
Q 1141 3584 1784 3584 
Q 2172 3584 2450 3431 
Q 2728 3278 2906 2969 
L 2906 3500 
L 3481 3500 
L 3481 434 
z
" transform="scale(0.015625)"/>
       <path id="DejaVuSans-72" d="M 2631 2963 
Q 2534 3019 2420 3045 
Q 2306 3072 2169 3072 
Q 1681 3072 1420 2755 
Q 1159 2438 1159 1844 
L 1159 0 
L 581 0 
L 581 3500 
L 1159 3500 
L 1159 2956 
Q 1341 3275 1631 3429 
Q 1922 3584 2338 3584 
Q 2397 3584 2469 3576 
Q 2541 3569 2628 3553 
L 2631 2963 
z
" transform="scale(0.015625)"/>
       <path id="DejaVuSans-61" d="M 2194 1759 
Q 1497 1759 1228 1600 
Q 959 1441 959 1056 
Q 959 750 1161 570 
Q 1363 391 1709 391 
Q 2188 391 2477 730 
Q 2766 1069 2766 1631 
L 2766 1759 
L 2194 1759 
z
M 3341 1997 
L 3341 0 
L 2766 0 
L 2766 531 
Q 2569 213 2275 61 
Q 1981 -91 1556 -91 
Q 1019 -91 701 211 
Q 384 513 384 1019 
Q 384 1609 779 1909 
Q 1175 2209 1959 2209 
L 2766 2209 
L 2766 2266 
Q 2766 2663 2505 2880 
Q 2244 3097 1772 3097 
Q 1472 3097 1187 3025 
Q 903 2953 641 2809 
L 641 3341 
Q 956 3463 1253 3523 
Q 1550 3584 1831 3584 
Q 2591 3584 2966 3190 
Q 3341 2797 3341 1997 
z
" transform="scale(0.015625)"/>
       <path id="DejaVuSans-74" d="M 1172 4494 
L 1172 3500 
L 2356 3500 
L 2356 3053 
L 1172 3053 
L 1172 1153 
Q 1172 725 1289 603 
Q 1406 481 1766 481 
L 2356 481 
L 2356 0 
L 1766 0 
Q 1100 0 847 248 
Q 594 497 594 1153 
L 594 3053 
L 172 3053 
L 172 3500 
L 594 3500 
L 594 4494 
L 1172 4494 
z
" transform="scale(0.015625)"/>
      </defs>
      <use xlink:href="#DejaVuSans-4c"/>
      <use xlink:href="#DejaVuSans-6f" x="53.962891"/>
      <use xlink:href="#DejaVuSans-67" x="115.144531"/>
      <use xlink:href="#DejaVuSans-72" x="178.621094"/>
      <use xlink:href="#DejaVuSans-61" x="219.734375"/>
      <use xlink:href="#DejaVuSans-74" x="281.013672"/>
      <use xlink:href="#DejaVuSans-69" x="320.222656"/>
      <use xlink:href="#DejaVuSans-6f" x="348.005859"/>
      <use xlink:href="#DejaVuSans-20" x="409.1875"/>
      <use xlink:href="#DejaVuSans-65" x="440.974609"/>
      <use xlink:href="#DejaVuSans-72" x="502.498047"/>
      <use xlink:href="#DejaVuSans-72" x="541.861328"/>
      <use xlink:href="#DejaVuSans-6f" x="580.724609"/>
      <use xlink:href="#DejaVuSans-72" x="641.90625"/>
     </g>
    </g>
   </g>
   <g id="line2d_11">
    <path d="M 36.341362 114.385827 
L 36.450039 58.689731 
L 36.69289 54.353419 
L 37.050777 51.760073 
L 37.517309 49.935303 
L 38.098875 48.532257 
L 38.801867 47.406268 
L 39.651848 46.463003 
L 40.687164 45.649445 
L 41.971722 44.929468 
L 43.601386 44.280106 
L 45.735926 43.680411 
L 48.720447 43.089035 
L 58.044679 41.395555 
L 59.482617 40.818856 
L 60.556278 40.1539 
L 60.850256 40.06531 
L 62.070906 40.295676 
L 62.748335 40.636657 
L 63.221257 41.120717 
L 63.598316 41.837173 
L 63.911467 42.937057 
L 64.167101 44.704424 
L 64.352435 47.638717 
L 64.461079 53.400777 
L 64.493034 63.14869 
L 64.550551 50.49138 
L 64.755058 44.329195 
L 65.100163 40.432745 
L 65.592258 37.322404 
L 66.148261 35.131307 
L 66.672309 33.887684 
L 67.158013 33.257756 
L 67.643717 32.975001 
L 68.193329 32.917153 
L 68.941057 33.081727 
L 70.174488 33.612493 
L 72.008659 34.639481 
L 73.523287 35.753739 
L 75.120996 37.202722 
L 76.488636 38.737412 
L 77.581469 40.294682 
L 78.437841 41.902051 
L 79.102488 43.62557 
L 79.613755 45.584118 
L 79.990815 47.939786 
L 80.252839 51.081407 
L 80.406219 55.875766 
L 80.463737 64.907159 
L 80.470127 79.188955 
L 80.56599 54.331406 
L 80.79606 49.653228 
L 81.141165 46.947614 
L 81.594915 45.067158 
L 82.163699 43.63174 
L 82.85391 42.487225 
L 83.678328 41.547717 
L 84.681689 40.744795 
L 85.915121 40.049656 
L 87.455313 39.44499 
L 89.423691 38.920573 
L 92.005589 38.473778 
L 95.533331 38.102478 
L 100.690737 37.8009 
L 101.17005 37.670153 
L 102.595207 37.058118 
L 104.21848 36.598403 
L 106.519181 36.142423 
L 109.618737 35.767864 
L 114.047588 35.472945 
L 121.326752 35.237809 
L 132.389291 34.872399 
L 133.955047 34.838598 
L 135.009535 35.104151 
L 135.635837 35.480295 
L 136.089586 36.011782 
L 136.460255 36.809774 
L 136.767015 38.042494 
L 137.009867 40.007839 
L 137.182419 43.402625 
L 137.271891 50.283707 
L 137.291064 58.888689 
L 137.361363 44.572402 
L 137.578651 38.761784 
L 137.942929 34.912829 
L 138.454196 31.825619 
L 139.022981 29.649092 
L 139.559811 28.393051 
L 140.051906 27.758774 
L 140.531218 27.48394 
L 141.061658 27.439278 
L 141.758259 27.620644 
L 142.844702 28.160272 
L 144.653309 29.328163 
L 146.717549 30.925272 
L 148.622019 32.669676 
L 150.123865 34.338498 
L 151.286998 35.957788 
L 152.188106 37.590777 
L 152.884707 39.313667 
L 153.421538 41.247147 
L 153.81777 43.52696 
L 154.092576 46.433755 
L 154.265128 50.821466 
L 154.335427 57.929314 
L 154.348209 69.47007 
L 154.424899 51.245708 
L 154.642188 46.072845 
L 154.974511 43.231818 
L 155.415479 41.290079 
L 155.965091 39.834657 
L 156.636129 38.675731 
L 157.441374 37.726878 
L 158.412782 36.927501 
L 159.607868 36.237902 
L 161.103324 35.640528 
L 163.007794 35.128839 
L 165.506611 34.699152 
L 168.906537 34.353707 
L 173.495158 34.105561 
L 173.610193 34.094747 
L 175.981194 33.656353 
L 179.036014 33.324683 
L 183.560727 33.052704 
L 190.878236 32.860249 
L 196.105941 32.790038 
L 196.105941 32.790038 
" clip-path="url(#pa9982fbf63)" style="fill: none; stroke: #2065ab; stroke-linecap: square"/>
   </g>
   <g id="line2d_12">
    <path d="M 36.34139 114.385827 
L 36.450039 85.37145 
L 36.69289 76.514872 
L 37.057168 70.988065 
L 37.542872 66.887956 
L 38.156392 63.559885 
L 38.90412 60.714946 
L 39.798838 58.180044 
L 40.859717 55.842554 
L 42.112321 53.623085 
L 43.594995 51.452243 
L 45.365257 49.260591 
L 47.506188 46.971913 
L 50.164776 44.466337 
L 53.7053 41.453475 
L 61.7961 34.67847 
L 63.208475 33.616759 
L 64.090411 33.20024 
L 64.665586 33.154325 
L 65.106554 33.33614 
L 65.515568 33.75716 
L 65.943754 34.544822 
L 66.416676 35.918126 
L 66.940724 38.170971 
L 67.426428 41.266215 
L 67.765142 44.856367 
L 67.963258 49.378288 
L 68.05273 57.089798 
L 68.065512 64.576266 
L 68.142202 51.042644 
L 68.353099 46.244101 
L 68.65986 43.986961 
L 69.036919 42.737873 
L 69.484278 41.985376 
L 70.021108 41.51073 
L 70.730491 41.192221 
L 71.439874 40.859882 
L 72.072567 40.288859 
L 72.896985 39.855569 
L 74.066508 39.509265 
L 75.907069 39.218822 
L 79.300604 38.941003 
L 93.622471 37.934405 
L 97.699825 37.351438 
L 101.617409 36.556588 
L 104.307951 35.993658 
L 109.427012 36.244076 
L 112.756639 36.617446 
L 115.121248 37.095768 
L 116.88512 37.670707 
L 118.233586 38.336075 
L 119.294465 39.10194 
L 120.144447 39.988304 
L 120.834657 41.033577 
L 121.39066 42.284301 
L 121.838019 43.849748 
L 122.183124 45.88964 
L 122.432366 48.772759 
L 122.585747 53.45966 
L 122.643264 62.237366 
L 122.649655 74.969559 
L 122.745518 51.862392 
L 122.975588 47.037242 
L 123.333475 44.048531 
L 123.819178 41.810849 
L 124.451871 39.927465 
L 125.257117 38.22759 
L 126.27326 36.60597 
L 127.564209 34.972432 
L 129.225827 33.239079 
L 131.443447 31.262232 
L 134.332106 28.988185 
L 136.019287 27.892191 
L 136.945958 27.524853 
L 137.540306 27.511195 
L 138.000447 27.721663 
L 138.422242 28.171178 
L 138.86321 28.994493 
L 139.342523 30.402315 
L 139.85379 32.644666 
L 140.31393 35.702361 
L 140.633472 39.359496 
L 140.818806 44.268363 
L 140.889105 51.646621 
L 140.901887 71.892549 
L 140.978577 44.898141 
L 141.189475 40.177627 
L 141.496235 37.93726 
L 141.873294 36.700623 
L 142.314262 35.969645 
L 142.844702 35.510896 
L 143.547694 35.207519 
L 145.867568 34.644541 
L 148.219396 34.473377 
L 154.086185 34.326229 
L 167.820094 33.975248 
L 173.297042 33.605916 
L 177.655593 33.311853 
L 182.7427 33.588288 
L 186.046763 33.978025 
L 188.398591 34.468485 
L 190.156072 35.053619 
L 191.504538 35.730455 
L 192.559026 36.502928 
L 193.402617 37.393172 
L 194.086437 38.438225 
L 194.64244 39.699022 
L 195.089798 41.280014 
L 195.434903 43.349598 
L 195.684146 46.310459 
L 195.831135 50.94577 
L 195.888653 60.580838 
L 195.895044 66.31026 
L 195.984515 49.469868 
L 196.105941 46.136628 
L 196.105941 46.136628 
" clip-path="url(#pa9982fbf63)" style="fill: none; stroke: #b1182b; stroke-linecap: square"/>
   </g>
   <g id="line2d_13">
    <path d="M 36.341364 114.385827 
L 36.450039 61.373584 
L 36.69289 57.028494 
L 37.050777 54.421256 
L 37.523699 52.557025 
L 38.111656 51.120193 
L 38.833821 49.936973 
L 39.715757 48.919505 
L 40.821372 47.990358 
L 42.25931 47.083986 
L 44.304378 46.077174 
L 49.551256 43.850054 
L 53.142906 42.153952 
L 56.178554 40.476295 
L 58.66459 38.858176 
L 60.454024 37.441532 
L 61.169798 36.952156 
L 62.805853 35.952578 
L 63.668616 35.656097 
L 64.211837 35.687762 
L 64.652805 35.715759 
L 65.566694 35.232876 
L 66.29525 35.091015 
L 67.023805 35.182477 
L 67.950477 35.542465 
L 68.199719 35.543642 
L 68.749331 35.464561 
L 69.522623 35.598594 
L 70.87748 36.093478 
L 74.226279 37.609117 
L 77.166064 39.364692 
L 80.636289 41.427917 
L 81.78664 40.685351 
L 83.224578 40.030215 
L 85.058749 39.448484 
L 87.493658 38.921357 
L 91.015009 38.404924 
L 101.604627 36.98319 
L 103.886156 36.317454 
L 107.203001 36.072074 
L 111.152538 36.005829 
L 114.929523 36.156764 
L 117.907654 36.487137 
L 120.144447 36.948786 
L 121.844409 37.518334 
L 122.809426 37.804992 
L 130.018291 33.558249 
L 135.674182 30.241799 
L 136.549727 30.008474 
L 137.092948 30.075934 
L 137.431662 30.085867 
L 138.403069 29.631427 
L 139.144407 29.520443 
L 139.866571 29.641044 
L 140.742116 30.028294 
L 141.023313 30.057771 
L 141.528189 29.96134 
L 142.212009 30.075544 
L 143.311233 30.513833 
L 145.816441 31.81539 
L 150.07913 34.345899 
L 154.488807 36.91779 
L 155.741412 36.246367 
L 157.319948 35.660864 
L 159.352235 35.154304 
L 162.068341 34.718879 
L 165.985924 34.334041 
L 180.480344 33.322871 
L 185.196782 33.398559 
L 188.992939 33.669427 
L 191.766563 34.079112 
L 193.818021 34.596704 
L 195.377386 35.210585 
L 196.02286 35.404548 
L 196.105941 35.35571 
L 196.105941 35.35571 
" clip-path="url(#pa9982fbf63)" style="fill: none; stroke: #000000; stroke-linecap: square"/>
   </g>
   <g id="line2d_14">
    <path d="M 60.754394 100.913386 
L 60.754394 13.606299 
" clip-path="url(#pa9982fbf63)" style="fill: none; stroke-dasharray: 1,1.65; stroke-dashoffset: 0; stroke: #000000"/>
   </g>
   <g id="line2d_15">
    <path d="M 71.248149 100.913386 
L 71.248149 13.606299 
" clip-path="url(#pa9982fbf63)" style="fill: none; stroke-dasharray: 1,1.65; stroke-dashoffset: 0; stroke: #000000"/>
   </g>
   <g id="line2d_16">
    <path d="M 100.850508 100.913386 
L 100.850508 13.606299 
" clip-path="url(#pa9982fbf63)" style="fill: none; stroke-dasharray: 1,1.65; stroke-dashoffset: 0; stroke: #000000"/>
   </g>
   <g id="line2d_17">
    <path d="M 103.758339 100.913386 
L 103.758339 13.606299 
" clip-path="url(#pa9982fbf63)" style="fill: none; stroke-dasharray: 1,1.65; stroke-dashoffset: 0; stroke: #000000"/>
   </g>
   <g id="line2d_18">
    <path d="M 133.360699 100.913386 
L 133.360699 13.606299 
" clip-path="url(#pa9982fbf63)" style="fill: none; stroke-dasharray: 1,1.65; stroke-dashoffset: 0; stroke: #000000"/>
   </g>
   <g id="line2d_19">
    <path d="M 143.854454 100.913386 
L 143.854454 13.606299 
" clip-path="url(#pa9982fbf63)" style="fill: none; stroke-dasharray: 1,1.65; stroke-dashoffset: 0; stroke: #000000"/>
   </g>
   <g id="line2d_20">
    <path d="M 173.456813 100.913386 
L 173.456813 13.606299 
" clip-path="url(#pa9982fbf63)" style="fill: none; stroke-dasharray: 1,1.65; stroke-dashoffset: 0; stroke: #000000"/>
   </g>
   <g id="line2d_21">
    <path d="M 176.364644 100.913386 
L 176.364644 13.606299 
" clip-path="url(#pa9982fbf63)" style="fill: none; stroke-dasharray: 1,1.65; stroke-dashoffset: 0; stroke: #000000"/>
   </g>
   <g id="line2d_22">
    <path d="M 196.105941 100.913386 
L 196.105941 13.606299 
" clip-path="url(#pa9982fbf63)" style="fill: none; stroke-dasharray: 1,1.65; stroke-dashoffset: 0; stroke: #000000"/>
   </g>
   <g id="patch_3">
    <path d="M 28.346457 100.913386 
L 28.346457 13.606299 
" style="fill: none; stroke: #000000; stroke-width: 0.8; stroke-linejoin: miter; stroke-linecap: square"/>
   </g>
   <g id="patch_4">
    <path d="M 204.094488 100.913386 
L 204.094488 13.606299 
" style="fill: none; stroke: #000000; stroke-width: 0.8; stroke-linejoin: miter; stroke-linecap: square"/>
   </g>
   <g id="patch_5">
    <path d="M 28.346457 100.913386 
L 204.094488 100.913386 
" style="fill: none; stroke: #000000; stroke-width: 0.8; stroke-linejoin: miter; stroke-linecap: square"/>
   </g>
   <g id="patch_6">
    <path d="M 28.346457 13.606299 
L 204.094488 13.606299 
" style="fill: none; stroke: #000000; stroke-width: 0.8; stroke-linejoin: miter; stroke-linecap: square"/>
   </g>
  </g>
 </g>
 <defs>
  <clipPath id="pa9982fbf63">
   <rect x="28.346457" y="13.606299" width="175.748031" height="87.307087"/>
  </clipPath>
 </defs>
</svg>
