<?xml version="1.0" encoding="utf-8" standalone="no"?>
<!DOCTYPE svg PUBLIC "-//W3C//DTD SVG 1.1//EN"
  "http://www.w3.org/Graphics/SVG/1.1/DTD/svg11.dtd">
<!-- Created with matplotlib (https://matplotlib.org/) -->
<svg height="113.385827pt" version="1.1" viewBox="0 0 226.771654 113.385827" width="226.771654pt" xmlns="http://www.w3.org/2000/svg" xmlns:xlink="http://www.w3.org/1999/xlink">
 <metadata>
  <rdf:RDF xmlns:cc="http://creativecommons.org/ns#" xmlns:dc="http://purl.org/dc/elements/1.1/" xmlns:rdf="http://www.w3.org/1999/02/22-rdf-syntax-ns#">
   <cc:Work>
    <dc:type rdf:resource="http://purl.org/dc/dcmitype/StillImage"/>
    <dc:date>2024-04-17T22:17:57.389257</dc:date>
    <dc:format>image/svg+xml</dc:format>
    <dc:creator>
     <cc:Agent>
      <dc:title>Matplotlib v3.3.4, https://matplotlib.org/</dc:title>
     </cc:Agent>
    </dc:creator>
   </cc:Work>
  </rdf:RDF>
 </metadata>
 <defs>
  <style type="text/css">*{stroke-linecap:butt;stroke-linejoin:round;}</style>
 </defs>
 <g id="figure_1">
  <g id="patch_1">
   <path d="M 0 113.385827 
L 226.771654 113.385827 
L 226.771654 0 
L 0 0 
z
" style="fill:#ffffff;"/>
  </g>
  <g id="axes_1">
   <g id="patch_2">
    <path d="M 22.677165 104.314961 
L 114.465692 104.314961 
L 114.465692 3.401575 
L 22.677165 3.401575 
z
" style="fill:#ffffff;"/>
   </g>
   <g id="PathCollection_1">
    <defs>
     <path d="M 0 3 
C 0.795609 3 1.55874 2.683901 2.12132 2.12132 
C 2.683901 1.55874 3 0.795609 3 0 
C 3 -0.795609 2.683901 -1.55874 2.12132 -2.12132 
C 1.55874 -2.683901 0.795609 -3 0 -3 
C -0.795609 -3 -1.55874 -2.683901 -2.12132 -2.12132 
C -2.683901 -1.55874 -3 -0.795609 -3 0 
C -3 0.795609 -2.683901 1.55874 -2.12132 2.12132 
C -1.55874 2.683901 -0.795609 3 0 3 
z
" id="m16b84276f8" style="stroke:#808080;"/>
    </defs>
    <g clip-path="url(#pcac339e11a)">
     <use style="fill:#808080;stroke:#808080;" x="42.055602" xlink:href="#m16b84276f8" y="66.950095"/>
    </g>
   </g>
   <g id="PathCollection_2">
    <g clip-path="url(#pcac339e11a)">
     <use style="fill:#808080;stroke:#808080;" x="32.121209" xlink:href="#m16b84276f8" y="50.116885"/>
    </g>
   </g>
   <g id="matplotlib.axis_1">
    <g id="xtick_1">
     <g id="line2d_1">
      <defs>
       <path d="M 0 0 
L 0 3.5 
" id="m76f9830d84" style="stroke:#000000;stroke-width:0.8;"/>
      </defs>
      <g>
       <use style="stroke:#000000;stroke-width:0.8;" x="47.350967" xlink:href="#m76f9830d84" y="104.314961"/>
      </g>
     </g>
     <g id="text_1">
      <!-- $\mathdefault{10^{5}}$ -->
      <g transform="translate(42.070967 115.874023)scale(0.06 -0.06)">
       <defs>
        <path d="M 12.40625 8.296875 
L 28.515625 8.296875 
L 28.515625 63.921875 
L 10.984375 60.40625 
L 10.984375 69.390625 
L 28.421875 72.90625 
L 38.28125 72.90625 
L 38.28125 8.296875 
L 54.390625 8.296875 
L 54.390625 0 
L 12.40625 0 
z
" id="DejaVuSans-49"/>
        <path d="M 31.78125 66.40625 
Q 24.171875 66.40625 20.328125 58.90625 
Q 16.5 51.421875 16.5 36.375 
Q 16.5 21.390625 20.328125 13.890625 
Q 24.171875 6.390625 31.78125 6.390625 
Q 39.453125 6.390625 43.28125 13.890625 
Q 47.125 21.390625 47.125 36.375 
Q 47.125 51.421875 43.28125 58.90625 
Q 39.453125 66.40625 31.78125 66.40625 
z
M 31.78125 74.21875 
Q 44.046875 74.21875 50.515625 64.515625 
Q 56.984375 54.828125 56.984375 36.375 
Q 56.984375 17.96875 50.515625 8.265625 
Q 44.046875 -1.421875 31.78125 -1.421875 
Q 19.53125 -1.421875 13.0625 8.265625 
Q 6.59375 17.96875 6.59375 36.375 
Q 6.59375 54.828125 13.0625 64.515625 
Q 19.53125 74.21875 31.78125 74.21875 
z
" id="DejaVuSans-48"/>
        <path d="M 10.796875 72.90625 
L 49.515625 72.90625 
L 49.515625 64.59375 
L 19.828125 64.59375 
L 19.828125 46.734375 
Q 21.96875 47.46875 24.109375 47.828125 
Q 26.265625 48.1875 28.421875 48.1875 
Q 40.625 48.1875 47.75 41.5 
Q 54.890625 34.8125 54.890625 23.390625 
Q 54.890625 11.625 47.5625 5.09375 
Q 40.234375 -1.421875 26.90625 -1.421875 
Q 22.3125 -1.421875 17.546875 -0.640625 
Q 12.796875 0.140625 7.71875 1.703125 
L 7.71875 11.625 
Q 12.109375 9.234375 16.796875 8.0625 
Q 21.484375 6.890625 26.703125 6.890625 
Q 35.15625 6.890625 40.078125 11.328125 
Q 45.015625 15.765625 45.015625 23.390625 
Q 45.015625 31 40.078125 35.4375 
Q 35.15625 39.890625 26.703125 39.890625 
Q 22.75 39.890625 18.8125 39.015625 
Q 14.890625 38.140625 10.796875 36.28125 
z
" id="DejaVuSans-53"/>
       </defs>
       <use transform="translate(0 0.684375)" xlink:href="#DejaVuSans-49"/>
       <use transform="translate(63.623047 0.684375)" xlink:href="#DejaVuSans-48"/>
       <use transform="translate(128.203125 38.965625)scale(0.7)" xlink:href="#DejaVuSans-53"/>
      </g>
     </g>
    </g>
    <g id="xtick_2">
     <g id="line2d_2">
      <g>
       <use style="stroke:#000000;stroke-width:0.8;" x="82.532613" xlink:href="#m76f9830d84" y="104.314961"/>
      </g>
     </g>
     <g id="text_2">
      <!-- $\mathdefault{10^{7}}$ -->
      <g transform="translate(77.252613 115.874023)scale(0.06 -0.06)">
       <defs>
        <path d="M 8.203125 72.90625 
L 55.078125 72.90625 
L 55.078125 68.703125 
L 28.609375 0 
L 18.3125 0 
L 43.21875 64.59375 
L 8.203125 64.59375 
z
" id="DejaVuSans-55"/>
       </defs>
       <use transform="translate(0 0.684375)" xlink:href="#DejaVuSans-49"/>
       <use transform="translate(63.623047 0.684375)" xlink:href="#DejaVuSans-48"/>
       <use transform="translate(128.203125 38.965625)scale(0.7)" xlink:href="#DejaVuSans-55"/>
      </g>
     </g>
    </g>
    <g id="text_3">
     <!-- Predator concentration $\mathrm{(ml^{-1})}$ -->
     <g transform="translate(16.211429 126.946054)scale(0.07 -0.07)">
      <defs>
       <path d="M 19.671875 64.796875 
L 19.671875 37.40625 
L 32.078125 37.40625 
Q 38.96875 37.40625 42.71875 40.96875 
Q 46.484375 44.53125 46.484375 51.125 
Q 46.484375 57.671875 42.71875 61.234375 
Q 38.96875 64.796875 32.078125 64.796875 
z
M 9.8125 72.90625 
L 32.078125 72.90625 
Q 44.34375 72.90625 50.609375 67.359375 
Q 56.890625 61.8125 56.890625 51.125 
Q 56.890625 40.328125 50.609375 34.8125 
Q 44.34375 29.296875 32.078125 29.296875 
L 19.671875 29.296875 
L 19.671875 0 
L 9.8125 0 
z
" id="DejaVuSans-80"/>
       <path d="M 41.109375 46.296875 
Q 39.59375 47.171875 37.8125 47.578125 
Q 36.03125 48 33.890625 48 
Q 26.265625 48 22.1875 43.046875 
Q 18.109375 38.09375 18.109375 28.8125 
L 18.109375 0 
L 9.078125 0 
L 9.078125 54.6875 
L 18.109375 54.6875 
L 18.109375 46.1875 
Q 20.953125 51.171875 25.484375 53.578125 
Q 30.03125 56 36.53125 56 
Q 37.453125 56 38.578125 55.875 
Q 39.703125 55.765625 41.0625 55.515625 
z
" id="DejaVuSans-114"/>
       <path d="M 56.203125 29.59375 
L 56.203125 25.203125 
L 14.890625 25.203125 
Q 15.484375 15.921875 20.484375 11.0625 
Q 25.484375 6.203125 34.421875 6.203125 
Q 39.59375 6.203125 44.453125 7.46875 
Q 49.3125 8.734375 54.109375 11.28125 
L 54.109375 2.78125 
Q 49.265625 0.734375 44.1875 -0.34375 
Q 39.109375 -1.421875 33.890625 -1.421875 
Q 20.796875 -1.421875 13.15625 6.1875 
Q 5.515625 13.8125 5.515625 26.8125 
Q 5.515625 40.234375 12.765625 48.109375 
Q 20.015625 56 32.328125 56 
Q 43.359375 56 49.78125 48.890625 
Q 56.203125 41.796875 56.203125 29.59375 
z
M 47.21875 32.234375 
Q 47.125 39.59375 43.09375 43.984375 
Q 39.0625 48.390625 32.421875 48.390625 
Q 24.90625 48.390625 20.390625 44.140625 
Q 15.875 39.890625 15.1875 32.171875 
z
" id="DejaVuSans-101"/>
       <path d="M 45.40625 46.390625 
L 45.40625 75.984375 
L 54.390625 75.984375 
L 54.390625 0 
L 45.40625 0 
L 45.40625 8.203125 
Q 42.578125 3.328125 38.25 0.953125 
Q 33.9375 -1.421875 27.875 -1.421875 
Q 17.96875 -1.421875 11.734375 6.484375 
Q 5.515625 14.40625 5.515625 27.296875 
Q 5.515625 40.1875 11.734375 48.09375 
Q 17.96875 56 27.875 56 
Q 33.9375 56 38.25 53.625 
Q 42.578125 51.265625 45.40625 46.390625 
z
M 14.796875 27.296875 
Q 14.796875 17.390625 18.875 11.75 
Q 22.953125 6.109375 30.078125 6.109375 
Q 37.203125 6.109375 41.296875 11.75 
Q 45.40625 17.390625 45.40625 27.296875 
Q 45.40625 37.203125 41.296875 42.84375 
Q 37.203125 48.484375 30.078125 48.484375 
Q 22.953125 48.484375 18.875 42.84375 
Q 14.796875 37.203125 14.796875 27.296875 
z
" id="DejaVuSans-100"/>
       <path d="M 34.28125 27.484375 
Q 23.390625 27.484375 19.1875 25 
Q 14.984375 22.515625 14.984375 16.5 
Q 14.984375 11.71875 18.140625 8.90625 
Q 21.296875 6.109375 26.703125 6.109375 
Q 34.1875 6.109375 38.703125 11.40625 
Q 43.21875 16.703125 43.21875 25.484375 
L 43.21875 27.484375 
z
M 52.203125 31.203125 
L 52.203125 0 
L 43.21875 0 
L 43.21875 8.296875 
Q 40.140625 3.328125 35.546875 0.953125 
Q 30.953125 -1.421875 24.3125 -1.421875 
Q 15.921875 -1.421875 10.953125 3.296875 
Q 6 8.015625 6 15.921875 
Q 6 25.140625 12.171875 29.828125 
Q 18.359375 34.515625 30.609375 34.515625 
L 43.21875 34.515625 
L 43.21875 35.40625 
Q 43.21875 41.609375 39.140625 45 
Q 35.0625 48.390625 27.6875 48.390625 
Q 23 48.390625 18.546875 47.265625 
Q 14.109375 46.140625 10.015625 43.890625 
L 10.015625 52.203125 
Q 14.9375 54.109375 19.578125 55.046875 
Q 24.21875 56 28.609375 56 
Q 40.484375 56 46.34375 49.84375 
Q 52.203125 43.703125 52.203125 31.203125 
z
" id="DejaVuSans-97"/>
       <path d="M 18.3125 70.21875 
L 18.3125 54.6875 
L 36.8125 54.6875 
L 36.8125 47.703125 
L 18.3125 47.703125 
L 18.3125 18.015625 
Q 18.3125 11.328125 20.140625 9.421875 
Q 21.96875 7.515625 27.59375 7.515625 
L 36.8125 7.515625 
L 36.8125 0 
L 27.59375 0 
Q 17.1875 0 13.234375 3.875 
Q 9.28125 7.765625 9.28125 18.015625 
L 9.28125 47.703125 
L 2.6875 47.703125 
L 2.6875 54.6875 
L 9.28125 54.6875 
L 9.28125 70.21875 
z
" id="DejaVuSans-116"/>
       <path d="M 30.609375 48.390625 
Q 23.390625 48.390625 19.1875 42.75 
Q 14.984375 37.109375 14.984375 27.296875 
Q 14.984375 17.484375 19.15625 11.84375 
Q 23.34375 6.203125 30.609375 6.203125 
Q 37.796875 6.203125 41.984375 11.859375 
Q 46.1875 17.53125 46.1875 27.296875 
Q 46.1875 37.015625 41.984375 42.703125 
Q 37.796875 48.390625 30.609375 48.390625 
z
M 30.609375 56 
Q 42.328125 56 49.015625 48.375 
Q 55.71875 40.765625 55.71875 27.296875 
Q 55.71875 13.875 49.015625 6.21875 
Q 42.328125 -1.421875 30.609375 -1.421875 
Q 18.84375 -1.421875 12.171875 6.21875 
Q 5.515625 13.875 5.515625 27.296875 
Q 5.515625 40.765625 12.171875 48.375 
Q 18.84375 56 30.609375 56 
z
" id="DejaVuSans-111"/>
       <path id="DejaVuSans-32"/>
       <path d="M 48.78125 52.59375 
L 48.78125 44.1875 
Q 44.96875 46.296875 41.140625 47.34375 
Q 37.3125 48.390625 33.40625 48.390625 
Q 24.65625 48.390625 19.8125 42.84375 
Q 14.984375 37.3125 14.984375 27.296875 
Q 14.984375 17.28125 19.8125 11.734375 
Q 24.65625 6.203125 33.40625 6.203125 
Q 37.3125 6.203125 41.140625 7.25 
Q 44.96875 8.296875 48.78125 10.40625 
L 48.78125 2.09375 
Q 45.015625 0.34375 40.984375 -0.53125 
Q 36.96875 -1.421875 32.421875 -1.421875 
Q 20.0625 -1.421875 12.78125 6.34375 
Q 5.515625 14.109375 5.515625 27.296875 
Q 5.515625 40.671875 12.859375 48.328125 
Q 20.21875 56 33.015625 56 
Q 37.15625 56 41.109375 55.140625 
Q 45.0625 54.296875 48.78125 52.59375 
z
" id="DejaVuSans-99"/>
       <path d="M 54.890625 33.015625 
L 54.890625 0 
L 45.90625 0 
L 45.90625 32.71875 
Q 45.90625 40.484375 42.875 44.328125 
Q 39.84375 48.1875 33.796875 48.1875 
Q 26.515625 48.1875 22.3125 43.546875 
Q 18.109375 38.921875 18.109375 30.90625 
L 18.109375 0 
L 9.078125 0 
L 9.078125 54.6875 
L 18.109375 54.6875 
L 18.109375 46.1875 
Q 21.34375 51.125 25.703125 53.5625 
Q 30.078125 56 35.796875 56 
Q 45.21875 56 50.046875 50.171875 
Q 54.890625 44.34375 54.890625 33.015625 
z
" id="DejaVuSans-110"/>
       <path d="M 9.421875 54.6875 
L 18.40625 54.6875 
L 18.40625 0 
L 9.421875 0 
z
M 9.421875 75.984375 
L 18.40625 75.984375 
L 18.40625 64.59375 
L 9.421875 64.59375 
z
" id="DejaVuSans-105"/>
       <path d="M 31 75.875 
Q 24.46875 64.65625 21.28125 53.65625 
Q 18.109375 42.671875 18.109375 31.390625 
Q 18.109375 20.125 21.3125 9.0625 
Q 24.515625 -2 31 -13.1875 
L 23.1875 -13.1875 
Q 15.875 -1.703125 12.234375 9.375 
Q 8.59375 20.453125 8.59375 31.390625 
Q 8.59375 42.28125 12.203125 53.3125 
Q 15.828125 64.359375 23.1875 75.875 
z
" id="DejaVuSans-40"/>
       <path d="M 52 44.1875 
Q 55.375 50.25 60.0625 53.125 
Q 64.75 56 71.09375 56 
Q 79.640625 56 84.28125 50.015625 
Q 88.921875 44.046875 88.921875 33.015625 
L 88.921875 0 
L 79.890625 0 
L 79.890625 32.71875 
Q 79.890625 40.578125 77.09375 44.375 
Q 74.3125 48.1875 68.609375 48.1875 
Q 61.625 48.1875 57.5625 43.546875 
Q 53.515625 38.921875 53.515625 30.90625 
L 53.515625 0 
L 44.484375 0 
L 44.484375 32.71875 
Q 44.484375 40.625 41.703125 44.40625 
Q 38.921875 48.1875 33.109375 48.1875 
Q 26.21875 48.1875 22.15625 43.53125 
Q 18.109375 38.875 18.109375 30.90625 
L 18.109375 0 
L 9.078125 0 
L 9.078125 54.6875 
L 18.109375 54.6875 
L 18.109375 46.1875 
Q 21.1875 51.21875 25.484375 53.609375 
Q 29.78125 56 35.6875 56 
Q 41.65625 56 45.828125 52.96875 
Q 50 49.953125 52 44.1875 
z
" id="DejaVuSans-109"/>
       <path d="M 9.421875 75.984375 
L 18.40625 75.984375 
L 18.40625 0 
L 9.421875 0 
z
" id="DejaVuSans-108"/>
       <path d="M 10.59375 35.5 
L 73.1875 35.5 
L 73.1875 27.203125 
L 10.59375 27.203125 
z
" id="DejaVuSans-8722"/>
       <path d="M 8.015625 75.875 
L 15.828125 75.875 
Q 23.140625 64.359375 26.78125 53.3125 
Q 30.421875 42.28125 30.421875 31.390625 
Q 30.421875 20.453125 26.78125 9.375 
Q 23.140625 -1.703125 15.828125 -13.1875 
L 8.015625 -13.1875 
Q 14.5 -2 17.703125 9.0625 
Q 20.90625 20.125 20.90625 31.390625 
Q 20.90625 42.671875 17.703125 53.65625 
Q 14.5 64.65625 8.015625 75.875 
z
" id="DejaVuSans-41"/>
      </defs>
      <use transform="translate(0 0.684375)" xlink:href="#DejaVuSans-80"/>
      <use transform="translate(60.302734 0.684375)" xlink:href="#DejaVuSans-114"/>
      <use transform="translate(101.416016 0.684375)" xlink:href="#DejaVuSans-101"/>
      <use transform="translate(162.939453 0.684375)" xlink:href="#DejaVuSans-100"/>
      <use transform="translate(226.416016 0.684375)" xlink:href="#DejaVuSans-97"/>
      <use transform="translate(287.695312 0.684375)" xlink:href="#DejaVuSans-116"/>
      <use transform="translate(326.904297 0.684375)" xlink:href="#DejaVuSans-111"/>
      <use transform="translate(388.085938 0.684375)" xlink:href="#DejaVuSans-114"/>
      <use transform="translate(429.199219 0.684375)" xlink:href="#DejaVuSans-32"/>
      <use transform="translate(460.986328 0.684375)" xlink:href="#DejaVuSans-99"/>
      <use transform="translate(515.966797 0.684375)" xlink:href="#DejaVuSans-111"/>
      <use transform="translate(577.148438 0.684375)" xlink:href="#DejaVuSans-110"/>
      <use transform="translate(640.527344 0.684375)" xlink:href="#DejaVuSans-99"/>
      <use transform="translate(695.507812 0.684375)" xlink:href="#DejaVuSans-101"/>
      <use transform="translate(757.03125 0.684375)" xlink:href="#DejaVuSans-110"/>
      <use transform="translate(820.410156 0.684375)" xlink:href="#DejaVuSans-116"/>
      <use transform="translate(859.619141 0.684375)" xlink:href="#DejaVuSans-114"/>
      <use transform="translate(900.732422 0.684375)" xlink:href="#DejaVuSans-97"/>
      <use transform="translate(962.011719 0.684375)" xlink:href="#DejaVuSans-116"/>
      <use transform="translate(1001.220703 0.684375)" xlink:href="#DejaVuSans-105"/>
      <use transform="translate(1029.003906 0.684375)" xlink:href="#DejaVuSans-111"/>
      <use transform="translate(1090.185547 0.684375)" xlink:href="#DejaVuSans-110"/>
      <use transform="translate(1153.564453 0.684375)" xlink:href="#DejaVuSans-32"/>
      <use transform="translate(1185.351562 0.684375)" xlink:href="#DejaVuSans-40"/>
      <use transform="translate(1224.365234 0.684375)" xlink:href="#DejaVuSans-109"/>
      <use transform="translate(1321.777344 0.684375)" xlink:href="#DejaVuSans-108"/>
      <use transform="translate(1350.517578 38.965625)scale(0.7)" xlink:href="#DejaVuSans-8722"/>
      <use transform="translate(1409.169922 38.965625)scale(0.7)" xlink:href="#DejaVuSans-49"/>
      <use transform="translate(1456.44043 0.684375)" xlink:href="#DejaVuSans-41"/>
     </g>
    </g>
   </g>
   <g id="matplotlib.axis_2">
    <g id="ytick_1">
     <g id="line2d_3">
      <defs>
       <path d="M 0 0 
L -3.5 0 
" id="me778a95713" style="stroke:#000000;stroke-width:0.8;"/>
      </defs>
      <g>
       <use style="stroke:#000000;stroke-width:0.8;" x="22.677165" xlink:href="#me778a95713" y="74.448582"/>
      </g>
     </g>
     <g id="text_4">
      <!-- $\mathdefault{10^{3}}$ -->
      <g transform="translate(5.117165 76.728113)scale(0.06 -0.06)">
       <defs>
        <path d="M 40.578125 39.3125 
Q 47.65625 37.796875 51.625 33 
Q 55.609375 28.21875 55.609375 21.1875 
Q 55.609375 10.40625 48.1875 4.484375 
Q 40.765625 -1.421875 27.09375 -1.421875 
Q 22.515625 -1.421875 17.65625 -0.515625 
Q 12.796875 0.390625 7.625 2.203125 
L 7.625 11.71875 
Q 11.71875 9.328125 16.59375 8.109375 
Q 21.484375 6.890625 26.8125 6.890625 
Q 36.078125 6.890625 40.9375 10.546875 
Q 45.796875 14.203125 45.796875 21.1875 
Q 45.796875 27.640625 41.28125 31.265625 
Q 36.765625 34.90625 28.71875 34.90625 
L 20.21875 34.90625 
L 20.21875 43.015625 
L 29.109375 43.015625 
Q 36.375 43.015625 40.234375 45.921875 
Q 44.09375 48.828125 44.09375 54.296875 
Q 44.09375 59.90625 40.109375 62.90625 
Q 36.140625 65.921875 28.71875 65.921875 
Q 24.65625 65.921875 20.015625 65.03125 
Q 15.375 64.15625 9.8125 62.3125 
L 9.8125 71.09375 
Q 15.4375 72.65625 20.34375 73.4375 
Q 25.25 74.21875 29.59375 74.21875 
Q 40.828125 74.21875 47.359375 69.109375 
Q 53.90625 64.015625 53.90625 55.328125 
Q 53.90625 49.265625 50.4375 45.09375 
Q 46.96875 40.921875 40.578125 39.3125 
z
" id="DejaVuSans-51"/>
       </defs>
       <use transform="translate(0 0.765625)" xlink:href="#DejaVuSans-49"/>
       <use transform="translate(63.623047 0.765625)" xlink:href="#DejaVuSans-48"/>
       <use transform="translate(128.203125 39.046875)scale(0.7)" xlink:href="#DejaVuSans-51"/>
      </g>
     </g>
    </g>
    <g id="ytick_2">
     <g id="line2d_4">
      <g>
       <use style="stroke:#000000;stroke-width:0.8;" x="22.677165" xlink:href="#me778a95713" y="36.762064"/>
      </g>
     </g>
     <g id="text_5">
      <!-- $\mathdefault{10^{5}}$ -->
      <g transform="translate(5.117165 39.041596)scale(0.06 -0.06)">
       <use transform="translate(0 0.684375)" xlink:href="#DejaVuSans-49"/>
       <use transform="translate(63.623047 0.684375)" xlink:href="#DejaVuSans-48"/>
       <use transform="translate(128.203125 38.965625)scale(0.7)" xlink:href="#DejaVuSans-53"/>
      </g>
     </g>
    </g>
    <g id="text_6">
     <!-- Prey concentration $\mathrm{(ml^{-1})}$ -->
     <g transform="translate(-0.352835 98.973268)rotate(-90)scale(0.07 -0.07)">
      <defs>
       <path d="M 32.171875 -5.078125 
Q 28.375 -14.84375 24.75 -17.8125 
Q 21.140625 -20.796875 15.09375 -20.796875 
L 7.90625 -20.796875 
L 7.90625 -13.28125 
L 13.1875 -13.28125 
Q 16.890625 -13.28125 18.9375 -11.515625 
Q 21 -9.765625 23.484375 -3.21875 
L 25.09375 0.875 
L 2.984375 54.6875 
L 12.5 54.6875 
L 29.59375 11.921875 
L 46.6875 54.6875 
L 56.203125 54.6875 
z
" id="DejaVuSans-121"/>
      </defs>
      <use transform="translate(0 0.684375)" xlink:href="#DejaVuSans-80"/>
      <use transform="translate(60.302734 0.684375)" xlink:href="#DejaVuSans-114"/>
      <use transform="translate(101.416016 0.684375)" xlink:href="#DejaVuSans-101"/>
      <use transform="translate(162.939453 0.684375)" xlink:href="#DejaVuSans-121"/>
      <use transform="translate(222.119141 0.684375)" xlink:href="#DejaVuSans-32"/>
      <use transform="translate(253.90625 0.684375)" xlink:href="#DejaVuSans-99"/>
      <use transform="translate(308.886719 0.684375)" xlink:href="#DejaVuSans-111"/>
      <use transform="translate(370.068359 0.684375)" xlink:href="#DejaVuSans-110"/>
      <use transform="translate(433.447266 0.684375)" xlink:href="#DejaVuSans-99"/>
      <use transform="translate(488.427734 0.684375)" xlink:href="#DejaVuSans-101"/>
      <use transform="translate(549.951172 0.684375)" xlink:href="#DejaVuSans-110"/>
      <use transform="translate(613.330078 0.684375)" xlink:href="#DejaVuSans-116"/>
      <use transform="translate(652.539062 0.684375)" xlink:href="#DejaVuSans-114"/>
      <use transform="translate(693.652344 0.684375)" xlink:href="#DejaVuSans-97"/>
      <use transform="translate(754.931641 0.684375)" xlink:href="#DejaVuSans-116"/>
      <use transform="translate(794.140625 0.684375)" xlink:href="#DejaVuSans-105"/>
      <use transform="translate(821.923828 0.684375)" xlink:href="#DejaVuSans-111"/>
      <use transform="translate(883.105469 0.684375)" xlink:href="#DejaVuSans-110"/>
      <use transform="translate(946.484375 0.684375)" xlink:href="#DejaVuSans-32"/>
      <use transform="translate(978.271484 0.684375)" xlink:href="#DejaVuSans-40"/>
      <use transform="translate(1017.285156 0.684375)" xlink:href="#DejaVuSans-109"/>
      <use transform="translate(1114.697266 0.684375)" xlink:href="#DejaVuSans-108"/>
      <use transform="translate(1143.4375 38.965625)scale(0.7)" xlink:href="#DejaVuSans-8722"/>
      <use transform="translate(1202.089844 38.965625)scale(0.7)" xlink:href="#DejaVuSans-49"/>
      <use transform="translate(1249.360352 0.684375)" xlink:href="#DejaVuSans-41"/>
     </g>
    </g>
   </g>
   <g id="LineCollection_1">
    <path clip-path="url(#pcac339e11a)" d="M 26.849371 73.586362 
L 110.293486 73.586362 
" style="fill:none;stroke:#2065ab;"/>
   </g>
   <g id="LineCollection_2">
    <path clip-path="url(#pcac339e11a)" d="M 51.253469 99.727989 
L 51.253469 7.988547 
" style="fill:none;stroke:#b1182b;"/>
   </g>
   <g id="line2d_5">
    <path clip-path="url(#pcac339e11a)" d="M 42.055602 66.950095 
L 38.691877 62.778471 
L 36.288965 59.459056 
L 34.592263 56.751122 
L 33.421837 54.479839 
L 32.660334 52.532971 
L 32.226309 50.829886 
L 32.064472 49.313975 
L 32.138306 47.936582 
L 32.427526 46.665268 
L 32.927112 45.467565 
L 33.652078 44.311024 
L 34.627459 43.179554 
L 35.89442 42.057172 
L 37.502383 40.93623 
L 39.516804 39.809429 
L 42.023738 38.670166 
L 45.088175 37.529327 
L 48.798445 36.392452 
L 53.183738 35.286852 
L 58.147969 34.266531 
L 63.385231 33.416761 
L 68.26671 32.845193 
L 72.372951 32.579045 
L 75.711183 32.576395 
L 78.411003 32.790079 
L 80.574888 33.175773 
L 82.337458 33.70453 
L 83.832083 34.38132 
L 85.064753 35.178576 
L 86.115268 36.120327 
L 87.012751 37.226647 
L 87.775594 38.529147 
L 88.411053 40.068602 
L 88.916734 41.890373 
L 89.290333 44.088897 
L 89.512484 46.755193 
L 89.555998 50.062592 
L 89.377964 54.128468 
L 88.931301 59.06311 
L 88.196949 64.673275 
L 87.227108 70.389169 
L 86.121523 75.605082 
L 84.965429 80.015051 
L 83.802982 83.600789 
L 82.648536 86.465833 
L 81.505346 88.725975 
L 80.382657 90.468831 
L 79.273795 91.792073 
L 78.171679 92.769308 
L 77.06902 93.45578 
L 75.943203 93.897052 
L 74.779154 94.115568 
L 73.538954 94.120428 
L 72.192307 93.899523 
L 70.693766 93.421867 
L 69.005638 92.643366 
L 67.060105 91.492856 
L 64.782394 89.878143 
L 62.053657 87.659888 
L 58.713421 84.64498 
L 54.55936 80.582743 
L 49.548329 75.363044 
L 44.480277 69.769898 
L 40.453226 65.010647 
L 37.543975 61.243674 
L 35.473568 58.21337 
L 34.021326 55.707349 
L 33.042491 53.590068 
L 32.432656 51.756912 
L 32.124218 50.143316 
L 32.069433 48.692568 
L 32.240147 47.364115 
L 32.623344 46.1255 
L 33.223501 44.944262 
L 34.061024 43.796126 
L 35.159594 42.673177 
L 36.574642 41.551369 
L 38.366525 40.423203 
L 40.597293 39.289763 
L 43.338664 38.152989 
L 46.672676 37.016608 
L 50.691038 35.888313 
L 55.382263 34.80784 
L 60.530073 33.851742 
L 65.649134 33.122582 
L 70.214387 32.689683 
L 73.979075 32.548187 
L 77.009395 32.649228 
L 79.424889 32.941485 
L 81.395228 33.392508 
L 83.052224 33.996134 
L 84.40265 34.717322 
L 85.568602 35.592887 
L 86.549126 36.611256 
L 87.374882 37.791052 
L 88.083532 39.204822 
L 88.656735 40.85652 
L 89.103659 42.836384 
L 89.411839 45.240611 
L 89.557483 48.205654 
L 89.50433 51.831189 
L 89.207968 56.296564 
L 88.627632 61.589663 
L 87.775 67.327012 
L 86.731782 72.865891 
L 85.595951 77.725996 
L 84.432318 81.755041 
L 83.2736 84.993516 
L 82.124669 87.567297 
L 80.995469 89.571741 
L 79.879675 91.114588 
L 78.777979 92.270488 
L 77.675588 93.111709 
L 76.56515 93.683457 
L 75.424014 94.022263 
L 74.229486 94.144606 
L 72.943648 94.049536 
L 71.536226 93.71789 
L 69.961825 93.112646 
L 68.167644 92.177536 
L 66.086096 90.833429 
L 63.620132 88.965864 
L 60.644583 86.421859 
L 56.96465 82.969916 
L 52.396149 78.366935 
L 47.195481 72.808804 
L 42.522077 67.502107 
L 39.026121 63.212078 
L 36.529971 59.812601 
L 34.759287 57.04009 
L 33.53258 54.720186 
L 32.729182 52.740843 
L 32.261122 51.013363 
L 32.121209 50.116885 
L 32.121209 50.116885 
" style="fill:none;stroke:#000000;stroke-linecap:square;"/>
   </g>
   <g id="line2d_6">
    <path clip-path="url(#pcac339e11a)" d="M 42.055602 66.950095 
L 38.619678 62.629195 
L 36.242338 59.298501 
L 34.577184 56.597938 
L 33.436543 54.339286 
L 32.701759 52.407975 
L 32.288944 50.713985 
L 32.145809 49.208217 
L 32.23539 47.841568 
L 32.53967 46.573122 
L 33.058165 45.370144 
L 33.799234 44.216268 
L 34.799104 43.078758 
L 36.095825 41.949432 
L 37.740434 40.820105 
L 39.800819 39.682596 
L 42.366884 38.528719 
L 45.508901 37.366659 
L 49.354233 36.188231 
L 53.354176 35.183506 
L 58.393898 34.166017 
L 63.616178 33.335408 
L 68.454778 32.782663 
L 72.544406 32.529591 
L 75.853176 32.538076 
L 78.516919 32.758454 
L 80.688946 33.155251 
L 82.455138 33.697132 
L 83.911428 34.36787 
L 85.145564 35.176488 
L 86.19543 36.131098 
L 87.090434 37.251731 
L 87.849201 38.569976 
L 88.479213 40.126537 
L 88.978363 41.966568 
L 89.344576 44.184551 
L 89.561215 46.924597 
L 89.593486 50.253447 
L 89.401884 54.391331 
L 88.939957 59.388604 
L 88.191291 65.04591 
L 87.209273 70.791325 
L 86.192261 75.512503 
L 84.985205 80.012514 
L 83.793428 83.624389 
L 82.624569 86.480283 
L 81.47863 88.713864 
L 80.347969 90.444855 
L 79.240228 91.747854 
L 78.140126 92.709187 
L 77.032384 93.387325 
L 75.901724 93.820178 
L 74.732865 94.030281 
L 73.487611 94.026626 
L 72.135402 93.797069 
L 70.630402 93.310539 
L 68.926771 92.518915 
L 66.963395 91.353139 
L 64.648597 89.709697 
L 61.860144 87.445209 
L 58.391767 84.328399 
L 53.853846 79.93391 
L 49.565118 75.505747 
L 45.373153 70.853065 
L 40.823078 65.443756 
L 37.774667 61.491114 
L 35.645791 58.381375 
L 34.163185 55.8363 
L 33.162671 53.692217 
L 32.537454 51.84274 
L 32.215962 50.214219 
L 32.150402 48.757552 
L 32.310397 47.423638 
L 32.682904 46.179742 
L 33.272341 44.993131 
L 34.092305 43.847438 
L 35.178251 42.718112 
L 36.580897 41.588786 
L 38.347105 40.459459 
L 40.548165 39.32195 
L 43.278378 38.168073 
L 46.636582 36.997829 
L 50.740858 35.811218 
L 54.499264 34.932618 
L 59.640458 33.947396 
L 64.834884 33.174853 
L 69.52348 32.694429 
L 73.446283 32.50917 
L 76.600733 32.576715 
L 79.142664 32.848706 
L 81.187987 33.284488 
L 82.873676 33.865134 
L 84.289592 34.58754 
L 85.479667 35.447997 
L 86.48321 36.453428 
L 87.330666 37.622875 
L 88.041574 38.986845 
L 88.638322 40.630957 
L 89.097402 42.558812 
L 89.423556 44.91285 
L 89.589838 47.781374 
L 89.564628 51.324994 
L 89.303082 55.685628 
L 88.758642 60.922985 
L 87.931617 66.701386 
L 86.901801 72.347953 
L 85.924875 76.58939 
L 84.717819 80.890153 
L 83.533681 84.314099 
L 82.372463 87.016824 
L 81.226523 89.138053 
L 80.103502 90.763866 
L 78.995761 91.988459 
L 77.895659 92.882403 
L 76.787917 93.501814 
L 75.649617 93.884685 
L 74.465479 94.048053 
L 73.197306 93.995828 
L 71.814539 93.71228 
L 70.27134 93.163257 
L 68.514233 92.294435 
L 66.4821 91.032883 
L 64.075627 89.266648 
L 61.157301 86.836483 
L 57.490294 83.478679 
L 52.623871 78.701883 
L 48.908113 74.801964 
L 45.373153 70.853065 
L 40.823078 65.443756 
L 37.774667 61.491114 
L 35.645791 58.381375 
L 34.163185 55.8363 
L 33.162671 53.692217 
L 32.537454 51.84274 
L 32.215962 50.214219 
L 32.150402 48.757552 
L 32.179022 48.307458 
L 32.179022 48.307458 
" style="fill:none;stroke:#808080;stroke-dasharray:5,5;stroke-dashoffset:0;"/>
   </g>
   <g id="patch_3">
    <path d="M 22.677165 104.314961 
L 22.677165 3.401575 
" style="fill:none;stroke:#000000;stroke-linecap:square;stroke-linejoin:miter;stroke-width:0.8;"/>
   </g>
   <g id="patch_4">
    <path d="M 22.677165 104.314961 
L 114.465692 104.314961 
" style="fill:none;stroke:#000000;stroke-linecap:square;stroke-linejoin:miter;stroke-width:0.8;"/>
   </g>
   <g id="text_7">
    <!-- $t_0$ -->
    <g transform="translate(42.055602 66.950095)scale(0.06 -0.06)">
     <defs>
      <path d="M 42.28125 54.6875 
L 40.921875 47.703125 
L 23 47.703125 
L 17.1875 18.015625 
Q 16.890625 16.359375 16.75 15.234375 
Q 16.609375 14.109375 16.609375 13.484375 
Q 16.609375 10.359375 18.484375 8.9375 
Q 20.359375 7.515625 24.515625 7.515625 
L 33.59375 7.515625 
L 32.078125 0 
L 23.484375 0 
Q 15.484375 0 11.546875 3.125 
Q 7.625 6.25 7.625 12.59375 
Q 7.625 13.71875 7.765625 15.0625 
Q 7.90625 16.40625 8.203125 18.015625 
L 14.015625 47.703125 
L 6.390625 47.703125 
L 7.8125 54.6875 
L 15.28125 54.6875 
L 18.3125 70.21875 
L 27.296875 70.21875 
L 24.3125 54.6875 
z
" id="DejaVuSans-Oblique-116"/>
     </defs>
     <use transform="translate(0 0.78125)" xlink:href="#DejaVuSans-Oblique-116"/>
     <use transform="translate(39.208984 -15.625)scale(0.7)" xlink:href="#DejaVuSans-48"/>
    </g>
   </g>
   <g id="text_8">
    <!-- $t_f$ -->
    <g transform="translate(32.121209 50.116885)scale(0.06 -0.06)">
     <defs>
      <path d="M 47.796875 75.984375 
L 46.390625 68.5 
L 37.796875 68.5 
Q 32.90625 68.5 30.6875 66.578125 
Q 28.46875 64.65625 27.390625 59.515625 
L 26.421875 54.6875 
L 41.21875 54.6875 
L 39.890625 47.703125 
L 25.09375 47.703125 
L 15.828125 0 
L 6.78125 0 
L 16.109375 47.703125 
L 7.515625 47.703125 
L 8.796875 54.6875 
L 17.390625 54.6875 
L 18.109375 58.5 
Q 19.96875 68.171875 24.625 72.078125 
Q 29.296875 75.984375 39.3125 75.984375 
z
" id="DejaVuSans-Oblique-102"/>
     </defs>
     <use transform="translate(0 0.78125)" xlink:href="#DejaVuSans-Oblique-116"/>
     <use transform="translate(39.208984 -15.625)scale(0.7)" xlink:href="#DejaVuSans-Oblique-102"/>
    </g>
   </g>
   <g id="legend_1">
    <g id="line2d_7">
     <path d="M 62.522567 11.260637 
L 74.522567 11.260637 
" style="fill:none;stroke:#000000;stroke-linecap:square;"/>
    </g>
    <g id="line2d_8"/>
    <g id="text_9">
     <!-- Full -->
     <g transform="translate(79.322567 13.360637)scale(0.06 -0.06)">
      <defs>
       <path d="M 9.8125 72.90625 
L 51.703125 72.90625 
L 51.703125 64.59375 
L 19.671875 64.59375 
L 19.671875 43.109375 
L 48.578125 43.109375 
L 48.578125 34.8125 
L 19.671875 34.8125 
L 19.671875 0 
L 9.8125 0 
z
" id="DejaVuSans-70"/>
       <path d="M 8.5 21.578125 
L 8.5 54.6875 
L 17.484375 54.6875 
L 17.484375 21.921875 
Q 17.484375 14.15625 20.5 10.265625 
Q 23.53125 6.390625 29.59375 6.390625 
Q 36.859375 6.390625 41.078125 11.03125 
Q 45.3125 15.671875 45.3125 23.6875 
L 45.3125 54.6875 
L 54.296875 54.6875 
L 54.296875 0 
L 45.3125 0 
L 45.3125 8.40625 
Q 42.046875 3.421875 37.71875 1 
Q 33.40625 -1.421875 27.6875 -1.421875 
Q 18.265625 -1.421875 13.375 4.4375 
Q 8.5 10.296875 8.5 21.578125 
z
M 31.109375 56 
z
" id="DejaVuSans-117"/>
      </defs>
      <use xlink:href="#DejaVuSans-70"/>
      <use x="52.019531" xlink:href="#DejaVuSans-117"/>
      <use x="115.398438" xlink:href="#DejaVuSans-108"/>
      <use x="143.181641" xlink:href="#DejaVuSans-108"/>
     </g>
    </g>
    <g id="line2d_9">
     <path d="M 62.522567 20.067512 
L 74.522567 20.067512 
" style="fill:none;stroke:#808080;stroke-dasharray:5,5;stroke-dashoffset:0;"/>
    </g>
    <g id="line2d_10"/>
    <g id="text_10">
     <!-- Simplified -->
     <g transform="translate(79.322567 22.167512)scale(0.06 -0.06)">
      <defs>
       <path d="M 53.515625 70.515625 
L 53.515625 60.890625 
Q 47.90625 63.578125 42.921875 64.890625 
Q 37.9375 66.21875 33.296875 66.21875 
Q 25.25 66.21875 20.875 63.09375 
Q 16.5 59.96875 16.5 54.203125 
Q 16.5 49.359375 19.40625 46.890625 
Q 22.3125 44.4375 30.421875 42.921875 
L 36.375 41.703125 
Q 47.40625 39.59375 52.65625 34.296875 
Q 57.90625 29 57.90625 20.125 
Q 57.90625 9.515625 50.796875 4.046875 
Q 43.703125 -1.421875 29.984375 -1.421875 
Q 24.8125 -1.421875 18.96875 -0.25 
Q 13.140625 0.921875 6.890625 3.21875 
L 6.890625 13.375 
Q 12.890625 10.015625 18.65625 8.296875 
Q 24.421875 6.59375 29.984375 6.59375 
Q 38.421875 6.59375 43.015625 9.90625 
Q 47.609375 13.234375 47.609375 19.390625 
Q 47.609375 24.75 44.3125 27.78125 
Q 41.015625 30.8125 33.5 32.328125 
L 27.484375 33.5 
Q 16.453125 35.6875 11.515625 40.375 
Q 6.59375 45.0625 6.59375 53.421875 
Q 6.59375 63.09375 13.40625 68.65625 
Q 20.21875 74.21875 32.171875 74.21875 
Q 37.3125 74.21875 42.625 73.28125 
Q 47.953125 72.359375 53.515625 70.515625 
z
" id="DejaVuSans-83"/>
       <path d="M 18.109375 8.203125 
L 18.109375 -20.796875 
L 9.078125 -20.796875 
L 9.078125 54.6875 
L 18.109375 54.6875 
L 18.109375 46.390625 
Q 20.953125 51.265625 25.265625 53.625 
Q 29.59375 56 35.59375 56 
Q 45.5625 56 51.78125 48.09375 
Q 58.015625 40.1875 58.015625 27.296875 
Q 58.015625 14.40625 51.78125 6.484375 
Q 45.5625 -1.421875 35.59375 -1.421875 
Q 29.59375 -1.421875 25.265625 0.953125 
Q 20.953125 3.328125 18.109375 8.203125 
z
M 48.6875 27.296875 
Q 48.6875 37.203125 44.609375 42.84375 
Q 40.53125 48.484375 33.40625 48.484375 
Q 26.265625 48.484375 22.1875 42.84375 
Q 18.109375 37.203125 18.109375 27.296875 
Q 18.109375 17.390625 22.1875 11.75 
Q 26.265625 6.109375 33.40625 6.109375 
Q 40.53125 6.109375 44.609375 11.75 
Q 48.6875 17.390625 48.6875 27.296875 
z
" id="DejaVuSans-112"/>
       <path d="M 37.109375 75.984375 
L 37.109375 68.5 
L 28.515625 68.5 
Q 23.6875 68.5 21.796875 66.546875 
Q 19.921875 64.59375 19.921875 59.515625 
L 19.921875 54.6875 
L 34.71875 54.6875 
L 34.71875 47.703125 
L 19.921875 47.703125 
L 19.921875 0 
L 10.890625 0 
L 10.890625 47.703125 
L 2.296875 47.703125 
L 2.296875 54.6875 
L 10.890625 54.6875 
L 10.890625 58.5 
Q 10.890625 67.625 15.140625 71.796875 
Q 19.390625 75.984375 28.609375 75.984375 
z
" id="DejaVuSans-102"/>
      </defs>
      <use xlink:href="#DejaVuSans-83"/>
      <use x="63.476562" xlink:href="#DejaVuSans-105"/>
      <use x="91.259766" xlink:href="#DejaVuSans-109"/>
      <use x="188.671875" xlink:href="#DejaVuSans-112"/>
      <use x="252.148438" xlink:href="#DejaVuSans-108"/>
      <use x="279.931641" xlink:href="#DejaVuSans-105"/>
      <use x="307.714844" xlink:href="#DejaVuSans-102"/>
      <use x="342.919922" xlink:href="#DejaVuSans-105"/>
      <use x="370.703125" xlink:href="#DejaVuSans-101"/>
      <use x="432.226562" xlink:href="#DejaVuSans-100"/>
     </g>
    </g>
   </g>
  </g>
 </g>
 <defs>
  <clipPath id="pcac339e11a">
   <rect height="100.913386" width="91.788526" x="22.677165" y="3.401575"/>
  </clipPath>
 </defs>
</svg>
