<?xml version="1.0" encoding="utf-8" standalone="no"?>
<!DOCTYPE svg PUBLIC "-//W3C//DTD SVG 1.1//EN"
  "http://www.w3.org/Graphics/SVG/1.1/DTD/svg11.dtd">
<svg xmlns:xlink="http://www.w3.org/1999/xlink" width="226.771654pt" height="113.385827pt" viewBox="0 0 226.771654 113.385827" xmlns="http://www.w3.org/2000/svg" version="1.1">
 <metadata>
  <rdf:RDF xmlns:dc="http://purl.org/dc/elements/1.1/" xmlns:cc="http://creativecommons.org/ns#" xmlns:rdf="http://www.w3.org/1999/02/22-rdf-syntax-ns#">
   <cc:Work>
    <dc:type rdf:resource="http://purl.org/dc/dcmitype/StillImage"/>
    <dc:date>2024-05-23T11:28:57.774282</dc:date>
    <dc:format>image/svg+xml</dc:format>
    <dc:creator>
     <cc:Agent>
      <dc:title>Matplotlib v3.9.0, https://matplotlib.org/</dc:title>
     </cc:Agent>
    </dc:creator>
   </cc:Work>
  </rdf:RDF>
 </metadata>
 <defs>
  <style type="text/css">*{stroke-linejoin: round; stroke-linecap: butt}</style>
 </defs>
 <g id="figure_1">
  <g id="patch_1">
   <path d="M 0 113.385827 
L 226.771654 113.385827 
L 226.771654 0 
L 0 0 
z
" style="fill: #ffffff"/>
  </g>
  <g id="axes_1">
   <g id="patch_2">
    <path d="M 28.346457 100.913386 
L 204.094488 100.913386 
L 204.094488 13.606299 
L 28.346457 13.606299 
z
" style="fill: #ffffff"/>
   </g>
   <g id="matplotlib.axis_1">
    <g id="xtick_1">
     <g id="line2d_1">
      <defs>
       <path id="mdf7a7a41c6" d="M 0 0 
L 0 3.5 
" style="stroke: #000000; stroke-width: 0.8"/>
      </defs>
      <g>
       <use xlink:href="#mdf7a7a41c6" x="36.335004" y="100.913386" style="stroke: #000000; stroke-width: 0.8"/>
      </g>
     </g>
     <g id="text_1">
      <!-- 0 -->
      <g transform="translate(34.426254 112.472448) scale(0.06 -0.06)">
       <defs>
        <path id="DejaVuSans-30" d="M 2034 4250 
Q 1547 4250 1301 3770 
Q 1056 3291 1056 2328 
Q 1056 1369 1301 889 
Q 1547 409 2034 409 
Q 2525 409 2770 889 
Q 3016 1369 3016 2328 
Q 3016 3291 2770 3770 
Q 2525 4250 2034 4250 
z
M 2034 4750 
Q 2819 4750 3233 4129 
Q 3647 3509 3647 2328 
Q 3647 1150 3233 529 
Q 2819 -91 2034 -91 
Q 1250 -91 836 529 
Q 422 1150 422 2328 
Q 422 3509 836 4129 
Q 1250 4750 2034 4750 
z
" transform="scale(0.015625)"/>
       </defs>
       <use xlink:href="#DejaVuSans-30"/>
      </g>
     </g>
    </g>
    <g id="xtick_2">
     <g id="line2d_2">
      <g>
       <use xlink:href="#mdf7a7a41c6" x="68.289191" y="100.913386" style="stroke: #000000; stroke-width: 0.8"/>
      </g>
     </g>
     <g id="text_2">
      <!-- 50 -->
      <g transform="translate(64.471691 112.472448) scale(0.06 -0.06)">
       <defs>
        <path id="DejaVuSans-35" d="M 691 4666 
L 3169 4666 
L 3169 4134 
L 1269 4134 
L 1269 2991 
Q 1406 3038 1543 3061 
Q 1681 3084 1819 3084 
Q 2600 3084 3056 2656 
Q 3513 2228 3513 1497 
Q 3513 744 3044 326 
Q 2575 -91 1722 -91 
Q 1428 -91 1123 -41 
Q 819 9 494 109 
L 494 744 
Q 775 591 1075 516 
Q 1375 441 1709 441 
Q 2250 441 2565 725 
Q 2881 1009 2881 1497 
Q 2881 1984 2565 2268 
Q 2250 2553 1709 2553 
Q 1456 2553 1204 2497 
Q 953 2441 691 2322 
L 691 4666 
z
" transform="scale(0.015625)"/>
       </defs>
       <use xlink:href="#DejaVuSans-35"/>
       <use xlink:href="#DejaVuSans-30" x="63.623047"/>
      </g>
     </g>
    </g>
    <g id="xtick_3">
     <g id="line2d_3">
      <g>
       <use xlink:href="#mdf7a7a41c6" x="100.243379" y="100.913386" style="stroke: #000000; stroke-width: 0.8"/>
      </g>
     </g>
     <g id="text_3">
      <!-- 100 -->
      <g transform="translate(94.517129 112.472448) scale(0.06 -0.06)">
       <defs>
        <path id="DejaVuSans-31" d="M 794 531 
L 1825 531 
L 1825 4091 
L 703 3866 
L 703 4441 
L 1819 4666 
L 2450 4666 
L 2450 531 
L 3481 531 
L 3481 0 
L 794 0 
L 794 531 
z
" transform="scale(0.015625)"/>
       </defs>
       <use xlink:href="#DejaVuSans-31"/>
       <use xlink:href="#DejaVuSans-30" x="63.623047"/>
       <use xlink:href="#DejaVuSans-30" x="127.246094"/>
      </g>
     </g>
    </g>
    <g id="xtick_4">
     <g id="line2d_4">
      <g>
       <use xlink:href="#mdf7a7a41c6" x="132.197566" y="100.913386" style="stroke: #000000; stroke-width: 0.8"/>
      </g>
     </g>
     <g id="text_4">
      <!-- 150 -->
      <g transform="translate(126.471316 112.472448) scale(0.06 -0.06)">
       <use xlink:href="#DejaVuSans-31"/>
       <use xlink:href="#DejaVuSans-35" x="63.623047"/>
       <use xlink:href="#DejaVuSans-30" x="127.246094"/>
      </g>
     </g>
    </g>
    <g id="xtick_5">
     <g id="line2d_5">
      <g>
       <use xlink:href="#mdf7a7a41c6" x="164.151754" y="100.913386" style="stroke: #000000; stroke-width: 0.8"/>
      </g>
     </g>
     <g id="text_5">
      <!-- 200 -->
      <g transform="translate(158.425504 112.472448) scale(0.06 -0.06)">
       <defs>
        <path id="DejaVuSans-32" d="M 1228 531 
L 3431 531 
L 3431 0 
L 469 0 
L 469 531 
Q 828 903 1448 1529 
Q 2069 2156 2228 2338 
Q 2531 2678 2651 2914 
Q 2772 3150 2772 3378 
Q 2772 3750 2511 3984 
Q 2250 4219 1831 4219 
Q 1534 4219 1204 4116 
Q 875 4013 500 3803 
L 500 4441 
Q 881 4594 1212 4672 
Q 1544 4750 1819 4750 
Q 2544 4750 2975 4387 
Q 3406 4025 3406 3419 
Q 3406 3131 3298 2873 
Q 3191 2616 2906 2266 
Q 2828 2175 2409 1742 
Q 1991 1309 1228 531 
z
" transform="scale(0.015625)"/>
       </defs>
       <use xlink:href="#DejaVuSans-32"/>
       <use xlink:href="#DejaVuSans-30" x="63.623047"/>
       <use xlink:href="#DejaVuSans-30" x="127.246094"/>
      </g>
     </g>
    </g>
    <g id="xtick_6">
     <g id="line2d_6">
      <g>
       <use xlink:href="#mdf7a7a41c6" x="196.105941" y="100.913386" style="stroke: #000000; stroke-width: 0.8"/>
      </g>
     </g>
     <g id="text_6">
      <!-- 250 -->
      <g transform="translate(190.379691 112.472448) scale(0.06 -0.06)">
       <use xlink:href="#DejaVuSans-32"/>
       <use xlink:href="#DejaVuSans-35" x="63.623047"/>
       <use xlink:href="#DejaVuSans-30" x="127.246094"/>
      </g>
     </g>
    </g>
    <g id="text_7">
     <!-- Time (h) -->
     <g transform="translate(101.595394 123.039167) scale(0.07 -0.07)">
      <defs>
       <path id="DejaVuSans-54" d="M -19 4666 
L 3928 4666 
L 3928 4134 
L 2272 4134 
L 2272 0 
L 1638 0 
L 1638 4134 
L -19 4134 
L -19 4666 
z
" transform="scale(0.015625)"/>
       <path id="DejaVuSans-69" d="M 603 3500 
L 1178 3500 
L 1178 0 
L 603 0 
L 603 3500 
z
M 603 4863 
L 1178 4863 
L 1178 4134 
L 603 4134 
L 603 4863 
z
" transform="scale(0.015625)"/>
       <path id="DejaVuSans-6d" d="M 3328 2828 
Q 3544 3216 3844 3400 
Q 4144 3584 4550 3584 
Q 5097 3584 5394 3201 
Q 5691 2819 5691 2113 
L 5691 0 
L 5113 0 
L 5113 2094 
Q 5113 2597 4934 2840 
Q 4756 3084 4391 3084 
Q 3944 3084 3684 2787 
Q 3425 2491 3425 1978 
L 3425 0 
L 2847 0 
L 2847 2094 
Q 2847 2600 2669 2842 
Q 2491 3084 2119 3084 
Q 1678 3084 1418 2786 
Q 1159 2488 1159 1978 
L 1159 0 
L 581 0 
L 581 3500 
L 1159 3500 
L 1159 2956 
Q 1356 3278 1631 3431 
Q 1906 3584 2284 3584 
Q 2666 3584 2933 3390 
Q 3200 3197 3328 2828 
z
" transform="scale(0.015625)"/>
       <path id="DejaVuSans-65" d="M 3597 1894 
L 3597 1613 
L 953 1613 
Q 991 1019 1311 708 
Q 1631 397 2203 397 
Q 2534 397 2845 478 
Q 3156 559 3463 722 
L 3463 178 
Q 3153 47 2828 -22 
Q 2503 -91 2169 -91 
Q 1331 -91 842 396 
Q 353 884 353 1716 
Q 353 2575 817 3079 
Q 1281 3584 2069 3584 
Q 2775 3584 3186 3129 
Q 3597 2675 3597 1894 
z
M 3022 2063 
Q 3016 2534 2758 2815 
Q 2500 3097 2075 3097 
Q 1594 3097 1305 2825 
Q 1016 2553 972 2059 
L 3022 2063 
z
" transform="scale(0.015625)"/>
       <path id="DejaVuSans-20" transform="scale(0.015625)"/>
       <path id="DejaVuSans-28" d="M 1984 4856 
Q 1566 4138 1362 3434 
Q 1159 2731 1159 2009 
Q 1159 1288 1364 580 
Q 1569 -128 1984 -844 
L 1484 -844 
Q 1016 -109 783 600 
Q 550 1309 550 2009 
Q 550 2706 781 3412 
Q 1013 4119 1484 4856 
L 1984 4856 
z
" transform="scale(0.015625)"/>
       <path id="DejaVuSans-68" d="M 3513 2113 
L 3513 0 
L 2938 0 
L 2938 2094 
Q 2938 2591 2744 2837 
Q 2550 3084 2163 3084 
Q 1697 3084 1428 2787 
Q 1159 2491 1159 1978 
L 1159 0 
L 581 0 
L 581 4863 
L 1159 4863 
L 1159 2956 
Q 1366 3272 1645 3428 
Q 1925 3584 2291 3584 
Q 2894 3584 3203 3211 
Q 3513 2838 3513 2113 
z
" transform="scale(0.015625)"/>
       <path id="DejaVuSans-29" d="M 513 4856 
L 1013 4856 
Q 1481 4119 1714 3412 
Q 1947 2706 1947 2009 
Q 1947 1309 1714 600 
Q 1481 -109 1013 -844 
L 513 -844 
Q 928 -128 1133 580 
Q 1338 1288 1338 2009 
Q 1338 2731 1133 3434 
Q 928 4138 513 4856 
z
" transform="scale(0.015625)"/>
      </defs>
      <use xlink:href="#DejaVuSans-54"/>
      <use xlink:href="#DejaVuSans-69" x="57.958984"/>
      <use xlink:href="#DejaVuSans-6d" x="85.742188"/>
      <use xlink:href="#DejaVuSans-65" x="183.154297"/>
      <use xlink:href="#DejaVuSans-20" x="244.677734"/>
      <use xlink:href="#DejaVuSans-28" x="276.464844"/>
      <use xlink:href="#DejaVuSans-68" x="315.478516"/>
      <use xlink:href="#DejaVuSans-29" x="378.857422"/>
     </g>
    </g>
   </g>
   <g id="matplotlib.axis_2">
    <g id="ytick_1">
     <g id="line2d_7">
      <defs>
       <path id="md5237550d8" d="M 0 0 
L -3.5 0 
" style="stroke: #000000; stroke-width: 0.8"/>
      </defs>
      <g>
       <use xlink:href="#md5237550d8" x="28.346457" y="98.225551" style="stroke: #000000; stroke-width: 0.8"/>
      </g>
     </g>
     <g id="text_8">
      <!-- $\mathdefault{10^{-8}}$ -->
      <g transform="translate(7.246457 100.505083) scale(0.06 -0.06)">
       <defs>
        <path id="DejaVuSans-2212" d="M 678 2272 
L 4684 2272 
L 4684 1741 
L 678 1741 
L 678 2272 
z
" transform="scale(0.015625)"/>
        <path id="DejaVuSans-38" d="M 2034 2216 
Q 1584 2216 1326 1975 
Q 1069 1734 1069 1313 
Q 1069 891 1326 650 
Q 1584 409 2034 409 
Q 2484 409 2743 651 
Q 3003 894 3003 1313 
Q 3003 1734 2745 1975 
Q 2488 2216 2034 2216 
z
M 1403 2484 
Q 997 2584 770 2862 
Q 544 3141 544 3541 
Q 544 4100 942 4425 
Q 1341 4750 2034 4750 
Q 2731 4750 3128 4425 
Q 3525 4100 3525 3541 
Q 3525 3141 3298 2862 
Q 3072 2584 2669 2484 
Q 3125 2378 3379 2068 
Q 3634 1759 3634 1313 
Q 3634 634 3220 271 
Q 2806 -91 2034 -91 
Q 1263 -91 848 271 
Q 434 634 434 1313 
Q 434 1759 690 2068 
Q 947 2378 1403 2484 
z
M 1172 3481 
Q 1172 3119 1398 2916 
Q 1625 2713 2034 2713 
Q 2441 2713 2670 2916 
Q 2900 3119 2900 3481 
Q 2900 3844 2670 4047 
Q 2441 4250 2034 4250 
Q 1625 4250 1398 4047 
Q 1172 3844 1172 3481 
z
" transform="scale(0.015625)"/>
       </defs>
       <use xlink:href="#DejaVuSans-31" transform="translate(0 0.765625)"/>
       <use xlink:href="#DejaVuSans-30" transform="translate(63.623047 0.765625)"/>
       <use xlink:href="#DejaVuSans-2212" transform="translate(128.203125 39.046875) scale(0.7)"/>
       <use xlink:href="#DejaVuSans-38" transform="translate(186.855469 39.046875) scale(0.7)"/>
      </g>
     </g>
    </g>
    <g id="ytick_2">
     <g id="line2d_8">
      <g>
       <use xlink:href="#md5237550d8" x="28.346457" y="71.439173" style="stroke: #000000; stroke-width: 0.8"/>
      </g>
     </g>
     <g id="text_9">
      <!-- $\mathdefault{10^{-5}}$ -->
      <g transform="translate(7.246457 73.718704) scale(0.06 -0.06)">
       <use xlink:href="#DejaVuSans-31" transform="translate(0 0.684375)"/>
       <use xlink:href="#DejaVuSans-30" transform="translate(63.623047 0.684375)"/>
       <use xlink:href="#DejaVuSans-2212" transform="translate(128.203125 38.965625) scale(0.7)"/>
       <use xlink:href="#DejaVuSans-35" transform="translate(186.855469 38.965625) scale(0.7)"/>
      </g>
     </g>
    </g>
    <g id="ytick_3">
     <g id="line2d_9">
      <g>
       <use xlink:href="#md5237550d8" x="28.346457" y="44.652794" style="stroke: #000000; stroke-width: 0.8"/>
      </g>
     </g>
     <g id="text_10">
      <!-- $\mathdefault{10^{-2}}$ -->
      <g transform="translate(7.246457 46.932326) scale(0.06 -0.06)">
       <use xlink:href="#DejaVuSans-31" transform="translate(0 0.765625)"/>
       <use xlink:href="#DejaVuSans-30" transform="translate(63.623047 0.765625)"/>
       <use xlink:href="#DejaVuSans-2212" transform="translate(128.203125 39.046875) scale(0.7)"/>
       <use xlink:href="#DejaVuSans-32" transform="translate(186.855469 39.046875) scale(0.7)"/>
      </g>
     </g>
    </g>
    <g id="ytick_4">
     <g id="line2d_10">
      <g>
       <use xlink:href="#md5237550d8" x="28.346457" y="17.866416" style="stroke: #000000; stroke-width: 0.8"/>
      </g>
     </g>
     <g id="text_11">
      <!-- $\mathdefault{10^{1}}$ -->
      <g transform="translate(10.786457 20.145947) scale(0.06 -0.06)">
       <use xlink:href="#DejaVuSans-31" transform="translate(0 0.684375)"/>
       <use xlink:href="#DejaVuSans-30" transform="translate(63.623047 0.684375)"/>
       <use xlink:href="#DejaVuSans-31" transform="translate(128.203125 38.965625) scale(0.7)"/>
      </g>
     </g>
    </g>
    <g id="text_12">
     <!-- Relative error -->
     <g transform="translate(1.790675 80.958671) rotate(-90) scale(0.07 -0.07)">
      <defs>
       <path id="DejaVuSans-52" d="M 2841 2188 
Q 3044 2119 3236 1894 
Q 3428 1669 3622 1275 
L 4263 0 
L 3584 0 
L 2988 1197 
Q 2756 1666 2539 1819 
Q 2322 1972 1947 1972 
L 1259 1972 
L 1259 0 
L 628 0 
L 628 4666 
L 2053 4666 
Q 2853 4666 3247 4331 
Q 3641 3997 3641 3322 
Q 3641 2881 3436 2590 
Q 3231 2300 2841 2188 
z
M 1259 4147 
L 1259 2491 
L 2053 2491 
Q 2509 2491 2742 2702 
Q 2975 2913 2975 3322 
Q 2975 3731 2742 3939 
Q 2509 4147 2053 4147 
L 1259 4147 
z
" transform="scale(0.015625)"/>
       <path id="DejaVuSans-6c" d="M 603 4863 
L 1178 4863 
L 1178 0 
L 603 0 
L 603 4863 
z
" transform="scale(0.015625)"/>
       <path id="DejaVuSans-61" d="M 2194 1759 
Q 1497 1759 1228 1600 
Q 959 1441 959 1056 
Q 959 750 1161 570 
Q 1363 391 1709 391 
Q 2188 391 2477 730 
Q 2766 1069 2766 1631 
L 2766 1759 
L 2194 1759 
z
M 3341 1997 
L 3341 0 
L 2766 0 
L 2766 531 
Q 2569 213 2275 61 
Q 1981 -91 1556 -91 
Q 1019 -91 701 211 
Q 384 513 384 1019 
Q 384 1609 779 1909 
Q 1175 2209 1959 2209 
L 2766 2209 
L 2766 2266 
Q 2766 2663 2505 2880 
Q 2244 3097 1772 3097 
Q 1472 3097 1187 3025 
Q 903 2953 641 2809 
L 641 3341 
Q 956 3463 1253 3523 
Q 1550 3584 1831 3584 
Q 2591 3584 2966 3190 
Q 3341 2797 3341 1997 
z
" transform="scale(0.015625)"/>
       <path id="DejaVuSans-74" d="M 1172 4494 
L 1172 3500 
L 2356 3500 
L 2356 3053 
L 1172 3053 
L 1172 1153 
Q 1172 725 1289 603 
Q 1406 481 1766 481 
L 2356 481 
L 2356 0 
L 1766 0 
Q 1100 0 847 248 
Q 594 497 594 1153 
L 594 3053 
L 172 3053 
L 172 3500 
L 594 3500 
L 594 4494 
L 1172 4494 
z
" transform="scale(0.015625)"/>
       <path id="DejaVuSans-76" d="M 191 3500 
L 800 3500 
L 1894 563 
L 2988 3500 
L 3597 3500 
L 2284 0 
L 1503 0 
L 191 3500 
z
" transform="scale(0.015625)"/>
       <path id="DejaVuSans-72" d="M 2631 2963 
Q 2534 3019 2420 3045 
Q 2306 3072 2169 3072 
Q 1681 3072 1420 2755 
Q 1159 2438 1159 1844 
L 1159 0 
L 581 0 
L 581 3500 
L 1159 3500 
L 1159 2956 
Q 1341 3275 1631 3429 
Q 1922 3584 2338 3584 
Q 2397 3584 2469 3576 
Q 2541 3569 2628 3553 
L 2631 2963 
z
" transform="scale(0.015625)"/>
       <path id="DejaVuSans-6f" d="M 1959 3097 
Q 1497 3097 1228 2736 
Q 959 2375 959 1747 
Q 959 1119 1226 758 
Q 1494 397 1959 397 
Q 2419 397 2687 759 
Q 2956 1122 2956 1747 
Q 2956 2369 2687 2733 
Q 2419 3097 1959 3097 
z
M 1959 3584 
Q 2709 3584 3137 3096 
Q 3566 2609 3566 1747 
Q 3566 888 3137 398 
Q 2709 -91 1959 -91 
Q 1206 -91 779 398 
Q 353 888 353 1747 
Q 353 2609 779 3096 
Q 1206 3584 1959 3584 
z
" transform="scale(0.015625)"/>
      </defs>
      <use xlink:href="#DejaVuSans-52"/>
      <use xlink:href="#DejaVuSans-65" x="64.982422"/>
      <use xlink:href="#DejaVuSans-6c" x="126.505859"/>
      <use xlink:href="#DejaVuSans-61" x="154.289062"/>
      <use xlink:href="#DejaVuSans-74" x="215.568359"/>
      <use xlink:href="#DejaVuSans-69" x="254.777344"/>
      <use xlink:href="#DejaVuSans-76" x="282.560547"/>
      <use xlink:href="#DejaVuSans-65" x="341.740234"/>
      <use xlink:href="#DejaVuSans-20" x="403.263672"/>
      <use xlink:href="#DejaVuSans-65" x="435.050781"/>
      <use xlink:href="#DejaVuSans-72" x="496.574219"/>
      <use xlink:href="#DejaVuSans-72" x="535.9375"/>
      <use xlink:href="#DejaVuSans-6f" x="574.800781"/>
      <use xlink:href="#DejaVuSans-72" x="635.982422"/>
     </g>
    </g>
   </g>
   <g id="line2d_11">
    <path d="M 36.341362 114.385827 
L 36.450039 58.689212 
L 36.69289 54.35183 
L 37.050777 51.756971 
L 37.517309 49.930337 
L 38.098875 48.525126 
L 38.801867 47.396733 
L 39.651848 46.45084 
L 40.687164 45.634441 
L 41.971722 44.911401 
L 43.601386 44.258742 
L 45.729535 43.656991 
L 48.707665 43.062165 
L 58.031897 41.354688 
L 59.463445 40.77638 
L 60.530714 40.111451 
L 60.856647 40.002487 
L 62.070906 40.235884 
L 62.748335 40.581909 
L 63.221257 41.072408 
L 63.598316 41.797027 
L 63.911467 42.906839 
L 64.167101 44.685276 
L 64.352435 47.629737 
L 64.461079 53.398746 
L 64.493034 63.148855 
L 64.550551 50.495681 
L 64.755058 44.350252 
L 65.100163 40.490171 
L 65.585867 37.480802 
L 66.129088 35.410738 
L 66.646746 34.236892 
L 67.13245 33.639351 
L 67.624544 33.367913 
L 68.199719 33.310552 
L 68.992183 33.474412 
L 70.315087 34.005974 
L 72.09813 34.94788 
L 73.612759 36.014514 
L 75.165732 37.378047 
L 76.501417 38.841971 
L 77.575078 40.343947 
L 78.425059 41.913744 
L 79.089707 43.611405 
L 79.600974 45.53858 
L 79.978033 47.842698 
L 80.240057 50.860002 
L 80.399828 55.504738 
L 80.463737 64.907264 
L 80.470127 79.188953 
L 80.56599 54.329808 
L 80.79606 49.647887 
L 81.141165 46.936881 
L 81.594915 45.049721 
L 82.163699 43.606483 
L 82.85391 42.453285 
L 83.684719 41.498297 
L 84.68808 40.687204 
L 85.921512 39.98287 
L 87.461704 39.368364 
L 89.4173 38.836657 
L 91.973635 38.382481 
L 95.450251 38.003886 
L 100.492621 37.695623 
L 101.163659 37.555592 
L 102.582425 36.924582 
L 104.173744 36.45423 
L 106.423319 35.982962 
L 109.427012 35.593351 
L 113.657747 35.284333 
L 120.40008 35.039138 
L 132.510717 34.61619 
L 133.897529 34.583754 
L 134.952017 34.850106 
L 135.591101 35.232832 
L 136.051241 35.768561 
L 136.428301 36.568744 
L 136.741452 37.793804 
L 136.990694 39.719057 
L 137.169638 42.95928 
L 137.2655 49.071461 
L 137.291064 58.889182 
L 137.348581 45.369553 
L 137.553088 39.249454 
L 137.891802 35.535611 
L 138.358334 32.760609 
L 138.875991 30.912051 
L 139.387258 29.843979 
L 139.885744 29.285042 
L 140.409792 29.023048 
L 141.042485 28.96506 
L 141.924421 29.127077 
L 143.272888 29.62184 
L 145.030368 30.502533 
L 146.838975 31.66047 
L 148.519765 32.996743 
L 149.944922 34.409451 
L 151.101664 35.866259 
L 152.021944 37.38202 
L 152.744109 39.000067 
L 153.306503 40.811866 
L 153.734689 42.968754 
L 154.041449 45.728096 
L 154.233174 49.564466 
L 154.329037 56.422621 
L 154.348209 69.470102 
L 154.418508 51.581183 
L 154.629406 46.229021 
L 154.955339 43.319778 
L 155.396306 41.309456 
L 155.945918 39.808866 
L 156.616956 38.61278 
L 157.422202 37.630114 
L 158.393609 36.798247 
L 159.575914 36.083009 
L 161.045807 35.460844 
L 162.90554 34.924411 
L 165.314886 34.47188 
L 168.542259 34.10472 
L 173.12449 33.823058 
L 174.147024 33.66818 
L 176.479679 33.257017 
L 179.739006 32.89751 
L 184.391536 32.624357 
L 191.951897 32.428851 
L 196.105941 32.36952 
L 196.105941 32.36952 
" clip-path="url(#pc7ead49a74)" style="fill: none; stroke: #2065ab; stroke-linecap: square"/>
   </g>
   <g id="line2d_12">
    <path d="M 36.34139 114.385827 
L 36.450039 85.37145 
L 36.69289 76.514867 
L 37.057168 70.988043 
L 37.542872 66.887893 
L 38.156392 63.559737 
L 38.90412 60.714638 
L 39.798838 58.179451 
L 40.859717 55.841472 
L 42.112321 53.621166 
L 43.594995 51.448885 
L 45.365257 49.254681 
L 47.512578 46.954828 
L 50.19673 44.417302 
L 53.865071 41.276811 
L 60.223954 35.871314 
L 62.594955 33.734252 
L 63.713351 32.977608 
L 64.39078 32.761576 
L 64.863702 32.829927 
L 65.266325 33.114972 
L 65.675339 33.699192 
L 66.122697 34.761736 
L 66.633964 36.599688 
L 67.170795 39.398 
L 67.605372 42.860594 
L 67.873787 46.788548 
L 68.014385 52.084856 
L 68.065512 64.576152 
L 68.123029 52.161366 
L 68.314754 46.74132 
L 68.608733 44.265166 
L 68.979402 42.908045 
L 69.413979 42.112102 
L 69.938027 41.608988 
L 70.615456 41.276621 
L 71.478219 40.86762 
L 72.117303 40.318543 
L 72.960893 39.897596 
L 74.168762 39.560514 
L 76.098795 39.276263 
L 79.747963 38.998458 
L 93.060077 38.104952 
L 97.322766 37.540534 
L 101.374557 36.770009 
L 104.365469 36.174618 
L 109.554829 36.422133 
L 112.897237 36.791644 
L 115.255456 37.265416 
L 117.000155 37.833392 
L 118.33584 38.49531 
L 119.377546 39.25468 
L 120.208355 40.132787 
L 120.879393 41.165119 
L 121.429005 42.427255 
L 121.869973 44.018585 
L 122.208687 46.11346 
L 122.451539 49.130665 
L 122.592137 53.866349 
L 122.643264 62.237574 
L 122.649655 74.969567 
L 122.745518 51.859371 
L 122.975588 47.026754 
L 123.333475 44.025851 
L 123.825569 41.746983 
L 124.464653 39.82955 
L 125.28268 38.077834 
L 126.330777 36.366313 
L 127.692026 34.580429 
L 129.55815 32.51792 
L 132.983639 29.130531 
L 135.827562 26.489208 
L 136.773406 25.873366 
L 137.329409 25.751876 
L 137.744813 25.88162 
L 138.128263 26.248116 
L 138.537277 26.975969 
L 139.003808 28.300197 
L 139.55342 30.585796 
L 140.109423 33.874004 
L 140.518437 37.636722 
L 140.754898 41.892743 
L 140.869933 48.060577 
L 140.895496 54.324343 
L 140.901887 71.892532 
L 140.997749 44.091997 
L 141.221429 39.897029 
L 141.53458 37.878838 
L 141.91803 36.755769 
L 142.365389 36.094181 
L 142.915001 35.674382 
L 143.662729 35.396791 
L 146.334099 34.851276 
L 149.31862 34.699464 
L 158.968785 34.520911 
L 168.682858 34.236059 
L 174.383485 33.849445 
L 177.457477 33.661665 
L 182.812999 33.925201 
L 186.200143 34.301354 
L 188.571144 34.777318 
L 190.315843 35.345272 
L 191.638746 36.001963 
L 192.674062 36.75996 
L 193.49848 37.639073 
L 194.163127 38.676145 
L 194.699957 39.930757 
L 195.134534 41.532236 
L 195.466858 43.644972 
L 195.703319 46.687855 
L 195.837526 51.36396 
L 195.888653 60.581157 
L 195.895044 66.310188 
L 195.984515 49.464269 
L 196.105941 46.123397 
L 196.105941 46.123397 
" clip-path="url(#pc7ead49a74)" style="fill: none; stroke: #b1182b; stroke-linecap: square"/>
   </g>
   <g id="line2d_13">
    <path d="M 36.341364 114.385827 
L 36.450039 61.373065 
L 36.69289 57.02691 
L 37.050777 54.418175 
L 37.523699 52.552094 
L 38.111656 51.113151 
L 38.833821 49.927607 
L 39.715757 48.907668 
L 40.821372 47.975935 
L 42.25931 47.066928 
L 44.297987 46.060327 
L 49.468175 43.861075 
L 53.015089 42.182656 
L 55.967656 40.541931 
L 58.408956 38.940116 
L 60.211173 37.504055 
L 61.361523 36.623741 
L 62.959233 35.593468 
L 63.770869 35.305935 
L 64.282136 35.343101 
L 64.640023 35.35267 
L 65.355797 35.062397 
L 65.969317 35.050796 
L 66.685091 35.276946 
L 68.340318 35.881463 
L 68.934666 35.828979 
L 69.81021 35.997259 
L 71.25454 36.503674 
L 71.382356 36.553723 
L 72.539098 36.942922 
L 74.341314 37.805229 
L 76.999903 39.337765 
L 80.080286 41.368537 
L 80.559599 41.571926 
L 81.690777 40.806543 
L 83.096762 40.131686 
L 84.879805 39.532271 
L 87.218852 38.992509 
L 90.503742 38.479272 
L 97.373893 37.694058 
L 101.265913 37.132636 
L 103.777512 36.336142 
L 103.892547 36.341934 
L 107.11992 36.068383 
L 111.024722 35.964692 
L 114.884787 36.07768 
L 117.95878 36.378923 
L 120.240309 36.81554 
L 121.946663 37.359318 
L 122.809426 37.585968 
L 126.624756 35.384799 
L 130.043854 33.160473 
L 132.798305 31.114035 
L 135.878689 28.780249 
L 136.696716 28.409128 
L 137.195201 28.407154 
L 137.48918 28.374431 
L 137.962102 28.376258 
L 138.396679 28.605523 
L 138.914336 29.158031 
L 140.901887 31.648774 
L 140.940232 31.61695 
L 141.425936 31.368622 
L 142.052238 31.308772 
L 142.9853 31.464154 
L 144.723608 32.021086 
L 146.80063 32.906297 
L 149.593426 34.346524 
L 152.724936 36.212355 
L 154.469635 37.199551 
L 155.709457 36.478277 
L 157.243258 35.850157 
L 159.186073 35.303867 
L 161.710454 34.835701 
L 165.180679 34.432678 
L 170.887696 34.024072 
L 174.734981 33.676529 
L 177.336052 33.391614 
L 181.82881 33.263623 
L 186.506903 33.346466 
L 190.149681 33.619671 
L 192.750752 34.026038 
L 194.636049 34.535533 
L 196.105941 34.947201 
L 196.105941 34.947201 
" clip-path="url(#pc7ead49a74)" style="fill: none; stroke: #000000; stroke-linecap: square"/>
   </g>
   <g id="line2d_14">
    <path d="M 60.754394 100.913386 
L 60.754394 13.606299 
" clip-path="url(#pc7ead49a74)" style="fill: none; stroke-dasharray: 1,1.65; stroke-dashoffset: 0; stroke: #000000"/>
   </g>
   <g id="line2d_15">
    <path d="M 71.248149 100.913386 
L 71.248149 13.606299 
" clip-path="url(#pc7ead49a74)" style="fill: none; stroke-dasharray: 1,1.65; stroke-dashoffset: 0; stroke: #000000"/>
   </g>
   <g id="line2d_16">
    <path d="M 100.850508 100.913386 
L 100.850508 13.606299 
" clip-path="url(#pc7ead49a74)" style="fill: none; stroke-dasharray: 1,1.65; stroke-dashoffset: 0; stroke: #000000"/>
   </g>
   <g id="line2d_17">
    <path d="M 103.758339 100.913386 
L 103.758339 13.606299 
" clip-path="url(#pc7ead49a74)" style="fill: none; stroke-dasharray: 1,1.65; stroke-dashoffset: 0; stroke: #000000"/>
   </g>
   <g id="line2d_18">
    <path d="M 133.360699 100.913386 
L 133.360699 13.606299 
" clip-path="url(#pc7ead49a74)" style="fill: none; stroke-dasharray: 1,1.65; stroke-dashoffset: 0; stroke: #000000"/>
   </g>
   <g id="line2d_19">
    <path d="M 143.854454 100.913386 
L 143.854454 13.606299 
" clip-path="url(#pc7ead49a74)" style="fill: none; stroke-dasharray: 1,1.65; stroke-dashoffset: 0; stroke: #000000"/>
   </g>
   <g id="line2d_20">
    <path d="M 173.456813 100.913386 
L 173.456813 13.606299 
" clip-path="url(#pc7ead49a74)" style="fill: none; stroke-dasharray: 1,1.65; stroke-dashoffset: 0; stroke: #000000"/>
   </g>
   <g id="line2d_21">
    <path d="M 176.364644 100.913386 
L 176.364644 13.606299 
" clip-path="url(#pc7ead49a74)" style="fill: none; stroke-dasharray: 1,1.65; stroke-dashoffset: 0; stroke: #000000"/>
   </g>
   <g id="line2d_22">
    <path d="M 196.105941 100.913386 
L 196.105941 13.606299 
" clip-path="url(#pc7ead49a74)" style="fill: none; stroke-dasharray: 1,1.65; stroke-dashoffset: 0; stroke: #000000"/>
   </g>
   <g id="patch_3">
    <path d="M 28.346457 100.913386 
L 28.346457 13.606299 
" style="fill: none; stroke: #000000; stroke-width: 0.8; stroke-linejoin: miter; stroke-linecap: square"/>
   </g>
   <g id="patch_4">
    <path d="M 204.094488 100.913386 
L 204.094488 13.606299 
" style="fill: none; stroke: #000000; stroke-width: 0.8; stroke-linejoin: miter; stroke-linecap: square"/>
   </g>
   <g id="patch_5">
    <path d="M 28.346457 100.913386 
L 204.094488 100.913386 
" style="fill: none; stroke: #000000; stroke-width: 0.8; stroke-linejoin: miter; stroke-linecap: square"/>
   </g>
   <g id="patch_6">
    <path d="M 28.346457 13.606299 
L 204.094488 13.606299 
" style="fill: none; stroke: #000000; stroke-width: 0.8; stroke-linejoin: miter; stroke-linecap: square"/>
   </g>
  </g>
 </g>
 <defs>
  <clipPath id="pc7ead49a74">
   <rect x="28.346457" y="13.606299" width="175.748031" height="87.307087"/>
  </clipPath>
 </defs>
</svg>
