<?xml version="1.0" encoding="utf-8" standalone="no"?>
<!DOCTYPE svg PUBLIC "-//W3C//DTD SVG 1.1//EN"
  "http://www.w3.org/Graphics/SVG/1.1/DTD/svg11.dtd">
<svg xmlns:xlink="http://www.w3.org/1999/xlink" width="226.771654pt" height="113.385827pt" viewBox="0 0 226.771654 113.385827" xmlns="http://www.w3.org/2000/svg" version="1.1">
 <metadata>
  <rdf:RDF xmlns:dc="http://purl.org/dc/elements/1.1/" xmlns:cc="http://creativecommons.org/ns#" xmlns:rdf="http://www.w3.org/1999/02/22-rdf-syntax-ns#">
   <cc:Work>
    <dc:type rdf:resource="http://purl.org/dc/dcmitype/StillImage"/>
    <dc:date>2024-03-14T14:52:29.554378</dc:date>
    <dc:format>image/svg+xml</dc:format>
    <dc:creator>
     <cc:Agent>
      <dc:title>Matplotlib v3.8.3, https://matplotlib.org/</dc:title>
     </cc:Agent>
    </dc:creator>
   </cc:Work>
  </rdf:RDF>
 </metadata>
 <defs>
  <style type="text/css">*{stroke-linejoin: round; stroke-linecap: butt}</style>
 </defs>
 <g id="figure_1">
  <g id="patch_1">
   <path d="M 0 113.385827 
L 226.771654 113.385827 
L 226.771654 0 
L 0 0 
z
" style="fill: #ffffff"/>
  </g>
  <g id="axes_1">
   <g id="patch_2">
    <path d="M 28.346457 100.913386 
L 204.094488 100.913386 
L 204.094488 13.606299 
L 28.346457 13.606299 
z
" style="fill: #ffffff"/>
   </g>
   <g id="matplotlib.axis_1">
    <g id="xtick_1">
     <g id="line2d_1">
      <defs>
       <path id="mdababd4b04" d="M 0 0 
L 0 3.5 
" style="stroke: #000000; stroke-width: 0.8"/>
      </defs>
      <g>
       <use xlink:href="#mdababd4b04" x="36.335004" y="100.913386" style="stroke: #000000; stroke-width: 0.8"/>
      </g>
     </g>
     <g id="text_1">
      <!-- 0 -->
      <g transform="translate(34.426254 112.472448) scale(0.06 -0.06)">
       <defs>
        <path id="DejaVuSans-30" d="M 2034 4250 
Q 1547 4250 1301 3770 
Q 1056 3291 1056 2328 
Q 1056 1369 1301 889 
Q 1547 409 2034 409 
Q 2525 409 2770 889 
Q 3016 1369 3016 2328 
Q 3016 3291 2770 3770 
Q 2525 4250 2034 4250 
z
M 2034 4750 
Q 2819 4750 3233 4129 
Q 3647 3509 3647 2328 
Q 3647 1150 3233 529 
Q 2819 -91 2034 -91 
Q 1250 -91 836 529 
Q 422 1150 422 2328 
Q 422 3509 836 4129 
Q 1250 4750 2034 4750 
z
" transform="scale(0.015625)"/>
       </defs>
       <use xlink:href="#DejaVuSans-30"/>
      </g>
     </g>
    </g>
    <g id="xtick_2">
     <g id="line2d_2">
      <g>
       <use xlink:href="#mdababd4b04" x="68.289191" y="100.913386" style="stroke: #000000; stroke-width: 0.8"/>
      </g>
     </g>
     <g id="text_2">
      <!-- 50 -->
      <g transform="translate(64.471691 112.472448) scale(0.06 -0.06)">
       <defs>
        <path id="DejaVuSans-35" d="M 691 4666 
L 3169 4666 
L 3169 4134 
L 1269 4134 
L 1269 2991 
Q 1406 3038 1543 3061 
Q 1681 3084 1819 3084 
Q 2600 3084 3056 2656 
Q 3513 2228 3513 1497 
Q 3513 744 3044 326 
Q 2575 -91 1722 -91 
Q 1428 -91 1123 -41 
Q 819 9 494 109 
L 494 744 
Q 775 591 1075 516 
Q 1375 441 1709 441 
Q 2250 441 2565 725 
Q 2881 1009 2881 1497 
Q 2881 1984 2565 2268 
Q 2250 2553 1709 2553 
Q 1456 2553 1204 2497 
Q 953 2441 691 2322 
L 691 4666 
z
" transform="scale(0.015625)"/>
       </defs>
       <use xlink:href="#DejaVuSans-35"/>
       <use xlink:href="#DejaVuSans-30" x="63.623047"/>
      </g>
     </g>
    </g>
    <g id="xtick_3">
     <g id="line2d_3">
      <g>
       <use xlink:href="#mdababd4b04" x="100.243379" y="100.913386" style="stroke: #000000; stroke-width: 0.8"/>
      </g>
     </g>
     <g id="text_3">
      <!-- 100 -->
      <g transform="translate(94.517129 112.472448) scale(0.06 -0.06)">
       <defs>
        <path id="DejaVuSans-31" d="M 794 531 
L 1825 531 
L 1825 4091 
L 703 3866 
L 703 4441 
L 1819 4666 
L 2450 4666 
L 2450 531 
L 3481 531 
L 3481 0 
L 794 0 
L 794 531 
z
" transform="scale(0.015625)"/>
       </defs>
       <use xlink:href="#DejaVuSans-31"/>
       <use xlink:href="#DejaVuSans-30" x="63.623047"/>
       <use xlink:href="#DejaVuSans-30" x="127.246094"/>
      </g>
     </g>
    </g>
    <g id="xtick_4">
     <g id="line2d_4">
      <g>
       <use xlink:href="#mdababd4b04" x="132.197566" y="100.913386" style="stroke: #000000; stroke-width: 0.8"/>
      </g>
     </g>
     <g id="text_4">
      <!-- 150 -->
      <g transform="translate(126.471316 112.472448) scale(0.06 -0.06)">
       <use xlink:href="#DejaVuSans-31"/>
       <use xlink:href="#DejaVuSans-35" x="63.623047"/>
       <use xlink:href="#DejaVuSans-30" x="127.246094"/>
      </g>
     </g>
    </g>
    <g id="xtick_5">
     <g id="line2d_5">
      <g>
       <use xlink:href="#mdababd4b04" x="164.151754" y="100.913386" style="stroke: #000000; stroke-width: 0.8"/>
      </g>
     </g>
     <g id="text_5">
      <!-- 200 -->
      <g transform="translate(158.425504 112.472448) scale(0.06 -0.06)">
       <defs>
        <path id="DejaVuSans-32" d="M 1228 531 
L 3431 531 
L 3431 0 
L 469 0 
L 469 531 
Q 828 903 1448 1529 
Q 2069 2156 2228 2338 
Q 2531 2678 2651 2914 
Q 2772 3150 2772 3378 
Q 2772 3750 2511 3984 
Q 2250 4219 1831 4219 
Q 1534 4219 1204 4116 
Q 875 4013 500 3803 
L 500 4441 
Q 881 4594 1212 4672 
Q 1544 4750 1819 4750 
Q 2544 4750 2975 4387 
Q 3406 4025 3406 3419 
Q 3406 3131 3298 2873 
Q 3191 2616 2906 2266 
Q 2828 2175 2409 1742 
Q 1991 1309 1228 531 
z
" transform="scale(0.015625)"/>
       </defs>
       <use xlink:href="#DejaVuSans-32"/>
       <use xlink:href="#DejaVuSans-30" x="63.623047"/>
       <use xlink:href="#DejaVuSans-30" x="127.246094"/>
      </g>
     </g>
    </g>
    <g id="xtick_6">
     <g id="line2d_6">
      <g>
       <use xlink:href="#mdababd4b04" x="196.105941" y="100.913386" style="stroke: #000000; stroke-width: 0.8"/>
      </g>
     </g>
     <g id="text_6">
      <!-- 250 -->
      <g transform="translate(190.379691 112.472448) scale(0.06 -0.06)">
       <use xlink:href="#DejaVuSans-32"/>
       <use xlink:href="#DejaVuSans-35" x="63.623047"/>
       <use xlink:href="#DejaVuSans-30" x="127.246094"/>
      </g>
     </g>
    </g>
    <g id="text_7">
     <!-- Time (h) -->
     <g transform="translate(101.595394 123.039167) scale(0.07 -0.07)">
      <defs>
       <path id="DejaVuSans-54" d="M -19 4666 
L 3928 4666 
L 3928 4134 
L 2272 4134 
L 2272 0 
L 1638 0 
L 1638 4134 
L -19 4134 
L -19 4666 
z
" transform="scale(0.015625)"/>
       <path id="DejaVuSans-69" d="M 603 3500 
L 1178 3500 
L 1178 0 
L 603 0 
L 603 3500 
z
M 603 4863 
L 1178 4863 
L 1178 4134 
L 603 4134 
L 603 4863 
z
" transform="scale(0.015625)"/>
       <path id="DejaVuSans-6d" d="M 3328 2828 
Q 3544 3216 3844 3400 
Q 4144 3584 4550 3584 
Q 5097 3584 5394 3201 
Q 5691 2819 5691 2113 
L 5691 0 
L 5113 0 
L 5113 2094 
Q 5113 2597 4934 2840 
Q 4756 3084 4391 3084 
Q 3944 3084 3684 2787 
Q 3425 2491 3425 1978 
L 3425 0 
L 2847 0 
L 2847 2094 
Q 2847 2600 2669 2842 
Q 2491 3084 2119 3084 
Q 1678 3084 1418 2786 
Q 1159 2488 1159 1978 
L 1159 0 
L 581 0 
L 581 3500 
L 1159 3500 
L 1159 2956 
Q 1356 3278 1631 3431 
Q 1906 3584 2284 3584 
Q 2666 3584 2933 3390 
Q 3200 3197 3328 2828 
z
" transform="scale(0.015625)"/>
       <path id="DejaVuSans-65" d="M 3597 1894 
L 3597 1613 
L 953 1613 
Q 991 1019 1311 708 
Q 1631 397 2203 397 
Q 2534 397 2845 478 
Q 3156 559 3463 722 
L 3463 178 
Q 3153 47 2828 -22 
Q 2503 -91 2169 -91 
Q 1331 -91 842 396 
Q 353 884 353 1716 
Q 353 2575 817 3079 
Q 1281 3584 2069 3584 
Q 2775 3584 3186 3129 
Q 3597 2675 3597 1894 
z
M 3022 2063 
Q 3016 2534 2758 2815 
Q 2500 3097 2075 3097 
Q 1594 3097 1305 2825 
Q 1016 2553 972 2059 
L 3022 2063 
z
" transform="scale(0.015625)"/>
       <path id="DejaVuSans-20" transform="scale(0.015625)"/>
       <path id="DejaVuSans-28" d="M 1984 4856 
Q 1566 4138 1362 3434 
Q 1159 2731 1159 2009 
Q 1159 1288 1364 580 
Q 1569 -128 1984 -844 
L 1484 -844 
Q 1016 -109 783 600 
Q 550 1309 550 2009 
Q 550 2706 781 3412 
Q 1013 4119 1484 4856 
L 1984 4856 
z
" transform="scale(0.015625)"/>
       <path id="DejaVuSans-68" d="M 3513 2113 
L 3513 0 
L 2938 0 
L 2938 2094 
Q 2938 2591 2744 2837 
Q 2550 3084 2163 3084 
Q 1697 3084 1428 2787 
Q 1159 2491 1159 1978 
L 1159 0 
L 581 0 
L 581 4863 
L 1159 4863 
L 1159 2956 
Q 1366 3272 1645 3428 
Q 1925 3584 2291 3584 
Q 2894 3584 3203 3211 
Q 3513 2838 3513 2113 
z
" transform="scale(0.015625)"/>
       <path id="DejaVuSans-29" d="M 513 4856 
L 1013 4856 
Q 1481 4119 1714 3412 
Q 1947 2706 1947 2009 
Q 1947 1309 1714 600 
Q 1481 -109 1013 -844 
L 513 -844 
Q 928 -128 1133 580 
Q 1338 1288 1338 2009 
Q 1338 2731 1133 3434 
Q 928 4138 513 4856 
z
" transform="scale(0.015625)"/>
      </defs>
      <use xlink:href="#DejaVuSans-54"/>
      <use xlink:href="#DejaVuSans-69" x="57.958984"/>
      <use xlink:href="#DejaVuSans-6d" x="85.742188"/>
      <use xlink:href="#DejaVuSans-65" x="183.154297"/>
      <use xlink:href="#DejaVuSans-20" x="244.677734"/>
      <use xlink:href="#DejaVuSans-28" x="276.464844"/>
      <use xlink:href="#DejaVuSans-68" x="315.478516"/>
      <use xlink:href="#DejaVuSans-29" x="378.857422"/>
     </g>
    </g>
   </g>
   <g id="matplotlib.axis_2">
    <g id="ytick_1">
     <g id="line2d_7">
      <defs>
       <path id="m17fb3039ee" d="M 0 0 
L -3.5 0 
" style="stroke: #000000; stroke-width: 0.8"/>
      </defs>
      <g>
       <use xlink:href="#m17fb3039ee" x="28.346457" y="100.913386" style="stroke: #000000; stroke-width: 0.8"/>
      </g>
     </g>
     <g id="text_8">
      <!-- $\mathdefault{10^{-6}}$ -->
      <g transform="translate(7.246457 103.192917) scale(0.06 -0.06)">
       <defs>
        <path id="DejaVuSans-2212" d="M 678 2272 
L 4684 2272 
L 4684 1741 
L 678 1741 
L 678 2272 
z
" transform="scale(0.015625)"/>
        <path id="DejaVuSans-36" d="M 2113 2584 
Q 1688 2584 1439 2293 
Q 1191 2003 1191 1497 
Q 1191 994 1439 701 
Q 1688 409 2113 409 
Q 2538 409 2786 701 
Q 3034 994 3034 1497 
Q 3034 2003 2786 2293 
Q 2538 2584 2113 2584 
z
M 3366 4563 
L 3366 3988 
Q 3128 4100 2886 4159 
Q 2644 4219 2406 4219 
Q 1781 4219 1451 3797 
Q 1122 3375 1075 2522 
Q 1259 2794 1537 2939 
Q 1816 3084 2150 3084 
Q 2853 3084 3261 2657 
Q 3669 2231 3669 1497 
Q 3669 778 3244 343 
Q 2819 -91 2113 -91 
Q 1303 -91 875 529 
Q 447 1150 447 2328 
Q 447 3434 972 4092 
Q 1497 4750 2381 4750 
Q 2619 4750 2861 4703 
Q 3103 4656 3366 4563 
z
" transform="scale(0.015625)"/>
       </defs>
       <use xlink:href="#DejaVuSans-31" transform="translate(0 0.765625)"/>
       <use xlink:href="#DejaVuSans-30" transform="translate(63.623047 0.765625)"/>
       <use xlink:href="#DejaVuSans-2212" transform="translate(128.203125 39.046875) scale(0.7)"/>
       <use xlink:href="#DejaVuSans-36" transform="translate(186.855469 39.046875) scale(0.7)"/>
      </g>
     </g>
    </g>
    <g id="ytick_2">
     <g id="line2d_8">
      <g>
       <use xlink:href="#m17fb3039ee" x="28.346457" y="79.761549" style="stroke: #000000; stroke-width: 0.8"/>
      </g>
     </g>
     <g id="text_9">
      <!-- $\mathdefault{10^{-4}}$ -->
      <g transform="translate(7.246457 82.041081) scale(0.06 -0.06)">
       <defs>
        <path id="DejaVuSans-34" d="M 2419 4116 
L 825 1625 
L 2419 1625 
L 2419 4116 
z
M 2253 4666 
L 3047 4666 
L 3047 1625 
L 3713 1625 
L 3713 1100 
L 3047 1100 
L 3047 0 
L 2419 0 
L 2419 1100 
L 313 1100 
L 313 1709 
L 2253 4666 
z
" transform="scale(0.015625)"/>
       </defs>
       <use xlink:href="#DejaVuSans-31" transform="translate(0 0.684375)"/>
       <use xlink:href="#DejaVuSans-30" transform="translate(63.623047 0.684375)"/>
       <use xlink:href="#DejaVuSans-2212" transform="translate(128.203125 38.965625) scale(0.7)"/>
       <use xlink:href="#DejaVuSans-34" transform="translate(186.855469 38.965625) scale(0.7)"/>
      </g>
     </g>
    </g>
    <g id="ytick_3">
     <g id="line2d_9">
      <g>
       <use xlink:href="#m17fb3039ee" x="28.346457" y="58.609713" style="stroke: #000000; stroke-width: 0.8"/>
      </g>
     </g>
     <g id="text_10">
      <!-- $\mathdefault{10^{-2}}$ -->
      <g transform="translate(7.246457 60.889244) scale(0.06 -0.06)">
       <use xlink:href="#DejaVuSans-31" transform="translate(0 0.765625)"/>
       <use xlink:href="#DejaVuSans-30" transform="translate(63.623047 0.765625)"/>
       <use xlink:href="#DejaVuSans-2212" transform="translate(128.203125 39.046875) scale(0.7)"/>
       <use xlink:href="#DejaVuSans-32" transform="translate(186.855469 39.046875) scale(0.7)"/>
      </g>
     </g>
    </g>
    <g id="ytick_4">
     <g id="line2d_10">
      <g>
       <use xlink:href="#m17fb3039ee" x="28.346457" y="37.457877" style="stroke: #000000; stroke-width: 0.8"/>
      </g>
     </g>
     <g id="text_11">
      <!-- $\mathdefault{10^{0}}$ -->
      <g transform="translate(10.786457 39.737408) scale(0.06 -0.06)">
       <use xlink:href="#DejaVuSans-31" transform="translate(0 0.765625)"/>
       <use xlink:href="#DejaVuSans-30" transform="translate(63.623047 0.765625)"/>
       <use xlink:href="#DejaVuSans-30" transform="translate(128.203125 39.046875) scale(0.7)"/>
      </g>
     </g>
    </g>
    <g id="ytick_5">
     <g id="line2d_11">
      <g>
       <use xlink:href="#m17fb3039ee" x="28.346457" y="16.30604" style="stroke: #000000; stroke-width: 0.8"/>
      </g>
     </g>
     <g id="text_12">
      <!-- $\mathdefault{10^{2}}$ -->
      <g transform="translate(10.786457 18.585572) scale(0.06 -0.06)">
       <use xlink:href="#DejaVuSans-31" transform="translate(0 0.765625)"/>
       <use xlink:href="#DejaVuSans-30" transform="translate(63.623047 0.765625)"/>
       <use xlink:href="#DejaVuSans-32" transform="translate(128.203125 39.046875) scale(0.7)"/>
      </g>
     </g>
    </g>
    <g id="text_13">
     <!-- Log-ratio (%) -->
     <g transform="translate(1.790675 80.013671) rotate(-90) scale(0.07 -0.07)">
      <defs>
       <path id="DejaVuSans-4c" d="M 628 4666 
L 1259 4666 
L 1259 531 
L 3531 531 
L 3531 0 
L 628 0 
L 628 4666 
z
" transform="scale(0.015625)"/>
       <path id="DejaVuSans-6f" d="M 1959 3097 
Q 1497 3097 1228 2736 
Q 959 2375 959 1747 
Q 959 1119 1226 758 
Q 1494 397 1959 397 
Q 2419 397 2687 759 
Q 2956 1122 2956 1747 
Q 2956 2369 2687 2733 
Q 2419 3097 1959 3097 
z
M 1959 3584 
Q 2709 3584 3137 3096 
Q 3566 2609 3566 1747 
Q 3566 888 3137 398 
Q 2709 -91 1959 -91 
Q 1206 -91 779 398 
Q 353 888 353 1747 
Q 353 2609 779 3096 
Q 1206 3584 1959 3584 
z
" transform="scale(0.015625)"/>
       <path id="DejaVuSans-67" d="M 2906 1791 
Q 2906 2416 2648 2759 
Q 2391 3103 1925 3103 
Q 1463 3103 1205 2759 
Q 947 2416 947 1791 
Q 947 1169 1205 825 
Q 1463 481 1925 481 
Q 2391 481 2648 825 
Q 2906 1169 2906 1791 
z
M 3481 434 
Q 3481 -459 3084 -895 
Q 2688 -1331 1869 -1331 
Q 1566 -1331 1297 -1286 
Q 1028 -1241 775 -1147 
L 775 -588 
Q 1028 -725 1275 -790 
Q 1522 -856 1778 -856 
Q 2344 -856 2625 -561 
Q 2906 -266 2906 331 
L 2906 616 
Q 2728 306 2450 153 
Q 2172 0 1784 0 
Q 1141 0 747 490 
Q 353 981 353 1791 
Q 353 2603 747 3093 
Q 1141 3584 1784 3584 
Q 2172 3584 2450 3431 
Q 2728 3278 2906 2969 
L 2906 3500 
L 3481 3500 
L 3481 434 
z
" transform="scale(0.015625)"/>
       <path id="DejaVuSans-2d" d="M 313 2009 
L 1997 2009 
L 1997 1497 
L 313 1497 
L 313 2009 
z
" transform="scale(0.015625)"/>
       <path id="DejaVuSans-72" d="M 2631 2963 
Q 2534 3019 2420 3045 
Q 2306 3072 2169 3072 
Q 1681 3072 1420 2755 
Q 1159 2438 1159 1844 
L 1159 0 
L 581 0 
L 581 3500 
L 1159 3500 
L 1159 2956 
Q 1341 3275 1631 3429 
Q 1922 3584 2338 3584 
Q 2397 3584 2469 3576 
Q 2541 3569 2628 3553 
L 2631 2963 
z
" transform="scale(0.015625)"/>
       <path id="DejaVuSans-61" d="M 2194 1759 
Q 1497 1759 1228 1600 
Q 959 1441 959 1056 
Q 959 750 1161 570 
Q 1363 391 1709 391 
Q 2188 391 2477 730 
Q 2766 1069 2766 1631 
L 2766 1759 
L 2194 1759 
z
M 3341 1997 
L 3341 0 
L 2766 0 
L 2766 531 
Q 2569 213 2275 61 
Q 1981 -91 1556 -91 
Q 1019 -91 701 211 
Q 384 513 384 1019 
Q 384 1609 779 1909 
Q 1175 2209 1959 2209 
L 2766 2209 
L 2766 2266 
Q 2766 2663 2505 2880 
Q 2244 3097 1772 3097 
Q 1472 3097 1187 3025 
Q 903 2953 641 2809 
L 641 3341 
Q 956 3463 1253 3523 
Q 1550 3584 1831 3584 
Q 2591 3584 2966 3190 
Q 3341 2797 3341 1997 
z
" transform="scale(0.015625)"/>
       <path id="DejaVuSans-74" d="M 1172 4494 
L 1172 3500 
L 2356 3500 
L 2356 3053 
L 1172 3053 
L 1172 1153 
Q 1172 725 1289 603 
Q 1406 481 1766 481 
L 2356 481 
L 2356 0 
L 1766 0 
Q 1100 0 847 248 
Q 594 497 594 1153 
L 594 3053 
L 172 3053 
L 172 3500 
L 594 3500 
L 594 4494 
L 1172 4494 
z
" transform="scale(0.015625)"/>
       <path id="DejaVuSans-25" d="M 4653 2053 
Q 4381 2053 4226 1822 
Q 4072 1591 4072 1178 
Q 4072 772 4226 539 
Q 4381 306 4653 306 
Q 4919 306 5073 539 
Q 5228 772 5228 1178 
Q 5228 1588 5073 1820 
Q 4919 2053 4653 2053 
z
M 4653 2450 
Q 5147 2450 5437 2106 
Q 5728 1763 5728 1178 
Q 5728 594 5436 251 
Q 5144 -91 4653 -91 
Q 4153 -91 3862 251 
Q 3572 594 3572 1178 
Q 3572 1766 3864 2108 
Q 4156 2450 4653 2450 
z
M 1428 4353 
Q 1159 4353 1004 4120 
Q 850 3888 850 3481 
Q 850 3069 1003 2837 
Q 1156 2606 1428 2606 
Q 1700 2606 1854 2837 
Q 2009 3069 2009 3481 
Q 2009 3884 1853 4118 
Q 1697 4353 1428 4353 
z
M 4250 4750 
L 4750 4750 
L 1831 -91 
L 1331 -91 
L 4250 4750 
z
M 1428 4750 
Q 1922 4750 2215 4408 
Q 2509 4066 2509 3481 
Q 2509 2891 2217 2550 
Q 1925 2209 1428 2209 
Q 931 2209 642 2551 
Q 353 2894 353 3481 
Q 353 4063 643 4406 
Q 934 4750 1428 4750 
z
" transform="scale(0.015625)"/>
      </defs>
      <use xlink:href="#DejaVuSans-4c"/>
      <use xlink:href="#DejaVuSans-6f" x="53.962891"/>
      <use xlink:href="#DejaVuSans-67" x="115.144531"/>
      <use xlink:href="#DejaVuSans-2d" x="178.621094"/>
      <use xlink:href="#DejaVuSans-72" x="214.705078"/>
      <use xlink:href="#DejaVuSans-61" x="255.818359"/>
      <use xlink:href="#DejaVuSans-74" x="317.097656"/>
      <use xlink:href="#DejaVuSans-69" x="356.306641"/>
      <use xlink:href="#DejaVuSans-6f" x="384.089844"/>
      <use xlink:href="#DejaVuSans-20" x="445.271484"/>
      <use xlink:href="#DejaVuSans-28" x="477.058594"/>
      <use xlink:href="#DejaVuSans-25" x="516.072266"/>
      <use xlink:href="#DejaVuSans-29" x="611.091797"/>
     </g>
    </g>
   </g>
   <g id="line2d_12">
    <path d="M 36.341366 114.385827 
L 36.450039 54.084256 
L 36.69289 48.948009 
L 37.050777 45.87626 
L 37.517309 43.714868 
L 38.092484 42.067761 
L 38.782694 40.749561 
L 39.607112 39.651833 
L 40.591301 38.714902 
L 41.779997 37.895744 
L 43.243499 37.163852 
L 45.103233 36.491761 
L 47.576487 35.847498 
L 51.404598 35.106789 
L 56.427797 34.105568 
L 58.28753 33.504511 
L 59.565698 32.866376 
L 60.562669 32.123313 
L 60.837475 32.022646 
L 61.987825 32.26569 
L 62.652472 32.622091 
L 63.125394 33.126107 
L 63.508845 33.872052 
L 63.834777 35.024891 
L 64.103193 36.838027 
L 64.307699 39.811329 
L 64.435516 45.020049 
L 64.493034 59.365775 
L 64.54416 44.906952 
L 64.742276 37.331842 
L 65.080991 32.647906 
L 65.566694 28.926915 
L 66.122697 26.27349 
L 66.646746 24.760892 
L 67.126059 23.99535 
L 67.586199 23.64931 
L 68.084684 23.552115 
L 68.717377 23.670931 
L 69.682394 24.104552 
L 71.318448 25.107699 
L 72.545489 26.030656 
L 74.060117 27.45484 
L 75.536401 29.144063 
L 76.782614 30.903395 
L 77.785976 32.702242 
L 78.58483 34.593837 
L 79.211132 36.657483 
L 79.690445 39.017284 
L 80.041941 41.886233 
L 80.284793 45.813981 
L 80.419001 51.783082 
L 80.463737 61.448634 
L 80.470127 78.365043 
L 80.56599 48.921935 
L 80.79606 43.380757 
L 81.141165 40.17603 
L 81.594915 37.948679 
L 82.157309 36.263827 
L 82.834737 34.924 
L 83.633592 33.830984 
L 84.585827 32.906501 
L 85.723396 32.115623 
L 87.110208 31.427873 
L 88.835734 30.828369 
L 91.027791 30.3116 
L 93.903668 29.873399 
L 97.859596 29.509772 
L 101.202004 29.167639 
L 102.537689 28.486614 
L 103.988409 27.986962 
L 106.033477 27.472251 
L 108.698457 27.041936 
L 112.334843 26.693478 
L 117.747883 26.417461 
L 133.360699 25.740126 
L 133.699413 25.793844 
L 134.805028 26.058226 
L 135.463284 26.436195 
L 135.936206 26.965024 
L 136.319656 27.740338 
L 136.645589 28.934056 
L 136.914004 30.81815 
L 137.118511 33.969809 
L 137.239937 39.397385 
L 137.291064 54.319916 
L 137.34219 38.825523 
L 137.540306 31.22115 
L 137.879021 26.532976 
L 138.371115 22.750214 
L 138.9399 19.991793 
L 139.483121 18.363995 
L 139.975215 17.532747 
L 140.435356 17.161716 
L 140.908278 17.059225 
L 141.489844 17.174008 
L 142.327044 17.589159 
L 143.733028 18.565954 
L 145.516072 20.058371 
L 147.49084 21.992916 
L 149.171631 23.941208 
L 150.507316 25.823665 
L 151.555413 27.680193 
L 152.379831 29.589955 
L 153.025306 31.648136 
L 153.523791 33.996963 
L 153.89446 36.867644 
L 154.143702 40.607122 
L 154.290691 46.445686 
L 154.341818 56.140825 
L 154.348209 66.853281 
L 154.444072 44.240459 
L 154.674142 38.675948 
L 155.019247 35.472875 
L 155.472996 33.253076 
L 156.03539 31.578835 
L 156.706428 30.262219 
L 157.505283 29.18087 
L 158.451127 28.276317 
L 159.582305 27.505316 
L 160.962726 26.838987 
L 162.681861 26.263899 
L 164.873918 25.775009 
L 167.756186 25.371916 
L 171.731287 25.054918 
L 174.185369 24.802588 
L 176.40938 24.362012 
L 176.530806 24.35502 
L 179.643144 23.98207 
L 184.033649 23.69542 
L 190.98688 23.48782 
L 196.105941 23.406757 
L 196.105941 23.406757 
" clip-path="url(#p41fd5f9990)" style="fill: none; stroke: #2065ab; stroke-linecap: square"/>
   </g>
   <g id="line2d_13">
    <path d="M 36.341393 114.385827 
L 36.450039 85.688044 
L 36.69289 75.197662 
L 37.057168 68.651306 
L 37.542872 63.794836 
L 38.156392 59.852824 
L 38.897729 56.507764 
L 39.786056 53.518232 
L 40.827762 50.786566 
L 42.054803 48.192799 
L 43.492742 45.675205 
L 45.192704 43.151901 
L 47.224991 40.541015 
L 49.704636 37.727758 
L 52.893664 34.461514 
L 63.47689 24.200763 
L 64.218228 23.856081 
L 64.716713 23.849532 
L 65.119336 24.064313 
L 65.509177 24.54179 
L 65.924581 25.433158 
L 66.391112 27.006358 
L 66.90877 29.587009 
L 67.400865 33.20739 
L 67.752361 37.478505 
L 67.956868 42.767188 
L 68.046339 50.541 
L 68.065512 61.0567 
L 68.135811 45.42351 
L 68.340318 39.524178 
L 68.640687 36.778991 
L 69.017747 35.243066 
L 69.452324 34.345139 
L 69.963591 33.780928 
L 70.609065 33.406105 
L 71.459047 32.938799 
L 72.072567 32.288911 
L 72.845858 31.800216 
L 73.900346 31.410399 
L 75.478883 31.083487 
L 78.156644 30.782945 
L 84.828679 30.326311 
L 91.372896 29.775873 
L 95.590849 29.201995 
L 99.061074 28.509617 
L 102.595207 27.564856 
L 104.097054 27.194716 
L 108.941309 27.454862 
L 112.175072 27.839804 
L 114.52051 28.333524 
L 116.297162 28.926512 
L 117.683974 29.616779 
L 118.79598 30.414821 
L 119.697088 31.332763 
L 120.444816 32.414701 
L 121.064727 33.711801 
L 121.575994 35.316945 
L 121.985008 37.370501 
L 122.291768 40.099873 
L 122.502666 44.104633 
L 122.617701 51.043405 
L 122.649655 73.36728 
L 122.707173 48.365959 
L 122.905288 41.425343 
L 123.231221 37.524997 
L 123.684971 34.702961 
L 124.279319 32.390212 
L 125.033437 30.348024 
L 125.97289 28.446123 
L 127.155195 26.56232 
L 128.644261 24.617812 
L 130.567903 22.484169 
L 133.277618 19.834809 
L 135.162915 18.216721 
L 136.415519 17.378519 
L 137.144074 17.132999 
L 137.64256 17.185431 
L 138.057964 17.456601 
L 138.460587 18.002134 
L 138.895164 19.001157 
L 139.374477 20.715491 
L 139.879353 23.397413 
L 140.333102 27.051571 
L 140.646253 31.441795 
L 140.825197 37.384698 
L 140.895496 48.915464 
L 140.901887 69.722644 
L 140.997749 36.76696 
L 141.221429 31.745373 
L 141.53458 29.299297 
L 141.91803 27.922164 
L 142.358998 27.111761 
L 142.883047 26.602093 
L 143.554084 26.267985 
L 145.790878 25.614547 
L 147.842336 25.421601 
L 152.399004 25.262898 
L 168.229108 24.787201 
L 173.188398 24.385022 
L 177.559731 24.021178 
L 182.327296 24.312376 
L 185.516324 24.718114 
L 187.836198 25.227679 
L 189.600069 25.83508 
L 190.974099 26.536255 
L 192.073323 27.341168 
L 192.96804 28.268194 
L 193.709377 29.357272 
L 194.322898 30.658265 
L 194.827774 32.260767 
L 195.230397 34.2953 
L 195.537157 37.034992 
L 195.748054 41.067556 
L 195.863089 48.171493 
L 195.895044 63.11057 
L 195.952561 45.171355 
L 196.105941 39.215439 
L 196.105941 39.215439 
" clip-path="url(#p41fd5f9990)" style="fill: none; stroke: #b1182b; stroke-linecap: square"/>
   </g>
   <g id="line2d_14">
    <path d="M 36.341368 114.385827 
L 36.450039 57.263208 
L 36.69289 52.116564 
L 37.050777 49.02836 
L 37.523699 46.820228 
L 38.105266 45.133371 
L 38.814649 43.748011 
L 39.671021 42.564079 
L 40.719118 41.50012 
L 42.042021 40.482698 
L 43.844238 39.393086 
L 47.001311 37.787951 
L 51.583542 35.409048 
L 54.61919 33.570529 
L 57.271387 31.709442 
L 59.361191 29.983136 
L 62.224286 27.526771 
L 63.297947 26.910347 
L 63.924249 26.782328 
L 64.358826 26.910531 
L 64.588896 26.923885 
L 65.477223 26.340145 
L 66.161042 26.141516 
L 66.812908 26.18373 
L 67.586199 26.471179 
L 68.212501 26.662947 
L 68.717377 26.573852 
L 69.407588 26.696933 
L 70.538766 27.155691 
L 73.683058 28.765807 
L 76.13714 30.43748 
L 79.492329 32.997738 
L 80.553208 33.714665 
L 81.626869 32.863767 
L 82.9306 32.120084 
L 84.547482 31.461011 
L 86.618113 30.866588 
L 89.423691 30.306399 
L 94.005921 29.64923 
L 101.01667 28.621098 
L 103.342935 27.724818 
L 104.192916 27.547058 
L 107.298863 27.289219 
L 110.928859 27.213387 
L 114.45021 27.355563 
L 117.319696 27.684358 
L 119.530926 28.152384 
L 121.243671 28.733862 
L 122.598528 29.422905 
L 122.745518 29.390076 
L 129.564541 24.643248 
L 135.693354 20.379344 
L 136.511382 20.116099 
L 137.029039 20.16621 
L 137.438053 20.199186 
L 138.351943 19.684579 
L 139.048544 19.534933 
L 139.7068 19.623761 
L 140.46731 19.965636 
L 141.029704 20.167233 
L 141.502626 20.056392 
L 142.109755 20.157835 
L 143.042817 20.56512 
L 145.011195 21.726002 
L 148.02128 23.77504 
L 153.913632 28.077567 
L 154.437681 28.335104 
L 155.607204 27.573209 
L 157.038752 26.912533 
L 158.834577 26.337433 
L 161.14806 25.840283 
L 164.292352 25.405527 
L 169.283596 24.966724 
L 174.664681 24.452085 
L 177.137936 24.133804 
L 181.355888 24.034431 
L 185.618577 24.149904 
L 189.031284 24.453269 
L 191.59401 24.894069 
L 193.543215 25.446266 
L 195.057844 26.098885 
L 196.042033 26.490226 
L 196.105941 26.445727 
L 196.105941 26.445727 
" clip-path="url(#p41fd5f9990)" style="fill: none; stroke: #000000; stroke-linecap: square"/>
   </g>
   <g id="line2d_15">
    <path d="M 60.754394 100.913386 
L 60.754394 13.606299 
" clip-path="url(#p41fd5f9990)" style="fill: none; stroke-dasharray: 1,1.65; stroke-dashoffset: 0; stroke: #000000"/>
   </g>
   <g id="line2d_16">
    <path d="M 71.248149 100.913386 
L 71.248149 13.606299 
" clip-path="url(#p41fd5f9990)" style="fill: none; stroke-dasharray: 1,1.65; stroke-dashoffset: 0; stroke: #000000"/>
   </g>
   <g id="line2d_17">
    <path d="M 100.850508 100.913386 
L 100.850508 13.606299 
" clip-path="url(#p41fd5f9990)" style="fill: none; stroke-dasharray: 1,1.65; stroke-dashoffset: 0; stroke: #000000"/>
   </g>
   <g id="line2d_18">
    <path d="M 103.758339 100.913386 
L 103.758339 13.606299 
" clip-path="url(#p41fd5f9990)" style="fill: none; stroke-dasharray: 1,1.65; stroke-dashoffset: 0; stroke: #000000"/>
   </g>
   <g id="line2d_19">
    <path d="M 133.360699 100.913386 
L 133.360699 13.606299 
" clip-path="url(#p41fd5f9990)" style="fill: none; stroke-dasharray: 1,1.65; stroke-dashoffset: 0; stroke: #000000"/>
   </g>
   <g id="line2d_20">
    <path d="M 143.854454 100.913386 
L 143.854454 13.606299 
" clip-path="url(#p41fd5f9990)" style="fill: none; stroke-dasharray: 1,1.65; stroke-dashoffset: 0; stroke: #000000"/>
   </g>
   <g id="line2d_21">
    <path d="M 173.456813 100.913386 
L 173.456813 13.606299 
" clip-path="url(#p41fd5f9990)" style="fill: none; stroke-dasharray: 1,1.65; stroke-dashoffset: 0; stroke: #000000"/>
   </g>
   <g id="line2d_22">
    <path d="M 176.364644 100.913386 
L 176.364644 13.606299 
" clip-path="url(#p41fd5f9990)" style="fill: none; stroke-dasharray: 1,1.65; stroke-dashoffset: 0; stroke: #000000"/>
   </g>
   <g id="line2d_23">
    <path d="M 196.105941 100.913386 
L 196.105941 13.606299 
" clip-path="url(#p41fd5f9990)" style="fill: none; stroke-dasharray: 1,1.65; stroke-dashoffset: 0; stroke: #000000"/>
   </g>
   <g id="patch_3">
    <path d="M 28.346457 100.913386 
L 28.346457 13.606299 
" style="fill: none; stroke: #000000; stroke-width: 0.8; stroke-linejoin: miter; stroke-linecap: square"/>
   </g>
   <g id="patch_4">
    <path d="M 204.094488 100.913386 
L 204.094488 13.606299 
" style="fill: none; stroke: #000000; stroke-width: 0.8; stroke-linejoin: miter; stroke-linecap: square"/>
   </g>
   <g id="patch_5">
    <path d="M 28.346457 100.913386 
L 204.094488 100.913386 
" style="fill: none; stroke: #000000; stroke-width: 0.8; stroke-linejoin: miter; stroke-linecap: square"/>
   </g>
   <g id="patch_6">
    <path d="M 28.346457 13.606299 
L 204.094488 13.606299 
" style="fill: none; stroke: #000000; stroke-width: 0.8; stroke-linejoin: miter; stroke-linecap: square"/>
   </g>
   <g id="legend_1">
    <g id="line2d_24">
     <path d="M 156.947613 74.551823 
L 162.947613 74.551823 
L 168.947613 74.551823 
" style="fill: none; stroke: #2065ab; stroke-linecap: square"/>
    </g>
    <g id="text_14">
     <!-- Bacteria -->
     <g transform="translate(173.747613 76.651823) scale(0.06 -0.06)">
      <defs>
       <path id="DejaVuSans-42" d="M 1259 2228 
L 1259 519 
L 2272 519 
Q 2781 519 3026 730 
Q 3272 941 3272 1375 
Q 3272 1813 3026 2020 
Q 2781 2228 2272 2228 
L 1259 2228 
z
M 1259 4147 
L 1259 2741 
L 2194 2741 
Q 2656 2741 2882 2914 
Q 3109 3088 3109 3444 
Q 3109 3797 2882 3972 
Q 2656 4147 2194 4147 
L 1259 4147 
z
M 628 4666 
L 2241 4666 
Q 2963 4666 3353 4366 
Q 3744 4066 3744 3513 
Q 3744 3084 3544 2831 
Q 3344 2578 2956 2516 
Q 3422 2416 3680 2098 
Q 3938 1781 3938 1306 
Q 3938 681 3513 340 
Q 3088 0 2303 0 
L 628 0 
L 628 4666 
z
" transform="scale(0.015625)"/>
       <path id="DejaVuSans-63" d="M 3122 3366 
L 3122 2828 
Q 2878 2963 2633 3030 
Q 2388 3097 2138 3097 
Q 1578 3097 1268 2742 
Q 959 2388 959 1747 
Q 959 1106 1268 751 
Q 1578 397 2138 397 
Q 2388 397 2633 464 
Q 2878 531 3122 666 
L 3122 134 
Q 2881 22 2623 -34 
Q 2366 -91 2075 -91 
Q 1284 -91 818 406 
Q 353 903 353 1747 
Q 353 2603 823 3093 
Q 1294 3584 2113 3584 
Q 2378 3584 2631 3529 
Q 2884 3475 3122 3366 
z
" transform="scale(0.015625)"/>
      </defs>
      <use xlink:href="#DejaVuSans-42"/>
      <use xlink:href="#DejaVuSans-61" x="68.603516"/>
      <use xlink:href="#DejaVuSans-63" x="129.882812"/>
      <use xlink:href="#DejaVuSans-74" x="184.863281"/>
      <use xlink:href="#DejaVuSans-65" x="224.072266"/>
      <use xlink:href="#DejaVuSans-72" x="285.595703"/>
      <use xlink:href="#DejaVuSans-69" x="326.708984"/>
      <use xlink:href="#DejaVuSans-61" x="354.492188"/>
     </g>
    </g>
    <g id="line2d_25">
     <path d="M 156.947613 83.358698 
L 162.947613 83.358698 
L 168.947613 83.358698 
" style="fill: none; stroke: #b1182b; stroke-linecap: square"/>
    </g>
    <g id="text_15">
     <!-- Phage -->
     <g transform="translate(173.747613 85.458698) scale(0.06 -0.06)">
      <defs>
       <path id="DejaVuSans-50" d="M 1259 4147 
L 1259 2394 
L 2053 2394 
Q 2494 2394 2734 2622 
Q 2975 2850 2975 3272 
Q 2975 3691 2734 3919 
Q 2494 4147 2053 4147 
L 1259 4147 
z
M 628 4666 
L 2053 4666 
Q 2838 4666 3239 4311 
Q 3641 3956 3641 3272 
Q 3641 2581 3239 2228 
Q 2838 1875 2053 1875 
L 1259 1875 
L 1259 0 
L 628 0 
L 628 4666 
z
" transform="scale(0.015625)"/>
      </defs>
      <use xlink:href="#DejaVuSans-50"/>
      <use xlink:href="#DejaVuSans-68" x="60.302734"/>
      <use xlink:href="#DejaVuSans-61" x="123.681641"/>
      <use xlink:href="#DejaVuSans-67" x="184.960938"/>
      <use xlink:href="#DejaVuSans-65" x="248.4375"/>
     </g>
    </g>
    <g id="line2d_26">
     <path d="M 156.947613 92.165573 
L 162.947613 92.165573 
L 168.947613 92.165573 
" style="fill: none; stroke: #000000; stroke-linecap: square"/>
    </g>
    <g id="text_16">
     <!-- Mean -->
     <g transform="translate(173.747613 94.265573) scale(0.06 -0.06)">
      <defs>
       <path id="DejaVuSans-4d" d="M 628 4666 
L 1569 4666 
L 2759 1491 
L 3956 4666 
L 4897 4666 
L 4897 0 
L 4281 0 
L 4281 4097 
L 3078 897 
L 2444 897 
L 1241 4097 
L 1241 0 
L 628 0 
L 628 4666 
z
" transform="scale(0.015625)"/>
       <path id="DejaVuSans-6e" d="M 3513 2113 
L 3513 0 
L 2938 0 
L 2938 2094 
Q 2938 2591 2744 2837 
Q 2550 3084 2163 3084 
Q 1697 3084 1428 2787 
Q 1159 2491 1159 1978 
L 1159 0 
L 581 0 
L 581 3500 
L 1159 3500 
L 1159 2956 
Q 1366 3272 1645 3428 
Q 1925 3584 2291 3584 
Q 2894 3584 3203 3211 
Q 3513 2838 3513 2113 
z
" transform="scale(0.015625)"/>
      </defs>
      <use xlink:href="#DejaVuSans-4d"/>
      <use xlink:href="#DejaVuSans-65" x="86.279297"/>
      <use xlink:href="#DejaVuSans-61" x="147.802734"/>
      <use xlink:href="#DejaVuSans-6e" x="209.082031"/>
     </g>
    </g>
   </g>
  </g>
 </g>
 <defs>
  <clipPath id="p41fd5f9990">
   <rect x="28.346457" y="13.606299" width="175.748031" height="87.307087"/>
  </clipPath>
 </defs>
</svg>
