<?xml version="1.0" encoding="UTF-8" standalone="no"?>
<!-- Created with Inkscape (http://www.inkscape.org/) -->

<svg
   width="400mm"
   height="300mm"
   viewBox="0 0 400 300"
   version="1.1"
   id="svg5"
   inkscape:version="1.1.1 (50ffc5b540, 2022-01-11)"
   sodipodi:docname="Experiment_Flowchart_1.svg"
   inkscape:export-filename="/home/sergio/work/Github/needle-finder/docs/Presentations/Svg_Files/Exp_Flowchart_1.png"
   inkscape:export-xdpi="96"
   inkscape:export-ydpi="96"
   xmlns:inkscape="http://www.inkscape.org/namespaces/inkscape"
   xmlns:sodipodi="http://sodipodi.sourceforge.net/DTD/sodipodi-0.dtd"
   xmlns="http://www.w3.org/2000/svg"
   xmlns:svg="http://www.w3.org/2000/svg">
  <sodipodi:namedview
     id="namedview7"
     pagecolor="#ffffff"
     bordercolor="#666666"
     borderopacity="1.0"
     inkscape:pageshadow="2"
     inkscape:pageopacity="1"
     inkscape:pagecheckerboard="0"
     inkscape:document-units="mm"
     showgrid="false"
     inkscape:zoom="0.5"
     inkscape:cx="747"
     inkscape:cy="678"
     inkscape:window-width="1299"
     inkscape:window-height="713"
     inkscape:window-x="67"
     inkscape:window-y="27"
     inkscape:window-maximized="1"
     inkscape:current-layer="layer1" />
  <defs
     id="defs2">
    <marker
       style="overflow:visible"
       id="Arrow1Lstart"
       refX="0"
       refY="0"
       orient="auto"
       inkscape:stockid="Arrow1Lstart"
       inkscape:isstock="true">
      <path
         transform="matrix(0.8,0,0,0.8,10,0)"
         style="fill:context-stroke;fill-rule:evenodd;stroke:context-stroke;stroke-width:1pt"
         d="M 0,0 5,-5 -12.5,0 5,5 Z"
         id="path57923" />
    </marker>
  </defs>
  <g
     inkscape:label="Layer 1"
     inkscape:groupmode="layer"
     id="layer1">
    <ellipse
       style="fill:none;stroke:#000000;stroke-width:1.65537;stroke-miterlimit:4;stroke-dasharray:none"
       id="path846"
       cx="68.342957"
       cy="63.162392"
       rx="24.172312"
       ry="24.228016" />
    <path
       fill="#000000"
       d="m 61.926686,61.921396 c -0.718004,0 -1.306221,0.56147 -1.306221,1.24684 0,0.68536 0.588217,1.24682 1.306221,1.24682 0.718017,0 1.306224,-0.56146 1.306224,-1.24682 0,-0.68537 -0.588207,-1.24684 -1.306224,-1.24684 z m 5.44718,0.3032 c -0.540907,-0.0281 -1.688441,2.19223 -1.715101,3.44642 -0.0211,0.98739 1.209594,1.73121 1.234094,2.71849 0.0273,1.10003 -0.909454,1.7927 -1.223294,3.08763 -0.144237,0.47024 0.25251,1.16327 0.480947,1.51986 0.18041,0.27728 0.38868,0.50651 0.595307,0.66322 -0.196337,-0.87868 -0.165537,-1.80309 -0.006,-2.66745 0.10393,-0.56321 0.44164,-1.02383 0.716587,-1.45454 0.274937,-0.43071 0.482277,-0.81756 0.457807,-1.21086 -0.0257,-0.41154 -0.330627,-0.79219 -0.702587,-1.2155 -0.371987,-0.42331 -0.807694,-0.88239 -0.901134,-1.50574 -0.0691,-0.52195 0.20759,-1.22279 0.401647,-1.73654 l 0.528797,0.21178 c -0.208037,0.48539 -0.350607,0.92108 -0.362787,1.44724 0.062,0.41376 0.396907,0.80368 0.772847,1.2315 0.375937,0.42785 0.796224,0.90051 0.835664,1.5348 0.0366,0.58889 -0.255797,1.08212 -0.540527,1.52817 -0.284757,0.44607 -0.566707,0.85887 -0.641577,1.26466 -0.177897,0.96413 -0.178147,1.99481 0.12501,2.90223 0.10332,0.30932 0.300537,0.69518 0.533137,1.08374 a 2.0523131,1.9589843 0 0 0 0.0875,-0.23988 c 0.0829,-0.28836 0.0755,-0.60109 -0.0181,-0.73296 l 0.474637,-0.30726 c 0.26042,0.36653 0.2025,0.81645 0.0965,1.1851 -0.053,0.18428 -0.12375,0.35133 -0.20145,0.48802 -0.0302,0.0531 -0.0613,0.10144 -0.0955,0.14619 a 12.778228,12.197139 0 0 0 0.19298,0.27764 11.987161,11.442046 0 0 0 0.360127,0.47583 h 1.041004 c 0.35226,-1.2668 -1.796668,-2.94823 -1.805008,-4.47314 -0.007,-1.26818 1.275631,-2.39675 1.107544,-3.65476 -0.13342,-0.99862 -1.308094,-1.63423 -1.613881,-2.59767 -0.34606,-1.0904 0.265667,-3.32557 -0.18985,-3.41319 a 0.17675546,0.16871752 0 0 0 -0.0254,-0.003 z m -4.714423,0.94364 c 0,0.38955 -0.324637,0.69943 -0.732757,0.69943 -0.408117,0 -0.732764,-0.30987 -0.732764,-0.69943 0,-0.004 2.5e-4,-0.008 3.3e-4,-0.0113 0.0891,0.0615 0.197657,0.0984 0.314287,0.0984 0.29572,0 0.541607,-0.23471 0.541607,-0.51698 0,-0.0979 -0.0301,-0.18976 0.1384,-0.21877 0.16847,-0.0291 0.470907,0.27268 0.470907,0.64862 z m 7.884765,0.5267 c -0.577257,0 -1.051354,0.45257 -1.051354,1.00355 0,0.55104 0.474097,1.00355 1.051354,1.00355 0.577287,0 1.051344,-0.45251 1.051344,-1.00355 0,-0.55098 -0.474057,-1.00355 -1.051344,-1.00355 z m 0.16932,0.57659 c 0.1816,0.0641 0.308557,0.22905 0.308557,0.42696 0,0.25517 -0.210547,0.45616 -0.477877,0.45616 -0.247647,0 -0.446187,-0.17261 -0.474167,-0.40085 0.0542,0.0209 0.11291,0.0329 0.17417,0.0329 0.258667,0 0.474477,-0.20602 0.474477,-0.45291 0,-0.0212 -0.002,-0.0418 -0.005,-0.0623 z m -1.188824,1.36968 c -0.295717,0 -0.541597,0.23471 -0.541597,0.51698 0,0.28231 0.24588,0.51699 0.541597,0.51699 0.29576,0 0.541607,-0.23468 0.541607,-0.51699 0,-0.28227 -0.245847,-0.51698 -0.541607,-0.51698 z m 2.129728,0.73551 a 0.10838538,0.10345656 0 0 0 -0.019,7.5e-4 c -0.334607,0.0511 0.616037,2.18898 0.30809,3.22905 -0.17956,0.60648 -1.050624,0.89771 -1.185584,1.51469 -0.1562,0.71418 0.539927,1.40171 0.522747,2.13111 -0.0233,0.99405 -1.345664,2.07536 -0.720807,2.87089 0.16745,0.21316 0.375167,-0.0314 0.575667,-0.17345 a 9.7300882,9.2876137 0 0 0 0.430637,-0.39783 1.524468,1.4551429 0 0 1 -0.154107,-0.19183 1.6253983,1.5514834 0 0 1 -0.25465,-0.92509 l 0.572597,0.03 c -0.0145,0.25179 0.0663,0.4533 0.16452,0.59918 0.019,0.0283 0.0385,0.0532 0.058,0.0767 0.0521,-0.0613 0.100567,-0.12079 0.140497,-0.17565 0.19698,-0.27038 0.36109,-0.55228 0.36377,-0.7887 0.005,-0.42416 -0.29919,-0.86967 -0.637347,-1.35898 -0.33815,-0.48928 -0.714917,-1.03766 -0.608447,-1.69572 0.0643,-0.39796 0.379157,-0.62837 0.624757,-0.81646 0.245567,-0.1881 0.429657,-0.34529 0.472577,-0.49399 l 0.552867,0.14539 c -0.11007,0.38135 -0.427227,0.59218 -0.666607,0.77553 -0.23939,0.18335 -0.393337,0.32767 -0.416847,0.4731 -0.0664,0.41029 0.187647,0.82938 0.520327,1.31072 0.332667,0.48136 0.739634,1.00957 0.732174,1.66635 -0.005,0.44481 -0.255887,0.80632 -0.466347,1.09526 -0.258217,0.35446 -0.666974,0.75138 -1.042914,1.07726 -0.005,0.004 -0.009,0.007 -0.0128,0.0109 h 1.112704 c 0.29025,-0.10984 0.549767,-0.26263 0.737867,-0.4466 0.658907,-0.64441 0.371317,-1.75439 0.13728,-2.69821 -0.1383,-0.55767 -1.057084,-1.26404 -1.041024,-2.01183 0.0129,-0.6019 0.897114,-0.98324 0.906614,-1.58515 0.0188,-1.19453 -1.295074,-3.24085 -1.707151,-3.24787 z m -9.183469,0.15622 c -0.007,2.4e-4 -0.0127,7.5e-4 -0.0187,0.002 -0.334617,0.059 0.41219,1.51794 0.30801,2.27662 -0.0868,0.63235 -0.695097,1.13559 -0.760377,1.77028 -0.0849,0.82459 0.544467,1.61186 0.500347,2.43932 -0.055,1.03035 -1.614141,2.17257 -0.996174,2.97199 0.15182,-0.13325 0.33625,-0.30745 0.528077,-0.50557 0.429357,-0.44348 0.888577,-1.00735 1.074664,-1.40859 0.16506,-0.35589 0.20071,-0.79827 0.15401,-1.21885 -0.1304,-0.64428 -0.613647,-1.21347 -0.654547,-1.80599 -0.0343,-0.62943 0.29164,-1.13954 0.379247,-1.58439 0.0686,-0.34789 0.16385,-1.10675 0.16385,-1.10675 l 0.569487,0.0644 c 0,0 -0.0916,0.7469 -0.16974,1.14354 -0.113867,0.57803 -0.392447,1.04488 -0.370107,1.45478 0.0982,0.64587 0.579327,1.19337 0.652087,1.77671 0.0541,0.48697 0.0221,1.01951 -0.19985,1.49812 -0.241937,0.52165 -0.725914,1.09164 -1.177994,1.55853 a 10.515357,10.037172 0 0 1 -0.440547,0.42897 c 0.576237,0.11137 1.371024,-0.18693 1.782391,-0.53583 0.919514,-0.77988 1.026824,-1.94646 0.666177,-3.31027 -0.23057,-0.87182 -0.709317,-1.4879 -0.652477,-2.271 0.0346,-0.47693 0.866634,-0.78231 0.593277,-1.31769 -0.447717,-0.87691 -1.526361,-2.34027 -1.931011,-2.32038 z m 12.098064,3.62929 c -0.24271,0 -0.46706,0.0803 -0.645697,0.21393 a 0.48642799,0.46430767 0 0 0 -0.16693,0.15564 c -0.14891,0.17328 -0.238727,0.39428 -0.238727,0.63397 0,0.55104 0.474137,1.00355 1.051354,1.00355 0.577294,0 1.051354,-0.45251 1.051354,-1.00355 0,-0.55097 -0.47406,-1.00354 -1.051354,-1.00354 z m 0.0613,0.55143 c 0.23744,0.0281 0.41658,0.21685 0.41658,0.45211 0,0.25517 -0.21055,0.45616 -0.477877,0.45616 -0.24987,0 -0.45007,-0.17565 -0.47515,-0.40695 0.0215,0.003 0.0434,0.005 0.0657,0.005 0.25863,0 0.474437,-0.206 0.474437,-0.4529 0,-0.0181 -0.001,-0.0359 -0.004,-0.0534 z m -9.197956,2.1756 c -0.11705,1.40211 0.188697,2.60082 1.115394,3.47713 h 1.599931 a 13.767364,13.141294 0 0 1 -0.12171,-0.16671 c -0.400527,-0.55879 -0.814827,-1.22006 -1.054344,-1.8066 -0.542427,-0.13785 -0.973704,-0.59303 -1.308294,-1.1073 a 5.0940489,4.8623974 0 0 1 -0.230977,-0.39652 z"
       id="path6396"
       style="fill:#005500;stroke-width:0.0311265" />
    <g
       id="g1377"
       transform="rotate(-90,133.15208,80.316237)">
      <rect
         style="fill:#000000;stroke:#000000;stroke-width:0.680259;stroke-miterlimit:4;stroke-dasharray:none"
         id="rect18359"
         width="3.4935539"
         height="26.423082"
         x="148.58002"
         y="59.49271"
         ry="0" />
      <path
         style="fill:#000000;stroke:#000000;stroke-width:0.985781;stroke-linecap:butt;stroke-linejoin:miter;stroke-miterlimit:4;stroke-dasharray:none;stroke-opacity:1;marker-start:url(#Arrow1Lstart)"
         d="m 149.8728,96.83049 0.5955,-12.11462"
         id="path18597"
         sodipodi:nodetypes="cc" />
    </g>
    <text
       xml:space="preserve"
       style="font-style:normal;font-weight:normal;font-size:10.5833px;line-height:1.25;font-family:sans-serif;fill:#000000;fill-opacity:1;stroke:none;stroke-width:0.264583"
       x="50.711262"
       y="16.353094"
       id="text24599"><tspan
         sodipodi:role="line"
         id="tspan24597"
         style="stroke-width:0.264583"
         x="50.711262"
         y="16.353094">t=1</tspan></text>
    <g
       id="g38"
       transform="matrix(0.05705157,0,0,0.05705157,18.88518,23.417872)">
      <circle
         style="fill:#f7cf52"
         cx="219.097"
         cy="219.09599"
         r="108.313"
         id="circle2" />
      <rect
         x="211.60001"
         y="348.358"
         style="fill:#f7cf52"
         width="15"
         height="89.842003"
         id="rect4" />
      <rect
         x="211.60001"
         style="fill:#f7cf52"
         width="15"
         height="89.842003"
         id="rect6"
         y="0" />
      <rect
         x="88.442001"
         y="297.34201"
         transform="matrix(-0.7071,-0.7071,0.7071,-0.7071,-78.2323,652.1193)"
         style="fill:#f7cf52"
         width="15"
         height="89.841003"
         id="rect8" />
      <rect
         x="334.76501"
         y="51.011002"
         transform="matrix(-0.7071,-0.7071,0.7071,-0.7071,516.4483,405.7837)"
         style="fill:#f7cf52"
         width="15"
         height="89.841003"
         id="rect10" />
      <rect
         y="211.60001"
         style="fill:#f7cf52"
         width="89.842003"
         height="15"
         id="rect12"
         x="0" />
      <rect
         x="348.358"
         y="211.60001"
         style="fill:#f7cf52"
         width="89.842003"
         height="15"
         id="rect14" />
      <rect
         x="51.016998"
         y="88.435997"
         transform="matrix(-0.7071,-0.7071,0.7071,-0.7071,95.9381,231.6103)"
         style="fill:#f7cf52"
         width="89.841003"
         height="15"
         id="rect16" />
      <rect
         x="297.34201"
         y="334.758"
         transform="matrix(-0.7071,-0.7071,0.7071,-0.7071,342.2663,826.288)"
         style="fill:#f7cf52"
         width="89.841003"
         height="15"
         id="rect18" />
      <g
         id="g36">
        <rect
           x="257.72699"
           y="347.297"
           transform="matrix(-0.3826,-0.9239,0.9239,-0.3826,52.8494,744.91)"
           style="fill:#f4581b"
           width="35.174"
           height="15"
           id="rect20" />
        <rect
           x="145.30499"
           y="75.898003"
           transform="matrix(-0.3826,-0.9239,0.9239,-0.3826,148.1631,265.8043)"
           style="fill:#f4581b"
           width="35.174"
           height="15"
           id="rect22" />
        <rect
           x="155.38901"
           y="337.20801"
           transform="matrix(-0.9239,-0.3826,0.3826,-0.9239,177.6382,744.917)"
           style="fill:#f4581b"
           width="15"
           height="35.174"
           id="rect24" />
        <rect
           x="267.80499"
           y="65.809998"
           transform="matrix(-0.9239,-0.3826,0.3826,-0.9239,497.7542,265.7812)"
           style="fill:#f4581b"
           width="15"
           height="35.174"
           id="rect26" />
        <rect
           x="75.901001"
           y="257.716"
           transform="matrix(-0.3826,-0.9239,0.9239,-0.3826,-139.0446,457.6895)"
           style="fill:#f4581b"
           width="15"
           height="35.174"
           id="rect28" />
        <rect
           x="347.29599"
           y="145.3"
           transform="matrix(-0.3826,-0.9239,0.9239,-0.3826,340.0494,553.0082)"
           style="fill:#f4581b"
           width="15"
           height="35.174"
           id="rect30" />
        <rect
           x="65.814003"
           y="155.39"
           transform="matrix(-0.9239,-0.3826,0.3826,-0.9239,98.1324,345.2949)"
           style="fill:#f4581b"
           width="35.174"
           height="15"
           id="rect32" />
        <rect
           x="337.211"
           y="267.802"
           transform="matrix(-0.9239,-0.3826,0.3826,-0.9239,577.2684,665.4034)"
           style="fill:#f4581b"
           width="35.174"
           height="15"
           id="rect34" />
      </g>
    </g>
    <ellipse
       style="fill:none;stroke:#000000;stroke-width:1.65537;stroke-miterlimit:4;stroke-dasharray:none"
       id="ellipse1379"
       cx="202.75032"
       cy="63.162392"
       rx="24.172312"
       ry="24.228016" />
    <path
       fill="#000000"
       d="m 196.33565,61.921396 c -0.71801,0 -1.30623,0.56147 -1.30623,1.24684 0,0.68536 0.58822,1.24682 1.30623,1.24682 0.71802,0 1.30623,-0.56146 1.30623,-1.24682 0,-0.68537 -0.58821,-1.24684 -1.30623,-1.24684 z m 5.44721,0.3032 c -0.54091,-0.0281 -1.68845,2.19223 -1.71511,3.44642 -0.0211,0.98739 1.2096,1.73121 1.2341,2.71849 0.0273,1.10003 -0.90946,1.7927 -1.2233,3.08763 -0.14424,0.47024 0.25251,1.16327 0.48095,1.51986 0.18041,0.27728 0.38868,0.50651 0.59531,0.66322 -0.19634,-0.87868 -0.16554,-1.80309 -0.006,-2.66745 0.10393,-0.56321 0.44164,-1.02383 0.71659,-1.45454 0.27494,-0.43071 0.48228,-0.81756 0.45781,-1.21086 -0.0257,-0.41154 -0.33063,-0.79219 -0.70259,-1.2155 -0.37199,-0.42331 -0.8077,-0.88239 -0.90114,-1.50574 -0.0691,-0.52195 0.20759,-1.22279 0.40165,-1.73654 l 0.5288,0.21178 c -0.20804,0.48539 -0.35061,0.92108 -0.36279,1.44724 0.062,0.41376 0.39691,0.80368 0.77285,1.2315 0.37594,0.42785 0.79623,0.90051 0.83567,1.5348 0.0366,0.58889 -0.2558,1.08212 -0.54053,1.52817 -0.28476,0.44607 -0.56671,0.85887 -0.64158,1.26466 -0.1779,0.96413 -0.17815,1.99481 0.12501,2.90223 0.10332,0.30932 0.30054,0.69518 0.53314,1.08374 a 2.0523131,1.9589843 0 0 0 0.0875,-0.23988 c 0.0829,-0.28836 0.0755,-0.60109 -0.0181,-0.73296 l 0.47464,-0.30726 c 0.26042,0.36653 0.2025,0.81645 0.0965,1.1851 -0.053,0.18428 -0.12375,0.35133 -0.20145,0.48802 -0.0302,0.0531 -0.0613,0.10144 -0.0955,0.14619 a 12.778228,12.197139 0 0 0 0.19298,0.27764 11.987161,11.442046 0 0 0 0.36013,0.47583 h 1.04101 c 0.35226,-1.2668 -1.79668,-2.94823 -1.80502,-4.47314 -0.007,-1.26818 1.27564,-2.39675 1.10755,-3.65476 -0.13342,-0.99862 -1.3081,-1.63423 -1.61389,-2.59767 -0.34606,-1.0904 0.26567,-3.32557 -0.18985,-3.41319 a 0.17675546,0.16871752 0 0 0 -0.0254,-0.003 z m -4.71445,0.94364 c 0,0.38955 -0.32464,0.69943 -0.73276,0.69943 -0.40812,0 -0.73277,-0.30987 -0.73277,-0.69943 0,-0.004 2.5e-4,-0.008 3.3e-4,-0.0113 0.0891,0.0615 0.19766,0.0984 0.31429,0.0984 0.29572,0 0.54161,-0.23471 0.54161,-0.51698 0,-0.0979 -0.0301,-0.18976 0.1384,-0.21877 0.16847,-0.0291 0.47091,0.27268 0.47091,0.64862 z m 7.88481,0.5267 c -0.57726,0 -1.05136,0.45257 -1.05136,1.00355 0,0.55104 0.4741,1.00355 1.05136,1.00355 0.57729,0 1.05135,-0.45251 1.05135,-1.00355 0,-0.55098 -0.47406,-1.00355 -1.05135,-1.00355 z m 0.16932,0.57659 c 0.1816,0.0641 0.30856,0.22905 0.30856,0.42696 0,0.25517 -0.21055,0.45616 -0.47788,0.45616 -0.24765,0 -0.44619,-0.17261 -0.47417,-0.40085 0.0542,0.0209 0.11291,0.0329 0.17417,0.0329 0.25867,0 0.47448,-0.20602 0.47448,-0.45291 0,-0.0212 -0.002,-0.0418 -0.005,-0.0623 z m -1.18883,1.36968 c -0.29572,0 -0.5416,0.23471 -0.5416,0.51698 0,0.28231 0.24588,0.51699 0.5416,0.51699 0.29576,0 0.54161,-0.23468 0.54161,-0.51699 0,-0.28227 -0.24585,-0.51698 -0.54161,-0.51698 z m 2.12974,0.73551 a 0.10838538,0.10345656 0 0 0 -0.019,7.5e-4 c -0.33461,0.0511 0.61604,2.18898 0.30809,3.22905 -0.17956,0.60648 -1.05063,0.89771 -1.18559,1.51469 -0.1562,0.71418 0.53993,1.40171 0.52275,2.13111 -0.0233,0.99405 -1.34567,2.07536 -0.72081,2.87089 0.16745,0.21316 0.37517,-0.0314 0.57567,-0.17345 a 9.7300882,9.2876137 0 0 0 0.43064,-0.39783 1.524468,1.4551429 0 0 1 -0.15411,-0.19183 1.6253983,1.5514834 0 0 1 -0.25465,-0.92509 l 0.5726,0.03 c -0.0145,0.25179 0.0663,0.4533 0.16452,0.59918 0.019,0.0283 0.0385,0.0532 0.058,0.0767 0.0521,-0.0613 0.10057,-0.12079 0.1405,-0.17565 0.19698,-0.27038 0.36109,-0.55228 0.36377,-0.7887 0.005,-0.42416 -0.29919,-0.86967 -0.63735,-1.35898 -0.33815,-0.48928 -0.71492,-1.03766 -0.60845,-1.69572 0.0643,-0.39796 0.37916,-0.62837 0.62476,-0.81646 0.24557,-0.1881 0.42966,-0.34529 0.47258,-0.49399 l 0.55287,0.14539 c -0.11007,0.38135 -0.42723,0.59218 -0.66661,0.77553 -0.23939,0.18335 -0.39334,0.32767 -0.41685,0.4731 -0.0664,0.41029 0.18765,0.82938 0.52033,1.31072 0.33267,0.48136 0.73964,1.00957 0.73218,1.66635 -0.005,0.44481 -0.25589,0.80632 -0.46635,1.09526 -0.25822,0.35446 -0.66698,0.75138 -1.04292,1.07726 -0.005,0.004 -0.009,0.007 -0.0128,0.0109 h 1.11271 c 0.29025,-0.10984 0.54977,-0.26263 0.73787,-0.4466 0.65891,-0.64441 0.37132,-1.75439 0.13728,-2.69821 -0.1383,-0.55767 -1.05709,-1.26404 -1.04103,-2.01183 0.0129,-0.6019 0.89712,-0.98324 0.90662,-1.58515 0.0188,-1.19453 -1.29508,-3.24085 -1.70716,-3.24787 z m -9.18352,0.15622 c -0.007,2.4e-4 -0.0127,7.5e-4 -0.0187,0.002 -0.33462,0.059 0.41219,1.51794 0.30801,2.27662 -0.0868,0.63235 -0.6951,1.13559 -0.76038,1.77028 -0.0849,0.82459 0.54447,1.61186 0.50035,2.43932 -0.055,1.03035 -1.61415,2.17257 -0.99618,2.97199 0.15182,-0.13325 0.33625,-0.30745 0.52808,-0.50557 0.42936,-0.44348 0.88858,-1.00735 1.07467,-1.40859 0.16506,-0.35589 0.20071,-0.79827 0.15401,-1.21885 -0.1304,-0.64428 -0.61365,-1.21347 -0.65455,-1.80599 -0.0343,-0.62943 0.29164,-1.13954 0.37925,-1.58439 0.0686,-0.34789 0.16385,-1.10675 0.16385,-1.10675 l 0.56949,0.0644 c 0,0 -0.0916,0.7469 -0.16974,1.14354 -0.11387,0.57803 -0.39245,1.04488 -0.37011,1.45478 0.0982,0.64587 0.57933,1.19337 0.65209,1.77671 0.0541,0.48697 0.0221,1.01951 -0.19985,1.49812 -0.24194,0.52165 -0.72592,1.09164 -1.178,1.55853 a 10.515357,10.037172 0 0 1 -0.44055,0.42897 c 0.57624,0.11137 1.37103,-0.18693 1.7824,-0.53583 0.91952,-0.77988 1.02683,-1.94646 0.66618,-3.31027 -0.23057,-0.87182 -0.70932,-1.4879 -0.65248,-2.271 0.0346,-0.47693 0.86664,-0.78231 0.59328,-1.31769 -0.44772,-0.87691 -1.52637,-2.34027 -1.93102,-2.32038 z m 12.09813,3.62929 c -0.24271,0 -0.46706,0.0803 -0.6457,0.21393 a 0.48642799,0.46430767 0 0 0 -0.16693,0.15564 c -0.14891,0.17328 -0.23873,0.39428 -0.23873,0.63397 0,0.55104 0.47414,1.00355 1.05136,1.00355 0.5773,0 1.05136,-0.45251 1.05136,-1.00355 0,-0.55097 -0.47406,-1.00354 -1.05136,-1.00354 z m 0.0613,0.55143 c 0.23744,0.0281 0.41658,0.21685 0.41658,0.45211 0,0.25517 -0.21055,0.45616 -0.47788,0.45616 -0.24987,0 -0.45007,-0.17565 -0.47515,-0.40695 0.0215,0.003 0.0434,0.005 0.0657,0.005 0.25863,0 0.47444,-0.206 0.47444,-0.4529 0,-0.0181 -0.001,-0.0359 -0.004,-0.0534 z m -9.19801,2.1756 c -0.11705,1.40211 0.1887,2.60082 1.1154,3.47713 h 1.59994 a 13.767364,13.141294 0 0 1 -0.12171,-0.16671 c -0.40053,-0.55879 -0.81483,-1.22006 -1.05435,-1.8066 -0.54243,-0.13785 -0.97371,-0.59303 -1.3083,-1.1073 a 5.0940489,4.8623974 0 0 1 -0.23098,-0.39652 z"
       id="path1381"
       style="fill:#005500;stroke-width:0.0311265" />
    <g
       id="g1480"
       transform="matrix(0.03009249,0,0,0.03009249,157.81477,26.991677)">
      <g
         id="g1425">
        <g
           id="g1423">
          <path
             d="m 465.411,427.184 c -94.332,-1.536 -171.076,-79.532 -171.076,-173.876 0,-94.344 76.748,-172.34 171.08,-173.872 1.592,-0.02 3.02,-1.004 3.612,-2.488 0.588,-1.484 0.24,-3.176 -0.904,-4.292 C 420.447,25.804 357.403,0 290.615,0 150.939,0 37.307,113.632 37.307,253.308 c 0,139.68 113.632,253.308 253.308,253.308 66.788,0 129.832,-25.804 177.508,-72.66 1.14,-1.116 1.492,-2.808 0.904,-4.288 -0.596,-1.484 -2.02,-2.464 -3.616,-2.484 z"
             id="path1421" />
        </g>
      </g>
      <g
         id="g1427" />
      <g
         id="g1429" />
      <g
         id="g1431" />
      <g
         id="g1433" />
      <g
         id="g1435" />
      <g
         id="g1437" />
      <g
         id="g1439" />
      <g
         id="g1441" />
      <g
         id="g1443" />
      <g
         id="g1445" />
      <g
         id="g1447" />
      <g
         id="g1449" />
      <g
         id="g1451" />
      <g
         id="g1453" />
      <g
         id="g1455" />
    </g>
    <rect
       style="fill:none;stroke:#000000;stroke-width:1.2;stroke-miterlimit:4;stroke-dasharray:none"
       id="rect1589"
       width="87.708954"
       height="73.783188"
       x="154.83061"
       y="22.720726"
       ry="4.2473917" />
    <rect
       style="fill:none;stroke:#000000;stroke-width:1.2;stroke-miterlimit:4;stroke-dasharray:none"
       id="rect1591"
       width="87.708954"
       height="73.783188"
       x="16.189209"
       y="22.720726"
       ry="4.2473917" />
    <g
       id="g1597"
       transform="rotate(-90,202.47243,10.995884)">
      <rect
         style="fill:#000000;stroke:#000000;stroke-width:0.680259;stroke-miterlimit:4;stroke-dasharray:none"
         id="rect1593"
         width="3.4935539"
         height="26.423082"
         x="148.58002"
         y="59.49271"
         ry="0" />
      <path
         style="fill:#000000;stroke:#000000;stroke-width:0.985781;stroke-linecap:butt;stroke-linejoin:miter;stroke-miterlimit:4;stroke-dasharray:none;stroke-opacity:1;marker-start:url(#Arrow1Lstart)"
         d="m 149.8728,96.83049 0.5955,-12.11462"
         id="path1595"
         sodipodi:nodetypes="cc" />
    </g>
    <ellipse
       style="fill:none;stroke:#000000;stroke-width:1.65537;stroke-miterlimit:4;stroke-dasharray:none"
       id="ellipse1599"
       cx="341.39258"
       cy="63.162392"
       rx="24.172312"
       ry="24.228016" />
    <path
       fill="#000000"
       d="m 334.97819,61.921396 c -0.71801,0 -1.30623,0.56147 -1.30623,1.24684 0,0.68536 0.58822,1.24682 1.30623,1.24682 0.71802,0 1.30623,-0.56146 1.30623,-1.24682 0,-0.68537 -0.58821,-1.24684 -1.30623,-1.24684 z m 5.44721,0.3032 c -0.54091,-0.0281 -1.68845,2.19223 -1.71511,3.44642 -0.0211,0.98739 1.2096,1.73121 1.2341,2.71849 0.0273,1.10003 -0.90946,1.7927 -1.2233,3.08763 -0.14424,0.47024 0.25251,1.16327 0.48095,1.51986 0.18041,0.27728 0.38868,0.50651 0.59531,0.66322 -0.19634,-0.87868 -0.16554,-1.80309 -0.006,-2.66745 0.10393,-0.56321 0.44164,-1.02383 0.71659,-1.45454 0.27494,-0.43071 0.48228,-0.81756 0.45781,-1.21086 -0.0257,-0.41154 -0.33063,-0.79219 -0.70259,-1.2155 -0.37199,-0.42331 -0.8077,-0.88239 -0.90114,-1.50574 -0.0691,-0.52195 0.20759,-1.22279 0.40165,-1.73654 l 0.5288,0.21178 c -0.20804,0.48539 -0.35061,0.92108 -0.36279,1.44724 0.062,0.41376 0.39691,0.80368 0.77285,1.2315 0.37594,0.42785 0.79623,0.90051 0.83567,1.5348 0.0366,0.58889 -0.2558,1.08212 -0.54053,1.52817 -0.28476,0.44607 -0.56671,0.85887 -0.64158,1.26466 -0.1779,0.96413 -0.17815,1.99481 0.12501,2.90223 0.10332,0.30932 0.30054,0.69518 0.53314,1.08374 a 2.0523131,1.9589843 0 0 0 0.0875,-0.23988 c 0.0829,-0.28836 0.0755,-0.60109 -0.0181,-0.73296 l 0.47464,-0.30726 c 0.26042,0.36653 0.2025,0.81645 0.0965,1.1851 -0.053,0.18428 -0.12375,0.35133 -0.20145,0.48802 -0.0302,0.0531 -0.0613,0.10144 -0.0955,0.14619 a 12.778228,12.197139 0 0 0 0.19298,0.27764 11.987161,11.442046 0 0 0 0.36013,0.47583 h 1.04101 c 0.35226,-1.2668 -1.79668,-2.94823 -1.80502,-4.47314 -0.007,-1.26818 1.27564,-2.39675 1.10755,-3.65476 -0.13342,-0.99862 -1.3081,-1.63423 -1.61389,-2.59767 -0.34606,-1.0904 0.26567,-3.32557 -0.18985,-3.41319 a 0.17675546,0.16871752 0 0 0 -0.0254,-0.003 z m -4.71445,0.94364 c 0,0.38955 -0.32464,0.69943 -0.73276,0.69943 -0.40812,0 -0.73277,-0.30987 -0.73277,-0.69943 0,-0.004 2.5e-4,-0.008 3.3e-4,-0.0113 0.0891,0.0615 0.19766,0.0984 0.31429,0.0984 0.29572,0 0.54161,-0.23471 0.54161,-0.51698 0,-0.0979 -0.0301,-0.18976 0.1384,-0.21877 0.16847,-0.0291 0.47091,0.27268 0.47091,0.64862 z m 7.88481,0.5267 c -0.57726,0 -1.05136,0.45257 -1.05136,1.00355 0,0.55104 0.4741,1.00355 1.05136,1.00355 0.57729,0 1.05135,-0.45251 1.05135,-1.00355 0,-0.55098 -0.47406,-1.00355 -1.05135,-1.00355 z m 0.16932,0.57659 c 0.1816,0.0641 0.30856,0.22905 0.30856,0.42696 0,0.25517 -0.21055,0.45616 -0.47788,0.45616 -0.24765,0 -0.44619,-0.17261 -0.47417,-0.40085 0.0542,0.0209 0.11291,0.0329 0.17417,0.0329 0.25867,0 0.47448,-0.20602 0.47448,-0.45291 0,-0.0212 -0.002,-0.0418 -0.005,-0.0623 z m -1.18883,1.36968 c -0.29572,0 -0.5416,0.23471 -0.5416,0.51698 0,0.28231 0.24588,0.51699 0.5416,0.51699 0.29576,0 0.54161,-0.23468 0.54161,-0.51699 0,-0.28227 -0.24585,-0.51698 -0.54161,-0.51698 z m 2.12974,0.73551 a 0.10838538,0.10345656 0 0 0 -0.019,7.5e-4 c -0.33461,0.0511 0.61604,2.18898 0.30809,3.22905 -0.17956,0.60648 -1.05063,0.89771 -1.18559,1.51469 -0.1562,0.71418 0.53993,1.40171 0.52275,2.13111 -0.0233,0.99405 -1.34567,2.07536 -0.72081,2.87089 0.16745,0.21316 0.37517,-0.0314 0.57567,-0.17345 a 9.7300882,9.2876137 0 0 0 0.43064,-0.39783 1.524468,1.4551429 0 0 1 -0.15411,-0.19183 1.6253983,1.5514834 0 0 1 -0.25465,-0.92509 l 0.5726,0.03 c -0.0145,0.25179 0.0663,0.4533 0.16452,0.59918 0.019,0.0283 0.0385,0.0532 0.058,0.0767 0.0521,-0.0613 0.10057,-0.12079 0.1405,-0.17565 0.19698,-0.27038 0.36109,-0.55228 0.36377,-0.7887 0.005,-0.42416 -0.29919,-0.86967 -0.63735,-1.35898 -0.33815,-0.48928 -0.71492,-1.03766 -0.60845,-1.69572 0.0643,-0.39796 0.37916,-0.62837 0.62476,-0.81646 0.24557,-0.1881 0.42966,-0.34529 0.47258,-0.49399 l 0.55287,0.14539 c -0.11007,0.38135 -0.42723,0.59218 -0.66661,0.77553 -0.23939,0.18335 -0.39334,0.32767 -0.41685,0.4731 -0.0664,0.41029 0.18765,0.82938 0.52033,1.31072 0.33267,0.48136 0.73964,1.00957 0.73218,1.66635 -0.005,0.44481 -0.25589,0.80632 -0.46635,1.09526 -0.25822,0.35446 -0.66698,0.75138 -1.04292,1.07726 -0.005,0.004 -0.009,0.007 -0.0128,0.0109 h 1.11271 c 0.29025,-0.10984 0.54977,-0.26263 0.73787,-0.4466 0.65891,-0.64441 0.37132,-1.75439 0.13728,-2.69821 -0.1383,-0.55767 -1.05709,-1.26404 -1.04103,-2.01183 0.0129,-0.6019 0.89712,-0.98324 0.90662,-1.58515 0.0188,-1.19453 -1.29508,-3.24085 -1.70716,-3.24787 z m -9.18352,0.15622 c -0.007,2.4e-4 -0.0127,7.5e-4 -0.0187,0.002 -0.33462,0.059 0.41219,1.51794 0.30801,2.27662 -0.0868,0.63235 -0.6951,1.13559 -0.76038,1.77028 -0.0849,0.82459 0.54447,1.61186 0.50035,2.43932 -0.055,1.03035 -1.61415,2.17257 -0.99618,2.97199 0.15182,-0.13325 0.33625,-0.30745 0.52808,-0.50557 0.42936,-0.44348 0.88858,-1.00735 1.07467,-1.40859 0.16506,-0.35589 0.20071,-0.79827 0.15401,-1.21885 -0.1304,-0.64428 -0.61365,-1.21347 -0.65455,-1.80599 -0.0343,-0.62943 0.29164,-1.13954 0.37925,-1.58439 0.0686,-0.34789 0.16385,-1.10675 0.16385,-1.10675 l 0.56949,0.0644 c 0,0 -0.0916,0.7469 -0.16974,1.14354 -0.11387,0.57803 -0.39245,1.04488 -0.37011,1.45478 0.0982,0.64587 0.57933,1.19337 0.65209,1.77671 0.0541,0.48697 0.0221,1.01951 -0.19985,1.49812 -0.24194,0.52165 -0.72592,1.09164 -1.178,1.55853 a 10.515357,10.037172 0 0 1 -0.44055,0.42897 c 0.57624,0.11137 1.37103,-0.18693 1.7824,-0.53583 0.91952,-0.77988 1.02683,-1.94646 0.66618,-3.31027 -0.23057,-0.87182 -0.70932,-1.4879 -0.65248,-2.271 0.0346,-0.47693 0.86664,-0.78231 0.59328,-1.31769 -0.44772,-0.87691 -1.52637,-2.34027 -1.93102,-2.32038 z m 12.09813,3.62929 c -0.24271,0 -0.46706,0.0803 -0.6457,0.21393 a 0.48642799,0.46430767 0 0 0 -0.16693,0.15564 c -0.14891,0.17328 -0.23873,0.39428 -0.23873,0.63397 0,0.55104 0.47414,1.00355 1.05136,1.00355 0.5773,0 1.05136,-0.45251 1.05136,-1.00355 0,-0.55097 -0.47406,-1.00354 -1.05136,-1.00354 z m 0.0613,0.55143 c 0.23744,0.0281 0.41658,0.21685 0.41658,0.45211 0,0.25517 -0.21055,0.45616 -0.47788,0.45616 -0.24987,0 -0.45007,-0.17565 -0.47515,-0.40695 0.0215,0.003 0.0434,0.005 0.0657,0.005 0.25863,0 0.47444,-0.206 0.47444,-0.4529 0,-0.0181 -10e-4,-0.0359 -0.004,-0.0534 z m -9.19801,2.1756 c -0.11705,1.40211 0.1887,2.60082 1.1154,3.47713 h 1.59994 a 13.767364,13.141294 0 0 1 -0.12171,-0.16671 c -0.40053,-0.55879 -0.81483,-1.22006 -1.05435,-1.8066 -0.54243,-0.13785 -0.97371,-0.59303 -1.3083,-1.1073 a 5.0940489,4.8623974 0 0 1 -0.23098,-0.39652 z"
       id="path1601"
       style="fill:#005500;stroke-width:0.0311265" />
    <rect
       style="fill:none;stroke:#000000;stroke-width:1.2;stroke-miterlimit:4;stroke-dasharray:none"
       id="rect1641"
       width="87.708954"
       height="73.783188"
       x="293.4715"
       y="23.249893"
       ry="4.2473917" />
    <g
       id="g1679"
       transform="matrix(0.05705157,0,0,0.05705157,296.30564,23.417872)">
      <circle
         style="fill:#f7cf52"
         cx="219.097"
         cy="219.09599"
         r="108.313"
         id="circle1643" />
      <rect
         x="211.60001"
         y="348.358"
         style="fill:#f7cf52"
         width="15"
         height="89.842003"
         id="rect1645" />
      <rect
         x="211.60001"
         style="fill:#f7cf52"
         width="15"
         height="89.842003"
         id="rect1647"
         y="0" />
      <rect
         x="88.442001"
         y="297.34201"
         transform="matrix(-0.7071,-0.7071,0.7071,-0.7071,-78.2323,652.1193)"
         style="fill:#f7cf52"
         width="15"
         height="89.841003"
         id="rect1649" />
      <rect
         x="334.76501"
         y="51.011002"
         transform="matrix(-0.7071,-0.7071,0.7071,-0.7071,516.4483,405.7837)"
         style="fill:#f7cf52"
         width="15"
         height="89.841003"
         id="rect1651" />
      <rect
         y="211.60001"
         style="fill:#f7cf52"
         width="89.842003"
         height="15"
         id="rect1653"
         x="0" />
      <rect
         x="348.358"
         y="211.60001"
         style="fill:#f7cf52"
         width="89.842003"
         height="15"
         id="rect1655" />
      <rect
         x="51.016998"
         y="88.435997"
         transform="matrix(-0.7071,-0.7071,0.7071,-0.7071,95.9381,231.6103)"
         style="fill:#f7cf52"
         width="89.841003"
         height="15"
         id="rect1657" />
      <rect
         x="297.34201"
         y="334.758"
         transform="matrix(-0.7071,-0.7071,0.7071,-0.7071,342.2663,826.288)"
         style="fill:#f7cf52"
         width="89.841003"
         height="15"
         id="rect1659" />
      <g
         id="g1677">
        <rect
           x="257.72699"
           y="347.297"
           transform="matrix(-0.3826,-0.9239,0.9239,-0.3826,52.8494,744.91)"
           style="fill:#f4581b"
           width="35.174"
           height="15"
           id="rect1661" />
        <rect
           x="145.30499"
           y="75.898003"
           transform="matrix(-0.3826,-0.9239,0.9239,-0.3826,148.1631,265.8043)"
           style="fill:#f4581b"
           width="35.174"
           height="15"
           id="rect1663" />
        <rect
           x="155.38901"
           y="337.20801"
           transform="matrix(-0.9239,-0.3826,0.3826,-0.9239,177.6382,744.917)"
           style="fill:#f4581b"
           width="15"
           height="35.174"
           id="rect1665" />
        <rect
           x="267.80499"
           y="65.809998"
           transform="matrix(-0.9239,-0.3826,0.3826,-0.9239,497.7542,265.7812)"
           style="fill:#f4581b"
           width="15"
           height="35.174"
           id="rect1667" />
        <rect
           x="75.901001"
           y="257.716"
           transform="matrix(-0.3826,-0.9239,0.9239,-0.3826,-139.0446,457.6895)"
           style="fill:#f4581b"
           width="15"
           height="35.174"
           id="rect1669" />
        <rect
           x="347.29599"
           y="145.3"
           transform="matrix(-0.3826,-0.9239,0.9239,-0.3826,340.0494,553.0082)"
           style="fill:#f4581b"
           width="15"
           height="35.174"
           id="rect1671" />
        <rect
           x="65.814003"
           y="155.39"
           transform="matrix(-0.9239,-0.3826,0.3826,-0.9239,98.1324,345.2949)"
           style="fill:#f4581b"
           width="35.174"
           height="15"
           id="rect1673" />
        <rect
           x="337.211"
           y="267.802"
           transform="matrix(-0.9239,-0.3826,0.3826,-0.9239,577.2684,665.4034)"
           style="fill:#f4581b"
           width="35.174"
           height="15"
           id="rect1675" />
      </g>
    </g>
    <text
       xml:space="preserve"
       style="font-style:normal;font-weight:normal;font-size:10.5833px;line-height:1.25;font-family:sans-serif;fill:#000000;fill-opacity:1;stroke:none;stroke-width:0.264583"
       x="189.35216"
       y="16.353094"
       id="text3662"><tspan
         sodipodi:role="line"
         id="tspan3660"
         style="stroke-width:0.264583"
         x="189.35216"
         y="16.353094">t=2</tspan></text>
    <text
       xml:space="preserve"
       style="font-style:normal;font-weight:normal;font-size:10.5833px;line-height:1.25;font-family:sans-serif;fill:#000000;fill-opacity:1;stroke:none;stroke-width:0.264583"
       x="327.46487"
       y="16.353094"
       id="text3668"><tspan
         sodipodi:role="line"
         id="tspan3666"
         style="stroke-width:0.264583"
         x="327.46487"
         y="16.353094">t=3</tspan></text>
    <text
       xml:space="preserve"
       style="font-style:normal;font-weight:normal;font-size:10.5833px;line-height:1.25;font-family:sans-serif;fill:#000000;fill-opacity:1;stroke:none;stroke-width:0.264583"
       x="20.543736"
       y="119.0915"
       id="text13439"><tspan
         sodipodi:role="line"
         id="tspan13437"
         style="stroke-width:0.264583"
         x="20.543736"
         y="119.0915">Respiration</tspan><tspan
         sodipodi:role="line"
         style="stroke-width:0.264583"
         x="20.543736"
         y="132.32063"
         id="tspan13441">Photosynthesis</tspan><tspan
         sodipodi:role="line"
         style="stroke-width:0.264583"
         x="20.543736"
         y="145.54976"
         id="tspan22665" /><tspan
         sodipodi:role="line"
         style="stroke-width:0.264583"
         x="20.543736"
         y="158.77888"
         id="tspan34503">Biomass +</tspan><tspan
         sodipodi:role="line"
         style="stroke-width:0.264583"
         x="20.543736"
         y="172.00801"
         id="tspan18431">DOC -</tspan></text>
    <rect
       style="fill:none;stroke:#000000;stroke-width:1.2;stroke-miterlimit:4;stroke-dasharray:none"
       id="rect20691"
       width="87.678169"
       height="78.090027"
       x="16.204599"
       y="102.64034"
       ry="4.4953184" />
    <text
       xml:space="preserve"
       style="font-style:normal;font-weight:normal;font-size:10.5833px;line-height:1.25;font-family:sans-serif;fill:#000000;fill-opacity:1;stroke:none;stroke-width:0.264583"
       x="158.65588"
       y="119.0915"
       id="text22889"><tspan
         sodipodi:role="line"
         id="tspan22879"
         style="stroke-width:0.264583"
         x="158.65588"
         y="119.0915">Respiration</tspan><tspan
         sodipodi:role="line"
         style="stroke-width:0.264583"
         x="158.65588"
         y="132.32063"
         id="tspan22881" /><tspan
         sodipodi:role="line"
         style="stroke-width:0.264583"
         x="158.65588"
         y="145.54976"
         id="tspan22887" /><tspan
         sodipodi:role="line"
         style="stroke-width:0.264583"
         x="158.65588"
         y="158.77888"
         id="tspan38389">Biomass +</tspan><tspan
         sodipodi:role="line"
         style="stroke-width:0.264583"
         x="158.65588"
         y="172.00801"
         id="tspan38383">DOC -</tspan><tspan
         sodipodi:role="line"
         style="stroke-width:0.264583"
         x="158.65588"
         y="185.23714"
         id="tspan31657">O2 -</tspan></text>
    <rect
       style="fill:none;stroke:#000000;stroke-width:1.2;stroke-miterlimit:4;stroke-dasharray:none"
       id="rect22891"
       width="87.58828"
       height="91.375221"
       x="154.36176"
       y="102.6853"
       ry="5.2600923" />
    <g
       id="g39411"
       transform="translate(-22.480206,125.84742)"
       style="fill:#550000;stroke:#550000">
      <rect
         style="fill:#550000;stroke:#550000;stroke-width:0.680259;stroke-miterlimit:4;stroke-dasharray:none"
         id="rect39407"
         width="3.4935539"
         height="26.423082"
         x="148.58002"
         y="59.49271"
         ry="0" />
      <path
         style="fill:#550000;stroke:#550000;stroke-width:0.985781;stroke-linecap:butt;stroke-linejoin:miter;stroke-miterlimit:4;stroke-dasharray:none;stroke-opacity:1;marker-start:url(#Arrow1Lstart)"
         d="m 149.8728,96.83049 0.5955,-12.11462"
         id="path39409"
         sodipodi:nodetypes="cc" />
    </g>
    <g
       id="g39489"
       transform="translate(116.6908,125.84742)"
       style="fill:#550000;stroke:#550000">
      <rect
         style="fill:#550000;stroke:#550000;stroke-width:0.680259;stroke-miterlimit:4;stroke-dasharray:none"
         id="rect39485"
         width="3.4935539"
         height="26.423082"
         x="148.58002"
         y="59.49271"
         ry="0" />
      <path
         style="fill:#550000;stroke:#550000;stroke-width:0.985781;stroke-linecap:butt;stroke-linejoin:miter;stroke-miterlimit:4;stroke-dasharray:none;stroke-opacity:1;marker-start:url(#Arrow1Lstart)"
         d="m 149.8728,96.83049 0.5955,-12.11462"
         id="path39487"
         sodipodi:nodetypes="cc" />
    </g>
    <text
       xml:space="preserve"
       style="font-style:normal;font-weight:normal;font-size:10.5833px;line-height:1.25;font-family:sans-serif;fill:#550000;fill-opacity:1;stroke:none;stroke-width:0.264583"
       x="85.653328"
       y="243.31818"
       id="text42598"><tspan
         sodipodi:role="line"
         id="tspan42596"
         style="stroke-width:0.264583;fill:#550000"
         x="85.653328"
         y="243.31818">Measurement 1</tspan></text>
    <text
       xml:space="preserve"
       style="font-style:normal;font-weight:normal;font-size:10.5833px;line-height:1.25;font-family:sans-serif;fill:#550000;fill-opacity:1;stroke:none;stroke-width:0.264583"
       x="224.82285"
       y="243.31818"
       id="text43276"><tspan
         sodipodi:role="line"
         id="tspan43274"
         style="stroke-width:0.264583;fill:#550000"
         x="224.82285"
         y="243.31818">Measurement 2</tspan></text>
    <rect
       style="fill:none;stroke:#550000;stroke-width:1.2;stroke-miterlimit:4;stroke-dasharray:none"
       id="rect45042"
       width="88.219002"
       height="20.295151"
       x="83.354424"
       y="228.93993"
       ry="6.641614" />
    <rect
       style="fill:none;stroke:#550000;stroke-width:1.2;stroke-miterlimit:4;stroke-dasharray:none"
       id="rect45182"
       width="88.219002"
       height="20.295151"
       x="222.52399"
       y="228.93993"
       ry="6.641614" />
    <rect
       style="fill:none;stroke:#550000;stroke-width:1.61537;stroke-miterlimit:4;stroke-dasharray:none"
       id="rect45220"
       width="93.863083"
       height="34.56551"
       x="148.71326"
       y="257.48785"
       ry="11.311607" />
    <text
       xml:space="preserve"
       style="font-style:normal;font-weight:normal;font-size:10.5833px;line-height:1.25;font-family:sans-serif;fill:#000000;fill-opacity:1;stroke:none;stroke-width:0.264583"
       x="151.99365"
       y="277.18912"
       id="text49764"><tspan
         sodipodi:role="line"
         id="tspan49762"
         style="stroke-width:0.264583"
         x="151.99365"
         y="277.18912">O<tspan
   style="font-size:65%;baseline-shift:sub"
   id="tspan54500">2</tspan>(M1) - O<tspan
   style="font-size:65%;baseline-shift:sub"
   id="tspan58228">2</tspan>(M2)</tspan></text>
    <g
       id="g59964"
       transform="rotate(-90,308.44223,116.9261)"
       style="fill:#550000;stroke:#550000">
      <rect
         style="fill:#550000;stroke:#550000;stroke-width:0.680259;stroke-miterlimit:4;stroke-dasharray:none"
         id="rect59960"
         width="3.4935539"
         height="26.423082"
         x="148.58002"
         y="59.49271"
         ry="0" />
      <path
         style="fill:#550000;stroke:#550000;stroke-width:0.985781;stroke-linecap:butt;stroke-linejoin:miter;stroke-miterlimit:4;stroke-dasharray:none;stroke-opacity:1;marker-start:url(#Arrow1Lstart)"
         d="m 149.8728,96.83049 0.5955,-12.11462"
         id="path59962"
         sodipodi:nodetypes="cc" />
    </g>
    <text
       xml:space="preserve"
       style="font-style:normal;font-weight:normal;font-size:10.5833px;line-height:1.25;font-family:sans-serif;fill:#000000;fill-opacity:1;stroke:none;stroke-width:0.264583"
       x="296.9072"
       y="278.48691"
       id="text61772"><tspan
         sodipodi:role="line"
         id="tspan61770"
         style="stroke-width:0.264583"
         x="296.9072"
         y="278.48691">Respiration Rate</tspan></text>
  </g>
</svg>
