<?xml version="1.0" encoding="UTF-8" standalone="no"?>
<svg
   xmlns:dc="http://purl.org/dc/elements/1.1/"
   xmlns:cc="http://creativecommons.org/ns#"
   xmlns:rdf="http://www.w3.org/1999/02/22-rdf-syntax-ns#"
   xmlns:svg="http://www.w3.org/2000/svg"
   xmlns="http://www.w3.org/2000/svg"
   xmlns:xlink="http://www.w3.org/1999/xlink"
   xmlns:sodipodi="http://sodipodi.sourceforge.net/DTD/sodipodi-0.dtd"
   xmlns:inkscape="http://www.inkscape.org/namespaces/inkscape"
   height="113.385827pt"
   version="1.1"
   viewBox="0 0 226.771654 113.385827"
   width="226.771654pt"
   id="svg347"
   sodipodi:docname="Figure_1a.svg"
   inkscape:version="1.0.2 (1.0.2+r75+1)">
  <sodipodi:namedview
     pagecolor="#ffffff"
     bordercolor="#666666"
     borderopacity="1"
     objecttolerance="10"
     gridtolerance="10"
     guidetolerance="10"
     inkscape:pageopacity="0"
     inkscape:pageshadow="2"
     inkscape:window-width="1853"
     inkscape:window-height="1025"
     id="namedview349"
     showgrid="false"
     inkscape:zoom="1.9535536"
     inkscape:cx="195.94443"
     inkscape:cy="147.76459"
     inkscape:window-x="67"
     inkscape:window-y="27"
     inkscape:window-maximized="1"
     inkscape:current-layer="axes_1"
     inkscape:document-rotation="0" />
  <metadata
     id="metadata2">
    <rdf:RDF>
      <cc:Work>
        <dc:type
           rdf:resource="http://purl.org/dc/dcmitype/StillImage" />
        <dc:date>2023-11-21T16:33:03.188525</dc:date>
        <dc:format>image/svg+xml</dc:format>
        <dc:creator>
          <cc:Agent>
            <dc:title>Matplotlib v3.3.4, https://matplotlib.org/</dc:title>
          </cc:Agent>
        </dc:creator>
        <dc:title />
      </cc:Work>
    </rdf:RDF>
  </metadata>
  <defs
     id="defs6">
    <style
       type="text/css"
       id="style4">*{stroke-linecap:butt;stroke-linejoin:round;}</style>
  </defs>
  <g
     id="figure_1">
    <g
       id="axes_1"
       transform="translate(0,-1.5)">
      <g
         id="g915">
        <g
           id="patch_1"
           transform="translate(0,1.5)">
          <path
             d="M 0 113.385827  L 226.771654 113.385827  L 226.771654 0  L 0 0  z "
             style="fill:#ffffff;"
             id="path8" />
        </g>
        <g
           id="patch_2">
          <path
             d="M 28.346457,100.91339 H 204.09449 V 13.606299 H 28.346457 Z"
             style="fill:#ffffff"
             id="path11" />
        </g>
        <g
           id="matplotlib.axis_1">
          <g
             id="xtick_1">
            <g
               id="line2d_1">
              <defs
                 id="defs15">
                <path
                   d="M 0,0 V 3.5"
                   id="m60d52393ed"
                   style="stroke:#000000;stroke-width:0.8" />
              </defs>
              <g
                 id="g19">
                <use
                   style="stroke:#000000;stroke-width:0.8"
                   x="28.346457"
                   xlink:href="#m60d52393ed"
                   y="100.91338"
                   id="use17"
                   width="100%"
                   height="100%" />
              </g>
            </g>
          </g>
          <g
             id="text_9"
             transform="translate(0,-10.5)">
            <!-- Time -->
            <g
               transform="matrix(0.07,0,0,-0.07,107.65696,123.03917)"
               id="g143">
              <defs
                 id="defs133">
                <path
                   d="M -0.296875,72.90625 H 61.375 v -8.3125 H 35.5 V 0 H 25.59375 V 64.59375 H -0.296875 Z"
                   id="DejaVuSans-84" />
                <path
                   d="M 9.421875,54.6875 H 18.40625 V 0 H 9.421875 Z m 0,21.296875 H 18.40625 V 64.59375 H 9.421875 Z"
                   id="DejaVuSans-105" />
                <path
                   d="M 52,44.1875 Q 55.375,50.25 60.0625,53.125 64.75,56 71.09375,56 q 8.546875,0 13.1875,-5.984375 4.640625,-5.96875 4.640625,-17 V 0 h -9.03125 v 32.71875 q 0,7.859375 -2.796875,11.65625 -2.78125,3.8125 -8.484375,3.8125 -6.984375,0 -11.046875,-4.640625 -4.046875,-4.625 -4.046875,-12.640625 V 0 h -9.03125 v 32.71875 q 0,7.90625 -2.78125,11.6875 -2.78125,3.78125 -8.59375,3.78125 -6.890625,0 -10.953125,-4.65625 -4.046875,-4.65625 -4.046875,-12.625 V 0 h -9.03125 v 54.6875 h 9.03125 v -8.5 q 3.078125,5.03125 7.375,7.421875 Q 29.78125,56 35.6875,56 41.65625,56 45.828125,52.96875 50,49.953125 52,44.1875 Z"
                   id="DejaVuSans-109" />
                <path
                   d="m 56.203125,29.59375 v -4.390625 h -41.3125 q 0.59375,-9.28125 5.59375,-14.140625 5,-4.859375 13.9375,-4.859375 5.171875,0 10.03125,1.265625 4.859375,1.265625 9.65625,3.8125 v -8.5 q -4.84375,-2.046875 -9.921875,-3.125 -5.078125,-1.078125 -10.296875,-1.078125 -13.09375,0 -20.734375,7.609375 -7.640625,7.625 -7.640625,20.625 0,13.421875 7.25,21.296875 Q 20.015625,56 32.328125,56 q 11.03125,0 17.453125,-7.109375 6.421875,-7.09375 6.421875,-19.296875 z m -8.984375,2.640625 q -0.09375,7.359375 -4.125,11.75 -4.03125,4.40625 -10.671875,4.40625 -7.515625,0 -12.03125,-4.25 -4.515625,-4.25 -5.203125,-11.96875 z"
                   id="DejaVuSans-101" />
              </defs>
              <use
                 xlink:href="#DejaVuSans-84"
                 id="use135"
                 x="0"
                 y="0"
                 width="100%"
                 height="100%" />
              <use
                 x="57.958984"
                 xlink:href="#DejaVuSans-105"
                 id="use137"
                 y="0"
                 width="100%"
                 height="100%" />
              <use
                 x="85.742188"
                 xlink:href="#DejaVuSans-109"
                 id="use139"
                 y="0"
                 width="100%"
                 height="100%" />
              <use
                 x="183.1543"
                 xlink:href="#DejaVuSans-101"
                 id="use141"
                 y="0"
                 width="100%"
                 height="100%" />
            </g>
          </g>
        </g>
        <g
           id="matplotlib.axis_2"
           transform="translate(15)">
          <g
             id="text_14"
             transform="rotate(90,3.3466125,57.77947)">
            <!-- $A_1$ -->
            <g
               transform="matrix(0,-0.07,-0.07,0,5.330675,61.319843)"
               id="g223">
              <defs
                 id="defs217">
                <path
                   d="M 36.8125,72.90625 H 48 L 61.53125,0 H 51.21875 L 48.1875,18.703125 H 15.375 L 5.078125,0 H -5.328125 Z M 40.375,63.1875 19.921875,26.90625 H 46.6875 Z"
                   id="DejaVuSans-Oblique-65" />
              </defs>
              <use
                 transform="translate(0,0.09375)"
                 xlink:href="#DejaVuSans-Oblique-65"
                 id="use219"
                 x="0"
                 y="0"
                 width="100%"
                 height="100%" />
              <path
                 d="M 77.092578,-10.504687 H 88.36914 V 28.432812 L 76.097266,25.971875 v 6.289062 l 12.20625,2.460938 h 6.901562 V -10.504687 H 106.48164 V -16.3125 H 77.092578 Z"
                 id="use221"
                 style="stroke-width:0.7" />
            </g>
          </g>
        </g>
        <g
           id="line2d_13"
           style="stroke:#000000">
          <path
             clip-path="url(#p4c7f153ee7)"
             d="m 28.346457,73.318872 99.046573,-28.245859 2.88728,-0.601121 1.50642,-0.110106 1.1298,0.138336 0.87875,0.330538 0.7532,0.501914 0.75321,0.748721 0.87874,1.212127 1.00427,1.804654 1.25534,2.736796 2.00855,4.987565 4.77031,12.640442 16.80988,44.922951 v 0"
             style="fill:none;stroke:#000000;stroke-linecap:square"
             id="path227" />
        </g>
        <g
           id="line2d_17">
          <path
             clip-path="url(#p4c7f153ee7)"
             d="M 66.885489,100.91339 V 13.606299"
             style="fill:none;stroke:#000000;stroke-dasharray:1, 1.65;stroke-dashoffset:0"
             id="path239" />
        </g>
        <g
           id="line2d_18">
          <path
             clip-path="url(#p4c7f153ee7)"
             d="M 126.01215,100.91339 V 13.606299"
             style="fill:none;stroke:#000000;stroke-dasharray:1, 1.65;stroke-dashoffset:0"
             id="path242" />
        </g>
        <g
           id="patch_3">
          <path
             d="M 28.346457,100.91339 V 13.606299"
             style="fill:none;stroke:#000000;stroke-width:0.8;stroke-linecap:square;stroke-linejoin:miter"
             id="path251" />
        </g>
        <g
           id="patch_4">
          <path
             d="M 28.346457,100.91339 H 204.09449"
             style="fill:none;stroke:#000000;stroke-width:0.8;stroke-linecap:square;stroke-linejoin:miter"
             id="path254" />
        </g>
      </g>
    </g>
  </g>
  <defs
     id="defs345">
    <clipPath
       id="p4c7f153ee7">
      <rect
         height="87.307087"
         width="175.748031"
         x="28.346457"
         y="13.606299"
         id="rect342" />
    </clipPath>
  </defs>
</svg>
