<?xml version="1.0" encoding="utf-8" standalone="no"?>
<!DOCTYPE svg PUBLIC "-//W3C//DTD SVG 1.1//EN"
  "http://www.w3.org/Graphics/SVG/1.1/DTD/svg11.dtd">
<svg xmlns:xlink="http://www.w3.org/1999/xlink" width="449.275315pt" height="330.234125pt" viewBox="0 0 449.275315 330.234125" xmlns="http://www.w3.org/2000/svg" version="1.1">
 <metadata>
  <rdf:RDF xmlns:dc="http://purl.org/dc/elements/1.1/" xmlns:cc="http://creativecommons.org/ns#" xmlns:rdf="http://www.w3.org/1999/02/22-rdf-syntax-ns#">
   <cc:Work>
    <dc:type rdf:resource="http://purl.org/dc/dcmitype/StillImage"/>
    <dc:date>2025-02-27T13:18:57.427661</dc:date>
    <dc:format>image/svg+xml</dc:format>
    <dc:creator>
     <cc:Agent>
      <dc:title>Matplotlib v3.10.0, https://matplotlib.org/</dc:title>
     </cc:Agent>
    </dc:creator>
   </cc:Work>
  </rdf:RDF>
 </metadata>
 <defs>
  <style type="text/css">*{stroke-linejoin: round; stroke-linecap: butt}</style>
 </defs>
 <g id="figure_1">
  <g id="patch_1">
   <path d="M 0 330.234125 
L 449.275315 330.234125 
L 449.275315 0 
L 0 0 
z
" style="fill: #ffffff"/>
  </g>
  <g id="axes_1">
   <g id="patch_2">
    <path d="M 46.2 291.256 
L 442.075315 291.256 
L 442.075315 7.2 
L 46.2 7.2 
z
" style="fill: #ffffff"/>
   </g>
   <g id="PathCollection_1">
    <defs>
     <path id="mdf4f81be54" d="M 0 5 
C 1.326016 5 2.597899 4.473168 3.535534 3.535534 
C 4.473168 2.597899 5 1.326016 5 0 
C 5 -1.326016 4.473168 -2.597899 3.535534 -3.535534 
C 2.597899 -4.473168 1.326016 -5 0 -5 
C -1.326016 -5 -2.597899 -4.473168 -3.535534 -3.535534 
C -4.473168 -2.597899 -5 -1.326016 -5 0 
C -5 1.326016 -4.473168 2.597899 -3.535534 3.535534 
C -2.597899 4.473168 -1.326016 5 0 5 
z
" style="stroke: #7f7f7f"/>
    </defs>
    <g clip-path="url(#pb1dc15477c)">
     <use xlink:href="#mdf4f81be54" x="360.41054" y="126.900739" style="fill: #7f7f7f; stroke: #7f7f7f"/>
     <use xlink:href="#mdf4f81be54" x="401.540282" y="113.295993" style="fill: #7f7f7f; stroke: #7f7f7f"/>
    </g>
   </g>
   <g id="matplotlib.axis_1">
    <g id="xtick_1">
     <g id="line2d_1">
      <defs>
       <path id="mb02e4fabbe" d="M 0 0 
L 0 3.5 
" style="stroke: #000000; stroke-width: 0.8"/>
      </defs>
      <g>
       <use xlink:href="#mb02e4fabbe" x="143.776062" y="291.256" style="stroke: #000000; stroke-width: 0.8"/>
      </g>
     </g>
     <g id="text_1">
      <!-- $\mathdefault{10^{4}}$ -->
      <g transform="translate(134.976062 305.854437) scale(0.1 -0.1)">
       <defs>
        <path id="DejaVuSans-31" d="M 794 531 
L 1825 531 
L 1825 4091 
L 703 3866 
L 703 4441 
L 1819 4666 
L 2450 4666 
L 2450 531 
L 3481 531 
L 3481 0 
L 794 0 
L 794 531 
z
" transform="scale(0.015625)"/>
        <path id="DejaVuSans-30" d="M 2034 4250 
Q 1547 4250 1301 3770 
Q 1056 3291 1056 2328 
Q 1056 1369 1301 889 
Q 1547 409 2034 409 
Q 2525 409 2770 889 
Q 3016 1369 3016 2328 
Q 3016 3291 2770 3770 
Q 2525 4250 2034 4250 
z
M 2034 4750 
Q 2819 4750 3233 4129 
Q 3647 3509 3647 2328 
Q 3647 1150 3233 529 
Q 2819 -91 2034 -91 
Q 1250 -91 836 529 
Q 422 1150 422 2328 
Q 422 3509 836 4129 
Q 1250 4750 2034 4750 
z
" transform="scale(0.015625)"/>
        <path id="DejaVuSans-34" d="M 2419 4116 
L 825 1625 
L 2419 1625 
L 2419 4116 
z
M 2253 4666 
L 3047 4666 
L 3047 1625 
L 3713 1625 
L 3713 1100 
L 3047 1100 
L 3047 0 
L 2419 0 
L 2419 1100 
L 313 1100 
L 313 1709 
L 2253 4666 
z
" transform="scale(0.015625)"/>
       </defs>
       <use xlink:href="#DejaVuSans-31" transform="translate(0 0.684375)"/>
       <use xlink:href="#DejaVuSans-30" transform="translate(63.623047 0.684375)"/>
       <use xlink:href="#DejaVuSans-34" transform="translate(128.203125 38.965625) scale(0.7)"/>
      </g>
     </g>
    </g>
    <g id="xtick_2">
     <g id="line2d_2">
      <g>
       <use xlink:href="#mb02e4fabbe" x="265.607362" y="291.256" style="stroke: #000000; stroke-width: 0.8"/>
      </g>
     </g>
     <g id="text_2">
      <!-- $\mathdefault{10^{5}}$ -->
      <g transform="translate(256.807362 305.854437) scale(0.1 -0.1)">
       <defs>
        <path id="DejaVuSans-35" d="M 691 4666 
L 3169 4666 
L 3169 4134 
L 1269 4134 
L 1269 2991 
Q 1406 3038 1543 3061 
Q 1681 3084 1819 3084 
Q 2600 3084 3056 2656 
Q 3513 2228 3513 1497 
Q 3513 744 3044 326 
Q 2575 -91 1722 -91 
Q 1428 -91 1123 -41 
Q 819 9 494 109 
L 494 744 
Q 775 591 1075 516 
Q 1375 441 1709 441 
Q 2250 441 2565 725 
Q 2881 1009 2881 1497 
Q 2881 1984 2565 2268 
Q 2250 2553 1709 2553 
Q 1456 2553 1204 2497 
Q 953 2441 691 2322 
L 691 4666 
z
" transform="scale(0.015625)"/>
       </defs>
       <use xlink:href="#DejaVuSans-31" transform="translate(0 0.684375)"/>
       <use xlink:href="#DejaVuSans-30" transform="translate(63.623047 0.684375)"/>
       <use xlink:href="#DejaVuSans-35" transform="translate(128.203125 38.965625) scale(0.7)"/>
      </g>
     </g>
    </g>
    <g id="xtick_3">
     <g id="line2d_3">
      <g>
       <use xlink:href="#mb02e4fabbe" x="387.438661" y="291.256" style="stroke: #000000; stroke-width: 0.8"/>
      </g>
     </g>
     <g id="text_3">
      <!-- $\mathdefault{10^{6}}$ -->
      <g transform="translate(378.638661 305.854437) scale(0.1 -0.1)">
       <defs>
        <path id="DejaVuSans-36" d="M 2113 2584 
Q 1688 2584 1439 2293 
Q 1191 2003 1191 1497 
Q 1191 994 1439 701 
Q 1688 409 2113 409 
Q 2538 409 2786 701 
Q 3034 994 3034 1497 
Q 3034 2003 2786 2293 
Q 2538 2584 2113 2584 
z
M 3366 4563 
L 3366 3988 
Q 3128 4100 2886 4159 
Q 2644 4219 2406 4219 
Q 1781 4219 1451 3797 
Q 1122 3375 1075 2522 
Q 1259 2794 1537 2939 
Q 1816 3084 2150 3084 
Q 2853 3084 3261 2657 
Q 3669 2231 3669 1497 
Q 3669 778 3244 343 
Q 2819 -91 2113 -91 
Q 1303 -91 875 529 
Q 447 1150 447 2328 
Q 447 3434 972 4092 
Q 1497 4750 2381 4750 
Q 2619 4750 2861 4703 
Q 3103 4656 3366 4563 
z
" transform="scale(0.015625)"/>
       </defs>
       <use xlink:href="#DejaVuSans-31" transform="translate(0 0.765625)"/>
       <use xlink:href="#DejaVuSans-30" transform="translate(63.623047 0.765625)"/>
       <use xlink:href="#DejaVuSans-36" transform="translate(128.203125 39.046875) scale(0.7)"/>
      </g>
     </g>
    </g>
    <g id="text_4">
     <!-- Prey Concentration ($ml^{-1}$) -->
     <g transform="translate(178.637658 320.934125) scale(0.1 -0.1)">
      <defs>
       <path id="DejaVuSans-50" d="M 1259 4147 
L 1259 2394 
L 2053 2394 
Q 2494 2394 2734 2622 
Q 2975 2850 2975 3272 
Q 2975 3691 2734 3919 
Q 2494 4147 2053 4147 
L 1259 4147 
z
M 628 4666 
L 2053 4666 
Q 2838 4666 3239 4311 
Q 3641 3956 3641 3272 
Q 3641 2581 3239 2228 
Q 2838 1875 2053 1875 
L 1259 1875 
L 1259 0 
L 628 0 
L 628 4666 
z
" transform="scale(0.015625)"/>
       <path id="DejaVuSans-72" d="M 2631 2963 
Q 2534 3019 2420 3045 
Q 2306 3072 2169 3072 
Q 1681 3072 1420 2755 
Q 1159 2438 1159 1844 
L 1159 0 
L 581 0 
L 581 3500 
L 1159 3500 
L 1159 2956 
Q 1341 3275 1631 3429 
Q 1922 3584 2338 3584 
Q 2397 3584 2469 3576 
Q 2541 3569 2628 3553 
L 2631 2963 
z
" transform="scale(0.015625)"/>
       <path id="DejaVuSans-65" d="M 3597 1894 
L 3597 1613 
L 953 1613 
Q 991 1019 1311 708 
Q 1631 397 2203 397 
Q 2534 397 2845 478 
Q 3156 559 3463 722 
L 3463 178 
Q 3153 47 2828 -22 
Q 2503 -91 2169 -91 
Q 1331 -91 842 396 
Q 353 884 353 1716 
Q 353 2575 817 3079 
Q 1281 3584 2069 3584 
Q 2775 3584 3186 3129 
Q 3597 2675 3597 1894 
z
M 3022 2063 
Q 3016 2534 2758 2815 
Q 2500 3097 2075 3097 
Q 1594 3097 1305 2825 
Q 1016 2553 972 2059 
L 3022 2063 
z
" transform="scale(0.015625)"/>
       <path id="DejaVuSans-79" d="M 2059 -325 
Q 1816 -950 1584 -1140 
Q 1353 -1331 966 -1331 
L 506 -1331 
L 506 -850 
L 844 -850 
Q 1081 -850 1212 -737 
Q 1344 -625 1503 -206 
L 1606 56 
L 191 3500 
L 800 3500 
L 1894 763 
L 2988 3500 
L 3597 3500 
L 2059 -325 
z
" transform="scale(0.015625)"/>
       <path id="DejaVuSans-20" transform="scale(0.015625)"/>
       <path id="DejaVuSans-43" d="M 4122 4306 
L 4122 3641 
Q 3803 3938 3442 4084 
Q 3081 4231 2675 4231 
Q 1875 4231 1450 3742 
Q 1025 3253 1025 2328 
Q 1025 1406 1450 917 
Q 1875 428 2675 428 
Q 3081 428 3442 575 
Q 3803 722 4122 1019 
L 4122 359 
Q 3791 134 3420 21 
Q 3050 -91 2638 -91 
Q 1578 -91 968 557 
Q 359 1206 359 2328 
Q 359 3453 968 4101 
Q 1578 4750 2638 4750 
Q 3056 4750 3426 4639 
Q 3797 4528 4122 4306 
z
" transform="scale(0.015625)"/>
       <path id="DejaVuSans-6f" d="M 1959 3097 
Q 1497 3097 1228 2736 
Q 959 2375 959 1747 
Q 959 1119 1226 758 
Q 1494 397 1959 397 
Q 2419 397 2687 759 
Q 2956 1122 2956 1747 
Q 2956 2369 2687 2733 
Q 2419 3097 1959 3097 
z
M 1959 3584 
Q 2709 3584 3137 3096 
Q 3566 2609 3566 1747 
Q 3566 888 3137 398 
Q 2709 -91 1959 -91 
Q 1206 -91 779 398 
Q 353 888 353 1747 
Q 353 2609 779 3096 
Q 1206 3584 1959 3584 
z
" transform="scale(0.015625)"/>
       <path id="DejaVuSans-6e" d="M 3513 2113 
L 3513 0 
L 2938 0 
L 2938 2094 
Q 2938 2591 2744 2837 
Q 2550 3084 2163 3084 
Q 1697 3084 1428 2787 
Q 1159 2491 1159 1978 
L 1159 0 
L 581 0 
L 581 3500 
L 1159 3500 
L 1159 2956 
Q 1366 3272 1645 3428 
Q 1925 3584 2291 3584 
Q 2894 3584 3203 3211 
Q 3513 2838 3513 2113 
z
" transform="scale(0.015625)"/>
       <path id="DejaVuSans-63" d="M 3122 3366 
L 3122 2828 
Q 2878 2963 2633 3030 
Q 2388 3097 2138 3097 
Q 1578 3097 1268 2742 
Q 959 2388 959 1747 
Q 959 1106 1268 751 
Q 1578 397 2138 397 
Q 2388 397 2633 464 
Q 2878 531 3122 666 
L 3122 134 
Q 2881 22 2623 -34 
Q 2366 -91 2075 -91 
Q 1284 -91 818 406 
Q 353 903 353 1747 
Q 353 2603 823 3093 
Q 1294 3584 2113 3584 
Q 2378 3584 2631 3529 
Q 2884 3475 3122 3366 
z
" transform="scale(0.015625)"/>
       <path id="DejaVuSans-74" d="M 1172 4494 
L 1172 3500 
L 2356 3500 
L 2356 3053 
L 1172 3053 
L 1172 1153 
Q 1172 725 1289 603 
Q 1406 481 1766 481 
L 2356 481 
L 2356 0 
L 1766 0 
Q 1100 0 847 248 
Q 594 497 594 1153 
L 594 3053 
L 172 3053 
L 172 3500 
L 594 3500 
L 594 4494 
L 1172 4494 
z
" transform="scale(0.015625)"/>
       <path id="DejaVuSans-61" d="M 2194 1759 
Q 1497 1759 1228 1600 
Q 959 1441 959 1056 
Q 959 750 1161 570 
Q 1363 391 1709 391 
Q 2188 391 2477 730 
Q 2766 1069 2766 1631 
L 2766 1759 
L 2194 1759 
z
M 3341 1997 
L 3341 0 
L 2766 0 
L 2766 531 
Q 2569 213 2275 61 
Q 1981 -91 1556 -91 
Q 1019 -91 701 211 
Q 384 513 384 1019 
Q 384 1609 779 1909 
Q 1175 2209 1959 2209 
L 2766 2209 
L 2766 2266 
Q 2766 2663 2505 2880 
Q 2244 3097 1772 3097 
Q 1472 3097 1187 3025 
Q 903 2953 641 2809 
L 641 3341 
Q 956 3463 1253 3523 
Q 1550 3584 1831 3584 
Q 2591 3584 2966 3190 
Q 3341 2797 3341 1997 
z
" transform="scale(0.015625)"/>
       <path id="DejaVuSans-69" d="M 603 3500 
L 1178 3500 
L 1178 0 
L 603 0 
L 603 3500 
z
M 603 4863 
L 1178 4863 
L 1178 4134 
L 603 4134 
L 603 4863 
z
" transform="scale(0.015625)"/>
       <path id="DejaVuSans-28" d="M 1984 4856 
Q 1566 4138 1362 3434 
Q 1159 2731 1159 2009 
Q 1159 1288 1364 580 
Q 1569 -128 1984 -844 
L 1484 -844 
Q 1016 -109 783 600 
Q 550 1309 550 2009 
Q 550 2706 781 3412 
Q 1013 4119 1484 4856 
L 1984 4856 
z
" transform="scale(0.015625)"/>
       <path id="DejaVuSans-Oblique-6d" d="M 5747 2113 
L 5338 0 
L 4763 0 
L 5166 2094 
Q 5191 2228 5203 2325 
Q 5216 2422 5216 2491 
Q 5216 2772 5059 2928 
Q 4903 3084 4622 3084 
Q 4203 3084 3875 2770 
Q 3547 2456 3450 1953 
L 3066 0 
L 2491 0 
L 2900 2094 
Q 2925 2209 2937 2307 
Q 2950 2406 2950 2484 
Q 2950 2769 2794 2926 
Q 2638 3084 2363 3084 
Q 1938 3084 1609 2770 
Q 1281 2456 1184 1953 
L 800 0 
L 225 0 
L 909 3500 
L 1484 3500 
L 1375 2956 
Q 1609 3263 1923 3423 
Q 2238 3584 2597 3584 
Q 2978 3584 3223 3384 
Q 3469 3184 3519 2828 
Q 3781 3197 4126 3390 
Q 4472 3584 4856 3584 
Q 5306 3584 5551 3325 
Q 5797 3066 5797 2591 
Q 5797 2488 5784 2364 
Q 5772 2241 5747 2113 
z
" transform="scale(0.015625)"/>
       <path id="DejaVuSans-Oblique-6c" d="M 1172 4863 
L 1747 4863 
L 800 0 
L 225 0 
L 1172 4863 
z
" transform="scale(0.015625)"/>
       <path id="DejaVuSans-2212" d="M 678 2272 
L 4684 2272 
L 4684 1741 
L 678 1741 
L 678 2272 
z
" transform="scale(0.015625)"/>
       <path id="DejaVuSans-29" d="M 513 4856 
L 1013 4856 
Q 1481 4119 1714 3412 
Q 1947 2706 1947 2009 
Q 1947 1309 1714 600 
Q 1481 -109 1013 -844 
L 513 -844 
Q 928 -128 1133 580 
Q 1338 1288 1338 2009 
Q 1338 2731 1133 3434 
Q 928 4138 513 4856 
z
" transform="scale(0.015625)"/>
      </defs>
      <use xlink:href="#DejaVuSans-50" transform="translate(0 0.684375)"/>
      <use xlink:href="#DejaVuSans-72" transform="translate(60.302734 0.684375)"/>
      <use xlink:href="#DejaVuSans-65" transform="translate(101.416016 0.684375)"/>
      <use xlink:href="#DejaVuSans-79" transform="translate(162.939453 0.684375)"/>
      <use xlink:href="#DejaVuSans-20" transform="translate(222.119141 0.684375)"/>
      <use xlink:href="#DejaVuSans-43" transform="translate(253.90625 0.684375)"/>
      <use xlink:href="#DejaVuSans-6f" transform="translate(323.730469 0.684375)"/>
      <use xlink:href="#DejaVuSans-6e" transform="translate(384.912109 0.684375)"/>
      <use xlink:href="#DejaVuSans-63" transform="translate(448.291016 0.684375)"/>
      <use xlink:href="#DejaVuSans-65" transform="translate(503.271484 0.684375)"/>
      <use xlink:href="#DejaVuSans-6e" transform="translate(564.794922 0.684375)"/>
      <use xlink:href="#DejaVuSans-74" transform="translate(628.173828 0.684375)"/>
      <use xlink:href="#DejaVuSans-72" transform="translate(667.382812 0.684375)"/>
      <use xlink:href="#DejaVuSans-61" transform="translate(708.496094 0.684375)"/>
      <use xlink:href="#DejaVuSans-74" transform="translate(769.775391 0.684375)"/>
      <use xlink:href="#DejaVuSans-69" transform="translate(808.984375 0.684375)"/>
      <use xlink:href="#DejaVuSans-6f" transform="translate(836.767578 0.684375)"/>
      <use xlink:href="#DejaVuSans-6e" transform="translate(897.949219 0.684375)"/>
      <use xlink:href="#DejaVuSans-20" transform="translate(961.328125 0.684375)"/>
      <use xlink:href="#DejaVuSans-28" transform="translate(993.115234 0.684375)"/>
      <use xlink:href="#DejaVuSans-Oblique-6d" transform="translate(1032.128906 0.684375)"/>
      <use xlink:href="#DejaVuSans-Oblique-6c" transform="translate(1129.541016 0.684375)"/>
      <use xlink:href="#DejaVuSans-2212" transform="translate(1164.771927 38.965625) scale(0.7)"/>
      <use xlink:href="#DejaVuSans-31" transform="translate(1223.424271 38.965625) scale(0.7)"/>
      <use xlink:href="#DejaVuSans-29" transform="translate(1270.694779 0.684375)"/>
     </g>
    </g>
   </g>
   <g id="matplotlib.axis_2">
    <g id="ytick_1">
     <g id="line2d_4">
      <defs>
       <path id="m8bb6dfb700" d="M 0 0 
L -3.5 0 
" style="stroke: #000000; stroke-width: 0.8"/>
      </defs>
      <g>
       <use xlink:href="#m8bb6dfb700" x="46.2" y="282.344424" style="stroke: #000000; stroke-width: 0.8"/>
      </g>
     </g>
     <g id="text_5">
      <!-- $\mathdefault{10^{5}}$ -->
      <g transform="translate(21.6 286.143643) scale(0.1 -0.1)">
       <use xlink:href="#DejaVuSans-31" transform="translate(0 0.684375)"/>
       <use xlink:href="#DejaVuSans-30" transform="translate(63.623047 0.684375)"/>
       <use xlink:href="#DejaVuSans-35" transform="translate(128.203125 38.965625) scale(0.7)"/>
      </g>
     </g>
    </g>
    <g id="ytick_2">
     <g id="line2d_5">
      <g>
       <use xlink:href="#m8bb6dfb700" x="46.2" y="194.925716" style="stroke: #000000; stroke-width: 0.8"/>
      </g>
     </g>
     <g id="text_6">
      <!-- $\mathdefault{10^{6}}$ -->
      <g transform="translate(21.6 198.724935) scale(0.1 -0.1)">
       <use xlink:href="#DejaVuSans-31" transform="translate(0 0.765625)"/>
       <use xlink:href="#DejaVuSans-30" transform="translate(63.623047 0.765625)"/>
       <use xlink:href="#DejaVuSans-36" transform="translate(128.203125 39.046875) scale(0.7)"/>
      </g>
     </g>
    </g>
    <g id="ytick_3">
     <g id="line2d_6">
      <g>
       <use xlink:href="#m8bb6dfb700" x="46.2" y="107.507008" style="stroke: #000000; stroke-width: 0.8"/>
      </g>
     </g>
     <g id="text_7">
      <!-- $\mathdefault{10^{7}}$ -->
      <g transform="translate(21.6 111.306227) scale(0.1 -0.1)">
       <defs>
        <path id="DejaVuSans-37" d="M 525 4666 
L 3525 4666 
L 3525 4397 
L 1831 0 
L 1172 0 
L 2766 4134 
L 525 4134 
L 525 4666 
z
" transform="scale(0.015625)"/>
       </defs>
       <use xlink:href="#DejaVuSans-31" transform="translate(0 0.684375)"/>
       <use xlink:href="#DejaVuSans-30" transform="translate(63.623047 0.684375)"/>
       <use xlink:href="#DejaVuSans-37" transform="translate(128.203125 38.965625) scale(0.7)"/>
      </g>
     </g>
    </g>
    <g id="ytick_4">
     <g id="line2d_7">
      <g>
       <use xlink:href="#m8bb6dfb700" x="46.2" y="20.0883" style="stroke: #000000; stroke-width: 0.8"/>
      </g>
     </g>
     <g id="text_8">
      <!-- $\mathdefault{10^{8}}$ -->
      <g transform="translate(21.6 23.887519) scale(0.1 -0.1)">
       <defs>
        <path id="DejaVuSans-38" d="M 2034 2216 
Q 1584 2216 1326 1975 
Q 1069 1734 1069 1313 
Q 1069 891 1326 650 
Q 1584 409 2034 409 
Q 2484 409 2743 651 
Q 3003 894 3003 1313 
Q 3003 1734 2745 1975 
Q 2488 2216 2034 2216 
z
M 1403 2484 
Q 997 2584 770 2862 
Q 544 3141 544 3541 
Q 544 4100 942 4425 
Q 1341 4750 2034 4750 
Q 2731 4750 3128 4425 
Q 3525 4100 3525 3541 
Q 3525 3141 3298 2862 
Q 3072 2584 2669 2484 
Q 3125 2378 3379 2068 
Q 3634 1759 3634 1313 
Q 3634 634 3220 271 
Q 2806 -91 2034 -91 
Q 1263 -91 848 271 
Q 434 634 434 1313 
Q 434 1759 690 2068 
Q 947 2378 1403 2484 
z
M 1172 3481 
Q 1172 3119 1398 2916 
Q 1625 2713 2034 2713 
Q 2441 2713 2670 2916 
Q 2900 3119 2900 3481 
Q 2900 3844 2670 4047 
Q 2441 4250 2034 4250 
Q 1625 4250 1398 4047 
Q 1172 3844 1172 3481 
z
" transform="scale(0.015625)"/>
       </defs>
       <use xlink:href="#DejaVuSans-31" transform="translate(0 0.765625)"/>
       <use xlink:href="#DejaVuSans-30" transform="translate(63.623047 0.765625)"/>
       <use xlink:href="#DejaVuSans-38" transform="translate(128.203125 39.046875) scale(0.7)"/>
      </g>
     </g>
    </g>
    <g id="text_9">
     <!-- Predator Concentration ($ml^{-1}$) -->
     <g transform="translate(15.520313 225.078) rotate(-90) scale(0.1 -0.1)">
      <defs>
       <path id="DejaVuSans-64" d="M 2906 2969 
L 2906 4863 
L 3481 4863 
L 3481 0 
L 2906 0 
L 2906 525 
Q 2725 213 2448 61 
Q 2172 -91 1784 -91 
Q 1150 -91 751 415 
Q 353 922 353 1747 
Q 353 2572 751 3078 
Q 1150 3584 1784 3584 
Q 2172 3584 2448 3432 
Q 2725 3281 2906 2969 
z
M 947 1747 
Q 947 1113 1208 752 
Q 1469 391 1925 391 
Q 2381 391 2643 752 
Q 2906 1113 2906 1747 
Q 2906 2381 2643 2742 
Q 2381 3103 1925 3103 
Q 1469 3103 1208 2742 
Q 947 2381 947 1747 
z
" transform="scale(0.015625)"/>
      </defs>
      <use xlink:href="#DejaVuSans-50" transform="translate(0 0.684375)"/>
      <use xlink:href="#DejaVuSans-72" transform="translate(60.302734 0.684375)"/>
      <use xlink:href="#DejaVuSans-65" transform="translate(101.416016 0.684375)"/>
      <use xlink:href="#DejaVuSans-64" transform="translate(162.939453 0.684375)"/>
      <use xlink:href="#DejaVuSans-61" transform="translate(226.416016 0.684375)"/>
      <use xlink:href="#DejaVuSans-74" transform="translate(287.695312 0.684375)"/>
      <use xlink:href="#DejaVuSans-6f" transform="translate(326.904297 0.684375)"/>
      <use xlink:href="#DejaVuSans-72" transform="translate(388.085938 0.684375)"/>
      <use xlink:href="#DejaVuSans-20" transform="translate(429.199219 0.684375)"/>
      <use xlink:href="#DejaVuSans-43" transform="translate(460.986328 0.684375)"/>
      <use xlink:href="#DejaVuSans-6f" transform="translate(530.810547 0.684375)"/>
      <use xlink:href="#DejaVuSans-6e" transform="translate(591.992188 0.684375)"/>
      <use xlink:href="#DejaVuSans-63" transform="translate(655.371094 0.684375)"/>
      <use xlink:href="#DejaVuSans-65" transform="translate(710.351562 0.684375)"/>
      <use xlink:href="#DejaVuSans-6e" transform="translate(771.875 0.684375)"/>
      <use xlink:href="#DejaVuSans-74" transform="translate(835.253906 0.684375)"/>
      <use xlink:href="#DejaVuSans-72" transform="translate(874.462891 0.684375)"/>
      <use xlink:href="#DejaVuSans-61" transform="translate(915.576172 0.684375)"/>
      <use xlink:href="#DejaVuSans-74" transform="translate(976.855469 0.684375)"/>
      <use xlink:href="#DejaVuSans-69" transform="translate(1016.064453 0.684375)"/>
      <use xlink:href="#DejaVuSans-6f" transform="translate(1043.847656 0.684375)"/>
      <use xlink:href="#DejaVuSans-6e" transform="translate(1105.029297 0.684375)"/>
      <use xlink:href="#DejaVuSans-20" transform="translate(1168.408203 0.684375)"/>
      <use xlink:href="#DejaVuSans-28" transform="translate(1200.195312 0.684375)"/>
      <use xlink:href="#DejaVuSans-Oblique-6d" transform="translate(1239.208984 0.684375)"/>
      <use xlink:href="#DejaVuSans-Oblique-6c" transform="translate(1336.621094 0.684375)"/>
      <use xlink:href="#DejaVuSans-2212" transform="translate(1371.852005 38.965625) scale(0.7)"/>
      <use xlink:href="#DejaVuSans-31" transform="translate(1430.504349 38.965625) scale(0.7)"/>
      <use xlink:href="#DejaVuSans-29" transform="translate(1477.774857 0.684375)"/>
     </g>
    </g>
   </g>
   <g id="line2d_8">
    <path d="M 360.41054 126.900739 
L 364.188377 127.122387 
L 367.838245 127.120061 
L 371.355531 126.902168 
L 374.73626 126.478755 
L 378.10641 125.832335 
L 381.332485 124.987675 
L 384.411694 123.959209 
L 387.468621 122.706113 
L 390.49786 121.216967 
L 393.369179 119.557837 
L 396.20311 117.661642 
L 398.992385 115.518938 
L 401.610801 113.230583 
L 404.171951 110.701674 
L 406.665691 107.926357 
L 409.080098 104.900236 
L 411.401108 101.620834 
L 413.514249 98.254194 
L 415.510124 94.659415 
L 417.368729 90.842387 
L 418.989805 87.009434 
L 420.441598 82.996221 
L 421.639344 79.03212 
L 422.586606 75.157772 
L 423.325833 71.188024 
L 423.807921 67.372833 
L 424.046748 63.7451 
L 424.061019 60.331926 
L 423.852835 56.92797 
L 423.440723 53.778926 
L 422.802427 50.676607 
L 421.994268 47.855216 
L 420.967489 45.107689 
L 419.817442 42.65112 
L 418.466965 40.28378 
L 416.911601 38.017534 
L 415.148779 35.863398 
L 413.178044 33.831288 
L 411.001226 31.929796 
L 408.622544 30.166003 
L 406.048627 28.545348 
L 403.288442 27.071557 
L 400.353142 25.746626 
L 396.990871 24.479603 
L 393.457358 23.385966 
L 389.484236 22.397932 
L 385.363841 21.600132 
L 380.817797 20.946838 
L 375.857357 20.466403 
L 370.506214 20.183115 
L 364.800862 20.116361 
L 358.790106 20.280176 
L 352.533742 20.683192 
L 346.100534 21.328977 
L 339.565716 22.216653 
L 333.286964 23.289049 
L 327.0357 24.57768 
L 320.885169 26.076095 
L 315.13705 27.706 
L 309.804121 29.445733 
L 304.891484 31.277258 
L 300.398233 33.185563 
L 296.318842 35.158135 
L 292.644307 37.184511 
L 289.492104 39.168799 
L 286.68937 41.187873 
L 284.223302 43.236131 
L 282.080418 45.308752 
L 280.320337 47.310193 
L 278.831008 49.326889 
L 277.600196 51.355997 
L 276.615797 53.394978 
L 275.86593 55.441545 
L 275.320164 57.58699 
L 275.005211 59.736271 
L 274.908655 61.88737 
L 275.027834 64.131894 
L 275.377008 66.467683 
L 275.968874 68.892149 
L 276.814501 71.402232 
L 277.923307 73.994347 
L 279.354615 76.756073 
L 281.07815 79.589345 
L 283.164097 82.578173 
L 285.561407 85.623207 
L 288.349776 88.803315 
L 291.54578 92.103526 
L 295.068937 95.421341 
L 299.010377 98.822827 
L 303.272737 102.20242 
L 307.736559 105.461184 
L 312.490604 108.655294 
L 317.407892 111.686232 
L 322.348364 114.468546 
L 327.285119 116.993359 
L 332.195198 119.25242 
L 336.933378 121.19018 
L 341.605409 122.860431 
L 346.069432 124.223392 
L 350.439838 125.325481 
L 354.577308 126.144462 
L 358.602094 126.718331 
L 362.507354 127.050998 
L 366.287119 127.147996 
L 369.936186 127.016534 
L 373.450032 126.66553 
L 376.824751 126.105618 
L 380.057003 125.349122 
L 383.272201 124.36618 
L 386.337984 123.19771 
L 389.378167 121.797429 
L 392.26222 120.227406 
L 395.111421 118.424088 
L 397.91891 116.377855 
L 400.557955 114.184891 
L 403.143403 111.754067 
L 405.665741 109.07905 
L 408.113805 106.154803 
L 410.474444 102.978014 
L 412.631985 99.709024 
L 414.679817 96.210412 
L 416.599247 92.486617 
L 418.287881 88.738125 
L 419.81813 84.803311 
L 421.10199 80.906165 
L 422.194947 76.871117 
L 423.02875 72.940523 
L 423.611643 69.152181 
L 423.956318 65.539284 
L 424.080914 61.902044 
L 423.97746 58.491175 
L 423.671138 55.326252 
L 423.146217 52.198442 
L 422.449753 49.344484 
L 421.540281 46.555719 
L 420.502818 44.053457 
L 419.268237 41.633319 
L 417.831117 39.307541 
L 416.187774 37.087657 
L 414.336508 34.984247 
L 412.27782 33.006688 
L 410.014548 31.16295 
L 407.551938 29.459429 
L 404.897624 27.900841 
L 402.061527 26.490175 
L 398.797936 25.130318 
L 395.352838 23.94499 
L 391.745996 22.93158 
L 387.705267 22.027372 
L 383.226824 21.265583 
L 378.628287 20.706951 
L 373.629802 20.320716 
L 368.257653 20.129419 
L 362.550313 20.150852 
L 356.557803 20.397705 
L 350.340301 20.877594 
L 343.966129 21.59342 
L 337.509343 22.543992 
L 331.047145 23.724798 
L 324.915976 25.067207 
L 318.899285 26.612675 
L 313.29029 28.281876 
L 308.098977 30.054444 
L 303.328247 31.913427 
L 298.975493 33.844712 
L 295.033898 35.836522 
L 291.493503 37.879001 
L 288.465783 39.876234 
L 285.783122 41.906182 
L 283.432439 43.963535 
L 281.400089 46.043711 
L 279.741126 48.051121 
L 278.348401 50.0727 
L 277.209716 52.105725 
L 276.313039 54.147754 
L 275.64659 56.196579 
L 275.183559 58.343615 
L 274.946915 60.493759 
L 274.928102 62.738574 
L 275.129089 64.982536 
L 275.558403 67.316951 
L 276.228384 69.739169 
L 277.149788 72.246059 
L 278.378026 74.926122 
L 279.889841 77.681678 
L 281.751975 80.598072 
L 283.920179 83.57641 
L 286.471141 86.697482 
L 289.423588 89.948018 
L 292.703072 93.226296 
L 296.398336 96.601741 
L 300.417317 99.969962 
L 304.750109 103.310713 
L 309.386051 106.600197 
L 314.199933 109.739319 
L 319.052299 112.641025 
L 324.034285 115.359306 
L 328.883694 117.756549 
L 333.69674 119.892547 
L 338.455425 121.760993 
L 343.016891 123.316532 
L 347.492964 124.608235 
L 351.743538 125.607726 
L 355.887133 126.35603 
L 359.916042 126.855648 
L 363.693206 127.105986 
L 367.343038 127.133395 
L 370.860901 126.946168 
L 374.372705 126.534814 
L 377.744217 125.913056 
L 380.972113 125.093525 
L 384.181559 124.043959 
L 387.240334 122.808099 
L 390.271853 121.337045 
L 393.14582 119.69605 
L 395.982925 117.818747 
L 398.775981 115.695655 
L 401.398679 113.42668 
L 403.964872 110.917681 
L 406.464546 108.162704 
L 408.885938 105.157216 
L 411.215173 101.898567 
L 413.33753 98.551638 
L 415.344191 94.976226 
L 417.215423 91.177916 
L 418.850523 87.361852 
L 420.3186 83.364232 
L 421.534213 79.413349 
L 422.50084 75.549699 
L 423.262072 71.588475 
L 423.767597 67.778961 
L 424.031009 64.154135 
L 424.065698 60.513751 
L 423.869857 57.108755 
L 423.470193 53.957634 
L 422.845218 50.852114 
L 422.050157 48.026715 
L 421.037108 45.274176 
L 419.900212 42.812101 
L 418.563243 40.438441 
L 417.021627 38.165108 
L 415.272662 36.003184 
L 413.315743 33.962664 
L 411.152547 32.052234 
L 408.787131 30.279082 
L 406.225964 28.648759 
L 403.477861 27.165105 
L 400.553837 25.830231 
L 397.202731 24.552472 
L 393.679167 23.44826 
L 389.715291 22.449147 
L 385.602548 21.640699 
L 381.062902 20.976576 
L 376.107253 20.485337 
L 370.758985 20.191473 
L 365.054351 20.11456 
L 359.042006 20.26879 
L 352.781686 20.66292 
L 346.342195 21.300599 
L 339.798894 22.18099 
L 333.510143 23.247185 
L 327.247221 24.530331 
L 321.083615 26.023946 
L 315.321842 27.649843 
L 309.974965 29.386227 
L 305.048317 31.214952 
L 300.541166 33.120914 
L 296.448121 35.091524 
L 292.760277 37.116259 
L 289.595712 39.099226 
L 286.781044 41.117189 
L 284.303499 43.164519 
L 282.149615 45.236366 
L 280.379466 47.237196 
L 278.880516 49.253389 
L 277.640525 51.282092 
L 276.647383 53.320756 
L 275.889201 55.367085 
L 275.335186 57.512359 
L 275.012422 59.661541 
L 274.90848 61.812609 
L 275.020385 64.057169 
L 275.362433 66.393065 
L 275.94735 68.817714 
L 276.786237 71.328064 
L 277.888534 73.920535 
L 279.31338 76.682733 
L 281.030755 79.516589 
L 283.110684 82.506152 
L 285.502331 85.552066 
L 288.28525 88.73325 
L 291.476063 92.034766 
L 294.994434 95.354114 
L 298.931385 98.757441 
L 303.189665 102.139185 
L 307.649882 105.400395 
L 312.400682 108.597349 
L 317.315133 111.631509 
L 322.253192 114.417377 
L 327.187905 116.946089 
L 332.096269 119.209405 
L 336.833056 121.151663 
L 341.503943 122.826763 
L 345.967068 124.194774 
L 350.33677 125.302238 
L 354.473731 126.126732 
L 358.498165 126.706395 
L 362.403223 127.045122 
L 366.182928 127.148427 
L 369.832072 127.023496 
L 373.346128 126.679222 
L 376.721186 126.126208 
L 379.953905 125.376744 
L 383.169725 124.401237 
L 386.236268 123.240291 
L 389.277393 121.847914 
L 392.162546 120.285821 
L 395.013068 118.490773 
L 397.822132 116.453138 
L 400.462964 114.268684 
L 403.050517 111.846618 
L 405.575332 109.18057 
L 408.026311 106.265448 
L 410.390382 103.097868 
L 412.551768 99.837663 
L 414.604099 96.34773 
L 416.528796 92.632383 
L 418.223279 88.891583 
L 419.760323 84.963961 
L 421.051644 81.073014 
L 422.153177 77.04337 
L 422.996258 73.116982 
L 423.589052 69.331629 
L 423.959292 65.493753 
L 424.080983 61.856354 
L 423.97454 58.445621 
L 423.665193 55.281095 
L 423.137025 52.153958 
L 422.437357 49.300884 
L 421.524511 46.513253 
L 420.483804 44.012261 
L 419.245875 41.593603 
L 417.805331 39.269504 
L 416.158517 37.051485 
L 414.303771 34.950106 
L 412.241631 32.974724 
L 409.974974 31.133284 
L 407.509087 29.432153 
L 404.851645 27.876021 
L 402.012603 26.467845 
L 398.746069 25.110693 
L 395.298319 23.928044 
L 391.689143 22.917258 
L 387.646279 22.015785 
L 383.165997 21.256793 
L 378.566091 20.700796 
L 373.566647 20.317177 
L 368.194021 20.12843 
L 362.486738 20.152302 
L 356.494849 20.401449 
L 350.27854 20.883457 
L 343.90612 21.601213 
L 337.451608 22.553516 
L 330.992155 23.735855 
L 324.864005 25.079556 
L 318.85066 26.626154 
L 313.245129 28.296299 
L 308.057329 30.069656 
L 303.290113 31.929299 
L 298.940831 33.861135 
L 295.002637 35.853409 
L 291.465549 37.896274 
L 288.440895 39.893818 
L 285.761189 41.924027 
L 283.413344 43.981598 
L 281.383711 46.061955 
L 279.727233 48.069508 
L 278.336881 50.091203 
L 277.200458 52.12432 
L 276.305935 54.166421 
L 275.641534 56.215299 
L 275.180532 58.362371 
L 274.94581 60.512532 
L 274.92889 62.757349 
L 275.131661 65.001296 
L 275.562721 67.335677 
L 276.234405 69.757842 
L 277.15746 72.264659 
L 278.387348 74.944622 
L 279.900741 77.700051 
L 281.764426 80.616284 
L 283.934094 83.594427 
L 286.486473 86.715259 
L 289.440277 89.965504 
L 292.721016 93.243437 
L 296.417465 96.618468 
L 300.437527 99.986204 
L 304.7713 103.32639 
L 309.408129 106.615216 
L 314.222788 109.753591 
L 319.075817 112.654471 
L 324.05838 115.371821 
L 328.908265 117.768071 
L 333.721709 119.902989 
L 338.480726 121.770265 
L 343.042455 123.32458 
L 347.518739 124.614975 
L 351.769471 125.613118 
L 355.913181 126.359998 
L 359.942166 126.858121 
L 363.719368 127.10695 
L 367.369204 127.132795 
L 370.887039 126.943954 
L 374.39878 126.530879 
L 377.770196 125.907358 
L 380.997964 125.08603 
L 384.207241 124.034566 
L 387.265812 122.796786 
L 390.297078 121.323717 
L 393.170751 119.680701 
L 396.007504 117.801294 
L 398.800141 115.676017 
L 401.422364 113.404881 
L 401.540282 113.295993 
L 401.540282 113.295993 
" clip-path="url(#pb1dc15477c)" style="fill: none; stroke: #000000; stroke-width: 1.5; stroke-linecap: square"/>
   </g>
   <g id="line2d_9">
    <path d="M 360.41054 126.900739 
L 364.188377 127.122387 
L 367.838245 127.120061 
L 371.355531 126.902168 
L 374.73626 126.478755 
L 378.10641 125.832335 
L 381.332485 124.987675 
L 384.411694 123.959209 
L 387.468621 122.706113 
L 390.49786 121.216967 
L 393.369179 119.557837 
L 396.20311 117.661642 
L 398.992385 115.518938 
L 401.610801 113.230583 
L 404.171951 110.701674 
L 406.665691 107.926357 
L 409.080098 104.900236 
L 411.401108 101.620834 
L 413.514249 98.254194 
L 415.510124 94.659415 
L 417.368729 90.842387 
L 418.989805 87.009434 
L 420.441598 82.996221 
L 421.639344 79.03212 
L 422.586606 75.157772 
L 423.325833 71.188024 
L 423.807921 67.372833 
L 424.046748 63.7451 
L 424.061019 60.331926 
L 423.852835 56.92797 
L 423.440723 53.778926 
L 422.802427 50.676607 
L 421.994268 47.855216 
L 420.967489 45.107689 
L 419.817442 42.65112 
L 418.466965 40.28378 
L 416.911601 38.017534 
L 415.148779 35.863398 
L 413.178044 33.831288 
L 411.001226 31.929796 
L 408.622544 30.166003 
L 406.048627 28.545348 
L 403.288442 27.071557 
L 400.353142 25.746626 
L 396.990871 24.479603 
L 393.457358 23.385966 
L 389.484236 22.397932 
L 385.363841 21.600132 
L 380.817797 20.946838 
L 375.857357 20.466403 
L 370.506214 20.183115 
L 364.800862 20.116361 
L 358.790106 20.280176 
L 352.533742 20.683192 
L 346.100534 21.328977 
L 339.565716 22.216653 
L 333.286964 23.289049 
L 327.0357 24.57768 
L 320.885169 26.076095 
L 315.13705 27.706 
L 309.804121 29.445733 
L 304.891484 31.277258 
L 300.398233 33.185563 
L 296.318842 35.158135 
L 292.644307 37.184511 
L 289.492104 39.168799 
L 286.68937 41.187873 
L 284.223302 43.236131 
L 282.080418 45.308752 
L 280.320337 47.310193 
L 278.831008 49.326889 
L 277.600196 51.355997 
L 276.615797 53.394978 
L 275.86593 55.441545 
L 275.320164 57.58699 
L 275.005211 59.736271 
L 274.908655 61.88737 
L 275.027834 64.131894 
L 275.377008 66.467683 
L 275.968874 68.892149 
L 276.814501 71.402232 
L 277.923307 73.994347 
L 279.354615 76.756073 
L 281.07815 79.589345 
L 283.164097 82.578173 
L 285.561407 85.623207 
L 288.349776 88.803315 
L 291.54578 92.103526 
L 295.068937 95.421341 
L 299.010377 98.822827 
L 303.272737 102.20242 
L 307.736559 105.461184 
L 312.490604 108.655294 
L 317.407892 111.686232 
L 322.348364 114.468546 
L 327.285119 116.993359 
L 332.195198 119.25242 
L 336.933378 121.19018 
L 341.605409 122.860431 
L 346.069432 124.223392 
L 350.439838 125.325481 
L 354.577308 126.144462 
L 358.602094 126.718331 
L 362.507354 127.050998 
L 366.287119 127.147996 
L 369.936186 127.016534 
L 373.450032 126.66553 
L 376.824751 126.105618 
L 380.057003 125.349122 
L 383.272201 124.36618 
L 386.337984 123.19771 
L 389.378167 121.797429 
L 392.26222 120.227406 
L 395.111421 118.424088 
L 397.91891 116.377855 
L 400.557955 114.184891 
L 403.143403 111.754067 
L 405.665741 109.07905 
L 408.113805 106.154803 
L 410.474444 102.978014 
L 412.631985 99.709024 
L 414.679817 96.210412 
L 416.599247 92.486617 
L 418.287881 88.738125 
L 419.81813 84.803311 
L 421.10199 80.906165 
L 422.194947 76.871117 
L 423.02875 72.940523 
L 423.611643 69.152181 
L 423.956318 65.539284 
L 424.080914 61.902044 
L 423.97746 58.491175 
L 423.671138 55.326252 
L 423.146217 52.198442 
L 422.449753 49.344484 
L 421.540281 46.555719 
L 420.502818 44.053457 
L 419.268237 41.633319 
L 417.831117 39.307541 
L 416.187774 37.087657 
L 414.336508 34.984247 
L 412.27782 33.006688 
L 410.014548 31.16295 
L 407.551938 29.459429 
L 404.897624 27.900841 
L 402.061527 26.490175 
L 398.797936 25.130318 
L 395.352838 23.94499 
L 391.745996 22.93158 
L 387.705267 22.027372 
L 383.226824 21.265583 
L 378.628287 20.706951 
L 373.629802 20.320716 
L 368.257653 20.129419 
L 362.550313 20.150852 
L 356.557803 20.397705 
L 350.340301 20.877594 
L 343.966129 21.59342 
L 337.509343 22.543992 
L 331.047145 23.724798 
L 324.915976 25.067207 
L 318.899285 26.612675 
L 313.29029 28.281876 
L 308.098977 30.054444 
L 303.328247 31.913427 
L 298.975493 33.844712 
L 295.033898 35.836522 
L 291.493503 37.879001 
L 288.465783 39.876234 
L 285.783122 41.906182 
L 283.432439 43.963535 
L 281.400089 46.043711 
L 279.741126 48.051121 
L 278.348401 50.0727 
L 277.209716 52.105725 
L 276.313039 54.147754 
L 275.64659 56.196579 
L 275.183559 58.343615 
L 274.946915 60.493759 
L 274.928102 62.738574 
L 275.129089 64.982536 
L 275.558403 67.316951 
L 276.228384 69.739169 
L 277.149788 72.246059 
L 278.378026 74.926122 
L 279.889841 77.681678 
L 281.751975 80.598072 
L 283.920179 83.57641 
L 286.471141 86.697482 
L 289.423588 89.948018 
L 292.703072 93.226296 
L 296.398336 96.601741 
L 300.417317 99.969962 
L 304.750109 103.310713 
L 309.386051 106.600197 
L 314.199933 109.739319 
L 319.052299 112.641025 
L 324.034285 115.359306 
L 328.883694 117.756549 
L 333.69674 119.892547 
L 338.455425 121.760993 
L 343.016891 123.316532 
L 347.492964 124.608235 
L 351.743538 125.607726 
L 355.887133 126.35603 
L 359.916042 126.855648 
L 363.693206 127.105986 
L 367.343038 127.133395 
L 370.860901 126.946168 
L 374.372705 126.534814 
L 377.744217 125.913056 
L 380.972113 125.093525 
L 384.181559 124.043959 
L 387.240334 122.808099 
L 390.271853 121.337045 
L 393.14582 119.69605 
L 395.982925 117.818747 
L 398.775981 115.695655 
L 401.398679 113.42668 
L 403.964872 110.917681 
L 406.464546 108.162704 
L 408.885938 105.157216 
L 411.215173 101.898567 
L 413.33753 98.551638 
L 415.344191 94.976226 
L 417.215423 91.177916 
L 418.850523 87.361852 
L 420.3186 83.364232 
L 421.534213 79.413349 
L 422.50084 75.549699 
L 423.262072 71.588475 
L 423.767597 67.778961 
L 424.031009 64.154135 
L 424.065698 60.513751 
L 423.869857 57.108755 
L 423.470193 53.957634 
L 422.845218 50.852114 
L 422.050157 48.026715 
L 421.037108 45.274176 
L 419.900212 42.812101 
L 418.563243 40.438441 
L 417.021627 38.165108 
L 415.272662 36.003184 
L 413.315743 33.962664 
L 411.152547 32.052234 
L 408.787131 30.279082 
L 406.225964 28.648759 
L 403.477861 27.165105 
L 400.553837 25.830231 
L 397.202731 24.552472 
L 393.679167 23.44826 
L 389.715291 22.449147 
L 385.602548 21.640699 
L 381.062902 20.976576 
L 376.107253 20.485337 
L 370.758985 20.191473 
L 365.054351 20.11456 
L 359.042006 20.26879 
L 352.781686 20.66292 
L 346.342195 21.300599 
L 339.798894 22.18099 
L 333.510143 23.247185 
L 327.247221 24.530331 
L 321.083615 26.023946 
L 315.321842 27.649843 
L 309.974965 29.386227 
L 305.048317 31.214952 
L 300.541166 33.120914 
L 296.448121 35.091524 
L 292.760277 37.116259 
L 289.595712 39.099226 
L 286.781044 41.117189 
L 284.303499 43.164519 
L 282.149615 45.236366 
L 280.379466 47.237196 
L 278.880516 49.253389 
L 277.640525 51.282092 
L 276.647383 53.320756 
L 275.889201 55.367085 
L 275.335186 57.512359 
L 275.012422 59.661541 
L 274.90848 61.812609 
L 275.020385 64.057169 
L 275.362433 66.393065 
L 275.94735 68.817714 
L 276.786237 71.328064 
L 277.888534 73.920535 
L 279.31338 76.682733 
L 281.030755 79.516589 
L 283.110684 82.506152 
L 285.502331 85.552066 
L 288.28525 88.73325 
L 291.476063 92.034766 
L 294.994434 95.354114 
L 298.931385 98.757441 
L 303.189665 102.139185 
L 307.649882 105.400395 
L 312.400682 108.597349 
L 317.315133 111.631509 
L 322.253192 114.417377 
L 327.187905 116.946089 
L 332.096269 119.209405 
L 336.833056 121.151663 
L 341.503943 122.826763 
L 345.967068 124.194774 
L 350.33677 125.302238 
L 354.473731 126.126732 
L 358.498165 126.706395 
L 362.403223 127.045122 
L 366.182928 127.148427 
L 369.832072 127.023496 
L 373.346128 126.679222 
L 376.721186 126.126208 
L 379.953905 125.376744 
L 383.169725 124.401237 
L 386.236268 123.240291 
L 389.277393 121.847914 
L 392.162546 120.285821 
L 395.013068 118.490773 
L 397.822132 116.453138 
L 400.462964 114.268684 
L 403.050517 111.846618 
L 405.575332 109.18057 
L 408.026311 106.265448 
L 410.390382 103.097868 
L 412.551768 99.837663 
L 414.604099 96.34773 
L 416.528796 92.632383 
L 418.223279 88.891583 
L 419.760323 84.963961 
L 421.051644 81.073014 
L 422.153177 77.04337 
L 422.996258 73.116982 
L 423.589052 69.331629 
L 423.959292 65.493753 
L 424.080983 61.856354 
L 423.97454 58.445621 
L 423.665193 55.281095 
L 423.137025 52.153958 
L 422.437357 49.300884 
L 421.524511 46.513253 
L 420.483804 44.012261 
L 419.245875 41.593603 
L 417.805331 39.269504 
L 416.158517 37.051485 
L 414.303771 34.950106 
L 412.241631 32.974724 
L 409.974974 31.133284 
L 407.509087 29.432153 
L 404.851645 27.876021 
L 402.012603 26.467845 
L 398.746069 25.110693 
L 395.298319 23.928044 
L 391.689143 22.917258 
L 387.646279 22.015785 
L 383.165997 21.256793 
L 378.566091 20.700796 
L 373.566647 20.317177 
L 368.194021 20.12843 
L 362.486738 20.152302 
L 356.494849 20.401449 
L 350.27854 20.883457 
L 343.90612 21.601213 
L 337.451608 22.553516 
L 330.992155 23.735855 
L 324.864005 25.079556 
L 318.85066 26.626154 
L 313.245129 28.296299 
L 308.057329 30.069656 
L 303.290113 31.929299 
L 298.940831 33.861135 
L 295.002637 35.853409 
L 291.465549 37.896274 
L 288.440895 39.893818 
L 285.761189 41.924027 
L 283.413344 43.981598 
L 281.383711 46.061955 
L 279.727233 48.069508 
L 278.336881 50.091203 
L 277.200458 52.12432 
L 276.305935 54.166421 
L 275.641534 56.215299 
L 275.180532 58.362371 
L 274.94581 60.512532 
L 274.92889 62.757349 
L 275.131661 65.001296 
L 275.562721 67.335677 
L 276.234405 69.757842 
L 277.15746 72.264659 
L 278.387348 74.944622 
L 279.900741 77.700051 
L 281.764426 80.616284 
L 283.934094 83.594427 
L 286.486473 86.715259 
L 289.440277 89.965504 
L 292.721016 93.243437 
L 296.417465 96.618468 
L 300.437527 99.986204 
L 304.7713 103.32639 
L 309.408129 106.615216 
L 314.222788 109.753591 
L 319.075817 112.654471 
L 324.05838 115.371821 
L 328.908265 117.768071 
L 333.721709 119.902989 
L 338.480726 121.770265 
L 343.042455 123.32458 
L 347.518739 124.614975 
L 351.769471 125.613118 
L 355.913181 126.359998 
L 359.942166 126.858121 
L 363.719368 127.10695 
L 367.369204 127.132795 
L 370.887039 126.943954 
L 374.39878 126.530879 
L 377.770196 125.907358 
L 380.997964 125.08603 
L 384.207241 124.034566 
L 387.265812 122.796786 
L 390.297078 121.323717 
L 393.170751 119.680701 
L 396.007504 117.801294 
L 398.800141 115.676017 
L 401.422364 113.404881 
L 401.540282 113.295993 
L 401.540282 113.295993 
" clip-path="url(#pb1dc15477c)" style="fill: none; stroke-dasharray: 7.5,15; stroke-dashoffset: 0; stroke: #7f7f7f; stroke-width: 1.5"/>
   </g>
   <g id="line2d_10">
    <path d="M 58.076259 278.344364 
L 434.157809 278.344364 
" clip-path="url(#pb1dc15477c)" style="fill: none; stroke: #ff0000; stroke-width: 1.5; stroke-linecap: square"/>
   </g>
   <g id="line2d_11">
    <path d="M 64.194333 282.73432 
L 64.194333 12.88112 
" clip-path="url(#pb1dc15477c)" style="fill: none; stroke: #0000ff; stroke-width: 1.5; stroke-linecap: square"/>
   </g>
   <g id="patch_3">
    <path d="M 46.2 291.256 
L 46.2 7.2 
" style="fill: none; stroke: #000000; stroke-width: 0.8; stroke-linejoin: miter; stroke-linecap: square"/>
   </g>
   <g id="patch_4">
    <path d="M 442.075315 291.256 
L 442.075315 7.2 
" style="fill: none; stroke: #000000; stroke-width: 0.8; stroke-linejoin: miter; stroke-linecap: square"/>
   </g>
   <g id="patch_5">
    <path d="M 46.2 291.256 
L 442.075315 291.256 
" style="fill: none; stroke: #000000; stroke-width: 0.8; stroke-linejoin: miter; stroke-linecap: square"/>
   </g>
   <g id="patch_6">
    <path d="M 46.2 7.2 
L 442.075315 7.2 
" style="fill: none; stroke: #000000; stroke-width: 0.8; stroke-linejoin: miter; stroke-linecap: square"/>
   </g>
   <g id="text_10">
    <!-- t0 -->
    <g transform="translate(366.41054 120.900739) scale(0.1 -0.1)">
     <use xlink:href="#DejaVuSans-74"/>
     <use xlink:href="#DejaVuSans-30" transform="translate(39.208984 0)"/>
    </g>
   </g>
   <g id="text_11">
    <!-- tf -->
    <g transform="translate(407.540282 107.295993) scale(0.1 -0.1)">
     <defs>
      <path id="DejaVuSans-66" d="M 2375 4863 
L 2375 4384 
L 1825 4384 
Q 1516 4384 1395 4259 
Q 1275 4134 1275 3809 
L 1275 3500 
L 2222 3500 
L 2222 3053 
L 1275 3053 
L 1275 0 
L 697 0 
L 697 3053 
L 147 3053 
L 147 3500 
L 697 3500 
L 697 3744 
Q 697 4328 969 4595 
Q 1241 4863 1831 4863 
L 2375 4863 
z
" transform="scale(0.015625)"/>
     </defs>
     <use xlink:href="#DejaVuSans-74"/>
     <use xlink:href="#DejaVuSans-66" transform="translate(39.208984 0)"/>
    </g>
   </g>
  </g>
 </g>
 <defs>
  <clipPath id="pb1dc15477c">
   <rect x="46.2" y="7.2" width="395.875315" height="284.056"/>
  </clipPath>
 </defs>
</svg>
