<?xml version="1.0" encoding="UTF-8" standalone="no"?>
<!-- Created with Inkscape (http://www.inkscape.org/) -->

<svg
   width="400mm"
   height="300mm"
   viewBox="0 0 400 300"
   version="1.1"
   id="svg5"
   inkscape:version="1.1.1 (50ffc5b540, 2022-01-11)"
   sodipodi:docname="Experiments.svg"
   inkscape:export-filename="/home/sergio/work/Github/needle-finder/docs/Presentations/Svg_Files/Experiments.png"
   inkscape:export-xdpi="96"
   inkscape:export-ydpi="96"
   xmlns:inkscape="http://www.inkscape.org/namespaces/inkscape"
   xmlns:sodipodi="http://sodipodi.sourceforge.net/DTD/sodipodi-0.dtd"
   xmlns:xlink="http://www.w3.org/1999/xlink"
   xmlns="http://www.w3.org/2000/svg"
   xmlns:svg="http://www.w3.org/2000/svg">
  <sodipodi:namedview
     id="namedview7"
     pagecolor="#ffffff"
     bordercolor="#666666"
     borderopacity="1.0"
     inkscape:pageshadow="2"
     inkscape:pageopacity="1"
     inkscape:pagecheckerboard="0"
     inkscape:document-units="mm"
     showgrid="false"
     inkscape:zoom="0.5"
     inkscape:cx="759"
     inkscape:cy="504"
     inkscape:window-width="1299"
     inkscape:window-height="713"
     inkscape:window-x="67"
     inkscape:window-y="27"
     inkscape:window-maximized="1"
     inkscape:current-layer="layer1" />
  <defs
     id="defs2">
    <linearGradient
       inkscape:collect="always"
       id="linearGradient1132">
      <stop
         style="stop-color:#d40000;stop-opacity:1;"
         offset="0"
         id="stop1128" />
      <stop
         style="stop-color:#d40000;stop-opacity:0;"
         offset="1"
         id="stop1130" />
    </linearGradient>
    <marker
       style="overflow:visible"
       id="Arrow1Lstart"
       refX="0"
       refY="0"
       orient="auto"
       inkscape:stockid="Arrow1Lstart"
       inkscape:isstock="true">
      <path
         transform="matrix(0.8,0,0,0.8,10,0)"
         style="fill:context-stroke;fill-rule:evenodd;stroke:context-stroke;stroke-width:1pt"
         d="M 0,0 5,-5 -12.5,0 5,5 Z"
         id="path57923" />
    </marker>
    <linearGradient
       inkscape:collect="always"
       xlink:href="#linearGradient1132"
       id="linearGradient1134"
       x1="310.51956"
       y1="-26.902508"
       x2="0.19777539"
       y2="-0.56056011"
       gradientUnits="userSpaceOnUse"
       gradientTransform="translate(1.7881015,28.17159)" />
  </defs>
  <g
     inkscape:label="Layer 1"
     inkscape:groupmode="layer"
     id="layer1">
    <ellipse
       style="fill:none;stroke:#000000;stroke-width:1.65537;stroke-miterlimit:4;stroke-dasharray:none"
       id="path846"
       cx="149.64543"
       cy="131.95518"
       rx="24.172312"
       ry="24.228016" />
    <text
       xml:space="preserve"
       style="font-style:normal;font-weight:normal;font-size:10.5833px;line-height:1.25;font-family:sans-serif;fill:#000000;fill-opacity:1;stroke:none;stroke-width:0.264583"
       x="70.662025"
       y="49.569332"
       id="text3564"><tspan
         sodipodi:role="line"
         id="tspan3562"
         style="stroke-width:0.264583"
         x="70.662025"
         y="49.569332">        P.A.R.</tspan></text>
    <path
       fill="#000000"
       d="m 143.22916,130.71419 c -0.71801,0 -1.30623,0.56147 -1.30623,1.24684 0,0.68536 0.58822,1.24682 1.30623,1.24682 0.71802,0 1.30623,-0.56146 1.30623,-1.24682 0,-0.68537 -0.58821,-1.24684 -1.30623,-1.24684 z m 5.44721,0.3032 c -0.54091,-0.0281 -1.68845,2.19223 -1.71511,3.44642 -0.0211,0.98739 1.2096,1.73121 1.2341,2.71849 0.0273,1.10003 -0.90946,1.7927 -1.2233,3.08763 -0.14424,0.47024 0.25251,1.16327 0.48095,1.51986 0.18041,0.27728 0.38868,0.50651 0.59531,0.66322 -0.19634,-0.87868 -0.16554,-1.80309 -0.006,-2.66745 0.10393,-0.56321 0.44164,-1.02383 0.71659,-1.45454 0.27494,-0.43071 0.48228,-0.81756 0.45781,-1.21086 -0.0257,-0.41154 -0.33063,-0.79219 -0.70259,-1.2155 -0.37199,-0.42331 -0.8077,-0.88239 -0.90114,-1.50574 -0.0691,-0.52195 0.20759,-1.22279 0.40165,-1.73654 l 0.5288,0.21178 c -0.20804,0.48539 -0.35061,0.92108 -0.36279,1.44724 0.062,0.41376 0.39691,0.80368 0.77285,1.2315 0.37594,0.42785 0.79623,0.90051 0.83567,1.5348 0.0366,0.58889 -0.2558,1.08212 -0.54053,1.52817 -0.28476,0.44607 -0.56671,0.85887 -0.64158,1.26466 -0.1779,0.96413 -0.17815,1.99481 0.12501,2.90223 0.10332,0.30932 0.30054,0.69518 0.53314,1.08374 a 2.0523131,1.9589843 0 0 0 0.0875,-0.23988 c 0.0829,-0.28836 0.0755,-0.60109 -0.0181,-0.73296 l 0.47464,-0.30726 c 0.26042,0.36653 0.2025,0.81645 0.0965,1.1851 -0.053,0.18428 -0.12375,0.35133 -0.20145,0.48802 -0.0302,0.0531 -0.0613,0.10144 -0.0955,0.14619 a 12.778228,12.197139 0 0 0 0.19298,0.27764 11.987161,11.442046 0 0 0 0.36013,0.47583 h 1.04101 c 0.35226,-1.2668 -1.79668,-2.94823 -1.80502,-4.47314 -0.007,-1.26818 1.27564,-2.39675 1.10755,-3.65476 -0.13342,-0.99862 -1.3081,-1.63423 -1.61389,-2.59767 -0.34606,-1.0904 0.26567,-3.32557 -0.18985,-3.41319 a 0.17675546,0.16871752 0 0 0 -0.0254,-0.003 z m -4.71445,0.94364 c 0,0.38955 -0.32464,0.69943 -0.73276,0.69943 -0.40812,0 -0.73277,-0.30987 -0.73277,-0.69943 0,-0.004 2.5e-4,-0.008 3.3e-4,-0.0113 0.0891,0.0615 0.19766,0.0984 0.31429,0.0984 0.29572,0 0.54161,-0.23471 0.54161,-0.51698 0,-0.0979 -0.0301,-0.18976 0.1384,-0.21877 0.16847,-0.0291 0.47091,0.27268 0.47091,0.64862 z m 7.88481,0.5267 c -0.57726,0 -1.05136,0.45257 -1.05136,1.00355 0,0.55104 0.4741,1.00355 1.05136,1.00355 0.57729,0 1.05135,-0.45251 1.05135,-1.00355 0,-0.55098 -0.47406,-1.00355 -1.05135,-1.00355 z m 0.16932,0.57659 c 0.1816,0.0641 0.30856,0.22905 0.30856,0.42696 0,0.25517 -0.21055,0.45616 -0.47788,0.45616 -0.24765,0 -0.44619,-0.17261 -0.47417,-0.40085 0.0542,0.0209 0.11291,0.0329 0.17417,0.0329 0.25867,0 0.47448,-0.20602 0.47448,-0.45291 0,-0.0212 -0.002,-0.0418 -0.005,-0.0623 z m -1.18883,1.36968 c -0.29572,0 -0.5416,0.23471 -0.5416,0.51698 0,0.28231 0.24588,0.51699 0.5416,0.51699 0.29576,0 0.54161,-0.23468 0.54161,-0.51699 0,-0.28227 -0.24585,-0.51698 -0.54161,-0.51698 z m 2.12974,0.73551 a 0.10838538,0.10345656 0 0 0 -0.019,7.5e-4 c -0.33461,0.0511 0.61604,2.18898 0.30809,3.22905 -0.17956,0.60648 -1.05063,0.89771 -1.18559,1.51469 -0.1562,0.71418 0.53993,1.40171 0.52275,2.13111 -0.0233,0.99405 -1.34567,2.07536 -0.72081,2.87089 0.16745,0.21316 0.37517,-0.0314 0.57567,-0.17345 a 9.7300882,9.2876137 0 0 0 0.43064,-0.39783 1.524468,1.4551429 0 0 1 -0.15411,-0.19183 1.6253983,1.5514834 0 0 1 -0.25465,-0.92509 l 0.5726,0.03 c -0.0145,0.25179 0.0663,0.4533 0.16452,0.59918 0.019,0.0283 0.0385,0.0532 0.058,0.0767 0.0521,-0.0613 0.10057,-0.12079 0.1405,-0.17565 0.19698,-0.27038 0.36109,-0.55228 0.36377,-0.7887 0.005,-0.42416 -0.29919,-0.86967 -0.63735,-1.35898 -0.33815,-0.48928 -0.71492,-1.03766 -0.60845,-1.69572 0.0643,-0.39796 0.37916,-0.62837 0.62476,-0.81646 0.24557,-0.1881 0.42966,-0.34529 0.47258,-0.49399 l 0.55287,0.14539 c -0.11007,0.38135 -0.42723,0.59218 -0.66661,0.77553 -0.23939,0.18335 -0.39334,0.32767 -0.41685,0.4731 -0.0664,0.41029 0.18765,0.82938 0.52033,1.31072 0.33267,0.48136 0.73964,1.00957 0.73218,1.66635 -0.005,0.44481 -0.25589,0.80632 -0.46635,1.09526 -0.25822,0.35446 -0.66698,0.75138 -1.04292,1.07726 -0.005,0.004 -0.009,0.007 -0.0128,0.0109 h 1.11271 c 0.29025,-0.10984 0.54977,-0.26263 0.73787,-0.4466 0.65891,-0.64441 0.37132,-1.75439 0.13728,-2.69821 -0.1383,-0.55767 -1.05709,-1.26404 -1.04103,-2.01183 0.0129,-0.6019 0.89712,-0.98324 0.90662,-1.58515 0.0188,-1.19453 -1.29508,-3.24085 -1.70716,-3.24787 z m -9.18352,0.15622 c -0.007,2.4e-4 -0.0127,7.5e-4 -0.0187,0.002 -0.33462,0.059 0.41219,1.51794 0.30801,2.27662 -0.0868,0.63235 -0.6951,1.13559 -0.76038,1.77028 -0.0849,0.82459 0.54447,1.61186 0.50035,2.43932 -0.055,1.03035 -1.61415,2.17257 -0.99618,2.97199 0.15182,-0.13325 0.33625,-0.30745 0.52808,-0.50557 0.42936,-0.44348 0.88858,-1.00735 1.07467,-1.40859 0.16506,-0.35589 0.20071,-0.79827 0.15401,-1.21885 -0.1304,-0.64428 -0.61365,-1.21347 -0.65455,-1.80599 -0.0343,-0.62943 0.29164,-1.13954 0.37925,-1.58439 0.0686,-0.34789 0.16385,-1.10675 0.16385,-1.10675 l 0.56949,0.0644 c 0,0 -0.0916,0.7469 -0.16974,1.14354 -0.11387,0.57803 -0.39245,1.04488 -0.37011,1.45478 0.0982,0.64587 0.57933,1.19337 0.65209,1.77671 0.0541,0.48697 0.0221,1.01951 -0.19985,1.49812 -0.24194,0.52165 -0.72592,1.09164 -1.178,1.55853 a 10.515357,10.037172 0 0 1 -0.44055,0.42897 c 0.57624,0.11137 1.37103,-0.18693 1.7824,-0.53583 0.91952,-0.77988 1.02683,-1.94646 0.66618,-3.31027 -0.23057,-0.87182 -0.70932,-1.4879 -0.65248,-2.271 0.0346,-0.47693 0.86664,-0.78231 0.59328,-1.31769 -0.44772,-0.87691 -1.52637,-2.34027 -1.93102,-2.32038 z m 12.09813,3.62929 c -0.24271,0 -0.46706,0.0803 -0.6457,0.21393 a 0.48642799,0.46430767 0 0 0 -0.16693,0.15564 c -0.14891,0.17328 -0.23873,0.39428 -0.23873,0.63397 0,0.55104 0.47414,1.00355 1.05136,1.00355 0.5773,0 1.05136,-0.45251 1.05136,-1.00355 0,-0.55097 -0.47406,-1.00354 -1.05136,-1.00354 z m 0.0613,0.55143 c 0.23744,0.0281 0.41658,0.21685 0.41658,0.45211 0,0.25517 -0.21055,0.45616 -0.47788,0.45616 -0.24987,0 -0.45007,-0.17565 -0.47515,-0.40695 0.0215,0.003 0.0434,0.005 0.0657,0.005 0.25863,0 0.47444,-0.206 0.47444,-0.4529 0,-0.0181 -10e-4,-0.0359 -0.004,-0.0534 z m -9.19801,2.1756 c -0.11705,1.40211 0.1887,2.60082 1.1154,3.47713 h 1.59994 a 13.767364,13.141294 0 0 1 -0.12171,-0.16671 c -0.40053,-0.55879 -0.81483,-1.22006 -1.05435,-1.8066 -0.54243,-0.13785 -0.97371,-0.59303 -1.3083,-1.1073 a 5.0940489,4.8623974 0 0 1 -0.23098,-0.39652 z"
       id="path6396"
       style="fill:#005500;stroke-width:0.0311265" />
    <path
       style="fill:url(#linearGradient1134);fill-opacity:1;stroke:#000000;stroke-width:1.2;stroke-linecap:butt;stroke-linejoin:miter;stroke-miterlimit:4;stroke-dasharray:none;stroke-opacity:1"
       d="M 1.9858769,27.611029 312.73063,28.488124 312.30767,1.2690752 Z"
       id="path881"
       sodipodi:nodetypes="cccc" />
    <ellipse
       style="fill:none;stroke:#000000;stroke-width:1.65537;stroke-miterlimit:4;stroke-dasharray:none"
       id="ellipse3679"
       cx="44.870667"
       cy="263.18692"
       rx="24.172312"
       ry="24.228016" />
    <path
       fill="#000000"
       d="m 35.185099,258.77333 c -0.957349,0 -1.741641,0.74864 -1.741641,1.66246 0,0.91381 0.784292,1.66244 1.741641,1.66244 0.957359,0 1.741641,-0.74863 1.741641,-1.66244 0,-0.91382 -0.784282,-1.66246 -1.741641,-1.66246 z m 7.262949,0.40426 c -0.721208,-0.0374 -2.251267,2.92299 -2.286817,4.59526 -0.0281,1.31653 1.6128,2.30829 1.645467,3.62468 0.0364,1.46672 -1.212608,2.39027 -1.631067,4.11686 -0.192312,0.62699 0.336688,1.55104 0.641267,2.02649 0.240552,0.36971 0.51824,0.67536 0.793752,0.8843 -0.261792,-1.17158 -0.220722,-2.40413 -0.008,-3.55662 0.138571,-0.75095 0.58885,-1.36512 0.955449,-1.93939 0.366589,-0.57429 0.643041,-1.09009 0.610421,-1.61449 -0.0342,-0.54873 -0.44085,-1.05627 -0.93679,-1.62069 -0.49599,-0.56441 -1.07693,-1.17651 -1.201521,-2.00766 -0.0921,-0.69594 0.276789,-1.63039 0.53553,-2.31539 l 0.705072,0.28236 c -0.277392,0.64719 -0.467483,1.22811 -0.48372,1.92967 0.0827,0.55168 0.52921,1.07159 1.03046,1.64201 0.50126,0.57047 1.06164,1.2007 1.114227,2.0464 0.0488,0.7852 -0.341059,1.44285 -0.720698,2.03759 -0.379679,0.59475 -0.755622,1.14516 -0.855452,1.68622 -0.237188,1.28551 -0.237528,2.65976 0.166691,3.86966 0.137761,0.41243 0.400709,0.92692 0.710851,1.44499 a 2.7364331,2.611994 0 0 0 0.116731,-0.31985 c 0.110527,-0.38446 0.100677,-0.80145 -0.0242,-0.97728 l 0.632857,-0.40968 c 0.347222,0.48871 0.269992,1.08862 0.128711,1.58015 -0.0707,0.24571 -0.164991,0.46844 -0.268599,0.6507 -0.0403,0.0708 -0.0817,0.13525 -0.12735,0.19491 a 17.037735,16.262945 0 0 0 0.257298,0.37019 15.982972,15.256148 0 0 0 0.480183,0.63445 h 1.388009 c 0.469679,-1.68908 -2.395572,-3.931 -2.406702,-5.96423 -0.009,-1.69092 1.700861,-3.19567 1.476742,-4.87303 -0.177901,-1.33151 -1.744141,-2.17899 -2.15186,-3.46359 -0.461409,-1.45387 0.354229,-4.43411 -0.253131,-4.55094 a 0.23567529,0.22495797 0 0 0 -0.0338,-0.004 z m -6.285929,1.2582 c 0,0.51941 -0.43286,0.93259 -0.97702,0.93259 -0.54416,0 -0.97702,-0.41318 -0.97702,-0.93259 0,-0.005 3.3e-4,-0.0101 4.4e-4,-0.0151 0.118771,0.082 0.263539,0.1312 0.41905,0.1312 0.394289,0 0.722151,-0.31296 0.722151,-0.6893 0,-0.13053 -0.0402,-0.25302 0.184528,-0.2917 0.224621,-0.0388 0.627881,0.36357 0.627881,0.86483 z m 10.513069,0.70228 c -0.769678,0 -1.401808,0.60342 -1.401808,1.33807 0,0.73473 0.63213,1.33807 1.401808,1.33807 0.769722,0 1.401813,-0.60334 1.401813,-1.33807 0,-0.73465 -0.632091,-1.33807 -1.401813,-1.33807 z m 0.225772,0.76879 c 0.242128,0.0856 0.411409,0.3054 0.411409,0.56928 0,0.34024 -0.280738,0.60822 -0.637181,0.60822 -0.330188,0 -0.59492,-0.23016 -0.63222,-0.53447 0.0722,0.0279 0.150541,0.0438 0.232231,0.0438 0.344889,0 0.632641,-0.27468 0.632641,-0.60387 0,-0.0282 -0.003,-0.0558 -0.007,-0.083 z m -1.58511,1.82625 c -0.394289,0 -0.722141,0.31295 -0.722141,0.68931 0,0.37641 0.327852,0.68932 0.722141,0.68932 0.394339,0 0.722148,-0.31291 0.722148,-0.68932 0,-0.37636 -0.327809,-0.68931 -0.722148,-0.68931 z m 2.839648,0.98068 a 0.14451466,0.13794286 0 0 0 -0.0253,8e-4 c -0.446153,0.0681 0.821381,2.91865 0.410779,4.30543 -0.239412,0.80865 -1.400841,1.19695 -1.58078,2.0196 -0.208271,0.95225 0.719899,1.86894 0.696999,2.84148 -0.0311,1.32542 -1.794229,2.76718 -0.961091,3.82788 0.223272,0.28422 0.500231,-0.0419 0.767562,-0.23126 a 12.973525,12.383555 0 0 0 0.57419,-0.53044 2.0326355,1.9402015 0 0 1 -0.20548,-0.25578 2.1672102,2.0686563 0 0 1 -0.33953,-1.23347 l 0.763469,0.04 c -0.0193,0.33573 0.0884,0.6044 0.219361,0.79892 0.0253,0.0377 0.0514,0.071 0.07731,0.10225 0.0694,-0.0817 0.134101,-0.16105 0.18733,-0.23419 0.262652,-0.36052 0.48146,-0.73639 0.485031,-1.05161 0.007,-0.56556 -0.398919,-1.15957 -0.849802,-1.81199 -0.45087,-0.65238 -0.95323,-1.38355 -0.81127,-2.26098 0.0858,-0.5306 0.505551,-0.83783 0.83302,-1.08861 0.327432,-0.2508 0.572884,-0.46039 0.630104,-0.65866 l 0.737168,0.19386 c -0.146759,0.50846 -0.569638,0.78957 -0.888819,1.03405 -0.319193,0.24446 -0.524453,0.43689 -0.555803,0.6308 -0.0885,0.54705 0.250201,1.10585 0.693774,1.74763 0.443559,0.64182 0.986189,1.34611 0.976249,2.2218 -0.007,0.59309 -0.341188,1.07512 -0.6218,1.46038 -0.3443,0.47261 -0.889313,1.00184 -1.390562,1.43635 -0.006,0.005 -0.0114,0.01 -0.0171,0.0146 h 1.483622 c 0.386989,-0.14647 0.733022,-0.35018 0.98382,-0.59547 0.878552,-0.85922 0.49509,-2.3392 0.183041,-3.59763 -0.184401,-0.74357 -1.409452,-1.6854 -1.388042,-2.68248 0.0172,-0.80251 1.196161,-1.31098 1.208831,-2.11353 0.0251,-1.59271 -1.726781,-4.32116 -2.276214,-4.33052 z m -12.244688,0.20829 c -0.009,3.2e-4 -0.017,8e-4 -0.025,0.003 -0.446159,0.0787 0.54959,2.02394 0.410679,3.03551 -0.11579,0.84315 -0.926799,1.51413 -1.013849,2.36039 -0.113121,1.09946 0.725968,2.14916 0.667141,3.25244 -0.07331,1.3738 -2.152201,2.89678 -1.328242,3.96267 0.202421,-0.17765 0.448329,-0.40991 0.704101,-0.67409 0.57249,-0.59131 1.184777,-1.34313 1.432899,-1.87812 0.220081,-0.47453 0.267622,-1.06437 0.205351,-1.62515 -0.173871,-0.85905 -0.818202,-1.61797 -0.872742,-2.40799 -0.0457,-0.83926 0.388853,-1.5194 0.50567,-2.11253 0.0914,-0.46386 0.218471,-1.47569 0.218471,-1.47569 l 0.759309,0.0858 c 0,0 -0.122158,0.99587 -0.226319,1.52474 -0.151821,0.7707 -0.52326,1.39318 -0.493479,1.93971 0.13096,0.86115 0.772438,1.59117 0.869458,2.36895 0.0722,0.64931 0.0295,1.35937 -0.266468,1.99751 -0.322592,0.69554 -0.967889,1.45554 -1.57067,2.07806 a 14.020556,13.382973 0 0 1 -0.58739,0.57197 c 0.768308,0.14848 1.828038,-0.24926 2.376528,-0.71446 1.226031,-1.03984 1.369102,-2.59528 0.888242,-4.41371 -0.307432,-1.16243 -0.945762,-1.98387 -0.869972,-3.02803 0.0461,-0.6359 1.155511,-1.04308 0.791042,-1.75693 -0.596961,-1.16922 -2.03517,-3.12037 -2.5747,-3.09385 z m 16.130839,4.83909 c -0.323609,0 -0.62275,0.107 -0.860929,0.28524 a 0.64857435,0.61908042 0 0 0 -0.222581,0.20753 c -0.198548,0.23104 -0.318299,0.5257 -0.318299,0.84529 0,0.73473 0.632181,1.33806 1.401809,1.33806 0.769732,0 1.401809,-0.60333 1.401809,-1.33806 0,-0.73464 -0.632077,-1.33806 -1.401809,-1.33806 z m 0.0817,0.73523 c 0.316587,0.0374 0.555449,0.28915 0.555449,0.60283 0,0.34024 -0.280742,0.60822 -0.637181,0.60822 -0.333159,0 -0.6001,-0.23421 -0.633531,-0.54261 0.0287,0.004 0.0579,0.007 0.0876,0.007 0.344843,0 0.632591,-0.27467 0.632591,-0.60387 0,-0.0241 -0.002,-0.0478 -0.005,-0.0712 z m -12.264012,2.90082 c -0.156071,1.86949 0.251601,3.46779 1.487199,4.63621 h 2.13325 a 18.356591,17.521825 0 0 1 -0.162267,-0.22228 c -0.534041,-0.74506 -1.08645,-1.62676 -1.405803,-2.40881 -0.723247,-0.18381 -1.298287,-0.79072 -1.744397,-1.47641 a 6.7921039,6.4832335 0 0 1 -0.307982,-0.52871 z"
       id="path3681"
       style="fill:#005500;stroke-width:0.0415023" />
    <rect
       style="fill:none;stroke:#000000;stroke-width:0.94814"
       id="rect3683"
       width="58.280388"
       height="86.114693"
       x="15.881196"
       y="209.38475"
       ry="4.9572654" />
    <text
       xml:space="preserve"
       style="font-style:normal;font-weight:normal;font-size:10.5833px;line-height:1.25;font-family:sans-serif;fill:#000000;fill-opacity:1;stroke:none;stroke-width:0.264583"
       x="26.100492"
       y="227.52025"
       id="text7541"><tspan
         sodipodi:role="line"
         id="tspan7539"
         style="stroke-width:0.264583"
         x="26.100492"
         y="227.52025">Control</tspan></text>
    <ellipse
       style="fill:none;stroke:#000000;stroke-width:1.65537;stroke-miterlimit:4;stroke-dasharray:none"
       id="ellipse8217"
       cx="103.07905"
       cy="263.18692"
       rx="24.172312"
       ry="24.228016" />
    <path
       fill="#000000"
       d="m 92.770545,255.06914 c -1.196686,0 -2.177051,0.9358 -2.177051,2.07808 0,1.14226 0.980365,2.07804 2.177051,2.07804 1.1967,0 2.177053,-0.93578 2.177053,-2.07804 0,-1.14228 -0.980353,-2.07808 -2.177053,-2.07808 z m 9.078695,0.50533 c -0.90151,-0.0467 -2.81409,3.65374 -2.858527,5.74407 -0.03513,1.64567 2.016007,2.88536 2.056837,4.53085 0.0455,1.8334 -1.515763,2.98785 -2.038837,5.14609 -0.24039,0.78372 0.42086,1.93878 0.801584,2.53311 0.300693,0.46214 0.647803,0.8442 0.992193,1.10536 -0.32724,-1.46446 -0.27591,-3.00516 -0.01,-4.44577 0.17321,-0.93869 0.73607,-1.70639 1.19432,-2.42424 0.45824,-0.71785 0.8038,-1.3626 0.76303,-2.01811 -0.0427,-0.68592 -0.55107,-1.32034 -1.171,-2.02585 -0.61999,-0.70553 -1.34617,-1.47065 -1.5019,-2.50959 -0.115129,-0.86992 0.34598,-2.03799 0.66941,-2.89424 l 0.88135,0.35296 c -0.34675,0.80898 -0.58436,1.53513 -0.60466,2.41208 0.10338,0.6896 0.66152,1.33949 1.28809,2.05251 0.62657,0.71309 1.32705,1.50088 1.39279,2.55801 0.061,0.9815 -0.42633,1.80355 -0.90088,2.54698 -0.4746,0.74345 -0.94453,1.43145 -1.06932,2.10779 -0.29649,1.60688 -0.29691,3.32468 0.20836,4.83707 0.1722,0.51554 0.50089,1.15865 0.88857,1.80624 a 3.4205425,3.2649936 0 0 0 0.14592,-0.39981 c 0.13815,-0.48058 0.12584,-1.00183 -0.0302,-1.2216 l 0.79107,-0.51212 c 0.43403,0.61089 0.33749,1.36079 0.16089,1.97519 -0.0884,0.30715 -0.20624,0.58556 -0.33575,0.81338 -0.0504,0.0885 -0.10212,0.16907 -0.15919,0.24365 a 21.297176,20.328688 0 0 0 0.32163,0.46274 19.978722,19.070192 0 0 0 0.60023,0.79305 h 1.73502 c 0.5871,-2.11135 -2.99448,-4.91376 -3.0084,-7.45528 -0.0112,-2.11365 2.12609,-3.9946 1.84595,-6.0913 -0.22238,-1.66439 -2.18019,-2.72374 -2.68985,-4.32948 -0.57676,-1.81734 0.44279,-5.54265 -0.31641,-5.68868 a 0.29459421,0.28119757 0 0 0 -0.0423,-0.005 z m -7.857419,1.57275 c 0,0.64926 -0.541075,1.16573 -1.221276,1.16573 -0.6802,0 -1.221275,-0.51647 -1.221275,-1.16573 0,-0.007 4.13e-4,-0.0126 5.5e-4,-0.0189 0.148464,0.1025 0.329424,0.16401 0.523814,0.16401 0.492861,0 0.902688,-0.3912 0.902688,-0.86165 0,-0.16315 -0.05025,-0.31626 0.23066,-0.36461 0.280777,-0.0485 0.784852,0.45446 0.784852,1.08103 z m 13.141379,0.87784 c -0.9621,0 -1.75227,0.75428 -1.75227,1.67259 0,0.91841 0.79017,1.67259 1.75227,1.67259 0.96216,0 1.75228,-0.75418 1.75228,-1.67259 0,-0.91831 -0.79012,-1.67259 -1.75228,-1.67259 z m 0.28222,0.96099 c 0.30266,0.10693 0.51426,0.38175 0.51426,0.7116 0,0.4253 -0.35092,0.76027 -0.79648,0.76027 -0.41274,0 -0.74365,-0.28769 -0.79028,-0.66808 0.0903,0.0349 0.18818,0.0548 0.29029,0.0548 0.43112,0 0.79081,-0.34335 0.79081,-0.75484 0,-0.0352 -0.004,-0.0698 -0.009,-0.10375 z m -1.9814,2.28283 c -0.49287,0 -0.90268,0.39117 -0.90268,0.86162 0,0.47051 0.40981,0.86165 0.90268,0.86165 0.49293,0 0.90269,-0.39114 0.90269,-0.86165 0,-0.47045 -0.40976,-0.86162 -0.90269,-0.86162 z m 3.54958,1.22585 a 0.18064339,0.17242864 0 0 0 -0.0316,8.3e-4 c -0.5577,0.0851 1.02673,3.64831 0.51347,5.38178 -0.29926,1.0108 -1.75106,1.49619 -1.97598,2.5245 -0.26034,1.1903 0.89988,2.33618 0.87125,3.55185 -0.0389,1.65678 -2.2428,3.45897 -1.20137,4.78485 0.27909,0.35528 0.62529,-0.0524 0.95946,-0.28907 a 16.216912,15.47945 0 0 0 0.71774,-0.66306 2.5407953,2.4252527 0 0 1 -0.25685,-0.31972 2.7090136,2.5858212 0 0 1 -0.42442,-1.54183 l 0.95435,0.05 c -0.0241,0.41966 0.1105,0.7555 0.2742,0.99864 0.0316,0.0472 0.0643,0.0888 0.0966,0.12782 0.0867,-0.10216 0.16763,-0.20132 0.23417,-0.29274 0.32831,-0.45065 0.60182,-0.92049 0.60629,-1.31451 0.009,-0.70695 -0.49866,-1.44947 -1.06226,-2.26499 -0.56359,-0.81547 -1.19155,-1.72944 -1.0141,-2.82622 0.10725,-0.66327 0.63195,-1.04729 1.04129,-1.36077 0.40929,-0.3135 0.7161,-0.5755 0.78763,-0.82333 l 0.92146,0.24233 c -0.18344,0.63558 -0.71205,0.98697 -1.11103,1.29255 -0.39899,0.30559 -0.65556,0.54612 -0.69475,0.7885 -0.11063,0.68383 0.31275,1.38233 0.86722,2.18455 0.55445,0.80228 1.23274,1.68264 1.22032,2.77726 -0.009,0.74136 -0.42649,1.34389 -0.77726,1.82546 -0.43037,0.59077 -1.11164,1.25231 -1.73821,1.79545 -0.007,0.007 -0.0142,0.0125 -0.0214,0.0183 h 1.85454 c 0.48374,-0.18308 0.91628,-0.43773 1.22978,-0.74434 1.0982,-1.07404 0.61887,-2.924 0.2288,-4.49705 -0.2305,-0.92945 -1.76182,-2.10675 -1.73506,-3.35309 0.0215,-1.00315 1.49521,-1.63873 1.51105,-2.64192 0.0314,-1.99089 -2.15849,-5.40144 -2.84529,-5.41315 z m -15.305915,0.26035 c -0.01125,4e-4 -0.02125,8.4e-4 -0.03125,0.003 -0.557699,0.0984 0.686988,2.52991 0.513349,3.79439 -0.144738,1.05393 -1.158499,1.89266 -1.267312,2.95048 -0.141402,1.37433 0.907461,2.68645 0.833926,4.06556 -0.09163,1.71725 -2.690252,3.62097 -1.660303,4.95334 0.253026,-0.22207 0.560413,-0.5124 0.880127,-0.84262 0.715613,-0.73913 1.480972,-1.67892 1.791124,-2.34766 0.275102,-0.59315 0.334528,-1.33045 0.256689,-2.03143 -0.217339,-1.07381 -1.022752,-2.02246 -1.090927,-3.00999 -0.05713,-1.04907 0.486065,-1.89925 0.632087,-2.64066 0.114251,-0.57984 0.273089,-1.84461 0.273089,-1.84461 l 0.949137,0.10726 c 0,0 -0.152698,1.24486 -0.2829,1.90593 -0.189776,0.96338 -0.654075,1.74148 -0.616848,2.42465 0.1637,1.07643 0.965548,1.98896 1.086823,2.96119 0.09025,0.81163 0.03687,1.69921 -0.333085,2.49688 -0.403241,0.86943 -1.209863,1.81943 -1.963339,2.59758 a 17.525701,16.728722 0 0 1 -0.734237,0.71495 c 0.960385,0.18561 2.285048,-0.31155 2.970661,-0.89305 1.532539,-1.29981 1.711378,-3.24412 1.110302,-5.51715 -0.38429,-1.45304 -1.182202,-2.47984 -1.087465,-3.78503 0.05763,-0.79489 1.44439,-1.30386 0.988803,-2.19617 -0.746201,-1.46153 -2.543963,-3.90047 -3.218376,-3.86732 z m 20.163625,6.04886 c -0.40451,0 -0.77844,0.13375 -1.07616,0.35655 a 0.81071822,0.77385078 0 0 0 -0.27823,0.25941 c -0.24818,0.2888 -0.39788,0.65714 -0.39788,1.05663 0,0.9184 0.79023,1.67257 1.75227,1.67257 0.96216,0 1.75227,-0.75417 1.75227,-1.67257 0,-0.9183 -0.79011,-1.67259 -1.75227,-1.67259 z m 0.10212,0.91905 c 0.39574,0.0467 0.69432,0.36142 0.69432,0.75354 0,0.42528 -0.35093,0.76026 -0.79648,0.76026 -0.41645,0 -0.75013,-0.29275 -0.79192,-0.67825 0.0359,0.005 0.0724,0.009 0.1095,0.009 0.43105,0 0.79075,-0.34335 0.79075,-0.75485 0,-0.0301 -0.002,-0.0598 -0.007,-0.089 z M 98.613346,273.349 c -0.195088,2.33688 0.314502,4.33475 1.859004,5.79528 h 2.66657 a 22.945747,21.902289 0 0 1 -0.20283,-0.27786 c -0.66755,-0.93132 -1.35807,-2.03344 -1.75726,-3.01102 -0.90407,-0.22975 -1.622869,-0.9884 -2.180506,-1.8455 a 8.4901325,8.1040445 0 0 1 -0.384978,-0.6609 z"
       id="path8219"
       style="fill:#005500;stroke-width:0.0518778" />
    <ellipse
       style="fill:none;stroke:#000000;stroke-width:1.65537;stroke-miterlimit:4;stroke-dasharray:none"
       id="ellipse8223"
       cx="161.28694"
       cy="263.18692"
       rx="24.172312"
       ry="24.228016" />
    <path
       fill="#000000"
       d="m 148.23958,250.83578 c -1.43602,0 -2.61246,1.12295 -2.61246,2.49369 0,1.3707 1.17644,2.49363 2.61246,2.49363 1.43604,0 2.61247,-1.12293 2.61247,-2.49363 0,-1.37074 -1.17643,-2.49369 -2.61247,-2.49369 z m 10.89442,0.60639 c -1.08181,-0.056 -3.3769,4.38447 -3.43022,6.89285 -0.0421,1.97479 2.4192,3.46241 2.4682,5.43699 0.0546,2.20006 -1.81891,3.58539 -2.4466,6.17526 -0.28847,0.94047 0.50503,2.32654 0.9619,3.03971 0.36082,0.55457 0.77735,1.01303 1.19063,1.32644 -0.3927,-1.75736 -0.33109,-3.60617 -0.012,-5.33491 0.20785,-1.1264 0.88327,-2.04765 1.43316,-2.90906 0.54989,-0.86142 0.96457,-1.63512 0.91564,-2.42172 -0.0513,-0.82309 -0.66127,-1.58439 -1.40519,-2.43102 -0.74398,-0.84661 -1.61539,-1.76476 -1.80228,-3.01147 -0.13815,-1.0439 0.41519,-2.44558 0.8033,-3.47307 l 1.0576,0.42355 c -0.41608,0.97077 -0.70123,1.84215 -0.72557,2.89448 0.12406,0.82752 0.79382,1.60736 1.54569,2.463 0.75189,0.8557 1.59246,1.80103 1.67134,3.06959 0.0732,1.1778 -0.51159,2.16425 -1.08105,3.05636 -0.56952,0.89213 -1.13343,1.71774 -1.28318,2.52932 -0.35578,1.92826 -0.35629,3.98961 0.25004,5.80445 0.20664,0.61865 0.60107,1.39037 1.06628,2.16748 a 4.1046267,3.9179691 0 0 0 0.17509,-0.47977 c 0.16579,-0.57669 0.15102,-1.20218 -0.0363,-1.46591 l 0.9493,-0.61453 c 0.52083,0.73306 0.40498,1.63292 0.19306,2.37021 -0.10608,0.36857 -0.24748,0.70266 -0.4029,0.97605 -0.0605,0.10619 -0.12255,0.20288 -0.19102,0.29237 a 25.55646,24.394281 0 0 0 0.38594,0.55529 23.974323,22.884093 0 0 0 0.72029,0.95165 h 2.082 c 0.70452,-2.5336 -3.59336,-5.89646 -3.61006,-8.94628 -0.0135,-2.53637 2.5513,-4.79349 2.21512,-7.30951 -0.26685,-1.99726 -2.61621,-3.26847 -3.22779,-5.19535 -0.69211,-2.18079 0.53134,-6.65114 -0.3797,-6.82638 a 0.35351095,0.33743507 0 0 0 -0.0506,-0.006 z m -9.42889,1.8873 c 0,0.7791 -0.64928,1.39886 -1.46553,1.39886 -0.81624,0 -1.46553,-0.61976 -1.46553,-1.39886 0,-0.009 4.9e-4,-0.0151 6.6e-4,-0.0227 0.17816,0.123 0.39531,0.19681 0.62858,0.19681 0.59143,0 1.08322,-0.46944 1.08322,-1.03396 0,-0.19578 -0.0602,-0.37953 0.27679,-0.43755 0.33694,-0.0582 0.94183,0.54537 0.94183,1.29724 z m 15.7696,1.05339 c -1.15451,0 -2.1027,0.90513 -2.1027,2.0071 0,1.10208 0.94819,2.0071 2.1027,2.0071 1.15459,0 2.10272,-0.90502 2.10272,-2.0071 0,-1.10197 -0.94813,-2.0071 -2.10272,-2.0071 z m 0.33866,1.15318 c 0.36319,0.12832 0.61711,0.4581 0.61711,0.85392 0,0.51035 -0.4211,0.91232 -0.95577,0.91232 -0.49528,0 -0.89237,-0.34522 -0.94834,-0.80169 0.10824,0.0419 0.22583,0.0657 0.34836,0.0657 0.51733,0 0.94896,-0.41203 0.94896,-0.9058 0,-0.0423 -0.005,-0.0838 -0.0108,-0.1245 z m -2.37767,2.73937 c -0.59143,0 -1.0832,0.46942 -1.0832,1.03396 0,0.5646 0.49177,1.03397 1.0832,1.03397 0.59152,0 1.08323,-0.46937 1.08323,-1.03397 0,-0.56454 -0.49171,-1.03396 -1.08323,-1.03396 z m 4.25948,1.47101 a 0.21677079,0.20691314 0 0 0 -0.0379,8.6e-4 c -0.66923,0.10212 1.23207,4.37795 0.61617,6.4581 -0.35912,1.21297 -2.10126,1.79542 -2.37117,3.02938 -0.31241,1.42837 1.07985,2.80341 1.0455,4.26221 -0.0467,1.98811 -2.69134,4.15074 -1.44163,5.74178 0.33491,0.42634 0.75034,-0.0629 1.15133,-0.34688 a 19.460178,18.575229 0 0 0 0.8613,-0.79567 3.0489362,2.9102859 0 0 1 -0.30823,-0.38366 3.250797,3.1029669 0 0 1 -0.50929,-1.85019 l 1.1452,0.06 c -0.0289,0.50359 0.1326,0.9066 0.32904,1.19837 0.0379,0.0566 0.0771,0.10656 0.11592,0.15337 0.10404,-0.12258 0.20115,-0.24157 0.281,-0.35128 0.39397,-0.54078 0.7222,-1.10458 0.72754,-1.5774 0.0108,-0.84834 -0.59838,-1.73936 -1.2747,-2.71797 -0.67631,-0.97856 -1.42984,-2.07532 -1.2169,-3.39145 0.12869,-0.79591 0.75832,-1.25674 1.24953,-1.63292 0.49114,-0.37619 0.85933,-0.69058 0.94516,-0.98798 l 1.10575,0.29079 c -0.22014,0.76269 -0.85446,1.18436 -1.33324,1.55106 -0.47878,0.36669 -0.78667,0.65533 -0.8337,0.9462 -0.13274,0.82058 0.3753,1.65877 1.04067,2.62143 0.66534,0.96273 1.47928,2.01916 1.46436,3.3327 -0.0108,0.88962 -0.51178,1.61265 -0.93269,2.19054 -0.51646,0.70891 -1.33397,1.50276 -2.08584,2.15451 -0.009,0.009 -0.0171,0.015 -0.0257,0.0219 h 2.22543 c 0.58048,-0.21969 1.09953,-0.52526 1.47573,-0.8932 1.31783,-1.28883 0.74263,-3.50878 0.27456,-5.39642 -0.2766,-1.11535 -2.11418,-2.52809 -2.08206,-4.02368 0.0258,-1.20377 1.79424,-1.96647 1.81325,-3.17029 0.0377,-2.38906 -2.59017,-6.48169 -3.41432,-6.49575 z m -18.36703,0.31244 c -0.0135,4.8e-4 -0.0255,8.6e-4 -0.0375,0.003 -0.66924,0.11807 0.82439,3.03588 0.61602,4.55324 -0.17369,1.26471 -1.3902,2.27118 -1.52077,3.54056 -0.16968,1.64918 1.08895,3.22372 1.0007,4.87864 -0.10992,2.06069 -3.22829,4.34514 -1.99236,5.94397 0.30364,-0.26648 0.67251,-0.61488 1.05616,-1.01113 0.85873,-0.88696 1.77716,-2.0147 2.14934,-2.81718 0.33013,-0.71178 0.40143,-1.59654 0.30803,-2.4377 -0.26081,-1.28857 -1.2273,-2.42694 -1.30911,-3.61198 -0.0685,-1.25887 0.58328,-2.27908 0.7585,-3.16877 0.1371,-0.69579 0.32771,-2.21352 0.32771,-2.21352 l 1.13896,0.12873 c 0,0 -0.18324,1.49381 -0.33948,2.28709 -0.22772,1.15606 -0.7849,2.08976 -0.74021,2.90956 0.19644,1.29172 1.15865,2.38674 1.30418,3.55341 0.10824,0.97395 0.0443,2.03904 -0.3997,2.99624 -0.48389,1.04331 -1.45184,2.18331 -2.35601,3.11708 a 21.030717,20.074347 0 0 1 -0.88108,0.85793 c 1.15246,0.22274 2.74206,-0.37387 3.56479,-1.07166 1.83905,-1.55975 2.05366,-3.89291 1.33237,-6.62054 -0.46116,-1.74363 -1.41865,-2.97578 -1.30496,-4.54201 0.0691,-0.95384 1.73326,-1.56462 1.18656,-2.63538 -0.89544,-1.75383 -3.05275,-4.68053 -3.86205,-4.64075 z m 24.19626,7.25859 c -0.48542,0 -0.93412,0.1605 -1.2914,0.42786 a 0.97285611,0.92861546 0 0 0 -0.33387,0.31128 c -0.29781,0.34656 -0.47745,0.78856 -0.47745,1.26794 0,1.10207 0.94828,2.00708 2.10272,2.00708 1.1546,0 2.10271,-0.90501 2.10271,-2.00708 0,-1.10195 -0.94811,-2.00708 -2.10271,-2.00708 z m 0.12256,1.10284 c 0.47487,0.0561 0.83316,0.43371 0.83316,0.90424 0,0.51034 -0.42111,0.91232 -0.95577,0.91232 -0.49974,0 -0.90015,-0.35131 -0.9503,-0.81391 0.0431,0.006 0.0869,0.0108 0.1314,0.0108 0.51727,0 0.94889,-0.412 0.94889,-0.9058 0,-0.0361 -0.003,-0.0718 -0.007,-0.10679 z m -18.39604,4.3512 c -0.23409,2.80423 0.37741,5.20166 2.2308,6.95428 h 3.19988 a 27.534733,26.282591 0 0 1 -0.2434,-0.33343 c -0.80106,-1.11757 -1.62968,-2.44011 -2.1087,-3.61319 -1.08487,-0.27571 -1.94744,-1.18607 -2.6166,-2.2146 a 10.188099,9.7247957 0 0 1 -0.46198,-0.79306 z"
       id="path8225"
       style="fill:#005500;stroke-width:0.062253" />
    <ellipse
       style="fill:none;stroke:#000000;stroke-width:1.65537;stroke-miterlimit:4;stroke-dasharray:none"
       id="ellipse8229"
       cx="219.49449"
       cy="263.18692"
       rx="24.172312"
       ry="24.228016" />
    <path
       fill="#000000"
       d="m 205.29618,246.60242 c -1.67536,0 -3.04787,1.31011 -3.04787,2.9093 0,1.59915 1.37251,2.90924 3.04787,2.90924 1.67538,0 3.04788,-1.31009 3.04788,-2.90924 0,-1.59919 -1.3725,-2.9093 -3.04788,-2.9093 z m 12.71016,0.70746 c -1.26212,-0.0654 -3.93972,5.11521 -4.00193,8.04165 -0.0491,2.30393 2.8224,4.03948 2.87957,6.34316 0.0637,2.56674 -2.12206,4.18295 -2.85437,7.20447 -0.33655,1.09721 0.5892,2.71429 1.12222,3.54633 0.42096,0.64699 0.90691,1.18187 1.38907,1.54751 -0.45815,-2.05025 -0.38627,-4.2072 -0.014,-6.22406 0.24249,-1.31414 1.03048,-2.38893 1.67202,-3.3939 0.64154,-1.005 1.12533,-1.90764 1.06825,-2.82535 -0.0598,-0.96027 -0.77149,-1.84845 -1.63939,-2.83618 -0.86798,-0.98772 -1.88462,-2.05889 -2.10266,-3.51339 -0.16118,-1.21788 0.48438,-2.85317 0.93718,-4.05191 l 1.23387,0.49414 c -0.48543,1.13257 -0.8181,2.14917 -0.8465,3.37689 0.14473,0.96544 0.92612,1.87526 1.8033,2.8735 0.87721,0.99832 1.85787,2.10121 1.9499,3.58119 0.0854,1.3741 -0.59685,2.52496 -1.26122,3.56576 -0.66445,1.04081 -1.32234,2.00402 -1.49705,2.95087 -0.41507,2.24964 -0.41567,4.65454 0.29172,6.77186 0.24108,0.72175 0.70124,1.6221 1.24399,2.52872 a 4.7887311,4.5709639 0 0 0 0.20427,-0.55973 c 0.19342,-0.6728 0.17619,-1.40254 -0.0423,-1.71023 l 1.10751,-0.71695 c 0.60764,0.85524 0.47248,1.90508 0.22524,2.76525 -0.12376,0.43 -0.28873,0.81977 -0.47005,1.13872 -0.0706,0.12389 -0.14298,0.23669 -0.22286,0.3411 a 29.81587,28.459994 0 0 0 0.45027,0.64784 27.970044,26.698109 0 0 0 0.84033,1.11026 h 2.42901 c 0.82194,-2.95587 -4.19226,-6.87921 -4.21174,-10.43733 -0.0157,-2.9591 2.97651,-5.5924 2.58431,-8.52776 -0.31133,-2.33014 -3.05225,-3.81322 -3.76576,-6.06124 -0.80746,-2.54426 0.6199,-7.75967 -0.44298,-7.96411 a 0.41242944,0.39367425 0 0 0 -0.0591,-0.007 z m -11.00038,2.20184 c 0,0.90895 -0.75749,1.63201 -1.70978,1.63201 -0.95228,0 -1.70979,-0.72306 -1.70979,-1.63201 0,-0.01 5.8e-4,-0.0176 7.7e-4,-0.0265 0.20786,0.1435 0.4612,0.22961 0.73335,0.22961 0.69,0 1.26376,-0.54768 1.26376,-1.20629 0,-0.22841 -0.0703,-0.44278 0.32292,-0.51047 0.39309,-0.0679 1.0988,0.63626 1.0988,1.51345 z m 18.39787,1.22896 c -1.34693,0 -2.45315,1.05599 -2.45315,2.34162 0,1.28576 1.10622,2.34161 2.45315,2.34161 1.34702,0 2.45318,-1.05585 2.45318,-2.34161 0,-1.28563 -1.10616,-2.34162 -2.45318,-2.34162 z m 0.39511,1.34538 c 0.42372,0.1497 0.71996,0.53445 0.71996,0.99624 0,0.59541 -0.49129,1.06437 -1.11507,1.06437 -0.57782,0 -1.0411,-0.40276 -1.10639,-0.93531 0.12628,0.0489 0.26346,0.0767 0.40642,0.0767 0.60355,0 1.10712,-0.4807 1.10712,-1.05677 0,-0.0493 -0.006,-0.0977 -0.0126,-0.14525 z m -2.77395,3.19593 c -0.69,0 -1.26374,0.54765 -1.26374,1.20628 0,0.65871 0.57374,1.2063 1.26374,1.2063 0.6901,0 1.26376,-0.54759 1.26376,-1.2063 0,-0.65863 -0.57366,-1.20628 -1.26376,-1.20628 z m 4.96939,1.71618 a 0.25289925,0.24139866 0 0 0 -0.0442,10e-4 c -0.78077,0.11914 1.43741,5.10761 0.71886,7.53445 -0.41897,1.41513 -2.45147,2.09466 -2.76637,3.53428 -0.36447,1.66643 1.25983,3.27064 1.21976,4.97257 -0.0545,2.31947 -3.1399,4.84253 -1.68191,6.69875 0.39073,0.49739 0.8754,-0.0734 1.34322,-0.4047 a 22.703541,21.6711 0 0 0 1.00485,-0.92828 3.5570922,3.3953336 0 0 1 -0.3596,-0.4476 3.7925965,3.6201281 0 0 1 -0.59417,-2.15855 l 1.33606,0.07 c -0.0337,0.58752 0.1547,1.05769 0.38388,1.39809 0.0442,0.0661 0.09,0.12432 0.13524,0.17894 0.12138,-0.14302 0.23468,-0.28184 0.32784,-0.40983 0.45963,-0.63091 0.84256,-1.28868 0.8488,-1.8403 0.0126,-0.98973 -0.69811,-2.02925 -1.48716,-3.17097 -0.78902,-1.14165 -1.66814,-2.4212 -1.41971,-3.95669 0.15014,-0.92856 0.88471,-1.4662 1.45778,-1.90507 0.573,-0.43889 1.00255,-0.80568 1.10269,-1.15265 l 1.29004,0.33926 c -0.25683,0.88981 -0.99687,1.38175 -1.55544,1.80957 -0.55858,0.42781 -0.91779,0.76455 -0.97266,1.1039 -0.15486,0.95734 0.43785,1.93523 1.21412,3.05834 0.77623,1.12318 1.72583,2.35568 1.70842,3.88814 -0.0126,1.0379 -0.59708,1.88143 -1.08814,2.55563 -0.60253,0.82707 -1.5563,1.75322 -2.43348,2.5136 -0.01,0.01 -0.0199,0.0175 -0.03,0.0256 h 2.59633 c 0.67723,-0.25631 1.28278,-0.61281 1.72169,-1.04207 1.53746,-1.50363 0.8664,-4.09358 0.32032,-6.29582 -0.3227,-1.30124 -2.46655,-2.94944 -2.42907,-4.6943 0.0301,-1.4044 2.09328,-2.29421 2.11545,-3.69867 0.044,-2.78723 -3.02186,-7.56197 -3.98337,-7.57837 z m -21.4282,0.36451 c -0.0158,5.6e-4 -0.0298,10e-4 -0.0437,0.004 -0.78079,0.13775 0.96178,3.54186 0.71869,5.31211 -0.20264,1.4755 -1.62191,2.64971 -1.77424,4.13066 -0.19796,1.92404 1.27045,3.761 1.16749,5.69174 -0.12824,2.40414 -3.76634,5.06933 -2.32442,6.93464 0.35424,-0.3109 0.78459,-0.71736 1.23218,-1.17966 1.00186,-1.03478 2.07336,-2.35048 2.50757,-3.28671 0.38515,-0.8304 0.46833,-1.86262 0.35936,-2.84398 -0.30427,-1.50333 -1.43184,-2.83143 -1.52729,-4.21397 -0.0799,-1.46869 0.68049,-2.65893 0.88492,-3.6969 0.15995,-0.81176 0.38232,-2.58244 0.38232,-2.58244 l 1.32879,0.15018 c 0,0 -0.21378,1.74278 -0.39606,2.66827 -0.26567,1.34874 -0.91571,2.43806 -0.86358,3.39449 0.22918,1.50701 1.35176,2.78453 1.52155,4.14565 0.12628,1.13627 0.0517,2.37888 -0.46632,3.49561 -0.56454,1.21719 -1.69381,2.54719 -2.74868,3.63659 a 24.535836,23.420071 0 0 1 -1.02793,1.00092 c 1.34454,0.25986 3.19907,-0.43618 4.15893,-1.25027 2.14556,-1.81971 2.39593,-4.54173 1.55443,-7.72396 -0.53802,-2.03424 -1.65509,-3.47175 -1.52245,-5.29901 0.0806,-1.11282 2.02213,-1.82539 1.38432,-3.07462 -1.04469,-2.04613 -3.56155,-5.46061 -4.50573,-5.4142 z m 28.22897,8.46835 c -0.56632,0 -1.08981,0.18725 -1.50663,0.49917 a 1.1349988,1.0833847 0 0 0 -0.38952,0.36317 c -0.34745,0.40432 -0.55702,0.91998 -0.55702,1.47926 0,1.28575 1.10632,2.34159 2.45317,2.34159 1.34703,0 2.45316,-1.05584 2.45316,-2.34159 0,-1.28561 -1.10613,-2.3416 -2.45316,-2.3416 z m 0.14298,1.28665 c 0.55402,0.0654 0.97203,0.506 0.97203,1.05495 0,0.5954 -0.4913,1.06437 -1.11507,1.06437 -0.58303,0 -1.05018,-0.40986 -1.10868,-0.94956 0.0503,0.007 0.10136,0.0126 0.1533,0.0126 0.60348,0 1.10704,-0.48067 1.10704,-1.05677 0,-0.0421 -0.003,-0.0837 -0.008,-0.12459 z m -21.46204,5.0764 c -0.27311,3.2716 0.44031,6.0686 2.6026,8.11333 h 3.73319 a 32.123855,30.663023 0 0 1 -0.28396,-0.389 c -0.93458,-1.30384 -1.9013,-2.8468 -2.46016,-4.21539 -1.26568,-0.32166 -2.27201,-1.38375 -3.0527,-2.5837 a 11.886115,11.345595 0 0 1 -0.53897,-0.92524 z"
       id="path8231"
       style="fill:#005500;stroke-width:0.0726285" />
    <ellipse
       style="fill:none;stroke:#000000;stroke-width:1.65537;stroke-miterlimit:4;stroke-dasharray:none"
       id="ellipse8686"
       cx="277.70267"
       cy="263.18692"
       rx="24.172312"
       ry="24.228016" />
    <path
       fill="#000000"
       d="m 263.50488,246.60242 c -1.67536,0 -3.04787,1.31011 -3.04787,2.9093 0,1.59915 1.37251,2.90924 3.04787,2.90924 1.67538,0 3.04788,-1.31009 3.04788,-2.90924 0,-1.59919 -1.3725,-2.9093 -3.04788,-2.9093 z m 12.71016,0.70746 c -1.26212,-0.0654 -3.93972,5.11521 -4.00193,8.04165 -0.0491,2.30393 2.8224,4.03948 2.87957,6.34316 0.0637,2.56674 -2.12206,4.18295 -2.85437,7.20447 -0.33655,1.09721 0.5892,2.71429 1.12222,3.54633 0.42096,0.64699 0.90691,1.18187 1.38907,1.54751 -0.45815,-2.05025 -0.38627,-4.2072 -0.014,-6.22406 0.24249,-1.31414 1.03048,-2.38893 1.67202,-3.3939 0.64154,-1.005 1.12533,-1.90764 1.06825,-2.82535 -0.0598,-0.96027 -0.77149,-1.84845 -1.63939,-2.83618 -0.86798,-0.98772 -1.88462,-2.05889 -2.10266,-3.51339 -0.16118,-1.21788 0.48438,-2.85317 0.93718,-4.05191 l 1.23387,0.49414 c -0.48543,1.13257 -0.8181,2.14917 -0.8465,3.37689 0.14473,0.96544 0.92612,1.87526 1.8033,2.8735 0.87721,0.99832 1.85787,2.10121 1.9499,3.58119 0.0854,1.3741 -0.59685,2.52496 -1.26122,3.56576 -0.66445,1.04081 -1.32234,2.00402 -1.49705,2.95087 -0.41507,2.24964 -0.41567,4.65454 0.29172,6.77186 0.24108,0.72175 0.70124,1.6221 1.24399,2.52872 a 4.7887311,4.5709639 0 0 0 0.20427,-0.55973 c 0.19342,-0.6728 0.17619,-1.40254 -0.0423,-1.71023 l 1.10751,-0.71695 c 0.60764,0.85524 0.47248,1.90508 0.22524,2.76525 -0.12376,0.43 -0.28873,0.81977 -0.47005,1.13872 -0.0706,0.12389 -0.14298,0.23669 -0.22286,0.3411 a 29.81587,28.459994 0 0 0 0.45027,0.64784 27.970044,26.698109 0 0 0 0.84033,1.11026 h 2.42901 c 0.82194,-2.95587 -4.19226,-6.87921 -4.21174,-10.43733 -0.0157,-2.9591 2.97651,-5.5924 2.58431,-8.52776 -0.31133,-2.33014 -3.05225,-3.81322 -3.76576,-6.06124 -0.80746,-2.54426 0.6199,-7.75967 -0.44298,-7.96411 a 0.41242944,0.39367425 0 0 0 -0.0591,-0.007 z m -11.00038,2.20184 c 0,0.90895 -0.75749,1.63201 -1.70978,1.63201 -0.95228,0 -1.70979,-0.72306 -1.70979,-1.63201 0,-0.01 5.8e-4,-0.0176 7.7e-4,-0.0265 0.20786,0.1435 0.4612,0.22961 0.73335,0.22961 0.69,0 1.26376,-0.54768 1.26376,-1.20629 0,-0.22841 -0.0703,-0.44278 0.32292,-0.51047 0.39309,-0.0679 1.0988,0.63626 1.0988,1.51345 z m 18.39787,1.22896 c -1.34693,0 -2.45315,1.05599 -2.45315,2.34162 0,1.28576 1.10622,2.34161 2.45315,2.34161 1.34702,0 2.45318,-1.05585 2.45318,-2.34161 0,-1.28563 -1.10616,-2.34162 -2.45318,-2.34162 z m 0.39511,1.34538 c 0.42372,0.1497 0.71996,0.53445 0.71996,0.99624 0,0.59541 -0.49129,1.06437 -1.11507,1.06437 -0.57782,0 -1.0411,-0.40276 -1.10639,-0.93531 0.12628,0.0489 0.26346,0.0767 0.40642,0.0767 0.60355,0 1.10712,-0.4807 1.10712,-1.05677 0,-0.0493 -0.006,-0.0977 -0.0126,-0.14525 z m -2.77395,3.19593 c -0.69,0 -1.26374,0.54765 -1.26374,1.20628 0,0.65871 0.57374,1.2063 1.26374,1.2063 0.6901,0 1.26376,-0.54759 1.26376,-1.2063 0,-0.65863 -0.57366,-1.20628 -1.26376,-1.20628 z m 4.96939,1.71618 a 0.25289925,0.24139866 0 0 0 -0.0442,10e-4 c -0.78077,0.11914 1.43741,5.10761 0.71886,7.53445 -0.41897,1.41513 -2.45147,2.09466 -2.76637,3.53428 -0.36447,1.66643 1.25983,3.27064 1.21976,4.97257 -0.0545,2.31947 -3.1399,4.84253 -1.68191,6.69875 0.39073,0.49739 0.8754,-0.0734 1.34322,-0.4047 a 22.703541,21.6711 0 0 0 1.00485,-0.92828 3.5570922,3.3953336 0 0 1 -0.3596,-0.4476 3.7925965,3.6201281 0 0 1 -0.59417,-2.15855 l 1.33606,0.07 c -0.0337,0.58752 0.1547,1.05769 0.38388,1.39809 0.0442,0.0661 0.09,0.12432 0.13524,0.17894 0.12138,-0.14302 0.23468,-0.28184 0.32784,-0.40983 0.45963,-0.63091 0.84256,-1.28868 0.8488,-1.8403 0.0126,-0.98973 -0.69811,-2.02925 -1.48716,-3.17097 -0.78902,-1.14165 -1.66814,-2.4212 -1.41971,-3.95669 0.15014,-0.92856 0.88471,-1.4662 1.45778,-1.90507 0.573,-0.43889 1.00255,-0.80568 1.10269,-1.15265 l 1.29004,0.33926 c -0.25683,0.88981 -0.99687,1.38175 -1.55544,1.80957 -0.55858,0.42781 -0.91779,0.76455 -0.97266,1.1039 -0.15486,0.95734 0.43785,1.93523 1.21412,3.05834 0.77623,1.12318 1.72583,2.35568 1.70842,3.88814 -0.0126,1.0379 -0.59708,1.88143 -1.08814,2.55563 -0.60253,0.82707 -1.5563,1.75322 -2.43348,2.5136 -0.01,0.01 -0.0199,0.0175 -0.03,0.0256 h 2.59633 c 0.67723,-0.25631 1.28278,-0.61281 1.72169,-1.04207 1.53746,-1.50363 0.8664,-4.09358 0.32032,-6.29582 -0.3227,-1.30124 -2.46655,-2.94944 -2.42907,-4.6943 0.0301,-1.4044 2.09328,-2.29421 2.11545,-3.69867 0.044,-2.78723 -3.02186,-7.56197 -3.98337,-7.57837 z m -21.4282,0.36451 c -0.0158,5.6e-4 -0.0298,10e-4 -0.0437,0.004 -0.78079,0.13775 0.96178,3.54186 0.71869,5.31211 -0.20264,1.4755 -1.62191,2.64971 -1.77424,4.13066 -0.19796,1.92404 1.27045,3.761 1.16749,5.69174 -0.12824,2.40414 -3.76634,5.06933 -2.32442,6.93464 0.35424,-0.3109 0.78459,-0.71736 1.23218,-1.17966 1.00186,-1.03478 2.07336,-2.35048 2.50757,-3.28671 0.38515,-0.8304 0.46833,-1.86262 0.35936,-2.84398 -0.30427,-1.50333 -1.43184,-2.83143 -1.52729,-4.21397 -0.0799,-1.46869 0.68049,-2.65893 0.88492,-3.6969 0.15995,-0.81176 0.38232,-2.58244 0.38232,-2.58244 l 1.32879,0.15018 c 0,0 -0.21378,1.74278 -0.39606,2.66827 -0.26567,1.34874 -0.91571,2.43806 -0.86358,3.39449 0.22918,1.50701 1.35176,2.78453 1.52155,4.14565 0.12628,1.13627 0.0517,2.37888 -0.46632,3.49561 -0.56454,1.21719 -1.69381,2.54719 -2.74868,3.63659 a 24.535836,23.420071 0 0 1 -1.02793,1.00092 c 1.34454,0.25986 3.19907,-0.43618 4.15893,-1.25027 2.14556,-1.81971 2.39593,-4.54173 1.55443,-7.72396 -0.53802,-2.03424 -1.65509,-3.47175 -1.52245,-5.29901 0.0806,-1.11282 2.02213,-1.82539 1.38432,-3.07462 -1.04469,-2.04613 -3.56155,-5.46061 -4.50573,-5.4142 z m 28.22897,8.46835 c -0.56632,0 -1.08981,0.18725 -1.50663,0.49917 a 1.1349988,1.0833847 0 0 0 -0.38952,0.36317 c -0.34745,0.40432 -0.55702,0.91998 -0.55702,1.47926 0,1.28575 1.10632,2.34159 2.45317,2.34159 1.34703,0 2.45316,-1.05584 2.45316,-2.34159 0,-1.28561 -1.10613,-2.3416 -2.45316,-2.3416 z m 0.14298,1.28665 c 0.55402,0.0654 0.97203,0.506 0.97203,1.05495 0,0.5954 -0.4913,1.06437 -1.11507,1.06437 -0.58303,0 -1.05018,-0.40986 -1.10868,-0.94956 0.0503,0.007 0.10136,0.0126 0.1533,0.0126 0.60348,0 1.10704,-0.48067 1.10704,-1.05677 0,-0.0421 -0.003,-0.0837 -0.008,-0.12459 z m -21.46204,5.0764 c -0.27311,3.2716 0.44031,6.0686 2.6026,8.11333 h 3.73319 a 32.123855,30.663023 0 0 1 -0.28396,-0.389 c -0.93458,-1.30384 -1.9013,-2.8468 -2.46016,-4.21539 -1.26568,-0.32166 -2.27201,-1.38375 -3.0527,-2.5837 a 11.886115,11.345595 0 0 1 -0.53897,-0.92524 z"
       id="path8688"
       style="fill:#005500;stroke-width:0.0726285" />
    <text
       xml:space="preserve"
       style="font-style:normal;font-weight:normal;font-size:10.5833px;line-height:1.25;font-family:sans-serif;fill:#000000;fill-opacity:1;stroke:none;stroke-width:0.264583"
       x="193.3163"
       y="227.52025"
       id="text15065"><tspan
         sodipodi:role="line"
         id="tspan15063"
         style="stroke-width:0.264583"
         x="193.3163"
         y="227.52025">Maximum</tspan></text>
    <rect
       style="fill:#000000;stroke:#000000;stroke-width:0.680259;stroke-miterlimit:4;stroke-dasharray:none"
       id="rect18359"
       width="3.4935539"
       height="26.423082"
       x="148.58002"
       y="59.492706"
       ry="0" />
    <path
       style="fill:#000000;stroke:#000000;stroke-width:0.985781;stroke-linecap:butt;stroke-linejoin:miter;stroke-miterlimit:4;stroke-dasharray:none;stroke-opacity:1;marker-start:url(#Arrow1Lstart)"
       d="m 149.8728,96.830488 0.5955,-12.114616"
       id="path18597"
       sodipodi:nodetypes="cc" />
    <rect
       style="fill:#000000;stroke:#000000;stroke-width:0.68026;stroke-miterlimit:4;stroke-dasharray:none"
       id="rect18919"
       width="3.4935598"
       height="26.423128"
       x="145.40508"
       y="165.32556"
       ry="0" />
    <path
       style="fill:#000000;stroke:#000000;stroke-width:0.985781;stroke-linecap:butt;stroke-linejoin:miter;stroke-miterlimit:4;stroke-dasharray:none;stroke-opacity:1;marker-start:url(#Arrow1Lstart)"
       d="m 146.69778,202.66432 0.5955,-12.11471"
       id="path18921"
       sodipodi:nodetypes="cc" />
    <rect
       style="fill:none;stroke:#000000;stroke-width:0.94814"
       id="rect21405"
       width="58.280388"
       height="86.114693"
       x="190.50545"
       y="209.38475"
       ry="4.9572654" />
    <text
       xml:space="preserve"
       style="font-style:normal;font-weight:normal;font-size:10.5833px;line-height:1.25;font-family:sans-serif;fill:#000000;fill-opacity:1;stroke:none;stroke-width:0.264583"
       x="31.607143"
       y="106.31779"
       id="text24599"><tspan
         sodipodi:role="line"
         id="tspan24597"
         style="stroke-width:0.264583"
         x="31.607143"
         y="106.31779">Ecosphere, t=1</tspan></text>
    <text
       xml:space="preserve"
       style="font-style:normal;font-weight:normal;font-size:10.5833px;line-height:1.25;font-family:sans-serif;fill:#000000;fill-opacity:1;stroke:none;stroke-width:0.264583"
       x="31.607143"
       y="190.3698"
       id="text26171"><tspan
         sodipodi:role="line"
         id="tspan26169"
         style="stroke-width:0.264583"
         x="31.607143"
         y="190.3698">Ecosphere, t=2</tspan></text>
    <g
       id="g38"
       transform="matrix(0.05705157,0,0,0.05705157,136.92918,31.578298)">
      <circle
         style="fill:#f7cf52"
         cx="219.097"
         cy="219.09599"
         r="108.313"
         id="circle2" />
      <rect
         x="211.60001"
         y="348.358"
         style="fill:#f7cf52"
         width="15"
         height="89.842003"
         id="rect4" />
      <rect
         x="211.60001"
         style="fill:#f7cf52"
         width="15"
         height="89.842003"
         id="rect6"
         y="0" />
      <rect
         x="88.442001"
         y="297.34201"
         transform="matrix(-0.7071,-0.7071,0.7071,-0.7071,-78.2323,652.1193)"
         style="fill:#f7cf52"
         width="15"
         height="89.841003"
         id="rect8" />
      <rect
         x="334.76501"
         y="51.011002"
         transform="matrix(-0.7071,-0.7071,0.7071,-0.7071,516.4483,405.7837)"
         style="fill:#f7cf52"
         width="15"
         height="89.841003"
         id="rect10" />
      <rect
         y="211.60001"
         style="fill:#f7cf52"
         width="89.842003"
         height="15"
         id="rect12"
         x="0" />
      <rect
         x="348.358"
         y="211.60001"
         style="fill:#f7cf52"
         width="89.842003"
         height="15"
         id="rect14" />
      <rect
         x="51.016998"
         y="88.435997"
         transform="matrix(-0.7071,-0.7071,0.7071,-0.7071,95.9381,231.6103)"
         style="fill:#f7cf52"
         width="89.841003"
         height="15"
         id="rect16" />
      <rect
         x="297.34201"
         y="334.758"
         transform="matrix(-0.7071,-0.7071,0.7071,-0.7071,342.2663,826.288)"
         style="fill:#f7cf52"
         width="89.841003"
         height="15"
         id="rect18" />
      <g
         id="g36">
        <rect
           x="257.72699"
           y="347.297"
           transform="matrix(-0.3826,-0.9239,0.9239,-0.3826,52.8494,744.91)"
           style="fill:#f4581b"
           width="35.174"
           height="15"
           id="rect20" />
        <rect
           x="145.30499"
           y="75.898003"
           transform="matrix(-0.3826,-0.9239,0.9239,-0.3826,148.1631,265.8043)"
           style="fill:#f4581b"
           width="35.174"
           height="15"
           id="rect22" />
        <rect
           x="155.38901"
           y="337.20801"
           transform="matrix(-0.9239,-0.3826,0.3826,-0.9239,177.6382,744.917)"
           style="fill:#f4581b"
           width="15"
           height="35.174"
           id="rect24" />
        <rect
           x="267.80499"
           y="65.809998"
           transform="matrix(-0.9239,-0.3826,0.3826,-0.9239,497.7542,265.7812)"
           style="fill:#f4581b"
           width="15"
           height="35.174"
           id="rect26" />
        <rect
           x="75.901001"
           y="257.716"
           transform="matrix(-0.3826,-0.9239,0.9239,-0.3826,-139.0446,457.6895)"
           style="fill:#f4581b"
           width="15"
           height="35.174"
           id="rect28" />
        <rect
           x="347.29599"
           y="145.3"
           transform="matrix(-0.3826,-0.9239,0.9239,-0.3826,340.0494,553.0082)"
           style="fill:#f4581b"
           width="15"
           height="35.174"
           id="rect30" />
        <rect
           x="65.814003"
           y="155.39"
           transform="matrix(-0.9239,-0.3826,0.3826,-0.9239,98.1324,345.2949)"
           style="fill:#f4581b"
           width="35.174"
           height="15"
           id="rect32" />
        <rect
           x="337.211"
           y="267.802"
           transform="matrix(-0.9239,-0.3826,0.3826,-0.9239,577.2684,665.4034)"
           style="fill:#f4581b"
           width="35.174"
           height="15"
           id="rect34" />
      </g>
    </g>
    <text
       xml:space="preserve"
       style="font-style:normal;font-weight:normal;font-size:14.1111px;line-height:1.25;font-family:sans-serif;fill:#000000;fill-opacity:1;stroke:none;stroke-width:0.264583"
       x="299.78143"
       y="40.58223"
       id="text4099"><tspan
         sodipodi:role="line"
         id="tspan4097"
         style="font-size:14.1111px;stroke-width:0.264583"
         x="299.78143"
         y="40.58223">+</tspan></text>
    <text
       xml:space="preserve"
       style="font-style:normal;font-weight:normal;font-size:21.4902px;line-height:1.25;font-family:sans-serif;fill:#000000;fill-opacity:1;stroke:none;stroke-width:0.402941"
       x="3.9711583"
       y="61.062096"
       id="text11431"
       transform="scale(1.5229272,0.6566302)"><tspan
         sodipodi:role="line"
         id="tspan11429"
         style="font-size:21.4902px;stroke-width:0.402941"
         x="3.9711583"
         y="61.062096">-</tspan></text>
    <rect
       style="fill:none;stroke:#000000;stroke-width:0.94814"
       id="rect16374"
       width="58.280388"
       height="86.114693"
       x="331.69949"
       y="99.509422"
       ry="4.9572654" />
    <text
       xml:space="preserve"
       style="font-style:normal;font-weight:normal;font-size:10.5833px;line-height:1.25;font-family:sans-serif;fill:#000000;fill-opacity:1;stroke:none;stroke-width:0.264583"
       x="338.91153"
       y="109.34155"
       id="text19568"><tspan
         sodipodi:role="line"
         id="tspan19566"
         style="stroke-width:0.264583"
         x="338.91153"
         y="109.34155" /><tspan
         sodipodi:role="line"
         style="stroke-width:0.264583"
         id="tspan19570"
         x="338.91153"
         y="122.57068">Biomass</tspan><tspan
         sodipodi:role="line"
         style="stroke-width:0.264583"
         x="338.91153"
         y="135.7998"
         id="tspan19572">O<tspan
   style="font-size:65%;baseline-shift:sub"
   id="tspan25046">2</tspan></tspan><tspan
         sodipodi:role="line"
         style="stroke-width:0.264583"
         x="338.91153"
         y="149.02893"
         id="tspan19574">CO<tspan
   style="font-size:65%;baseline-shift:sub"
   id="tspan27778">2</tspan></tspan><tspan
         sodipodi:role="line"
         style="stroke-width:0.264583"
         x="338.91153"
         y="162.25806"
         id="tspan19576">H<tspan
   style="font-size:65%;baseline-shift:sub"
   id="tspan31272">2</tspan>O</tspan><tspan
         sodipodi:role="line"
         style="stroke-width:0.264583"
         x="338.91153"
         y="175.48718"
         id="tspan19578">DOC</tspan></text>
    <text
       xml:space="preserve"
       style="font-style:normal;font-weight:normal;font-size:10.5833px;line-height:1.25;font-family:sans-serif;fill:#000000;fill-opacity:1;stroke:none;stroke-width:0.264583"
       x="336.27866"
       y="93.237129"
       id="text34263"><tspan
         sodipodi:role="line"
         id="tspan34261"
         style="stroke-width:0.264583"
         x="336.27866"
         y="93.237129">t=1, t=2</tspan></text>
  </g>
</svg>
