<?xml version="1.0" standalone="no"?>
<!DOCTYPE svg PUBLIC "-//W3C//DTD SVG 20010904//EN"
 "http://www.w3.org/TR/2001/REC-SVG-20010904/DTD/svg10.dtd">
<svg version="1.0" xmlns="http://www.w3.org/2000/svg"
 width="1156.000000pt" height="1280.000000pt" viewBox="0 0 1156.000000 1280.000000"
 preserveAspectRatio="xMidYMid meet">
<g transform="translate(0.000000,1280.000000) scale(0.100000,-0.100000)"
fill="#000000" stroke="none">
<path d="M4460 12087 c-685 -392 -1288 -738 -1340 -768 -57 -33 -100 -65 -107
-79 -13 -29 -23 -3059 -10 -3097 6 -15 297 -190 1018 -609 921 -536 1010 -590
1002 -608 -4 -12 -10 -1346 -13 -2966 -3 -1620 -6 -2946 -8 -2947 -1 -2 -39
-3 -85 -3 -74 0 -86 3 -104 22 -11 13 -240 313 -509 668 -1077 1423 -1540
2019 -1556 2002 -3 -4 -46 -106 -94 -227 -48 -121 -92 -225 -98 -232 -8 -8
-101 76 -366 334 -331 322 -406 391 -415 382 -3 -3 -1575 -3008 -1725 -3296
l-53 -103 27 -35 c21 -28 34 -35 60 -35 19 0 43 8 54 18 12 9 281 514 598
1122 1031 1972 1079 2063 1090 2067 14 5 654 -625 654 -645 0 -8 -211 -545
-470 -1193 -258 -648 -470 -1187 -470 -1199 0 -28 44 -70 73 -70 14 0 34 8 46
18 13 11 184 427 476 1162 251 630 461 1150 466 1155 7 7 356 -337 1035 -1016
l1024 -1026 0 -404 c0 -443 -1 -432 60 -464 25 -13 145 -15 884 -15 l855 0 36
21 c20 12 41 33 46 46 5 13 9 134 9 268 l0 243 918 819 c1157 1033 1401 1248
1416 1248 6 0 223 -495 481 -1100 313 -732 480 -1109 497 -1128 32 -32 56 -34
92 -6 18 14 26 30 26 51 0 17 -201 498 -479 1146 -263 614 -481 1126 -485
1138 -5 18 23 46 181 186 325 286 527 458 539 458 7 0 59 -80 116 -177 706
-1201 1555 -2633 1571 -2650 35 -39 98 -29 123 19 l15 29 -888 1505 c-488 827
-891 1504 -895 1504 -14 0 -369 -301 -717 -609 -57 -50 -108 -90 -114 -88 -5
1 -56 111 -112 242 -56 132 -112 262 -124 289 l-21 49 -31 -29 c-79 -73 -659
-774 -1536 -1853 -289 -355 -534 -655 -545 -666 -19 -20 -19 -20 -48 15 -28
35 -29 35 -122 38 -51 2 -96 7 -100 11 -4 4 -8 1331 -8 2950 l0 2944 1025 587
c564 323 1032 594 1041 601 9 7 20 23 24 35 5 12 10 711 11 1554 2 1491 1
1532 -17 1550 -17 17 -2632 1542 -2665 1555 -8 3 -569 -313 -1259 -708z
m-1564 -8789 c205 -261 1220 -1591 1258 -1650 22 -34 10 -36 -24 -5 -14 12
-348 347 -743 743 l-718 721 52 129 c28 71 55 139 60 152 5 12 12 22 17 22 5
0 49 -51 98 -112z m5841 -283 c63 -146 83 -203 76 -215 -5 -8 -124 -116 -264
-240 -140 -124 -553 -492 -919 -818 -366 -327 -674 -598 -684 -604 -16 -8 -18
-7 -13 6 10 25 1236 1528 1570 1924 71 84 134 151 139 150 5 -2 48 -93 95
-203z"/>
</g>
</svg>
